<?xml version="1.0" encoding="UTF-8"?>
<svg xmlns="http://www.w3.org/2000/svg" onmouseup="{ if(window.parent.document.onmouseup) window.parent.document.onmouseup(arguments[0]);}" xml:space="preserve" style="enable-background:new 0 0 300 300;" viewBox="0 0 300 300" y="0px" x="0px" id="Layer_1" version="1.1" xmlns:xlink="http://www.w3.org/1999/xlink"><style type="text/css">
	.st0{fill:#39B54A;}
	.st1{enable-background:new    ;}
	.st2{fill:#262626;}
</style><g><polygon data-cppathid="10000" points="4.69,153 40.66,142.72 7.42,125.69 44.73,122.52 15.49,99.43 52.71,103.5 28.6,75.22 64.3,86.4    46.24,54.01 79.04,71.84 67.73,36.6 96.38,60.4 92.24,23.66 115.64,52.53 118.85,15.7 136.1,48.51 146.52,13 156.94,48.51    174.19,15.7 177.39,52.53 200.79,23.66 196.66,60.4 225.31,36.6 214,71.84 246.8,54.01 228.74,86.4 264.43,75.22 240.33,103.5    277.54,99.43 248.3,122.52 285.61,125.69 252.36,142.72 288.33,153 252.36,163.29 285.61,180.32 248.3,183.49 277.54,206.58    240.33,202.51 264.43,230.78 228.74,219.61 246.8,252 214,234.17 225.31,269.41 196.66,245.61 200.79,282.35 177.39,253.48    174.19,290.31 156.94,257.5 146.52,293 136.1,257.5 118.85,290.31 115.64,253.48 92.24,282.35 96.38,245.61 67.73,269.41    79.04,234.17 46.24,252 64.3,219.61 28.6,230.78 52.71,202.51 15.49,206.58 44.73,183.49 7.42,180.32 40.66,163.29  " class="st0"/></g><g><polygon data-cppathid="10001" points="4.69,153 40.66,142.72 7.42,125.69 44.73,122.52 15.49,99.43 52.71,103.5 28.6,75.22 64.3,86.4    46.24,54.01 79.04,71.84 67.73,36.6 96.38,60.4 92.24,23.66 115.64,52.53 118.85,15.7 136.1,48.51 146.52,13 156.94,48.51    174.19,15.7 177.39,52.53 200.79,23.66 196.66,60.4 225.31,36.6 214,71.84 246.8,54.01 228.74,86.4 264.43,75.22 240.33,103.5    277.54,99.43 248.3,122.52 285.61,125.69 252.36,142.72 288.33,153 252.36,163.29 285.61,180.32 248.3,183.49 277.54,206.58    240.33,202.51 264.43,230.78 228.74,219.61 246.8,252 214,234.17 225.31,269.41 196.66,245.61 200.79,282.35 177.39,253.48    174.19,290.31 156.94,257.5 146.52,293 136.1,257.5 118.85,290.31 115.64,253.48 92.24,282.35 96.38,245.61 67.73,269.41    79.04,234.17 46.24,252 64.3,219.61 28.6,230.78 52.71,202.51 15.49,206.58 44.73,183.49 7.42,180.32 40.66,163.29  " class="st0"/></g><g><g><path data-cppathid="10002" d="M95.4,138.35l-2.84,9.35h-6.22l10.57-32.99h7.69l10.72,32.99h-6.46l-2.99-9.35H95.4z M104.85,133.79l-2.59-8.13    c-0.64-2.01-1.17-4.26-1.66-6.17h-0.1c-0.49,1.91-0.98,4.21-1.57,6.17l-2.55,8.13H104.85z"/><path data-cppathid="10003" d="M138.39,133.06h-12.43v9.69h13.9v4.94h-19.92V114.7h19.19v4.94h-13.17v8.52h12.43V133.06z"/><path data-cppathid="10004" d="M145.14,115.14c2.64-0.44,6.02-0.69,9.59-0.69c6.17,0,10.43,1.27,13.46,3.82c3.18,2.59,5.14,6.51,5.14,12.14    c0,5.87-2.01,10.28-5.14,13.12c-3.28,2.99-8.52,4.5-14.93,4.5c-3.52,0-6.17-0.2-8.13-0.44V115.14z M151.17,143.09    c0.83,0.15,2.1,0.15,3.33,0.15c7.83,0.05,12.48-4.26,12.48-12.63c0.05-7.29-4.16-11.45-11.7-11.45c-1.91,0-3.28,0.15-4.11,0.34    V143.09z"/><path data-cppathid="10005" d="M205.01,146.18c-2.1,0.78-6.22,1.86-10.62,1.86c-5.58,0-9.79-1.42-12.92-4.41c-2.94-2.79-4.65-7.15-4.6-12.14    c0-10.43,7.44-17.13,18.36-17.13c4.06,0,7.25,0.83,8.76,1.57l-1.32,4.85c-1.81-0.78-4.01-1.42-7.49-1.42    c-7.05,0-11.99,4.16-11.99,11.85c0,7.49,4.6,11.94,11.45,11.94c2.15,0,3.77-0.29,4.55-0.69v-8.22h-5.82v-4.75h11.65V146.18z"/></g><g class="st1"><path data-cppathid="10006" d="M81.85,167.1c1.54-0.33,3.63-0.54,5.71-0.54c3.25,0,5.8,0.46,7.63,2.17c1.67,1.46,2.42,3.79,2.42,6.17    c0,3.04-0.92,5.17-2.38,6.76c-1.75,1.83-4.59,2.67-6.84,2.67c-0.38,0-0.75,0-1.08,0v10.47h-5.46V167.1z M87.32,179.86    c0.25,0.08,0.54,0.08,0.88,0.08c2.75,0,4-1.96,4-4.59c0-2.46-1-4.38-3.54-4.38c-0.5,0-1,0.08-1.33,0.21V179.86z" class="st2"/><path data-cppathid="10007" d="M114.3,174.4c-0.08,1.83-0.21,4-0.21,6.46v11.63c0,4.38-0.79,6.8-2.46,8.38c-1.5,1.42-3.63,2.25-6.63,2.25    c-1.88,0-3.63-0.33-5.09-0.96l1-4.21c1.04,0.46,2.34,0.88,3.92,0.88c2.75,0,3.84-1.83,3.84-4.96v-1.25h-0.08    c-0.71,1.29-2.13,2.04-3.67,2.04c-4.59,0-6.38-5-6.38-9.88c0-6.8,3.09-10.72,6.88-10.72c1.63,0,2.96,0.83,3.75,2.38h0.08    l0.29-2.04H114.3z M108.67,181.82c0-0.54-0.08-1.08-0.21-1.5c-0.25-0.88-0.83-1.67-1.75-1.67c-1.96,0-2.75,2.67-2.75,6    c0,3.79,1.08,5.71,2.63,5.71c0.71,0,1.42-0.38,1.83-1.46c0.17-0.46,0.25-1.08,0.25-1.63V181.82z" class="st2"/><path data-cppathid="10008" d="M117.38,191.5c0-2.08,1.54-3.63,3.21-3.63c1.75,0,3.17,1.38,3.17,3.63c0,2.21-1.29,3.63-3.21,3.63    C118.84,195.13,117.38,193.71,117.38,191.5z" class="st2"/><path data-cppathid="10009" d="M148.12,167.69v3.59l-8.51,23.52h-5.34l8.34-22.23v-0.08h-9.26v-4.8H148.12z" class="st2"/><path data-cppathid="10010" d="M151.29,189.62c1.08,0.62,2.59,1.04,4.04,1.04c2.63,0,4.09-1.63,4.09-3.92c0-3-2.29-4.29-5.09-4.29h-0.75v-4    h0.54c2-0.04,4.59-0.88,4.59-3.5c0-1.96-1.25-3.13-3.17-3.13c-1.21,0-2.42,0.46-3.42,1.08l-0.71-4.13    c1.13-0.71,3.34-1.42,5.59-1.42c4.75,0,7.13,3.09,7.13,6.55c0,2.71-1.5,4.96-3.88,6.09v0.08c2.63,0.88,4.63,3.21,4.63,6.88    c0,4.13-3.17,8.17-9.05,8.17c-2.21,0-4.13-0.54-5.34-1.21L151.29,189.62z" class="st2"/><path data-cppathid="10011" d="M176.81,181.32v3.92h-8.3v-3.92H176.81z" class="st2"/><path data-cppathid="10012" d="M181.15,190.58c1.04,0,1.58-0.04,2.5-0.21c1.04-0.21,2.25-0.75,3.17-1.63c1.17-1.13,2.17-3.04,2.63-5.46    h-0.12c-0.88,0.96-2.13,1.67-3.88,1.67c-3.5,0-6.38-3.13-6.38-8.09c0-4.67,2.88-9.51,8.09-9.51c5.05,0,7.67,4.59,7.67,11.13    c0,6.13-1.96,10.43-4.46,13.09c-1.67,1.79-4.04,3-6.67,3.42c-0.88,0.12-1.71,0.12-2.54,0.12V190.58z M184.44,176.4    c0.04,2.63,0.88,4.8,2.54,4.8c0.96,0,1.79-0.71,2.09-1.42c0.21-0.54,0.25-1.08,0.25-2.88c0-3.59-1-5.59-2.46-5.59    C185.44,171.32,184.4,173.11,184.44,176.4z" class="st2"/><path data-cppathid="10013" d="M212.22,167.69v3.59l-8.51,23.52h-5.34l8.34-22.23v-0.08h-9.26v-4.8H212.22z" class="st2"/></g></g></svg>