<?xml version="1.0" encoding="UTF-8"?>
<svg xmlns="http://www.w3.org/2000/svg" onmouseup="{ if(window.parent.document.onmouseup) window.parent.document.onmouseup(arguments[0]);}" xml:space="preserve" style="enable-background:new 0 0 300 300;" viewBox="0 0 300 300" y="0px" x="0px" id="Layer_1" version="1.1" xmlns:xlink="http://www.w3.org/1999/xlink"><style type="text/css">
	.st0{fill:#39B54A;stroke:#39B54A;stroke-width:2.9911;stroke-miterlimit:10;}
	.st1{fill:#39B54A;}
</style><g><g><g><polygon data-cppathid="10000" points="233.09,107.44 60.75,74.45 59.81,79.31 88.38,84.77 88.38,101.41 93.32,101.41 93.32,85.72      232.17,112.29    " class="st0"/><polygon data-cppathid="10001" points="92.88,137.87 92.72,137.87 92.72,119.95 87.77,119.95 87.77,137.87 37.19,137.87 37.19,137.76      32.25,137.76 32.25,137.87 32.16,137.87 32.16,142.79 32.25,142.79 32.25,156.3 37.19,156.3 37.19,142.8 92.88,142.81    " class="st0"/><rect data-cppathid="10002" height="27.66" width="1.28" class="st1" y="151.96" x="34.31"/><rect data-cppathid="10003" height="27.66" width="1.27" class="st1" y="97.68" x="89.96"/><rect data-cppathid="10004" height="33.1" width="3.79" class="st1" y="108.27" x="216.98"/><polygon data-cppathid="10005" points="245.74,188.28 245.74,145.32 245.75,145.32 245.75,140.38 217.2,140.37 217.2,145.31 241.64,145.32      241.64,188.28 37.43,188.28 37.43,179.47 32.49,179.47 32.49,188.28 32.2,188.28 32.2,192.88 246,192.88 246,188.28    " class="st0"/></g></g><rect data-cppathid="10006" height="5.56" width="11.78" class="st1" y="162.28" x="23.17"/></g></svg>