<?xml version="1.0" encoding="UTF-8"?>
<svg xmlns="http://www.w3.org/2000/svg" onmouseup="{ if(window.parent.document.onmouseup) window.parent.document.onmouseup(arguments[0]);}" viewBox="0 0 260.83 121.67" data-name="Layer 1" id="Layer_1"><defs><style>.cls-1,.cls-2{fill:#39b54a;}.cls-1{stroke:#39b54a;stroke-miterlimit:10;stroke-width:2.99px;}</style></defs><title/><polygon data-cppathid="10000" points="209.92 34.74 37.58 1.75 36.64 6.6 65.2 12.07 65.2 28.71 70.15 28.71 70.15 13.02 209 39.59 209.92 34.74" class="cls-1"/><polygon data-cppathid="10001" points="69.71 65.17 69.55 65.17 69.55 47.25 64.6 47.25 64.6 65.17 14.02 65.16 14.02 65.06 9.08 65.06 9.08 65.16 8.98 65.16 8.98 70.09 9.08 70.09 9.08 83.59 14.02 83.59 14.02 70.09 69.71 70.11 69.71 65.17" class="cls-1"/><rect data-cppathid="10002" height="27.66" width="1.28" y="79.25" x="11.14" class="cls-2"/><rect data-cppathid="10003" height="27.66" width="1.27" y="24.98" x="66.79" class="cls-2"/><rect data-cppathid="10004" height="33.1" width="3.79" y="35.57" x="193.81" class="cls-2"/><polygon data-cppathid="10005" points="222.57 115.58 222.57 72.61 222.59 72.61 222.59 67.67 194.03 67.67 194.03 72.61 218.47 72.61 218.47 115.58 14.26 115.58 14.26 106.77 9.32 106.77 9.32 115.58 9.03 115.58 9.03 120.17 222.83 120.17 222.83 115.58 222.57 115.58" class="cls-1"/><rect data-cppathid="10006" height="5.56" width="11.78" y="89.57" class="cls-2"/><polygon data-cppathid="10007" points="159.72 62.23 230.07 62.23 230.07 49.39 159.72 49.39 163.05 41.54 129.22 55.81 163.05 70.08 159.72 62.23" class="cls-2"/><polygon data-cppathid="10008" points="260.83 89.47 227 75.2 230.33 83.05 159.98 83.05 159.98 95.89 230.33 95.89 227 103.74 260.83 89.47" class="cls-2"/></svg>