<?xml version="1.0" encoding="UTF-8"?>
<svg xmlns="http://www.w3.org/2000/svg" onmouseup="{ if(window.parent.document.onmouseup) window.parent.document.onmouseup(arguments[0]);}" xml:space="preserve" style="enable-background:new 0 0 300 300;" viewBox="0 0 300 300" y="0px" x="0px" id="Layer_1" version="1.1" xmlns:xlink="http://www.w3.org/1999/xlink"><style type="text/css">
	.st0{fill:none;stroke:#39B54A;stroke-width:10.8483;stroke-miterlimit:10;}
	.st1{fill:#39B54A;}
</style><path data-cppathid="10000" d="M48.92,45h108.21c10.16,0,18.47,8.31,18.47,18.47v48.03c0,10.16-8.31,18.47-18.47,18.47h-52.71L83.2,167.2  l-21.77-37.23H48.92c-10.16,0-18.47-8.31-18.47-18.47V63.47C30.44,53.31,38.76,45,48.92,45z" class="st0"/><path data-cppathid="10001" d="M264.49,102H142.73c-11.43,0-20.79,9.35-20.79,20.79v54.04c0,11.43,9.35,20.79,20.79,20.79h59.31l23.88,41.89  l24.49-41.89h14.08c11.43,0,20.79-9.35,20.79-20.79v-54.04C285.27,111.35,275.92,102,264.49,102z M227.41,172.44  c-0.15,0.23-0.31,0.46-0.47,0.69c-0.01,0.02-0.03,0.03-0.04,0.04c-0.01,0.02-0.02,0.04-0.04,0.07c-6.46,9.25-17.03,14.77-28.3,14.77  c-19.02,0-34.49-15.47-34.49-34.49c0-3.12,0.42-6.2,1.24-9.17l-5.75-3.38l17.3-9.82l-0.15,19.89l-5.41-3.18  c-0.38,1.85-0.58,3.74-0.58,5.66c0,15.35,12.49,27.84,27.84,27.84c9.09,0,17.63-4.46,22.84-11.92c0.01-0.01,0.02-0.03,0.03-0.04  c0.01-0.01,0.01-0.03,0.02-0.04c0.13-0.19,0.26-0.37,0.38-0.56c1.01-1.53,3.07-1.96,4.6-0.95  C227.99,168.84,228.42,170.9,227.41,172.44z M226.24,166.85l0.15-19.89l5.41,3.18c0.38-1.85,0.58-3.74,0.58-5.66  c0-15.35-12.49-27.84-27.84-27.84c-9.09,0-17.63,4.46-22.84,11.92c-1.05,1.51-3.12,1.87-4.63,0.82c-1.51-1.05-1.87-3.12-0.82-4.63  c6.46-9.25,17.03-14.77,28.3-14.77c19.02,0,34.49,15.47,34.49,34.49c0,3.12-0.42,6.2-1.24,9.17l5.75,3.38L226.24,166.85z" class="st1"/></svg>