<?xml version="1.0" encoding="UTF-8"?>
<svg xmlns="http://www.w3.org/2000/svg" onmouseup="{ if(window.parent.document.onmouseup) window.parent.document.onmouseup(arguments[0]);}" xml:space="preserve" style="enable-background:new 0 0 300 300;" viewBox="0 0 300 300" y="0px" x="0px" id="Layer_1" version="1.1" xmlns:xlink="http://www.w3.org/1999/xlink"><style type="text/css">
	.st0{fill:#39B54A;}
	.st1{enable-background:new    ;}
	.st2{fill:#262626;}
</style><g><polygon data-cppathid="10000" points="40.57,148 67.81,140.21 42.64,127.32 70.89,124.93 48.75,107.44 76.93,110.52 58.67,89.11 85.7,97.57    72.03,73.05 96.87,86.55 88.3,59.87 109.99,77.89 106.86,50.07 124.57,71.93 127.01,44.04 140.06,68.89 147.96,42 155.85,68.89    168.9,44.04 171.33,71.93 189.04,50.07 185.92,77.89 207.61,59.87 199.04,86.55 223.88,73.05 210.21,97.57 237.23,89.11    218.98,110.52 247.16,107.44 225.02,124.93 253.26,127.32 228.1,140.21 255.33,148 228.1,155.79 253.26,168.69 225.02,171.08    247.16,188.57 218.98,185.48 237.23,206.89 210.21,198.44 223.88,222.96 199.04,209.46 207.61,236.14 185.92,218.12 189.04,245.94    171.33,224.08 168.9,251.97 155.85,227.12 147.96,254 140.06,227.12 127.01,251.97 124.57,224.08 106.86,245.94 109.99,218.12    88.3,236.14 96.87,209.46 72.03,222.96 85.7,198.44 58.67,206.89 76.93,185.48 48.75,188.57 70.89,171.08 42.64,168.69    67.81,155.79  " class="st0"/></g><g><g><path data-cppathid="10001" d="M109.25,136.9l-2.15,7.08h-4.71L110.4,119h5.82l8.12,24.98h-4.89l-2.26-7.08H109.25z M116.41,133.46l-1.96-6.15    c-0.48-1.52-0.89-3.22-1.26-4.67h-0.07c-0.37,1.45-0.74,3.19-1.19,4.67l-1.93,6.15H116.41z"/><path data-cppathid="10002" d="M141.8,132.9h-9.41v7.34h10.53v3.74h-15.08V119h14.53v3.74h-9.97v6.45h9.41V132.9z"/><path data-cppathid="10003" d="M146.91,119.34c2-0.33,4.56-0.52,7.26-0.52c4.67,0,7.89,0.96,10.19,2.89c2.41,1.96,3.89,4.93,3.89,9.19    c0,4.45-1.52,7.78-3.89,9.93c-2.48,2.26-6.45,3.41-11.3,3.41c-2.67,0-4.67-0.15-6.15-0.33V119.34z M151.47,140.5    c0.63,0.11,1.59,0.11,2.52,0.11c5.93,0.04,9.45-3.22,9.45-9.56c0.04-5.52-3.15-8.67-8.86-8.67c-1.45,0-2.48,0.11-3.11,0.26V140.5z    "/><path data-cppathid="10004" d="M192.24,142.83c-1.59,0.59-4.71,1.41-8.04,1.41c-4.23,0-7.41-1.07-9.79-3.34c-2.22-2.11-3.52-5.41-3.48-9.19    c0-7.89,5.63-12.97,13.9-12.97c3.08,0,5.49,0.63,6.63,1.19l-1,3.67c-1.37-0.59-3.04-1.08-5.67-1.08c-5.34,0-9.08,3.15-9.08,8.97    c0,5.67,3.48,9.04,8.67,9.04c1.63,0,2.85-0.22,3.45-0.52v-6.23h-4.41v-3.6h8.82V142.83z"/></g><g class="st1"><path data-cppathid="10005" d="M98.99,158.68c1.17-0.25,2.75-0.41,4.33-0.41c2.46,0,4.39,0.35,5.78,1.64c1.26,1.1,1.83,2.87,1.83,4.67    c0,2.3-0.69,3.92-1.8,5.12c-1.33,1.39-3.47,2.02-5.18,2.02c-0.28,0-0.57,0-0.82,0v7.92h-4.14V158.68z M103.13,168.34    c0.19,0.06,0.41,0.06,0.66,0.06c2.08,0,3.03-1.48,3.03-3.47c0-1.86-0.76-3.31-2.68-3.31c-0.38,0-0.76,0.06-1.01,0.16V168.34z" class="st2"/><path data-cppathid="10006" d="M123.56,164.21c-0.06,1.39-0.16,3.03-0.16,4.89v8.81c0,3.31-0.6,5.15-1.86,6.35    c-1.14,1.07-2.75,1.71-5.02,1.71c-1.42,0-2.75-0.25-3.85-0.73l0.76-3.19c0.79,0.35,1.77,0.66,2.97,0.66c2.08,0,2.9-1.39,2.9-3.76    V178h-0.06c-0.54,0.98-1.61,1.55-2.78,1.55c-3.47,0-4.83-3.79-4.83-7.48c0-5.15,2.34-8.11,5.21-8.11c1.23,0,2.24,0.63,2.84,1.8    h0.06l0.22-1.55H123.56z M119.3,169.83c0-0.41-0.06-0.82-0.16-1.14c-0.19-0.66-0.63-1.26-1.33-1.26c-1.48,0-2.08,2.02-2.08,4.55    c0,2.87,0.82,4.33,1.99,4.33c0.54,0,1.07-0.28,1.39-1.1c0.13-0.35,0.19-0.82,0.19-1.23V169.83z" class="st2"/><path data-cppathid="10007" d="M125.9,177.15c0-1.58,1.17-2.75,2.43-2.75c1.33,0,2.4,1.04,2.4,2.75c0,1.67-0.98,2.75-2.43,2.75    C127,179.9,125.9,178.82,125.9,177.15z" class="st2"/><path data-cppathid="10008" d="M142.41,163.01h-0.06l-3.47,1.8l-0.69-3.25l4.7-2.43h3.63v20.52h-4.1V163.01z" class="st2"/><path data-cppathid="10009" d="M162.62,159.12v2.71l-6.44,17.81h-4.04l6.31-16.83v-0.06h-7.01v-3.63H162.62z" class="st2"/><path data-cppathid="10010" d="M170.89,169.45v2.97h-6.28v-2.97H170.89z" class="st2"/><path data-cppathid="10011" d="M177.49,163.01h-0.06l-3.47,1.8l-0.69-3.25l4.7-2.43h3.63v20.52h-4.1V163.01z" class="st2"/><path data-cppathid="10012" d="M185.92,174.31c0-2.56,1.42-4.39,3.09-5.46v-0.06c-1.74-1.14-2.53-2.9-2.53-4.51c0-3.35,2.65-5.4,5.81-5.4    c2.94,0,5.3,1.99,5.3,5.05c0,1.36-0.54,3.19-2.68,4.55v0.06c1.89,1.04,3.16,2.94,3.16,5.37c0,3.79-2.78,6-6.16,6    C188.41,179.9,185.92,177.65,185.92,174.31z M194.07,174.06c0-1.93-1.2-3.19-2.37-3.79c-1.04,0.73-1.77,1.99-1.77,3.57    c0,1.77,0.73,3.28,2.15,3.28C193.37,177.12,194.07,175.79,194.07,174.06z M190.37,164.14c0,1.45,0.82,2.46,2.02,3.09    c0.88-0.47,1.42-1.74,1.42-2.94c0-1.39-0.47-2.65-1.67-2.65C190.94,161.65,190.37,162.88,190.37,164.14z" class="st2"/></g></g></svg>