<?xml version="1.0" encoding="UTF-8"?>
<svg xmlns="http://www.w3.org/2000/svg" onmouseup="{ if(window.parent.document.onmouseup) window.parent.document.onmouseup(arguments[0]);}" xml:space="preserve" style="enable-background:new 0 0 300 300;" viewBox="0 0 300 300" y="0px" x="0px" id="Layer_1" version="1.1" xmlns:xlink="http://www.w3.org/1999/xlink"><style type="text/css">
	.st0{fill:#39B54A;}
	.st1{fill:none;stroke:#39B54A;stroke-width:3.2;stroke-miterlimit:10;}
	.st2{fill:none;stroke:#39B54A;stroke-width:3.2;stroke-miterlimit:10;stroke-dasharray:10.3144,10.3144;}
</style><g><path data-cppathid="10000" d="M215.23,87.33l0.01-0.02l0.01,0.02c0,0,14.16,0.03,14.16-14.16l-0.02-0.01l0.02-0.01   c0-14.19-14.16-14.16-14.16-14.16l-0.01,0.02L215.23,59c0,0-14.16-0.03-14.16,14.16l0.02,0.01l-0.02,0.01   C201.08,87.36,215.23,87.33,215.23,87.33z" class="st0"/><path data-cppathid="10001" d="M232.99,134.57h0.07v-28.33h0.01c0-14.19-14.16-14.16-14.16-14.16l-0.02,0.06v-0.09h-7.09v0.03   c-0.04,0-14.13-0.01-14.15,14.14h-0.02v9.85h-17.74V77.88h-0.01c0-3.91-3.17-7.08-7.08-7.08v-0.01H48.36v0.01   c-3.91,0-7.07,3.17-7.07,7.08h-0.01v85.03h0.01c0,3.91,3.17,7.08,7.07,7.08v0.01H172.8v-0.01c3.91,0,7.08-3.17,7.08-7.08h0.01   v-32.66h17.74l6.32,22.8v19.01h-0.01v46.21c0.51,5.43,4.93,9.73,10.51,9.73c5.85,0,10.59-4.73,10.65-10.57h0.1v-34.49h0.01v-28.39   l0.02,0.06c9.64,0.31,7.85-20.01,7.85-20.01L232.99,134.57z M165.71,116.07h-0.62c-3.61,0.35-6.48,3.3-6.48,7   c0,3.9,3.14,7.06,7.04,7.11v0.06h0.06v32.66H55.44V77.88h110.27V116.07z" class="st0"/></g><g><path data-cppathid="10002" d="M84.65,104.84l-1.88-2.6c-0.75-1.03-1.29-1.81-1.98-2.7h-0.07c-0.44,0.89-1.02,1.67-1.67,2.65l-1.74,2.65h-7.6   l7.26-7.97l-7.02-7.83h7.6l1.74,2.49c0.68,0.96,1.16,1.71,1.74,2.63h0.1c0.58-1.08,0.95-1.74,1.5-2.6l1.6-2.51h7.6l-6.92,7.65   l7.4,8.16H84.65z" class="st0"/></g><g><path data-cppathid="10003" d="M141.3,130.18l-1.88-2.6c-0.75-1.03-1.29-1.81-1.98-2.7h-0.07c-0.44,0.89-1.02,1.67-1.67,2.65l-1.74,2.65h-7.6   l7.26-7.97l-7.02-7.83h7.6l1.74,2.49c0.68,0.96,1.16,1.71,1.74,2.63h0.1c0.58-1.08,0.95-1.74,1.5-2.6l1.6-2.51h7.6l-6.92,7.65   l7.4,8.16H141.3z" class="st0"/></g><g><path data-cppathid="10004" d="M152.3,156.18l-1.88-2.6c-0.75-1.03-1.29-1.81-1.98-2.7h-0.07c-0.44,0.89-1.02,1.67-1.67,2.65l-1.74,2.65h-7.6   l7.26-7.97l-7.02-7.83h7.6l1.74,2.49c0.68,0.96,1.16,1.71,1.74,2.63h0.1c0.58-1.08,0.95-1.74,1.5-2.6l1.6-2.51h7.6l-6.92,7.65   l7.4,8.16H152.3z" class="st0"/></g><g><path data-cppathid="10005" d="M89.6,144.84c0.28,4.64-2.77,8.23-8.05,8.55c-5.05,0.31-8.33-2.9-8.6-7.31c-0.28-4.69,2.88-8.28,7.91-8.59   C86.05,137.18,89.33,140.34,89.6,144.84z M77.52,145.69c0.16,2.64,1.73,4.51,4.05,4.37c2.34-0.14,3.61-2.18,3.45-4.82   s-1.74-4.55-4.03-4.42C78.7,140.96,77.36,143.05,77.52,145.69z" class="st0"/></g><g><g><path data-cppathid="10006" d="M85,134c0,0,1.92-0.23,4.67-1.1" class="st1"/><path data-cppathid="10007" d="M98.85,128.32c4.22-3.11,8.09-7.88,9.35-15.12c0,0,1.36-9.55,8.55-15.28" class="st2"/><path data-cppathid="10008" d="M121.19,95.29c1.39-0.58,2.92-1.03,4.61-1.29" class="st1"/></g></g><g><path data-cppathid="10009" d="M139.99,88.69c0.28,4.64-2.77,8.23-8.05,8.55c-5.05,0.31-8.33-2.9-8.6-7.31c-0.28-4.69,2.88-8.28,7.91-8.59   C136.44,81.02,139.72,84.18,139.99,88.69z M127.91,89.53c0.16,2.64,1.73,4.51,4.05,4.37c2.34-0.14,3.61-2.18,3.45-4.82   c-0.16-2.64-1.74-4.55-4.03-4.42C129.09,84.8,127.75,86.89,127.91,89.53z" class="st0"/></g></svg>