<?xml version="1.0" encoding="UTF-8"?>
<svg xmlns="http://www.w3.org/2000/svg" onmouseup="{ if(window.parent.document.onmouseup) window.parent.document.onmouseup(arguments[0]);}" xml:space="preserve" style="enable-background:new 0 0 36 36;" viewBox="0 0 36 36" y="0px" x="0px" id="S_Ribbon_18_N_2x" version="1.1" xmlns:xlink="http://www.w3.org/1999/xlink"><style type="text/css">
	.st0{fill:#FFFFFF;}
</style><path data-cppathid="10000" d="M11.78,22.66l-4.21,7.58c-0.12,0.25-0.02,0.55,0.23,0.67c0.12,0.06,0.26,0.07,0.39,0.02l4.02-1.43  c0.26-0.09,0.55,0.04,0.64,0.3l1.43,4.02c0.09,0.26,0.38,0.4,0.64,0.3c0.13-0.05,0.23-0.14,0.29-0.26l1.68-3.71l-3.04-6.44  C13.12,23.43,12.43,23.08,11.78,22.66z M28.44,30.24l-3.87-7.81c-2.38,1.69-5.33,2.38-8.22,1.93l4.46,9.49  c0.11,0.25,0.41,0.36,0.66,0.25c0.12-0.06,0.22-0.16,0.26-0.28l1.43-4.02c0.09-0.26,0.38-0.39,0.64-0.3l4.01,1.43  c0.26,0.09,0.55-0.04,0.64-0.3C28.5,30.5,28.5,30.36,28.44,30.24z" class="st0"/><path data-cppathid="10001" d="M18,4c-4.97,0-9,4.03-9,9s4.03,9,9,9s9-4.03,9-9S22.97,4,18,4z M18,18.5c-3.04,0-5.5-2.46-5.5-5.5  s2.46-5.5,5.5-5.5s5.5,2.46,5.5,5.5S21.04,18.5,18,18.5L18,18.5z" class="st0"/></svg>