<?xml version="1.0" encoding="UTF-8"?>
<svg xmlns="http://www.w3.org/2000/svg" onmouseup="{ if(window.parent.document.onmouseup) window.parent.document.onmouseup(arguments[0]);}" xml:space="preserve" style="enable-background:new 0 0 300 300;" viewBox="0 0 300 300" y="0px" x="0px" id="Layer_1" version="1.1" xmlns:xlink="http://www.w3.org/1999/xlink"><style type="text/css">
	.st0{fill:#39B54A;}
</style><g><g><path data-cppathid="10000" d="M217.86,46.76L215.91,45H74.23l-1.75,1.76c-28.15,25.55-44.32,61.79-44.32,99.77    c0,37.98,16.16,74.42,44.32,99.76l1.75,1.71h141.68l1.95-1.71c28.1-25.34,44.26-61.78,44.26-99.76    C262.12,108.55,245.96,72.31,217.86,46.76z M110.66,151.74c0,3.92-3.26,7.24-7.18,7.24c-3.97,0-7.42-3.33-7.42-7.24v-48.02    c0-3.9,3.45-7.21,7.42-7.21c3.92,0,7.18,3.32,7.18,7.21V151.74z M165.46,210.91h-40.59v-17.71c0-11.09,9.18-20.26,20.27-20.26    c11.14,0,20.33,9.17,20.33,20.26V210.91z M194.02,151.74c0,3.92-3.22,7.24-7.18,7.24c-4.11,0-7.43-3.33-7.43-7.24v-48.02    c0-3.9,3.33-7.21,7.43-7.21c3.96,0,7.18,3.32,7.18,7.21V151.74z" class="st0"/></g></g></svg>