<?xml version="1.0" encoding="UTF-8"?>
<svg xmlns="http://www.w3.org/2000/svg" onmouseup="{ if(window.parent.document.onmouseup) window.parent.document.onmouseup(arguments[0]);}" xml:space="preserve" style="enable-background:new 0 0 36 36;" viewBox="0 0 36 36" y="0px" x="0px" id="S_Demographic_18_N_2x" version="1.1" xmlns:xlink="http://www.w3.org/1999/xlink"><style type="text/css">
	.st0{fill:#FFFFFF;}
</style><path data-cppathid="10000" d="M7.94,8.1c2.15,0,3.9-1.75,3.9-3.9s-1.75-3.9-3.9-3.9s-3.9,1.75-3.9,3.9l0,0C4.04,6.35,5.79,8.1,7.94,8.1z" class="st0"/><path data-cppathid="10001" d="M17.94,8.1c2.15,0,3.9-1.75,3.9-3.9c0-2.15-1.75-3.9-3.9-3.9s-3.9,1.75-3.9,3.9v0  C14.04,6.35,15.79,8.1,17.94,8.1z" class="st0"/><path data-cppathid="10002" d="M27.94,8.1c2.15,0,3.9-1.75,3.9-3.9c0-2.15-1.75-3.9-3.9-3.9s-3.9,1.75-3.9,3.9v0  C24.04,6.35,25.79,8.1,27.94,8.1z" class="st0"/><path data-cppathid="10003" d="M28.14,10h-0.4c-1.8-0.11-3.55,0.57-4.8,1.86c-1.25-1.29-3-1.98-4.8-1.86h-0.4c-1.8-0.11-3.55,0.57-4.8,1.86  c-1.25-1.29-3-1.98-4.8-1.86h-0.4c-3.2,0-5.8,1.6-5.8,4.8V22c0,0.55,0.45,1,1,1h1l1,10c0,0.55,0.45,1,1,1h4c0.55,0,1-0.45,1-1l1-10  h2l1,10c0,0.55,0.45,1,1,1h4c0.55,0,1-0.45,1-1l1-10h2l1,10c0,0.55,0.45,1,1,1h4c0.55,0,1-0.45,1-1l1-10h1c0.55,0,1-0.45,1-1v-7.2  C33.94,11.6,31.34,10,28.14,10z" class="st0"/></svg>