<?xml version="1.0" encoding="UTF-8"?>
<svg xmlns="http://www.w3.org/2000/svg" onmouseup="{ if(window.parent.document.onmouseup) window.parent.document.onmouseup(arguments[0]);}" xml:space="preserve" style="enable-background:new 0 0 36 36;" viewBox="0 0 36 36" y="0px" x="0px" id="S_Targeted_18_N_2x" version="1.1" xmlns:xlink="http://www.w3.org/1999/xlink"><style type="text/css">
	.st0{fill:#FFFFFF;}
</style><path data-cppathid="10000" d="M17.23,15.28L12,10.06V6.85c0-0.53-0.21-1.04-0.59-1.41L6.85,0.24c-0.2-0.2-0.51-0.2-0.71,0  C6.05,0.33,6,0.46,6,0.59L4.5,4.5L0.6,6.02c-0.28,0-0.5,0.22-0.5,0.5c0,0.13,0.05,0.26,0.15,0.35l5.17,4.56  C5.79,11.8,6.3,12.01,6.83,12H10l5.26,5.25c0.27,0.27,0.71,0.27,0.98,0c0,0,0,0,0,0l0.98-0.98c0.27-0.27,0.28-0.71,0.01-0.98  C17.23,15.29,17.23,15.28,17.23,15.28z" class="st0"/><path data-cppathid="10001" d="M19.33,14.24c0.71,1.19,0.52,2.71-0.45,3.7l-0.98,0.98c-0.95,0.96-2.42,1.18-3.61,0.54  c0.8,2.05,3.12,3.07,5.17,2.27s3.07-3.12,2.27-5.17C21.3,15.48,20.43,14.63,19.33,14.24L19.33,14.24z" class="st0"/><path data-cppathid="10002" d="M18,2.1c-1.88,0-3.74,0.34-5.5,1l0.68,0.78c0.78,0.81,1.21,1.89,1.2,3.02v1.66c5.27-2.06,11.21,0.55,13.26,5.81  s-0.55,11.21-5.81,13.26s-11.21-0.55-13.26-5.81c-0.93-2.38-0.94-5.02-0.02-7.4H6.86c-1.13,0-2.22-0.44-3.03-1.22l-0.75-0.66  c-3.01,8.24,1.23,17.37,9.48,20.38c8.24,3.01,17.37-1.23,20.38-9.48S31.7,6.07,23.46,3.06C21.71,2.43,19.86,2.1,18,2.1z" class="st0"/></svg>