<?xml version="1.0" encoding="UTF-8"?>
<svg xmlns="http://www.w3.org/2000/svg" onmouseup="{ if(window.parent.document.onmouseup) window.parent.document.onmouseup(arguments[0]);}" xml:space="preserve" style="enable-background:new 0 0 699 627;" viewBox="0 0 699 627" y="0px" x="0px" id="Layer_1" version="1.1" xmlns:xlink="http://www.w3.org/1999/xlink"><style type="text/css">
	.st0{fill:none;stroke:#F15A24;stroke-width:11.6539;stroke-linecap:round;stroke-miterlimit:10;}
	.st1{fill:#F15A24;}
	.st2{fill:none;stroke:#F7931E;stroke-width:11.6539;stroke-linecap:round;stroke-miterlimit:10;}
	.st3{fill:#F7931E;}
	.st4{fill:none;stroke:#8CC63F;stroke-width:11.6539;stroke-linecap:round;stroke-miterlimit:10;}
	.st5{fill:#8CC63F;}
	.st6{fill:none;stroke:#00A99D;stroke-width:11.6539;stroke-linecap:round;stroke-miterlimit:10;}
	.st7{fill:#00A99D;}
	.st8{fill:none;stroke:#3FA9F5;stroke-width:11.6539;stroke-linecap:round;stroke-miterlimit:10;}
	.st9{fill:#3FA9F5;}
	.st10{fill:none;stroke:#0071BC;stroke-width:11.6539;stroke-linecap:round;stroke-miterlimit:10;}
	.st11{fill:#0071BC;}
	.st12{fill:none;stroke:#662D91;stroke-width:11.6539;stroke-linecap:round;stroke-miterlimit:10;}
	.st13{fill:#662D91;}
	.st14{fill:#686868;}
	.st15{fill:none;stroke:#686868;stroke-width:22.1548;stroke-miterlimit:10;}
	.st16{opacity:0.71;fill:#F7931E;enable-background:new    ;}
	.st17{fill:#FFFFFF;}
	.st18{fill:#FF931E;}
	.st19{opacity:0.71;fill:#7AC943;enable-background:new    ;}
	.st20{fill:#7AC943;}
	.st21{opacity:0.71;fill:#3FA9F5;enable-background:new    ;}
	.st22{opacity:0.71;fill:#0071BC;enable-background:new    ;}
	.st23{opacity:0.71;fill:#F15A24;enable-background:new    ;}
	.st24{opacity:0.71;fill:#00A99D;enable-background:new    ;}
	.st25{opacity:0.71;fill:#662D91;enable-background:new    ;}
</style><g><g><g><g><path data-cppathid="10000" d="M205.22,276.34c10.34-27.11,28.47-50.13,51.46-66.56" class="st0"/><g><polygon data-cppathid="10001" points="261.6,227.61 278.27,196.99 243.42,197.86      " class="st1"/></g></g></g><g><g><path data-cppathid="10002" d="M295.99,189.86c17.97-5.89,37.4-8.36,57.44-6.68c11.89,0.99,23.32,3.39,34.15,7.01" class="st2"/><g><polygon data-cppathid="10003" points="376.02,204.62 410.59,200.18 389.46,172.45      " class="st3"/></g></g></g><g><g><path data-cppathid="10004" d="M432.19,214.5c20.78,16.63,36.8,38.78,46,64.01" class="st4"/><g><polygon data-cppathid="10005" points="459.67,278.46 484.7,302.74 493.21,268.93      " class="st5"/></g></g></g><g><g><path data-cppathid="10006" d="M485.96,311.39c1.1,9.46,1.27,19.17,0.45,29.03c-1.67,19.99-7.3,38.7-16.06,55.42" class="st6"/><g><polygon data-cppathid="10007" points="457.9,382.13 456.82,416.97 487.54,400.48      " class="st7"/></g></g></g><g><g><path data-cppathid="10008" d="M441.61,433.86c-24.57,23.32-57.13,38.04-92.63,39.87" class="st8"/><g><polygon data-cppathid="10009" points="354.44,456.07 323.89,472.87 353.71,490.93      " class="st9"/></g></g></g><g><g><path data-cppathid="10010" d="M309.9,470.51c-27.66-6.07-52.13-19.89-71.25-38.92" class="st10"/><g><polygon data-cppathid="10011" points="255.42,423.75 222.44,412.43 229.12,446.65      " class="st11"/></g></g></g><g><g><path data-cppathid="10012" d="M215.09,400.95c-14.31-24.81-21.47-54.08-18.9-84.79c0.02-0.23,0.04-0.45,0.06-0.68" class="st12"/><g><polygon data-cppathid="10013" points="212.99,323.35 200.57,290.77 178.57,317.81      " class="st13"/></g></g></g></g><g><g><path data-cppathid="10014" d="M-151.31-121.81c0.52,0,1.69-0.78,0.64-0.78C-151.19-122.59-152.36-121.81-151.31-121.81L-151.31-121.81z" class="st14"/></g></g><path data-cppathid="10015" d="M-252-4.14" class="st15"/><g><path data-cppathid="10016" d="M337.73,16.42c-47.02,0-85.13,38.12-85.13,85.13c0,47.02,38.12,85.13,85.13,85.13    c47.02,0,85.13-38.12,85.13-85.13C422.87,54.54,384.75,16.42,337.73,16.42z M337.73,178.36c-42.42,0-76.8-34.39-76.8-76.8    c0-42.42,34.39-76.8,76.8-76.8s76.8,34.39,76.8,76.8C414.53,143.97,380.15,178.36,337.73,178.36z" class="st3"/><ellipse data-cppathid="10017" ry="71.01" rx="71.01" cy="101.21" cx="337.47" class="st16"/><polygon data-cppathid="10018" points="308.35,36.62 303.39,14.12 325.35,21.08   " class="st17"/><polygon data-cppathid="10019" points="305.11,37.27 300.15,14.77 322.12,21.72   " class="st18"/></g><g><ellipse data-cppathid="10020" ry="71.01" rx="71.01" cy="186.38" cx="522.66" class="st19"/><polygon data-cppathid="10021" points="594.47,189.1 616.8,194.75 600.74,211.26   " class="st17"/><g><path data-cppathid="10022" d="M522.63,101.53c-47.02,0-85.13,38.12-85.13,85.13c0,47.02,38.12,85.13,85.13,85.13s85.13-38.12,85.13-85.13     C607.77,139.64,569.65,101.53,522.63,101.53z M522.63,263.47c-42.42,0-76.8-34.39-76.8-76.8c0-42.42,34.39-76.8,76.8-76.8     s76.8,34.39,76.8,76.8C599.44,229.08,565.05,263.47,522.63,263.47z" class="st20"/><polygon data-cppathid="10023" points="594.53,189.97 616.86,195.62 600.8,212.14    " class="st17"/><polygon data-cppathid="10024" points="595.34,185.91 617.68,191.56 601.61,208.08    " class="st20"/></g></g><g><path data-cppathid="10025" d="M436.42,450.1c-47.02,0-85.13,38.12-85.13,85.14s38.12,85.13,85.13,85.13c47.02,0,85.13-38.12,85.13-85.13    C521.55,488.22,483.44,450.1,436.42,450.1z M436.42,612.04c-42.42,0-76.8-34.39-76.8-76.8c0-42.42,34.39-76.8,76.8-76.8    c42.42,0,76.8,34.39,76.8,76.8C513.22,577.65,478.84,612.04,436.42,612.04z" class="st9"/><ellipse data-cppathid="10026" ry="71.01" rx="71.01" cy="534.88" cx="436.41" class="st21"/><polygon data-cppathid="10027" points="397.2,593.11 382.95,611.22 374.39,589.83   " class="st17"/><polygon data-cppathid="10028" points="399.75,595.2 385.5,613.31 376.95,591.92   " class="st9"/></g><g><path data-cppathid="10029" d="M232.32,443.61c-47.02,0-85.13,38.12-85.13,85.14s38.12,85.13,85.13,85.13c47.02,0,85.13-38.12,85.13-85.13    C317.46,481.73,279.34,443.61,232.32,443.61z M232.32,605.55c-42.42,0-76.8-34.39-76.8-76.8c0-42.42,34.39-76.8,76.8-76.8    c42.42,0,76.8,34.39,76.8,76.8S274.74,605.55,232.32,605.55z" class="st11"/><ellipse data-cppathid="10030" ry="71.01" rx="71.01" cy="528.39" cx="232.31" class="st22"/><polygon data-cppathid="10031" points="193.1,586.62 178.85,604.73 170.3,583.34   " class="st17"/><polygon data-cppathid="10032" points="195.65,588.71 181.41,606.82 172.85,585.43   " class="st11"/></g><g><path data-cppathid="10033" d="M157.98,101.53c-47.02,0-85.13,38.12-85.13,85.14s38.12,85.13,85.13,85.13c47.02,0,85.13-38.12,85.13-85.13    C243.11,139.65,204.99,101.53,157.98,101.53z M157.98,263.47c-42.42,0-76.8-34.39-76.8-76.8c0-42.42,34.39-76.8,76.8-76.8    c42.42,0,76.8,34.39,76.8,76.8S200.39,263.47,157.98,263.47z" class="st1"/><ellipse data-cppathid="10034" ry="71.01" rx="71.01" cy="186.31" cx="157.98" class="st23" transform="matrix(0.7071 -0.7071 0.7071 0.7071 -85.469 166.2734)"/><polygon data-cppathid="10035" points="118.75,244.54 104.51,262.65 95.95,241.26   " class="st17"/><polygon data-cppathid="10036" points="121.31,246.63 107.06,264.74 98.5,243.35   " class="st1"/></g><g><ellipse data-cppathid="10037" ry="71.01" rx="71.01" cy="372.11" cx="567.8" class="st24"/><g><path data-cppathid="10038" d="M567.77,287.25c-47.02,0-85.13,38.12-85.13,85.13c0,47.02,38.12,85.13,85.13,85.13s85.13-38.12,85.13-85.13     S614.79,287.25,567.77,287.25z M567.77,449.19c-42.42,0-76.8-34.39-76.8-76.8c0-42.42,34.39-76.8,76.8-76.8s76.8,34.39,76.8,76.8     S610.19,449.19,567.77,449.19z" class="st7"/></g><polygon data-cppathid="10039" points="638.79,372.38 661.13,378.03 645.07,394.55   " class="st17"/><polygon data-cppathid="10040" points="639.66,370.01 662,375.66 645.94,392.18   " class="st7"/></g><g><path data-cppathid="10041" d="M117.04,287.25c-47.02,0-85.13,38.12-85.13,85.14s38.12,85.13,85.13,85.13c47.02,0,85.13-38.12,85.13-85.13    S164.06,287.25,117.04,287.25z M117.04,449.19c-42.42,0-76.8-34.39-76.8-76.8c0-42.42,34.39-76.8,76.8-76.8    c42.42,0,76.8,34.39,76.8,76.8C193.85,414.8,159.46,449.19,117.04,449.19z" class="st13"/><ellipse data-cppathid="10042" ry="71.01" rx="71.01" cy="372.03" cx="117.04" class="st25"/><polygon data-cppathid="10043" points="77.82,430.26 63.58,448.37 55.02,426.98   " class="st17"/><polygon data-cppathid="10044" points="80.37,432.35 66.13,450.46 57.57,429.07   " class="st13"/></g></g></svg>