<?xml version="1.0" encoding="UTF-8"?>
<svg xmlns="http://www.w3.org/2000/svg" onmouseup="{ if(window.parent.document.onmouseup) window.parent.document.onmouseup(arguments[0]);}" xml:space="preserve" style="enable-background:new 0 0 1024 627;" viewBox="0 0 1024 627" y="0px" x="0px" id="Layer_1" version="1.1" xmlns:xlink="http://www.w3.org/1999/xlink"><style type="text/css">
	.st0{fill:#80BC00;}
</style><path data-cppathid="10000" d="M653.4,230.7C619.9,181.9,559.8,152,494,152c-49.1,0-95.3,16.5-130.3,46.5c-35.6,30.5-55.4,71.3-55.7,114.9  c-0.1,8.3,6.6,15,14.9,15.1c0,0,0.1,0,0.1,0c8.2,0,14.9-6.6,15-14.9c0.5-72.6,70.5-131.6,156-131.6c29.6,0,58.3,7.1,83.2,20.4  c18.6,10,34.4,23.1,46.5,38.5l-26.6,9.2l67.7,58.9l17.1-88.1L653.4,230.7z" class="st0"/></svg>