<?xml version="1.0" encoding="UTF-8"?>
<svg xmlns="http://www.w3.org/2000/svg" onmouseup="{ if(window.parent.document.onmouseup) window.parent.document.onmouseup(arguments[0]);}" xml:space="preserve" style="enable-background:new 0 0 300 300;" viewBox="0 0 300 300" y="0px" x="0px" id="Layer_1" version="1.1" xmlns:xlink="http://www.w3.org/1999/xlink"><style type="text/css">
	.st0{fill:#39B54A;}
	.st1{enable-background:new    ;}
	.st2{fill:#262626;}
</style><g><polygon data-cppathid="10000" points="71.9,150.1 91.7,144.4 73.4,135 93.9,133.3 77.8,120.6 98.3,122.8 85,107.2 104.7,113.4 94.8,95.5    112.9,105.3 106.6,85.9 122.4,99 120.2,78.8 133.1,94.7 134.8,74.4 144.3,92.5 150.1,72.9 155.8,92.5 165.3,74.4 167.1,94.7    180,78.8 177.7,99 193.5,85.9 187.3,105.3 205.4,95.5 195.4,113.4 215.1,107.2 201.8,122.8 222.3,120.6 206.2,133.3 226.8,135    208.4,144.4 228.3,150.1 208.4,155.8 226.8,165.2 206.2,166.9 222.3,179.6 201.8,177.4 215.1,193 195.4,186.8 205.4,204.7    187.3,194.9 193.5,214.3 177.7,201.2 180,221.4 167.1,205.5 165.3,225.8 155.8,207.7 150.1,227.3 144.3,207.7 134.8,225.8    133.1,205.5 120.2,221.4 122.4,201.2 106.6,214.3 112.9,194.9 94.8,204.7 104.7,186.8 85,193 98.3,177.4 77.8,179.6 93.9,166.9    73.4,165.2 91.7,155.8  " class="st0"/></g><g><g class="st1"><path data-cppathid="10001" d="M121.9,142l-1.6,5.2h-3.4l5.8-18.2h4.2l5.9,18.2h-3.6l-1.6-5.2H121.9z M127.1,139.5l-1.4-4.5c-0.4-1.1-0.6-2.3-0.9-3.4    h-0.1c-0.3,1.1-0.5,2.3-0.9,3.4l-1.4,4.5H127.1z"/><path data-cppathid="10002" d="M145.6,139.1h-6.9v5.3h7.7v2.7h-11V129H146v2.7h-7.3v4.7h6.9V139.1z"/><path data-cppathid="10003" d="M149.3,129.2c1.5-0.2,3.3-0.4,5.3-0.4c3.4,0,5.7,0.7,7.4,2.1c1.8,1.4,2.8,3.6,2.8,6.7c0,3.2-1.1,5.7-2.8,7.2    c-1.8,1.6-4.7,2.5-8.2,2.5c-1.9,0-3.4-0.1-4.5-0.2V129.2z M152.6,144.6c0.5,0.1,1.2,0.1,1.8,0.1c4.3,0,6.9-2.3,6.9-7    c0-4-2.3-6.3-6.5-6.3c-1.1,0-1.8,0.1-2.3,0.2V144.6z"/><path data-cppathid="10004" d="M182.3,146.3c-1.2,0.4-3.4,1-5.9,1c-3.1,0-5.4-0.8-7.1-2.4c-1.6-1.5-2.6-3.9-2.5-6.7c0-5.7,4.1-9.4,10.1-9.4    c2.2,0,4,0.5,4.8,0.9l-0.7,2.7c-1-0.4-2.2-0.8-4.1-0.8c-3.9,0-6.6,2.3-6.6,6.5c0,4.1,2.5,6.6,6.3,6.6c1.2,0,2.1-0.2,2.5-0.4v-4.5    h-3.2v-2.6h6.4V146.3z"/></g><g class="st1"><path data-cppathid="10005" d="M113.9,157.9c0.9-0.2,2-0.3,3.2-0.3c1.8,0,3.2,0.3,4.2,1.2c0.9,0.8,1.3,2.1,1.3,3.4c0,1.7-0.5,2.9-1.3,3.7    c-1,1-2.5,1.5-3.8,1.5c-0.2,0-0.4,0-0.6,0v5.8h-3V157.9z M116.9,164.9c0.1,0,0.3,0,0.5,0c1.5,0,2.2-1.1,2.2-2.5    c0-1.4-0.6-2.4-2-2.4c-0.3,0-0.6,0-0.7,0.1V164.9z" class="st2"/><path data-cppathid="10006" d="M131.8,161.9c0,1-0.1,2.2-0.1,3.6v6.4c0,2.4-0.4,3.7-1.4,4.6c-0.8,0.8-2,1.2-3.7,1.2c-1,0-2-0.2-2.8-0.5    l0.6-2.3c0.6,0.3,1.3,0.5,2.2,0.5c1.5,0,2.1-1,2.1-2.7V172h0c-0.4,0.7-1.2,1.1-2,1.1c-2.5,0-3.5-2.8-3.5-5.4    c0-3.7,1.7-5.9,3.8-5.9c0.9,0,1.6,0.5,2.1,1.3h0l0.2-1.1H131.8z M128.7,166c0-0.3,0-0.6-0.1-0.8c-0.1-0.5-0.5-0.9-1-0.9    c-1.1,0-1.5,1.5-1.5,3.3c0,2.1,0.6,3.2,1.4,3.2c0.4,0,0.8-0.2,1-0.8c0.1-0.3,0.1-0.6,0.1-0.9V166z" class="st2"/><path data-cppathid="10007" d="M133.5,171.3c0-1.2,0.9-2,1.8-2c1,0,1.7,0.8,1.7,2c0,1.2-0.7,2-1.8,2C134.3,173.3,133.5,172.5,133.5,171.3z" class="st2"/><path data-cppathid="10008" d="M146.8,173.1v-3.6h-5.1v-2.1l4.9-9.3h2.9v9h1.5v2.4h-1.5v3.6H146.8z M146.8,167.2v-3.1c0-0.8,0.1-1.7,0.2-2.5    h-0.1c-0.3,0.8-0.6,1.5-1,2.3l-1.6,3.2v0H146.8z" class="st2"/><path data-cppathid="10009" d="M159.6,160.8h-4l-0.3,2.7c0.1,0,0.3,0,0.5,0c0.6,0,2,0.3,2.8,1.1c0.8,0.8,1.3,1.9,1.3,3.4    c0,2.9-1.9,5.3-5.2,5.3c-1.1,0-2.2-0.3-2.8-0.6l0.5-2.4c0.6,0.3,1.3,0.5,2.1,0.5c1.5,0,2.4-0.9,2.4-2.6c0-2-1.5-2.7-3.2-2.7    c-0.4,0-0.8,0-1.1,0l0.8-7.5h6.2V160.8z" class="st2"/><path data-cppathid="10010" d="M166.3,165.7v2.2h-4.6v-2.2H166.3z" class="st2"/><path data-cppathid="10011" d="M175.4,160.8h-4l-0.3,2.7c0.1,0,0.3,0,0.5,0c0.6,0,2,0.3,2.8,1.1c0.8,0.8,1.3,1.9,1.3,3.4    c0,2.9-1.9,5.3-5.2,5.3c-1.1,0-2.2-0.3-2.8-0.6l0.5-2.4c0.6,0.3,1.3,0.5,2.1,0.5c1.5,0,2.4-0.9,2.4-2.6c0-2-1.5-2.7-3.2-2.7    c-0.4,0-0.8,0-1.1,0l0.8-7.5h6.2V160.8z" class="st2"/><path data-cppathid="10012" d="M185,160.5c-0.4,0-0.8,0.1-1.2,0.2c-2,0.4-3,2.1-3.3,4h0.1c0.5-0.7,1.3-1.2,2.3-1.2c2,0,3.4,1.8,3.4,4.6    c0,2.6-1.3,5.3-4.3,5.3c-2.8,0-4.6-2.5-4.6-6.2c0-3.3,1.1-5.5,2.5-7c1-1.1,2.4-1.8,3.7-2c0.7-0.1,1.2-0.1,1.5-0.2V160.5z     M183.2,168c0-1.3-0.4-2.5-1.4-2.5c-0.5,0-0.9,0.3-1.2,1c-0.1,0.2-0.2,0.6-0.2,1.3c0,2,0.6,3.3,1.4,3.3    C182.8,171.1,183.2,169.8,183.2,168z" class="st2"/></g></g></svg>