<?xml version="1.0" encoding="UTF-8"?>
<svg xmlns="http://www.w3.org/2000/svg" onmouseup="{ if(window.parent.document.onmouseup) window.parent.document.onmouseup(arguments[0]);}" xml:space="preserve" style="enable-background:new 0 0 300 300;" viewBox="0 0 300 300" y="0px" x="0px" id="Layer_1" version="1.1" xmlns:xlink="http://www.w3.org/1999/xlink"><style type="text/css">
	.st0{fill:#39B54A;}
	.st1{font-family:'MyriadPro-Semibold';}
	.st2{font-size:27px;}
	.st3{fill:#262626;}
	.st4{font-family:'MyriadPro-BoldCond';}
	.st5{font-size:23px;}
</style><g><polygon data-cppathid="10000" points="71.86,150.1 91.7,144.43 73.37,135.04 93.94,133.29 77.82,120.55 98.35,122.8 85.04,107.2    104.73,113.37 94.77,95.5 112.87,105.34 106.63,85.91 122.43,99.03 120.15,78.77 133.05,94.69 134.82,74.38 144.33,92.47    150.08,72.89 155.83,92.47 165.34,74.38 167.11,94.69 180.01,78.77 177.73,99.03 193.53,85.91 187.29,105.34 205.39,95.5    195.43,113.37 215.11,107.2 201.81,122.8 222.34,120.55 206.21,133.29 226.79,135.04 208.45,144.43 228.29,150.1 208.45,155.78    226.79,165.17 206.21,166.91 222.34,179.65 201.81,177.4 215.11,192.99 195.43,186.84 205.39,204.7 187.29,194.86 193.53,214.3    177.73,201.17 180.01,221.43 167.11,205.51 165.34,225.83 155.83,207.73 150.08,227.31 144.33,207.73 134.82,225.83 133.05,205.51    120.15,221.43 122.43,201.17 106.63,214.3 112.87,194.86 94.77,204.7 104.73,186.84 85.04,192.99 98.35,177.4 77.82,179.65    93.94,166.91 73.37,165.17 91.7,155.78  " class="st0"/></g><g><text data-cppathid="10001" class="st1 st2" transform="matrix(1 0 0 1 116.3282 147.1732)">AEDG</text><text data-cppathid="10002" class="st3 st4 st5" transform="matrix(1 0 0 1 112.5999 173.1479)">Pg. 45-56</text></g></svg>