<?xml version="1.0" encoding="UTF-8"?>
<svg xmlns="http://www.w3.org/2000/svg" onmouseup="{ if(window.parent.document.onmouseup) window.parent.document.onmouseup(arguments[0]);}" xml:space="preserve" style="enable-background:new 0 0 300 300;" viewBox="0 0 300 300" y="0px" x="0px" id="Layer_1" version="1.1" xmlns:xlink="http://www.w3.org/1999/xlink"><style type="text/css">
	.st0{fill:#6BC4E8;}
	.st1{fill:#00A7E1;}
	.st2{fill:#39B74A;}
</style><g><polygon data-cppathid="10000" points="571.1,17.96 570.82,17.93 555.53,17.93 541.47,48.2 555.14,47.39 545.78,69.11 571.75,36.86    559.33,37.59  " class="st0"/><path data-cppathid="10001" d="M542.82,61.39c-5.41-4.09-8.91-10.58-8.91-17.89l0,0c0-8.36,4.59-15.63,11.36-19.48l0,0h0   c0.81-0.46,1.84-0.18,2.3,0.63l0,0c0.46,0.81,0.18,1.84-0.63,2.3l0,0c-5.77,3.29-9.65,9.45-9.65,16.55l0,0   c0,6.21,2.97,11.71,7.58,15.2l0,0c0.74,0.56,0.89,1.62,0.33,2.36l0,0c-0.33,0.44-0.83,0.67-1.34,0.67l0,0   C543.49,61.73,543.13,61.62,542.82,61.39L542.82,61.39z" class="st1"/><path data-cppathid="10002" d="M554.9,64.27c-0.01-0.93,0.74-1.69,1.67-1.71l0,0c10.44-0.11,18.87-8.6,18.87-19.07l0,0   c0-5.33-2.19-10.12-5.71-13.58l0,0c-0.66-0.65-0.67-1.72-0.02-2.38l0,0c0.65-0.67,1.72-0.67,2.38-0.02l0,0   c4.13,4.06,6.71,9.73,6.71,15.99l0,0c0,12.32-9.92,22.31-22.2,22.44l0,0c-0.01,0-0.01,0-0.02,0l0,0   C555.66,65.94,554.91,65.2,554.9,64.27L554.9,64.27z" class="st1"/></g><g><path data-cppathid="10003" d="M67.48,194.24c-9.61-24.61-8.01-53.33,6.9-77.6l0,0c17.06-27.75,47.13-42.55,77.47-41.53l0,0l0.01,0   c3.63,0.12,6.46,3.16,6.35,6.78l0,0c-0.12,3.63-3.16,6.47-6.79,6.35l0,0c-25.85-0.84-51.35,11.69-65.84,35.28l0,0   c-12.68,20.63-14.02,44.97-5.85,65.94l0,0c1.32,3.38-0.35,7.19-3.74,8.51l0,0c-1.99,0.78-4.13,0.52-5.83-0.52l0,0   C68.98,196.73,68.02,195.63,67.48,194.24L67.48,194.24z" class="st2"/><path data-cppathid="10004" d="M117.82,233.53c1.05-3.48,4.72-5.43,8.2-4.39l0,0c38.93,11.82,80.23-9.89,92.48-48.79l0,0   c6.23-19.8,3.72-40.18-5.31-57.18l0,0c-1.71-3.2-0.49-7.18,2.71-8.89l0,0c3.2-1.71,7.18-0.49,8.89,2.72l0,0   c10.61,19.94,13.58,44.02,6.24,67.3l0,0c-14.42,45.79-62.99,71.32-108.82,57.43l0,0c-0.03-0.01-0.05-0.02-0.08-0.02l0,0   C118.7,240.62,116.78,236.97,117.82,233.53L117.82,233.53z" class="st2"/><path data-cppathid="10005" d="M147.16,92.17l6.69-26.17c0.77-3,4.5-4.05,6.72-1.88l19.32,18.88c2.22,2.17,1.26,5.92-1.73,6.76l-26.01,7.29   C149.16,97.88,146.39,95.17,147.16,92.17z" class="st2"/><path data-cppathid="10006" d="M106.29,224.81l26.37-5.86c3.03-0.67,5.65,2.18,4.72,5.14l-8.11,25.77c-0.93,2.96-4.72,3.8-6.81,1.51   l-18.26-19.91C102.1,229.18,103.26,225.49,106.29,224.81z" class="st2"/></g></svg>