<?xml version="1.0" encoding="UTF-8"?>
<svg xmlns="http://www.w3.org/2000/svg" onmouseup="{ if(window.parent.document.onmouseup) window.parent.document.onmouseup(arguments[0]);}" xml:space="preserve" style="enable-background:new 0 0 699 627;" viewBox="0 0 699 627" y="0px" x="0px" id="Layer_1" version="1.1" xmlns:xlink="http://www.w3.org/1999/xlink"><style type="text/css">
	.st0{fill:none;stroke:#F15A24;stroke-width:11.6539;stroke-linecap:round;stroke-miterlimit:10;}
	.st1{fill:#F15A24;}
	.st2{fill:none;stroke:#F7931E;stroke-width:11.6539;stroke-linecap:round;stroke-miterlimit:10;}
	.st3{fill:#F7931E;}
	.st4{fill:none;stroke:#8CC63F;stroke-width:11.6539;stroke-linecap:round;stroke-miterlimit:10;}
	.st5{fill:#8CC63F;}
	.st6{fill:none;stroke:#00A99D;stroke-width:11.6539;stroke-linecap:round;stroke-miterlimit:10;}
	.st7{fill:#00A99D;}
	.st8{fill:none;stroke:#3FA9F5;stroke-width:11.6539;stroke-linecap:round;stroke-miterlimit:10;}
	.st9{fill:#3FA9F5;}
	.st10{fill:none;stroke:#0071BC;stroke-width:11.6539;stroke-linecap:round;stroke-miterlimit:10;}
	.st11{fill:#0071BC;}
	.st12{fill:none;stroke:#662D91;stroke-width:11.6539;stroke-linecap:round;stroke-miterlimit:10;}
	.st13{fill:#662D91;}
	.st14{fill:#686868;}
	.st15{fill:none;stroke:#686868;stroke-width:22.1548;stroke-miterlimit:10;}
	.st16{opacity:0.71;fill:#F7931E;}
	.st17{opacity:0.71;fill:#7AC943;}
	.st18{fill:#FFFFFF;}
	.st19{opacity:0.71;fill:#3FA9F5;}
	.st20{opacity:0.71;fill:#0071BC;}
	.st21{opacity:0.71;fill:#F15A24;}
	.st22{opacity:0.71;fill:#00A99D;}
	.st23{opacity:0.71;fill:#662D91;}
</style><g><g><g><g><path data-cppathid="10000" d="M205.48,275.11c10.34-27.11,28.47-50.13,51.46-66.56" class="st0"/><g><polygon data-cppathid="10001" points="261.85,226.39 278.52,195.77 243.67,196.63      " class="st1"/></g></g></g><g><g><path data-cppathid="10002" d="M296.24,188.64c17.97-5.89,37.4-8.36,57.44-6.68c11.89,0.99,23.32,3.39,34.15,7.01" class="st2"/><g><polygon data-cppathid="10003" points="376.27,203.4 410.85,198.95 389.71,171.22      " class="st3"/></g></g></g><g><g><path data-cppathid="10004" d="M432.44,213.27c20.78,16.63,36.8,38.78,46,64.01" class="st4"/><g><polygon data-cppathid="10005" points="459.92,277.24 484.95,301.51 493.46,267.7      " class="st5"/></g></g></g><g><g><path data-cppathid="10006" d="M486.22,310.16c1.1,9.46,1.27,19.17,0.45,29.03c-1.67,19.99-7.3,38.7-16.06,55.42" class="st6"/><g><polygon data-cppathid="10007" points="458.15,380.9 457.08,415.75 487.79,399.26      " class="st7"/></g></g></g><g><g><path data-cppathid="10008" d="M441.86,432.63c-24.56,23.32-57.13,38.04-92.63,39.87" class="st8"/><g><polygon data-cppathid="10009" points="354.69,454.85 324.14,471.64 353.96,489.71      " class="st9"/></g></g></g><g><g><path data-cppathid="10010" d="M310.16,469.28c-27.66-6.07-52.13-19.89-71.25-38.92" class="st10"/><g><polygon data-cppathid="10011" points="255.67,422.52 222.7,411.2 229.37,445.42      " class="st11"/></g></g></g><g><g><path data-cppathid="10012" d="M215.34,399.72c-14.31-24.81-21.47-54.08-18.9-84.79c0.02-0.23,0.04-0.45,0.06-0.68" class="st12"/><g><polygon data-cppathid="10013" points="213.24,322.12 200.82,289.54 178.82,316.58      " class="st13"/></g></g></g></g><g><g><path data-cppathid="10014" d="M-151.06-123.03c0.52,0,1.69-0.78,0.64-0.78C-150.94-123.81-152.11-123.03-151.06-123.03L-151.06-123.03z" class="st14"/></g></g><path data-cppathid="10015" d="M-251.75-5.36" class="st15"/><g><ellipse data-cppathid="10016" ry="71.01" rx="71.01" cy="99.98" cx="337.71" class="st16" transform="matrix(0.303 -0.953 0.953 0.303 140.111 391.5227)"/><g><path data-cppathid="10017" d="M337.18,53.52h-0.04L335,54.62l-0.43-2l2.89-1.5h2.23v12.63h-2.53V53.52z"/><path data-cppathid="10018" d="M303.79,71.95c0.64-0.16,1.57-0.25,2.58-0.25c1.65,0,2.8,0.39,3.63,1.17c1.13,1.01,1.71,2.74,1.71,5.28     c0,2.64-0.68,4.53-1.83,5.54c-0.87,0.85-2.18,1.26-4,1.26c-0.8,0-1.59-0.08-2.1-0.14V71.95z M306.33,82.83     c0.12,0.04,0.31,0.04,0.45,0.04c1.22,0,2.29-1.2,2.29-4.82c0-2.68-0.7-4.31-2.23-4.31c-0.17,0-0.35,0-0.5,0.06V82.83z"/><path data-cppathid="10019" d="M315.2,81c0.04,1.48,0.89,2.02,2.02,2.02c0.72,0,1.36-0.16,1.81-0.31l0.35,1.83c-0.66,0.25-1.65,0.43-2.62,0.43     c-2.58,0-4-1.71-4-4.68c0-3.19,1.65-5.09,3.81-5.09c2.04,0,3.22,1.61,3.22,4.49c0,0.68-0.02,1.05-0.08,1.32H315.2z M317.48,79.22     c0-1.22-0.31-2.18-1.07-2.18c-0.84,0-1.17,1.22-1.19,2.18H317.48z"/><path data-cppathid="10020" d="M321.67,84.85v-7.69h-1.28v-1.81h1.28v-0.5c0-1.22,0.76-3.59,4.21-3.59c0.91,0,1.73,0.16,2.25,0.39l-0.37,2     c-0.43-0.16-1.01-0.31-1.79-0.31c-1.38,0-1.77,0.78-1.77,1.67v0.35h4.74v9.5h-2.56v-7.69h-2.18v7.69H321.67z"/><path data-cppathid="10021" d="M330.72,78.21c0-1.05-0.06-1.96-0.08-2.86h2.2l0.12,1.09h0.04c0.5-0.76,1.32-1.24,2.31-1.24c1.81,0,2.53,1.44,2.53,3.55     v6.1h-2.54v-5.94c0-0.82-0.19-1.57-0.93-1.57c-0.43,0-0.78,0.29-0.95,0.85c-0.08,0.19-0.14,0.5-0.14,0.87v5.79h-2.54V78.21z"/><path data-cppathid="10022" d="M341.73,81c0.04,1.48,0.89,2.02,2.02,2.02c0.72,0,1.36-0.16,1.81-0.31l0.35,1.83c-0.66,0.25-1.65,0.43-2.62,0.43     c-2.58,0-4-1.71-4-4.68c0-3.19,1.65-5.09,3.81-5.09c2.04,0,3.22,1.61,3.22,4.49c0,0.68-0.02,1.05-0.08,1.32H341.73z M344,79.22     c0-1.22-0.31-2.18-1.07-2.18c-0.83,0-1.17,1.22-1.18,2.18H344z"/><path data-cppathid="10023" d="M353.83,72.79v2.56h1.87v1.81h-1.87v4.33c0,1.11,0.47,1.38,0.97,1.38c0.25,0,0.45-0.02,0.66-0.06l0.02,1.98     c-0.35,0.1-0.87,0.17-1.55,0.17c-0.74,0-1.38-0.17-1.83-0.6c-0.52-0.5-0.82-1.22-0.82-2.72v-4.49h-1.13v-1.81h1.13v-1.96     L353.83,72.79z"/><path data-cppathid="10024" d="M356.88,71.41h2.54v4.93h0.04c0.21-0.33,0.51-0.6,0.82-0.82c0.37-0.21,0.82-0.33,1.28-0.33c1.75,0,2.43,1.48,2.43,3.88     v5.77h-2.54v-5.77c0-0.93-0.17-1.75-0.93-1.75c-0.43,0-0.8,0.25-0.99,0.89c-0.04,0.16-0.1,0.5-0.1,0.72v5.91h-2.54V71.41z"/><path data-cppathid="10025" d="M367.89,81c0.04,1.48,0.89,2.02,2.02,2.02c0.72,0,1.36-0.16,1.81-0.31l0.35,1.83c-0.66,0.25-1.65,0.43-2.62,0.43     c-2.58,0-4-1.71-4-4.68c0-3.19,1.65-5.09,3.81-5.09c2.04,0,3.22,1.61,3.22,4.49c0,0.68-0.02,1.05-0.08,1.32H367.89z      M370.16,79.22c0-1.22-0.31-2.18-1.07-2.18c-0.83,0-1.17,1.22-1.18,2.18H370.16z"/><path data-cppathid="10026" d="M317.31,102.1c0.04,1.48,0.89,2.02,2.02,2.02c0.72,0,1.36-0.16,1.81-0.31l0.35,1.83c-0.66,0.25-1.65,0.43-2.62,0.43     c-2.58,0-4-1.71-4-4.68c0-3.19,1.65-5.09,3.81-5.09c2.04,0,3.22,1.61,3.22,4.49c0,0.68-0.02,1.05-0.08,1.32H317.31z      M319.58,100.31c0-1.22-0.31-2.18-1.07-2.18c-0.83,0-1.17,1.22-1.18,2.18H319.58z"/><path data-cppathid="10027" d="M323.33,99.3c0-1.05-0.06-1.96-0.08-2.86h2.2l0.12,1.09h0.04c0.51-0.76,1.32-1.24,2.31-1.24c1.81,0,2.52,1.44,2.52,3.55     v6.1h-2.54V100c0-0.82-0.19-1.57-0.93-1.57c-0.43,0-0.78,0.29-0.95,0.85c-0.08,0.19-0.14,0.5-0.14,0.87v5.79h-2.54V99.3z"/><path data-cppathid="10028" d="M334.34,102.1c0.04,1.48,0.89,2.02,2.02,2.02c0.72,0,1.36-0.16,1.81-0.31l0.35,1.83c-0.66,0.25-1.65,0.43-2.62,0.43     c-2.58,0-4-1.71-4-4.68c0-3.19,1.65-5.09,3.81-5.09c2.04,0,3.22,1.61,3.22,4.49c0,0.68-0.02,1.05-0.08,1.32H334.34z      M336.62,100.31c0-1.22-0.31-2.18-1.07-2.18c-0.83,0-1.17,1.22-1.18,2.18H336.62z"/><path data-cppathid="10029" d="M340.34,99.3c0-0.95-0.04-1.98-0.08-2.86h2.21l0.14,1.38h0.06c0.43-1.01,1.18-1.53,1.88-1.53c0.25,0,0.39,0,0.54,0.04     v2.53c-0.16-0.04-0.33-0.04-0.54-0.04c-0.54,0-1.26,0.37-1.55,1.36c-0.06,0.21-0.1,0.54-0.1,0.95v4.82h-2.56V99.3z"/><path data-cppathid="10030" d="M353,96.45c-0.04,0.85-0.1,1.86-0.1,3.01v5.42c0,2.04-0.37,3.17-1.15,3.9c-0.7,0.66-1.69,1.05-3.09,1.05     c-0.87,0-1.69-0.16-2.37-0.45l0.47-1.96c0.49,0.21,1.09,0.41,1.83,0.41c1.28,0,1.79-0.85,1.79-2.31v-0.58h-0.04     c-0.33,0.6-0.99,0.95-1.71,0.95c-2.14,0-2.97-2.33-2.97-4.6c0-3.17,1.44-4.99,3.21-4.99c0.76,0,1.38,0.39,1.75,1.11h0.04     l0.14-0.95H353z M350.38,99.91c0-0.25-0.04-0.5-0.1-0.7c-0.12-0.41-0.39-0.78-0.82-0.78c-0.91,0-1.28,1.24-1.28,2.8     c0,1.77,0.5,2.66,1.22,2.66c0.33,0,0.66-0.17,0.85-0.68c0.08-0.21,0.12-0.5,0.12-0.76V99.91z"/><path data-cppathid="10031" d="M356.62,96.45l0.93,4.93c0.1,0.56,0.17,1.09,0.25,1.59h0.04c0.08-0.49,0.16-1.03,0.23-1.55l0.8-4.97h2.49l-1.94,7.32     c-0.47,1.79-1.09,3.63-2.12,4.86c-0.8,0.93-1.77,1.38-2.16,1.5l-0.78-2.19c0.45-0.16,0.87-0.45,1.26-0.8     c0.35-0.33,0.62-0.72,0.8-1.13c0.08-0.17,0.14-0.27,0.14-0.41c0-0.12-0.04-0.23-0.08-0.35l-2.6-8.8H356.62z"/><path data-cppathid="10032" d="M300.6,127.04c0.04-0.84,0.08-1.9,0.08-2.82V113.6h2.54v4.9h0.04c0.47-0.68,1.07-1.11,1.98-1.11     c1.85,0,2.68,2.08,2.68,4.64c0,3.32-1.32,5.17-3.09,5.17c-0.8,0-1.36-0.33-1.86-1.28h-0.06l-0.14,1.13H300.6z M303.22,123.65     c0,0.23,0.04,0.47,0.1,0.6c0.21,0.68,0.56,0.87,0.87,0.87c0.85,0,1.2-1.07,1.2-2.89c0-1.63-0.37-2.7-1.22-2.7     c-0.39,0-0.72,0.41-0.85,0.87c-0.06,0.16-0.1,0.41-0.1,0.58V123.65z"/><path data-cppathid="10033" d="M316.31,122.27c0,3.96-2.19,4.93-3.63,4.93c-2.27,0-3.63-1.79-3.63-4.88c0-3.42,1.79-4.93,3.67-4.93     C314.95,117.39,316.31,119.27,316.31,122.27z M311.57,122.27c0,1.63,0.25,2.99,1.17,2.99c0.82,0,1.03-1.59,1.03-2.99     c0-1.3-0.21-2.95-1.07-2.95C311.77,119.31,311.57,120.96,311.57,122.27z"/><path data-cppathid="10034" d="M324.7,124.15c0,1.01,0.04,2,0.08,2.89h-2.2l-0.14-1.01h-0.04c-0.45,0.64-1.22,1.17-2.2,1.17c-1.81,0-2.54-1.34-2.54-3.9     v-5.75h2.56v5.48c0,1.24,0.23,2.04,0.95,2.04c0.43,0,0.7-0.33,0.82-0.64c0.1-0.19,0.16-0.49,0.16-0.82v-6.06h2.54V124.15z"/><path data-cppathid="10035" d="M326.53,120.4c0-1.05-0.06-1.96-0.08-2.86h2.2l0.12,1.09h0.04c0.5-0.76,1.32-1.24,2.31-1.24c1.81,0,2.52,1.44,2.52,3.55     v6.1h-2.54v-5.94c0-0.82-0.19-1.57-0.93-1.57c-0.43,0-0.78,0.29-0.95,0.85c-0.08,0.19-0.14,0.5-0.14,0.87v5.79h-2.54V120.4z"/><path data-cppathid="10036" d="M342.32,113.6v10.63c0,0.91,0.04,1.94,0.08,2.82h-2.2l-0.14-1.07h-0.04c-0.35,0.66-1.11,1.22-1.98,1.22     c-2.02,0-2.95-2.23-2.95-4.9c0-3.3,1.44-4.91,3.05-4.91c0.83,0,1.36,0.41,1.59,0.95h0.04v-4.74H342.32z M339.77,121.2     c0-0.17,0-0.37-0.02-0.56c-0.1-0.58-0.41-1.11-0.91-1.11c-0.89,0-1.22,1.3-1.22,2.84c0,1.81,0.49,2.76,1.2,2.76     c0.31,0,0.68-0.17,0.87-0.84c0.06-0.14,0.08-0.35,0.08-0.58V121.2z"/><path data-cppathid="10037" d="M348.35,127.04l-0.14-0.93h-0.04c-0.52,0.74-1.26,1.09-2.1,1.09c-1.44,0-2.51-1.2-2.51-2.89c0-2.49,2.2-3.52,4.35-3.54     v-0.21c0-0.74-0.45-1.28-1.34-1.28c-0.76,0-1.38,0.19-1.94,0.54l-0.47-1.71c0.52-0.31,1.63-0.72,2.95-0.72     c2.89,0,3.36,2.02,3.36,3.94v3.54c0,0.76,0.04,1.53,0.16,2.18H348.35z M348,122.42c-0.85,0.02-2.02,0.29-2.02,1.61     c0,0.95,0.52,1.3,0.91,1.3c0.41,0,0.87-0.25,1.05-0.82c0.04-0.14,0.06-0.29,0.06-0.45V122.42z"/><path data-cppathid="10038" d="M352.28,120.4c0-0.95-0.04-1.98-0.08-2.86h2.21l0.14,1.38h0.06c0.43-1.01,1.18-1.53,1.88-1.53c0.25,0,0.39,0,0.54,0.04     v2.53c-0.16-0.04-0.33-0.04-0.54-0.04c-0.54,0-1.26,0.37-1.55,1.36c-0.06,0.21-0.1,0.54-0.1,0.95v4.82h-2.56V120.4z"/><path data-cppathid="10039" d="M360.55,115.02c0.02,0.82-0.56,1.38-1.34,1.38c-0.7,0-1.28-0.56-1.26-1.38c-0.02-0.85,0.6-1.38,1.3-1.38     C359.99,113.64,360.55,114.17,360.55,115.02z M358,127.04v-9.5h2.54v9.5H358z"/><path data-cppathid="10040" d="M364.45,123.2c0.04,1.48,0.89,2.02,2.02,2.02c0.72,0,1.36-0.16,1.81-0.31l0.35,1.83c-0.66,0.25-1.65,0.43-2.62,0.43     c-2.58,0-4-1.71-4-4.68c0-3.19,1.65-5.09,3.81-5.09c2.04,0,3.22,1.61,3.22,4.49c0,0.68-0.02,1.05-0.08,1.32H364.45z      M366.72,121.41c0-1.22-0.31-2.18-1.07-2.18c-0.83,0-1.17,1.22-1.18,2.18H366.72z"/><path data-cppathid="10041" d="M370.39,124.75c0.37,0.23,1.07,0.5,1.71,0.5c0.66,0,1.03-0.29,1.03-0.85c0-0.49-0.27-0.8-1.11-1.28     c-1.55-0.87-1.92-1.86-1.92-2.74c0-1.71,1.22-2.99,3.13-2.99c0.8,0,1.42,0.19,1.92,0.43l-0.45,1.86     c-0.37-0.21-0.82-0.39-1.32-0.39c-0.64,0-0.95,0.39-0.95,0.82s0.21,0.66,1.11,1.19c1.4,0.8,1.92,1.79,1.92,2.87     c0,1.94-1.4,2.99-3.36,2.99c-0.8,0-1.73-0.21-2.18-0.54L370.39,124.75z"/></g></g><g><ellipse data-cppathid="10042" ry="71.01" rx="71.01" cy="185.16" cx="522.89" class="st17" transform="matrix(0.9961 -0.0887 0.0887 0.9961 -14.3583 47.0918)"/><g><g><g><path data-cppathid="10043" d="M518.24,143.9v-1.71l1.26-1.61c1.63-2.08,2.97-3.81,2.97-5.61c0-1.01-0.56-1.73-1.61-1.73c-0.8,0-1.44,0.35-1.9,0.64       l-0.45-1.98c0.58-0.37,1.67-0.78,2.82-0.78c2.76,0,3.65,1.85,3.65,3.65c0,2.37-1.48,4.27-2.93,5.96l-0.76,0.89v0.04h3.87v2.23       H518.24z"/><path data-cppathid="10044" d="M499.74,159.25h-2.99v3.54h3.38V165h-5.92v-13.09h5.69v2.21h-3.15v3.01h2.99V159.25z"/><path data-cppathid="10045" d="M501.55,162.71c0.37,0.23,1.07,0.5,1.71,0.5c0.66,0,1.03-0.29,1.03-0.85c0-0.49-0.27-0.8-1.11-1.28       c-1.55-0.87-1.92-1.86-1.92-2.74c0-1.71,1.22-2.99,3.13-2.99c0.8,0,1.42,0.19,1.92,0.43l-0.45,1.86       c-0.37-0.21-0.82-0.39-1.32-0.39c-0.64,0-0.95,0.39-0.95,0.82s0.21,0.66,1.11,1.19c1.4,0.8,1.92,1.79,1.92,2.87       c0,1.94-1.4,2.99-3.36,2.99c-0.8,0-1.73-0.21-2.18-0.54L501.55,162.71z"/><path data-cppathid="10046" d="M510.91,152.94v2.56h1.87v1.81h-1.87v4.33c0,1.11,0.47,1.38,0.97,1.38c0.25,0,0.45-0.02,0.66-0.06l0.02,1.98       c-0.35,0.1-0.87,0.17-1.55,0.17c-0.74,0-1.38-0.17-1.83-0.6c-0.52-0.5-0.82-1.22-0.82-2.72v-4.49h-1.13v-1.81h1.13v-1.96       L510.91,152.94z"/><path data-cppathid="10047" d="M518.21,165l-0.14-0.93h-0.04c-0.52,0.74-1.26,1.09-2.1,1.09c-1.44,0-2.51-1.2-2.51-2.89c0-2.49,2.2-3.52,4.35-3.54       v-0.21c0-0.74-0.45-1.28-1.34-1.28c-0.76,0-1.38,0.19-1.94,0.54l-0.47-1.71c0.52-0.31,1.63-0.72,2.95-0.72       c2.89,0,3.36,2.02,3.36,3.94v3.54c0,0.76,0.04,1.53,0.16,2.18H518.21z M517.86,160.38c-0.85,0.02-2.02,0.29-2.02,1.61       c0,0.95,0.52,1.3,0.91,1.3c0.41,0,0.87-0.25,1.05-0.82c0.04-0.14,0.06-0.29,0.06-0.45V160.38z"/><path data-cppathid="10048" d="M522.05,165c0.04-0.84,0.08-1.9,0.08-2.82v-10.63h2.54v4.9h0.04c0.47-0.68,1.07-1.11,1.98-1.11       c1.85,0,2.68,2.08,2.68,4.64c0,3.32-1.32,5.17-3.09,5.17c-0.8,0-1.36-0.33-1.87-1.28h-0.06l-0.14,1.13H522.05z M524.68,161.6       c0,0.23,0.04,0.47,0.1,0.6c0.21,0.68,0.56,0.87,0.87,0.87c0.85,0,1.2-1.07,1.2-2.89c0-1.63-0.37-2.7-1.22-2.7       c-0.39,0-0.72,0.41-0.85,0.87c-0.06,0.16-0.1,0.41-0.1,0.58V161.6z"/><path data-cppathid="10049" d="M530.83,151.56h2.54V165h-2.54V151.56z"/><path data-cppathid="10050" d="M537.75,152.98c0.02,0.82-0.56,1.38-1.34,1.38c-0.7,0-1.28-0.56-1.26-1.38c-0.02-0.85,0.6-1.38,1.3-1.38       C537.18,151.6,537.75,152.12,537.75,152.98z M535.2,165v-9.5h2.54v9.5H535.2z"/><path data-cppathid="10051" d="M539.45,162.71c0.37,0.23,1.07,0.5,1.71,0.5c0.66,0,1.03-0.29,1.03-0.85c0-0.49-0.27-0.8-1.11-1.28       c-1.55-0.87-1.92-1.86-1.92-2.74c0-1.71,1.22-2.99,3.13-2.99c0.8,0,1.42,0.19,1.92,0.43l-0.45,1.86       c-0.37-0.21-0.82-0.39-1.32-0.39c-0.64,0-0.95,0.39-0.95,0.82s0.21,0.66,1.11,1.19c1.4,0.8,1.92,1.79,1.92,2.87       c0,1.94-1.4,2.99-3.36,2.99c-0.8,0-1.73-0.21-2.18-0.54L539.45,162.71z"/><path data-cppathid="10052" d="M545.82,151.56h2.54v4.93h0.04c0.21-0.33,0.51-0.6,0.82-0.82c0.37-0.21,0.82-0.33,1.28-0.33       c1.75,0,2.43,1.48,2.43,3.88V165h-2.54v-5.77c0-0.93-0.17-1.75-0.93-1.75c-0.43,0-0.8,0.25-0.99,0.89       c-0.04,0.16-0.1,0.5-0.1,0.72V165h-2.54V151.56z"/><path data-cppathid="10053" d="M502.93,182.25c0.04,1.48,0.89,2.02,2.02,2.02c0.72,0,1.36-0.16,1.81-0.31l0.35,1.83c-0.66,0.25-1.65,0.43-2.62,0.43       c-2.58,0-4-1.71-4-4.68c0-3.19,1.65-5.09,3.81-5.09c2.04,0,3.22,1.61,3.22,4.49c0,0.68-0.02,1.05-0.08,1.32H502.93z        M505.2,180.46c0-1.22-0.31-2.18-1.07-2.18c-0.83,0-1.17,1.22-1.18,2.18H505.2z"/><path data-cppathid="10054" d="M508.95,179.45c0-1.05-0.06-1.96-0.08-2.86h2.2l0.12,1.09h0.04c0.5-0.76,1.32-1.24,2.31-1.24       c1.81,0,2.53,1.44,2.53,3.55v6.1h-2.54v-5.94c0-0.82-0.19-1.57-0.93-1.57c-0.43,0-0.78,0.29-0.95,0.85       c-0.08,0.19-0.14,0.5-0.14,0.87v5.79h-2.54V179.45z"/><path data-cppathid="10055" d="M519.96,182.25c0.04,1.48,0.89,2.02,2.02,2.02c0.72,0,1.36-0.16,1.81-0.31l0.35,1.83c-0.66,0.25-1.65,0.43-2.62,0.43       c-2.58,0-4-1.71-4-4.68c0-3.19,1.65-5.09,3.81-5.09c2.04,0,3.22,1.61,3.22,4.49c0,0.68-0.02,1.05-0.08,1.32H519.96z        M522.23,180.46c0-1.22-0.31-2.18-1.07-2.18c-0.83,0-1.17,1.22-1.18,2.18H522.23z"/><path data-cppathid="10056" d="M525.96,179.45c0-0.95-0.04-1.98-0.08-2.86h2.21l0.14,1.38h0.06c0.43-1.01,1.18-1.53,1.88-1.53       c0.25,0,0.39,0,0.54,0.04v2.53c-0.16-0.04-0.33-0.04-0.54-0.04c-0.54,0-1.26,0.37-1.55,1.36c-0.06,0.21-0.1,0.54-0.1,0.95v4.82       h-2.56V179.45z"/><path data-cppathid="10057" d="M538.62,176.6c-0.04,0.85-0.1,1.86-0.1,3.01v5.42c0,2.04-0.37,3.17-1.15,3.9c-0.7,0.66-1.69,1.05-3.09,1.05       c-0.87,0-1.69-0.16-2.37-0.45l0.47-1.96c0.49,0.21,1.09,0.41,1.83,0.41c1.28,0,1.79-0.85,1.79-2.31v-0.58h-0.04       c-0.33,0.6-0.99,0.95-1.71,0.95c-2.14,0-2.97-2.33-2.97-4.6c0-3.17,1.44-4.99,3.21-4.99c0.76,0,1.38,0.39,1.75,1.11h0.04       l0.14-0.95H538.62z M536,180.06c0-0.25-0.04-0.5-0.1-0.7c-0.12-0.41-0.39-0.78-0.82-0.78c-0.91,0-1.28,1.24-1.28,2.8       c0,1.77,0.5,2.66,1.22,2.66c0.33,0,0.66-0.17,0.85-0.68c0.08-0.21,0.12-0.5,0.12-0.76V180.06z"/><path data-cppathid="10058" d="M542.23,176.6l0.93,4.93c0.1,0.56,0.17,1.09,0.25,1.59h0.04c0.08-0.49,0.16-1.03,0.23-1.55l0.8-4.97h2.49l-1.94,7.32       c-0.47,1.79-1.09,3.63-2.12,4.86c-0.8,0.93-1.77,1.38-2.16,1.5l-0.78-2.19c0.45-0.16,0.87-0.45,1.26-0.8       c0.35-0.33,0.62-0.72,0.8-1.13c0.08-0.17,0.14-0.27,0.14-0.41c0-0.12-0.04-0.23-0.08-0.35l-2.6-8.8H542.23z"/><path data-cppathid="10059" d="M478.93,200.71c0-1.15-0.04-2.12-0.08-3.01h2.21l0.14,1.09h0.04c0.39-0.78,1.11-1.24,1.98-1.24       c2.1,0,2.95,2.25,2.95,4.9c0,3.38-1.5,4.91-3.09,4.91c-0.78,0-1.3-0.49-1.57-0.93h-0.04v4.51h-2.54V200.71z M481.48,203.72       c0,0.33,0.04,0.62,0.14,0.82c0.19,0.58,0.52,0.74,0.82,0.74c0.89,0,1.21-1.32,1.21-2.82c0-1.81-0.43-2.78-1.19-2.78       c-0.39,0-0.76,0.37-0.85,0.82c-0.1,0.19-0.12,0.45-0.12,0.68V203.72z"/><path data-cppathid="10060" d="M487.62,200.55c0-0.95-0.04-1.98-0.08-2.86h2.21l0.14,1.38h0.06c0.43-1.01,1.18-1.53,1.88-1.53       c0.25,0,0.39,0,0.54,0.04v2.53c-0.16-0.04-0.33-0.04-0.54-0.04c-0.54,0-1.26,0.37-1.55,1.36c-0.06,0.21-0.1,0.54-0.1,0.95v4.82       h-2.56V200.55z"/><path data-cppathid="10061" d="M495.89,195.17c0.02,0.82-0.56,1.38-1.34,1.38c-0.7,0-1.28-0.56-1.26-1.38c-0.02-0.85,0.6-1.38,1.3-1.38       C495.33,193.79,495.89,194.32,495.89,195.17z M493.34,207.19v-9.5h2.54v9.5H493.34z"/><path data-cppathid="10062" d="M504.61,202.42c0,3.96-2.2,4.93-3.63,4.93c-2.27,0-3.63-1.79-3.63-4.88c0-3.42,1.79-4.93,3.67-4.93       C503.25,197.54,504.61,199.42,504.61,202.42z M499.87,202.42c0,1.63,0.25,2.99,1.17,2.99c0.82,0,1.03-1.59,1.03-2.99       c0-1.3-0.21-2.95-1.07-2.95C500.06,199.46,499.87,201.11,499.87,202.42z"/><path data-cppathid="10063" d="M506.02,200.55c0-0.95-0.04-1.98-0.08-2.86h2.21l0.14,1.38h0.06c0.43-1.01,1.18-1.53,1.88-1.53       c0.25,0,0.39,0,0.54,0.04v2.53c-0.16-0.04-0.33-0.04-0.54-0.04c-0.54,0-1.26,0.37-1.55,1.36c-0.06,0.21-0.1,0.54-0.1,0.95v4.82       h-2.56V200.55z"/><path data-cppathid="10064" d="M514.3,195.17c0.02,0.82-0.56,1.38-1.34,1.38c-0.7,0-1.28-0.56-1.26-1.38c-0.02-0.85,0.6-1.38,1.3-1.38       C513.73,193.79,514.3,194.32,514.3,195.17z M511.75,207.19v-9.5h2.54v9.5H511.75z"/><path data-cppathid="10065" d="M519.07,195.13v2.56h1.87v1.81h-1.87v4.33c0,1.11,0.47,1.38,0.97,1.38c0.25,0,0.45-0.02,0.66-0.06l0.02,1.98       c-0.35,0.1-0.87,0.17-1.55,0.17c-0.74,0-1.38-0.17-1.83-0.6c-0.52-0.5-0.82-1.22-0.82-2.72v-4.49h-1.13v-1.81h1.13v-1.96       L519.07,195.13z"/><path data-cppathid="10066" d="M524.67,195.17c0.02,0.82-0.56,1.38-1.34,1.38c-0.7,0-1.28-0.56-1.26-1.38c-0.02-0.85,0.6-1.38,1.3-1.38       C524.1,193.79,524.67,194.32,524.67,195.17z M522.12,207.19v-9.5h2.54v9.5H522.12z"/><path data-cppathid="10067" d="M528.57,203.35c0.04,1.48,0.89,2.02,2.02,2.02c0.72,0,1.36-0.16,1.81-0.31l0.35,1.83c-0.66,0.25-1.65,0.43-2.62,0.43       c-2.58,0-4-1.71-4-4.68c0-3.19,1.65-5.09,3.81-5.09c2.04,0,3.22,1.61,3.22,4.49c0,0.68-0.02,1.05-0.08,1.32H528.57z        M530.84,201.56c0-1.22-0.31-2.18-1.07-2.18c-0.83,0-1.17,1.22-1.18,2.18H530.84z"/><path data-cppathid="10068" d="M534.51,204.9c0.37,0.23,1.07,0.5,1.71,0.5c0.66,0,1.03-0.29,1.03-0.85c0-0.49-0.27-0.8-1.11-1.28       c-1.55-0.87-1.92-1.86-1.92-2.74c0-1.71,1.22-2.99,3.13-2.99c0.8,0,1.42,0.19,1.92,0.43l-0.45,1.86       c-0.37-0.21-0.82-0.39-1.32-0.39c-0.64,0-0.95,0.39-0.95,0.82s0.21,0.66,1.11,1.19c1.4,0.8,1.92,1.79,1.92,2.87       c0,1.94-1.4,2.99-3.36,2.99c-0.8,0-1.73-0.21-2.18-0.54L534.51,204.9z"/><path data-cppathid="10069" d="M548.22,207.19l-0.14-0.93h-0.04c-0.52,0.74-1.26,1.09-2.1,1.09c-1.44,0-2.51-1.2-2.51-2.89c0-2.49,2.2-3.52,4.35-3.54       v-0.21c0-0.74-0.45-1.28-1.34-1.28c-0.76,0-1.38,0.19-1.94,0.54l-0.47-1.71c0.52-0.31,1.63-0.72,2.95-0.72       c2.89,0,3.36,2.02,3.36,3.94v3.54c0,0.76,0.04,1.53,0.16,2.18H548.22z M547.87,202.57c-0.85,0.02-2.02,0.29-2.02,1.61       c0,0.95,0.52,1.3,0.91,1.3c0.41,0,0.87-0.25,1.05-0.82c0.04-0.14,0.06-0.29,0.06-0.45V202.57z"/><path data-cppathid="10070" d="M552.16,200.55c0-1.05-0.06-1.96-0.08-2.86h2.2l0.12,1.09h0.04c0.5-0.76,1.32-1.24,2.31-1.24       c1.81,0,2.53,1.44,2.53,3.55v6.1h-2.54v-5.94c0-0.82-0.19-1.57-0.93-1.57c-0.43,0-0.78,0.29-0.95,0.85       c-0.08,0.19-0.14,0.5-0.14,0.87v5.79h-2.54V200.55z"/><path data-cppathid="10071" d="M567.95,193.75v10.63c0,0.91,0.04,1.94,0.08,2.82h-2.2l-0.14-1.07h-0.04c-0.35,0.66-1.11,1.22-1.98,1.22       c-2.02,0-2.95-2.23-2.95-4.9c0-3.3,1.44-4.91,3.05-4.91c0.83,0,1.36,0.41,1.59,0.95h0.04v-4.74H567.95z M565.41,201.35       c0-0.17,0-0.37-0.02-0.56c-0.1-0.58-0.41-1.11-0.91-1.11c-0.89,0-1.22,1.3-1.22,2.84c0,1.81,0.49,2.76,1.2,2.76       c0.31,0,0.68-0.17,0.87-0.84c0.06-0.14,0.08-0.35,0.08-0.58V201.35z"/><path data-cppathid="10072" d="M493.34,216.23v2.56h1.87v1.81h-1.87v4.33c0,1.11,0.47,1.38,0.97,1.38c0.25,0,0.45-0.02,0.66-0.06l0.02,1.98       c-0.35,0.1-0.87,0.17-1.55,0.17c-0.74,0-1.38-0.17-1.83-0.6c-0.52-0.5-0.82-1.22-0.82-2.72v-4.49h-1.13v-1.81h1.13v-1.96       L493.34,216.23z"/><path data-cppathid="10073" d="M500.65,228.29l-0.14-0.93h-0.04c-0.52,0.74-1.26,1.09-2.1,1.09c-1.44,0-2.51-1.2-2.51-2.89c0-2.49,2.2-3.52,4.35-3.54       v-0.21c0-0.74-0.45-1.28-1.34-1.28c-0.76,0-1.38,0.19-1.94,0.54l-0.47-1.71c0.52-0.31,1.63-0.72,2.95-0.72       c2.89,0,3.36,2.02,3.36,3.94v3.54c0,0.76,0.04,1.53,0.16,2.18H500.65z M500.3,223.67c-0.85,0.02-2.02,0.29-2.02,1.61       c0,0.95,0.52,1.3,0.91,1.3c0.41,0,0.87-0.25,1.05-0.82c0.04-0.14,0.06-0.29,0.06-0.45V223.67z"/><path data-cppathid="10074" d="M504.57,221.65c0-0.95-0.04-1.98-0.08-2.86h2.21l0.14,1.38h0.06c0.43-1.01,1.18-1.53,1.88-1.53       c0.25,0,0.39,0,0.54,0.04v2.53c-0.16-0.04-0.33-0.04-0.54-0.04c-0.54,0-1.26,0.37-1.55,1.36c-0.06,0.21-0.1,0.54-0.1,0.95v4.82       h-2.56V221.65z"/><path data-cppathid="10075" d="M517.23,218.79c-0.04,0.85-0.1,1.86-0.1,3.01v5.42c0,2.04-0.37,3.17-1.15,3.9c-0.7,0.66-1.69,1.05-3.09,1.05       c-0.87,0-1.69-0.16-2.37-0.45l0.47-1.96c0.49,0.21,1.09,0.41,1.83,0.41c1.28,0,1.79-0.85,1.79-2.31v-0.58h-0.04       c-0.33,0.6-0.99,0.95-1.71,0.95c-2.14,0-2.97-2.33-2.97-4.6c0-3.17,1.44-4.99,3.21-4.99c0.76,0,1.38,0.39,1.75,1.11h0.04       l0.14-0.95H517.23z M514.61,222.25c0-0.25-0.04-0.5-0.1-0.7c-0.12-0.41-0.39-0.78-0.82-0.78c-0.91,0-1.28,1.24-1.28,2.8       c0,1.77,0.5,2.66,1.22,2.66c0.33,0,0.66-0.17,0.85-0.68c0.08-0.21,0.12-0.5,0.12-0.76V222.25z"/><path data-cppathid="10076" d="M521.02,224.45c0.04,1.48,0.89,2.02,2.02,2.02c0.72,0,1.36-0.16,1.81-0.31l0.35,1.83c-0.66,0.25-1.65,0.43-2.62,0.43       c-2.58,0-4-1.71-4-4.68c0-3.19,1.65-5.09,3.81-5.09c2.04,0,3.22,1.61,3.22,4.49c0,0.68-0.02,1.05-0.08,1.32H521.02z        M523.29,222.66c0-1.22-0.31-2.18-1.07-2.18c-0.83,0-1.17,1.22-1.18,2.18H523.29z"/><path data-cppathid="10077" d="M530.03,216.23v2.56h1.87v1.81h-1.87v4.33c0,1.11,0.47,1.38,0.97,1.38c0.25,0,0.45-0.02,0.66-0.06l0.02,1.98       c-0.35,0.1-0.87,0.17-1.55,0.17c-0.74,0-1.38-0.17-1.83-0.6c-0.52-0.5-0.82-1.22-0.82-2.72v-4.49h-1.13v-1.81h1.13v-1.96       L530.03,216.23z"/><path data-cppathid="10078" d="M541.93,222.54h-2.99v3.54h3.38v2.21h-5.92V215.2h5.69v2.21h-3.15v3.01h2.99V222.54z"/><path data-cppathid="10079" d="M546.51,215.2v8.51c0,1.92,0.58,2.51,1.24,2.51c0.74,0,1.26-0.52,1.26-2.51v-8.51h2.54v8.06       c0,3.36-1.26,5.19-3.79,5.19c-2.74,0-3.81-1.88-3.81-5.17v-8.08H546.51z"/><path data-cppathid="10080" d="M556.3,215.2v13.09h-2.54V215.2H556.3z"/></g></g><polygon data-cppathid="10081" points="594.78,188.74 617.12,194.39 601.06,210.91    " class="st18"/></g></g><g><ellipse data-cppathid="10082" ry="71.01" rx="71.01" cy="533.66" cx="436.67" class="st19" transform="matrix(0.7071 -0.7071 0.7071 0.7071 -249.4544 465.0769)"/><g><g><path data-cppathid="10083" d="M437.8,486.92v-3.01h-4.33v-1.75l4.14-7.87h2.45v7.58h1.26v2.04h-1.26v3.01H437.8z M437.8,481.86v-2.58      c0-0.68,0.08-1.42,0.14-2.08h-0.08c-0.29,0.7-0.54,1.26-0.87,1.96l-1.36,2.66v0.04H437.8z"/><path data-cppathid="10084" d="M387.78,505.41c0.52,0.29,1.42,0.5,2.16,0.5c1.2,0,1.79-0.62,1.79-1.48c0-0.95-0.58-1.42-1.69-2.14      c-1.79-1.09-2.47-2.47-2.47-3.65c0-2.1,1.4-3.85,4.14-3.85c0.85,0,1.67,0.23,2.06,0.47l-0.41,2.19      c-0.37-0.23-0.93-0.45-1.67-0.45c-1.09,0-1.61,0.66-1.61,1.36c0,0.78,0.39,1.19,1.81,2.04c1.73,1.05,2.37,2.37,2.37,3.75      c0,2.39-1.77,3.96-4.33,3.96c-1.05,0-2.08-0.27-2.51-0.52L387.78,505.41z"/><path data-cppathid="10085" d="M397.78,504.17c0.04,1.48,0.89,2.02,2.02,2.02c0.72,0,1.36-0.16,1.81-0.31l0.35,1.83c-0.66,0.25-1.65,0.43-2.62,0.43      c-2.58,0-4-1.71-4-4.68c0-3.19,1.65-5.09,3.81-5.09c2.04,0,3.22,1.61,3.22,4.49c0,0.68-0.02,1.05-0.08,1.32H397.78z       M400.06,502.38c0-1.22-0.31-2.18-1.07-2.18c-0.83,0-1.17,1.22-1.18,2.18H400.06z"/><path data-cppathid="10086" d="M403.8,494.57h2.54v13.44h-2.54V494.57z"/><path data-cppathid="10087" d="M410.29,504.17c0.04,1.48,0.89,2.02,2.02,2.02c0.72,0,1.36-0.16,1.81-0.31l0.35,1.83c-0.66,0.25-1.65,0.43-2.62,0.43      c-2.58,0-4-1.71-4-4.68c0-3.19,1.65-5.09,3.81-5.09c2.04,0,3.22,1.61,3.22,4.49c0,0.68-0.02,1.05-0.08,1.32H410.29z       M412.56,502.38c0-1.22-0.31-2.18-1.07-2.18c-0.83,0-1.17,1.22-1.18,2.18H412.56z"/><path data-cppathid="10088" d="M421.57,507.86c-0.25,0.12-0.89,0.27-1.61,0.27c-2.41,0-3.98-1.67-3.98-4.78c0-2.93,1.73-4.97,4.35-4.97      c0.6,0,1.15,0.14,1.4,0.25l-0.33,2c-0.21-0.08-0.52-0.17-0.95-0.17c-1.22,0-1.94,1.17-1.94,2.82c0,1.73,0.72,2.78,1.9,2.78      c0.37,0,0.68-0.06,0.95-0.19L421.57,507.86z"/><path data-cppathid="10089" d="M425.94,495.95v2.56h1.87v1.81h-1.87v4.33c0,1.11,0.47,1.38,0.97,1.38c0.25,0,0.45-0.02,0.66-0.06l0.02,1.98      c-0.35,0.1-0.87,0.17-1.55,0.17c-0.74,0-1.38-0.17-1.83-0.6c-0.52-0.5-0.82-1.22-0.82-2.72v-4.49h-1.13v-1.81h1.13v-1.96      L425.94,495.95z"/><path data-cppathid="10090" d="M435.07,495.95v2.56h1.87v1.81h-1.87v4.33c0,1.11,0.47,1.38,0.97,1.38c0.25,0,0.45-0.02,0.66-0.06l0.02,1.98      c-0.35,0.1-0.87,0.17-1.55,0.17c-0.74,0-1.38-0.17-1.83-0.6c-0.52-0.5-0.82-1.22-0.82-2.72v-4.49h-1.13v-1.81h1.13v-1.96      L435.07,495.95z"/><path data-cppathid="10091" d="M438.12,494.57h2.54v4.93h0.04c0.21-0.33,0.51-0.6,0.82-0.82c0.37-0.21,0.82-0.33,1.28-0.33c1.75,0,2.43,1.48,2.43,3.88      v5.77h-2.54v-5.77c0-0.93-0.17-1.75-0.93-1.75c-0.43,0-0.8,0.25-0.99,0.89c-0.04,0.16-0.1,0.5-0.1,0.72v5.91h-2.54V494.57z"/><path data-cppathid="10092" d="M449.13,504.17c0.04,1.48,0.89,2.02,2.02,2.02c0.72,0,1.36-0.16,1.81-0.31l0.35,1.83c-0.66,0.25-1.65,0.43-2.62,0.43      c-2.58,0-4-1.71-4-4.68c0-3.19,1.65-5.09,3.81-5.09c2.04,0,3.22,1.61,3.22,4.49c0,0.68-0.02,1.05-0.08,1.32H449.13z       M451.4,502.38c0-1.22-0.31-2.18-1.07-2.18c-0.83,0-1.17,1.22-1.18,2.18H451.4z"/><path data-cppathid="10093" d="M461.22,495.95v2.56h1.87v1.81h-1.87v4.33c0,1.11,0.47,1.38,0.97,1.38c0.25,0,0.45-0.02,0.66-0.06l0.02,1.98      c-0.35,0.1-0.87,0.17-1.55,0.17c-0.74,0-1.38-0.17-1.83-0.6c-0.52-0.5-0.82-1.22-0.82-2.72v-4.49h-1.13v-1.81h1.13v-1.96      L461.22,495.95z"/><path data-cppathid="10094" d="M466.27,498.51l0.93,4.93c0.1,0.56,0.17,1.09,0.25,1.59h0.04c0.08-0.49,0.16-1.03,0.23-1.55l0.8-4.97h2.49l-1.94,7.32      c-0.47,1.79-1.09,3.63-2.12,4.86c-0.8,0.93-1.77,1.38-2.16,1.5l-0.78-2.19c0.45-0.16,0.87-0.45,1.26-0.8      c0.35-0.33,0.62-0.72,0.8-1.13c0.08-0.17,0.14-0.27,0.14-0.41c0-0.12-0.04-0.23-0.08-0.35l-2.6-8.8H466.27z"/><path data-cppathid="10095" d="M471.9,501.52c0-1.15-0.04-2.12-0.08-3.01h2.21l0.14,1.09h0.04c0.39-0.78,1.11-1.24,1.98-1.24c2.1,0,2.95,2.25,2.95,4.9      c0,3.38-1.5,4.91-3.09,4.91c-0.78,0-1.3-0.49-1.57-0.93h-0.04v4.51h-2.54V501.52z M474.45,504.54c0,0.33,0.04,0.62,0.14,0.82      c0.19,0.58,0.52,0.74,0.82,0.74c0.89,0,1.21-1.32,1.21-2.82c0-1.81-0.43-2.78-1.19-2.78c-0.39,0-0.76,0.37-0.85,0.82      c-0.1,0.19-0.12,0.45-0.12,0.68V504.54z"/><path data-cppathid="10096" d="M482.72,504.17c0.04,1.48,0.89,2.02,2.02,2.02c0.72,0,1.36-0.16,1.81-0.31l0.35,1.83c-0.66,0.25-1.65,0.43-2.62,0.43      c-2.58,0-4-1.71-4-4.68c0-3.19,1.65-5.09,3.81-5.09c2.04,0,3.22,1.61,3.22,4.49c0,0.68-0.02,1.05-0.08,1.32H482.72z       M484.99,502.38c0-1.22-0.31-2.18-1.07-2.18c-0.83,0-1.17,1.22-1.18,2.18H484.99z"/><path data-cppathid="10097" d="M394.13,524.33c0,3.96-2.2,4.93-3.63,4.93c-2.27,0-3.63-1.79-3.63-4.88c0-3.42,1.79-4.93,3.67-4.93      C392.77,519.46,394.13,521.34,394.13,524.33z M389.39,524.33c0,1.63,0.25,2.99,1.17,2.99c0.82,0,1.03-1.59,1.03-2.99      c0-1.3-0.21-2.95-1.07-2.95C389.59,521.38,389.39,523.03,389.39,524.33z"/><path data-cppathid="10098" d="M396.01,529.11v-7.69h-1.28v-1.81h1.28v-0.39c0-1.07,0.21-2.06,0.97-2.84c0.56-0.58,1.38-0.87,2.27-0.87      c0.66,0,1.17,0.1,1.54,0.21l-0.29,1.98c-0.19-0.08-0.47-0.12-0.78-0.12c-0.86,0-1.17,0.74-1.17,1.57v0.45h1.65v1.81h-1.65v7.69      H396.01z"/><path data-cppathid="10099" d="M406.99,516.02v5.24h2.66v-5.24h2.54v13.09h-2.54v-5.48h-2.66v5.48h-2.54v-13.09H406.99z"/><path data-cppathid="10100" d="M416.27,529.11l-2.93-13.09h2.82l0.93,5.65c0.23,1.4,0.5,3.01,0.68,4.54h0.04c0.17-1.55,0.39-3.13,0.62-4.6l0.89-5.59      h2.8l-2.99,13.09H416.27z"/><path data-cppathid="10101" d="M424.99,526.12l-0.58,2.99h-2.47l2.84-13.09h3.05l2.54,13.09h-2.47l-0.56-2.99H424.99z M427.11,524.14l-0.43-2.74      c-0.14-0.8-0.31-2.1-0.43-2.97h-0.06c-0.14,0.87-0.33,2.23-0.47,2.99l-0.49,2.72H427.11z"/><path data-cppathid="10102" d="M437.77,528.92c-0.37,0.17-1.09,0.31-1.98,0.31c-3.34,0-4.93-2.76-4.93-6.47c0-4.93,2.74-6.86,5.28-6.86      c0.89,0,1.51,0.17,1.77,0.35l-0.43,2.14c-0.29-0.14-0.62-0.25-1.18-0.25c-1.44,0-2.74,1.24-2.74,4.49      c0,3.13,1.18,4.35,2.74,4.35c0.43,0,0.91-0.1,1.22-0.19L437.77,528.92z"/><path data-cppathid="10103" d="M441.94,526.82c0.37,0.23,1.07,0.5,1.71,0.5c0.66,0,1.03-0.29,1.03-0.85c0-0.49-0.27-0.8-1.11-1.28      c-1.55-0.87-1.92-1.86-1.92-2.74c0-1.71,1.22-2.99,3.13-2.99c0.8,0,1.42,0.19,1.92,0.43l-0.45,1.86      c-0.37-0.21-0.82-0.39-1.32-0.39c-0.64,0-0.95,0.39-0.95,0.82s0.21,0.66,1.11,1.18c1.4,0.8,1.92,1.79,1.92,2.88      c0,1.94-1.4,2.99-3.36,2.99c-0.8,0-1.73-0.21-2.18-0.54L441.94,526.82z"/><path data-cppathid="10104" d="M450.25,519.61l0.93,4.93c0.1,0.56,0.17,1.09,0.25,1.59h0.04c0.08-0.49,0.16-1.03,0.23-1.55l0.8-4.97h2.49l-1.94,7.32      c-0.47,1.79-1.09,3.63-2.12,4.86c-0.8,0.93-1.77,1.38-2.16,1.5l-0.78-2.19c0.45-0.16,0.87-0.45,1.26-0.8      c0.35-0.33,0.62-0.72,0.8-1.13c0.08-0.17,0.14-0.27,0.14-0.41c0-0.12-0.04-0.23-0.08-0.35l-2.6-8.8H450.25z"/><path data-cppathid="10105" d="M455.75,526.82c0.37,0.23,1.07,0.5,1.71,0.5c0.66,0,1.03-0.29,1.03-0.85c0-0.49-0.27-0.8-1.11-1.28      c-1.55-0.87-1.92-1.86-1.92-2.74c0-1.71,1.22-2.99,3.13-2.99c0.8,0,1.42,0.19,1.92,0.43l-0.45,1.86      c-0.37-0.21-0.82-0.39-1.32-0.39c-0.64,0-0.95,0.39-0.95,0.82s0.21,0.66,1.11,1.18c1.4,0.8,1.92,1.79,1.92,2.88      c0,1.94-1.4,2.99-3.36,2.99c-0.8,0-1.73-0.21-2.18-0.54L455.75,526.82z"/><path data-cppathid="10106" d="M465.11,517.05v2.56h1.87v1.81h-1.87v4.33c0,1.11,0.47,1.38,0.97,1.38c0.25,0,0.45-0.02,0.66-0.06l0.02,1.98      c-0.35,0.1-0.87,0.17-1.55,0.17c-0.74,0-1.38-0.17-1.83-0.6c-0.52-0.5-0.82-1.22-0.82-2.72v-4.49h-1.13v-1.81h1.13v-1.96      L465.11,517.05z"/><path data-cppathid="10107" d="M470.16,525.26c0.04,1.48,0.89,2.02,2.02,2.02c0.72,0,1.36-0.16,1.81-0.31l0.35,1.83c-0.66,0.25-1.65,0.43-2.62,0.43      c-2.58,0-4-1.71-4-4.68c0-3.19,1.65-5.09,3.81-5.09c2.04,0,3.22,1.61,3.22,4.49c0,0.68-0.02,1.05-0.08,1.32H470.16z       M472.43,523.48c0-1.22-0.31-2.18-1.07-2.18c-0.83,0-1.17,1.22-1.18,2.18H472.43z"/><path data-cppathid="10108" d="M476.18,522.47c0-1.05-0.06-1.96-0.08-2.86h2.21l0.12,1.11h0.04c0.49-0.72,1.28-1.26,2.27-1.26      c1.07,0,1.75,0.49,2.08,1.28h0.04c0.23-0.37,0.58-0.72,0.95-0.95c0.39-0.21,0.85-0.33,1.34-0.33c1.69,0,2.45,1.34,2.45,3.63      v6.02h-2.53v-5.59c0-1.09-0.12-1.96-0.89-1.96c-0.45,0-0.78,0.31-0.95,0.87c-0.04,0.14-0.08,0.41-0.08,0.66v6.02h-2.53v-5.96      c0-0.68-0.08-1.59-0.87-1.59c-0.39,0-0.78,0.29-0.95,0.85c-0.06,0.17-0.1,0.45-0.1,0.72v5.98h-2.53V522.47z"/><path data-cppathid="10109" d="M372.62,550.21c0.04-0.83,0.08-1.9,0.08-2.82v-10.62h2.54v4.89h0.04c0.47-0.68,1.07-1.11,1.98-1.11      c1.85,0,2.68,2.08,2.68,4.64c0,3.32-1.32,5.17-3.09,5.17c-0.8,0-1.36-0.33-1.87-1.28h-0.06l-0.14,1.13H372.62z M375.25,546.81      c0,0.23,0.04,0.47,0.1,0.6c0.21,0.68,0.56,0.87,0.87,0.87c0.85,0,1.2-1.07,1.2-2.89c0-1.63-0.37-2.7-1.22-2.7      c-0.39,0-0.72,0.41-0.85,0.87c-0.06,0.16-0.1,0.41-0.1,0.58V546.81z"/><path data-cppathid="10110" d="M385.66,550.21l-0.14-0.93h-0.04c-0.52,0.74-1.26,1.09-2.1,1.09c-1.44,0-2.51-1.2-2.51-2.89c0-2.49,2.2-3.52,4.35-3.54      v-0.21c0-0.74-0.45-1.28-1.34-1.28c-0.76,0-1.38,0.19-1.94,0.54l-0.47-1.71c0.52-0.31,1.63-0.72,2.95-0.72      c2.89,0,3.36,2.02,3.36,3.94v3.54c0,0.76,0.04,1.54,0.16,2.18H385.66z M385.31,545.58c-0.85,0.02-2.02,0.29-2.02,1.61      c0,0.95,0.52,1.3,0.91,1.3c0.41,0,0.87-0.25,1.05-0.82c0.04-0.14,0.06-0.29,0.06-0.45V545.58z"/><path data-cppathid="10111" d="M389.52,547.91c0.37,0.23,1.07,0.5,1.71,0.5c0.66,0,1.03-0.29,1.03-0.85c0-0.49-0.27-0.8-1.11-1.28      c-1.55-0.87-1.92-1.86-1.92-2.74c0-1.71,1.22-2.99,3.13-2.99c0.8,0,1.42,0.19,1.92,0.43l-0.45,1.86      c-0.37-0.21-0.82-0.39-1.32-0.39c-0.64,0-0.95,0.39-0.95,0.82s0.21,0.66,1.11,1.18c1.4,0.8,1.92,1.79,1.92,2.88      c0,1.94-1.4,2.99-3.36,2.99c-0.8,0-1.73-0.21-2.18-0.54L389.52,547.91z"/><path data-cppathid="10112" d="M398.01,546.36c0.04,1.48,0.89,2.02,2.02,2.02c0.72,0,1.36-0.16,1.81-0.31l0.35,1.83c-0.66,0.25-1.65,0.43-2.62,0.43      c-2.58,0-4-1.71-4-4.68c0-3.19,1.65-5.09,3.81-5.09c2.04,0,3.22,1.61,3.22,4.49c0,0.68-0.02,1.05-0.08,1.32H398.01z       M400.28,544.57c0-1.22-0.31-2.18-1.07-2.18c-0.83,0-1.17,1.22-1.18,2.18H400.28z"/><path data-cppathid="10113" d="M410.92,536.76v10.62c0,0.91,0.04,1.94,0.08,2.82h-2.2l-0.14-1.07h-0.04c-0.35,0.66-1.11,1.22-1.98,1.22      c-2.02,0-2.95-2.23-2.95-4.89c0-3.3,1.44-4.92,3.05-4.92c0.83,0,1.36,0.41,1.59,0.95h0.04v-4.74H410.92z M408.38,544.36      c0-0.17,0-0.37-0.02-0.56c-0.1-0.58-0.41-1.11-0.91-1.11c-0.89,0-1.22,1.3-1.22,2.84c0,1.81,0.49,2.76,1.2,2.76      c0.31,0,0.68-0.17,0.87-0.83c0.06-0.14,0.08-0.35,0.08-0.58V544.36z"/><path data-cppathid="10114" d="M422.73,545.43c0,3.96-2.2,4.93-3.63,4.93c-2.27,0-3.63-1.79-3.63-4.88c0-3.42,1.79-4.93,3.67-4.93      C421.37,540.55,422.73,542.44,422.73,545.43z M417.99,545.43c0,1.63,0.25,2.99,1.17,2.99c0.82,0,1.03-1.59,1.03-2.99      c0-1.3-0.21-2.95-1.07-2.95C418.18,542.48,417.99,544.13,417.99,545.43z"/><path data-cppathid="10115" d="M424.16,543.56c0-1.05-0.06-1.96-0.08-2.86h2.2l0.12,1.09h0.04c0.5-0.76,1.32-1.24,2.31-1.24      c1.81,0,2.53,1.44,2.53,3.55v6.1h-2.54v-5.94c0-0.82-0.19-1.57-0.93-1.57c-0.43,0-0.78,0.29-0.95,0.86      c-0.08,0.19-0.14,0.5-0.14,0.87v5.79h-2.54V543.56z"/><path data-cppathid="10116" d="M436.07,547.91c0.37,0.23,1.07,0.5,1.71,0.5c0.66,0,1.03-0.29,1.03-0.85c0-0.49-0.27-0.8-1.11-1.28      c-1.55-0.87-1.92-1.86-1.92-2.74c0-1.71,1.22-2.99,3.13-2.99c0.8,0,1.42,0.19,1.92,0.43l-0.45,1.86      c-0.37-0.21-0.82-0.39-1.32-0.39c-0.64,0-0.95,0.39-0.95,0.82s0.21,0.66,1.11,1.18c1.4,0.8,1.92,1.79,1.92,2.88      c0,1.94-1.4,2.99-3.36,2.99c-0.8,0-1.73-0.21-2.18-0.54L436.07,547.91z"/><path data-cppathid="10117" d="M444.98,538.18c0.02,0.82-0.56,1.38-1.34,1.38c-0.7,0-1.28-0.56-1.26-1.38c-0.02-0.85,0.6-1.38,1.3-1.38      C444.42,536.8,444.98,537.33,444.98,538.18z M442.44,550.21v-9.5h2.54v9.5H442.44z"/><path data-cppathid="10118" d="M446.77,543.56c0-1.05-0.06-1.96-0.08-2.86h2.21l0.12,1.11h0.04c0.49-0.72,1.28-1.26,2.27-1.26      c1.07,0,1.75,0.49,2.08,1.28h0.04c0.23-0.37,0.58-0.72,0.95-0.95c0.39-0.21,0.85-0.33,1.34-0.33c1.69,0,2.45,1.34,2.45,3.63      v6.02h-2.53v-5.59c0-1.09-0.12-1.96-0.89-1.96c-0.45,0-0.78,0.31-0.95,0.87c-0.04,0.14-0.08,0.41-0.08,0.66v6.02h-2.53v-5.96      c0-0.68-0.08-1.59-0.87-1.59c-0.39,0-0.78,0.29-0.95,0.85c-0.06,0.17-0.1,0.45-0.1,0.72v5.98h-2.53V543.56z"/><path data-cppathid="10119" d="M466.93,547.31c0,1.01,0.04,2,0.08,2.89h-2.19l-0.14-1.01h-0.04c-0.45,0.64-1.22,1.17-2.2,1.17      c-1.81,0-2.54-1.34-2.54-3.9v-5.75h2.56v5.48c0,1.24,0.23,2.04,0.95,2.04c0.43,0,0.7-0.33,0.82-0.64      c0.1-0.19,0.16-0.49,0.16-0.82v-6.06h2.54V547.31z"/><path data-cppathid="10120" d="M468.75,536.76h2.54v13.44h-2.54V536.76z"/><path data-cppathid="10121" d="M477.37,550.21l-0.14-0.93h-0.04c-0.52,0.74-1.26,1.09-2.1,1.09c-1.44,0-2.51-1.2-2.51-2.89c0-2.49,2.2-3.52,4.35-3.54      v-0.21c0-0.74-0.45-1.28-1.34-1.28c-0.76,0-1.38,0.19-1.94,0.54l-0.47-1.71c0.52-0.31,1.63-0.72,2.95-0.72      c2.89,0,3.36,2.02,3.36,3.94v3.54c0,0.76,0.04,1.54,0.16,2.18H477.37z M477.02,545.58c-0.85,0.02-2.02,0.29-2.02,1.61      c0,0.95,0.52,1.3,0.91,1.3c0.41,0,0.87-0.25,1.05-0.82c0.04-0.14,0.06-0.29,0.06-0.45V545.58z"/><path data-cppathid="10122" d="M484.11,538.14v2.56h1.87v1.81h-1.87v4.33c0,1.11,0.47,1.38,0.97,1.38c0.25,0,0.45-0.02,0.66-0.06l0.02,1.98      c-0.35,0.1-0.87,0.17-1.55,0.17c-0.74,0-1.38-0.17-1.83-0.6c-0.52-0.5-0.82-1.22-0.82-2.72v-4.49h-1.13v-1.81h1.13v-1.96      L484.11,538.14z"/><path data-cppathid="10123" d="M489.16,546.36c0.04,1.48,0.89,2.02,2.02,2.02c0.72,0,1.36-0.16,1.81-0.31l0.35,1.83c-0.66,0.25-1.65,0.43-2.62,0.43      c-2.58,0-4-1.71-4-4.68c0-3.19,1.65-5.09,3.81-5.09c2.04,0,3.22,1.61,3.22,4.49c0,0.68-0.02,1.05-0.08,1.32H489.16z       M491.43,544.57c0-1.22-0.31-2.18-1.07-2.18c-0.83,0-1.17,1.22-1.18,2.18H491.43z"/><path data-cppathid="10124" d="M502.07,536.76v10.62c0,0.91,0.04,1.94,0.08,2.82h-2.2l-0.14-1.07h-0.04c-0.35,0.66-1.11,1.22-1.98,1.22      c-2.02,0-2.95-2.23-2.95-4.89c0-3.3,1.44-4.92,3.05-4.92c0.83,0,1.36,0.41,1.59,0.95h0.04v-4.74H502.07z M499.53,544.36      c0-0.17,0-0.37-0.02-0.56c-0.1-0.58-0.41-1.11-0.91-1.11c-0.89,0-1.22,1.3-1.22,2.84c0,1.81,0.49,2.76,1.2,2.76      c0.31,0,0.68-0.17,0.87-0.83c0.06-0.14,0.08-0.35,0.08-0.58V544.36z"/><path data-cppathid="10125" d="M390.33,571.3c0.04-0.83,0.08-1.9,0.08-2.82v-10.62h2.54v4.89h0.04c0.47-0.68,1.07-1.11,1.98-1.11      c1.85,0,2.68,2.08,2.68,4.64c0,3.32-1.32,5.17-3.09,5.17c-0.8,0-1.36-0.33-1.87-1.28h-0.06l-0.14,1.13H390.33z M392.95,567.9      c0,0.23,0.04,0.47,0.1,0.6c0.21,0.68,0.56,0.87,0.87,0.87c0.85,0,1.21-1.07,1.21-2.89c0-1.63-0.37-2.7-1.22-2.7      c-0.39,0-0.72,0.41-0.85,0.87c-0.06,0.16-0.1,0.41-0.1,0.58V567.9z"/><path data-cppathid="10126" d="M406.06,568.41c0,1.01,0.04,2,0.08,2.89h-2.19l-0.14-1.01h-0.04c-0.45,0.64-1.22,1.17-2.2,1.17      c-1.81,0-2.54-1.34-2.54-3.9v-5.75h2.56v5.48c0,1.24,0.23,2.04,0.95,2.04c0.43,0,0.7-0.33,0.82-0.64      c0.1-0.19,0.16-0.49,0.16-0.82v-6.06h2.54V568.41z"/><path data-cppathid="10127" d="M410.42,559.28c0.02,0.82-0.56,1.38-1.34,1.38c-0.7,0-1.28-0.56-1.26-1.38c-0.02-0.85,0.6-1.38,1.3-1.38      C409.86,557.9,410.42,558.42,410.42,559.28z M407.88,571.3v-9.5h2.54v9.5H407.88z"/><path data-cppathid="10128" d="M412.21,557.86h2.54v13.44h-2.54V557.86z"/><path data-cppathid="10129" d="M423.47,557.86v10.62c0,0.91,0.04,1.94,0.08,2.82h-2.2l-0.14-1.07h-0.04c-0.35,0.66-1.11,1.22-1.98,1.22      c-2.02,0-2.95-2.23-2.95-4.89c0-3.3,1.44-4.92,3.05-4.92c0.83,0,1.36,0.41,1.59,0.95h0.04v-4.74H423.47z M420.93,565.46      c0-0.17,0-0.37-0.02-0.56c-0.1-0.58-0.41-1.11-0.91-1.11c-0.89,0-1.22,1.3-1.22,2.84c0,1.81,0.49,2.76,1.2,2.76      c0.31,0,0.68-0.17,0.87-0.83c0.06-0.14,0.08-0.35,0.08-0.58V565.46z"/><path data-cppathid="10130" d="M427.8,559.28c0.02,0.82-0.56,1.38-1.34,1.38c-0.7,0-1.28-0.56-1.26-1.38c-0.02-0.85,0.6-1.38,1.3-1.38      C427.24,557.9,427.8,558.42,427.8,559.28z M425.26,571.3v-9.5h2.54v9.5H425.26z"/><path data-cppathid="10131" d="M429.59,564.66c0-1.05-0.06-1.96-0.08-2.86h2.2l0.12,1.09h0.04c0.5-0.76,1.32-1.24,2.31-1.24      c1.81,0,2.53,1.44,2.53,3.55v6.1h-2.54v-5.94c0-0.82-0.19-1.57-0.93-1.57c-0.43,0-0.78,0.29-0.95,0.86      c-0.08,0.19-0.14,0.5-0.14,0.87v5.79h-2.54V564.66z"/><path data-cppathid="10132" d="M445.5,561.8c-0.04,0.86-0.1,1.87-0.1,3.01v5.42c0,2.04-0.37,3.17-1.15,3.9c-0.7,0.66-1.69,1.05-3.09,1.05      c-0.87,0-1.69-0.16-2.37-0.45l0.47-1.96c0.49,0.21,1.09,0.41,1.83,0.41c1.28,0,1.79-0.85,1.79-2.31v-0.58h-0.04      c-0.33,0.6-0.99,0.95-1.71,0.95c-2.14,0-2.97-2.33-2.97-4.6c0-3.17,1.44-4.99,3.21-4.99c0.76,0,1.38,0.39,1.75,1.11h0.04      l0.14-0.95H445.5z M442.87,565.26c0-0.25-0.04-0.5-0.1-0.7c-0.12-0.41-0.39-0.78-0.82-0.78c-0.91,0-1.28,1.24-1.28,2.8      c0,1.77,0.5,2.66,1.22,2.66c0.33,0,0.66-0.17,0.85-0.68c0.08-0.21,0.12-0.5,0.12-0.76V565.26z"/><path data-cppathid="10133" d="M450.25,557.86h2.54v13.44h-2.54V557.86z"/><path data-cppathid="10134" d="M461.56,566.52c0,3.96-2.2,4.93-3.63,4.93c-2.27,0-3.63-1.79-3.63-4.88c0-3.42,1.79-4.93,3.67-4.93      C460.2,561.65,461.56,563.53,461.56,566.52z M456.82,566.52c0,1.63,0.25,2.99,1.17,2.99c0.82,0,1.03-1.59,1.03-2.99      c0-1.3-0.21-2.95-1.07-2.95C457.01,563.57,456.82,565.22,456.82,566.52z"/><path data-cppathid="10135" d="M467.24,571.3l-0.14-0.93h-0.04c-0.52,0.74-1.26,1.09-2.1,1.09c-1.44,0-2.51-1.2-2.51-2.89c0-2.49,2.2-3.52,4.35-3.54      v-0.21c0-0.74-0.45-1.28-1.34-1.28c-0.76,0-1.38,0.19-1.94,0.54l-0.47-1.71c0.52-0.31,1.63-0.72,2.95-0.72      c2.89,0,3.36,2.02,3.36,3.94v3.54c0,0.76,0.04,1.54,0.16,2.18H467.24z M466.89,566.68c-0.85,0.02-2.02,0.29-2.02,1.61      c0,0.95,0.52,1.3,0.91,1.3c0.41,0,0.87-0.25,1.05-0.82c0.04-0.14,0.06-0.29,0.06-0.45V566.68z"/><path data-cppathid="10136" d="M478.08,557.86v10.62c0,0.91,0.04,1.94,0.08,2.82h-2.2l-0.14-1.07h-0.04c-0.35,0.66-1.11,1.22-1.98,1.22      c-2.02,0-2.95-2.23-2.95-4.89c0-3.3,1.44-4.92,3.05-4.92c0.83,0,1.36,0.41,1.59,0.95h0.04v-4.74H478.08z M475.54,565.46      c0-0.17,0-0.37-0.02-0.56c-0.1-0.58-0.41-1.11-0.91-1.11c-0.89,0-1.22,1.3-1.22,2.84c0,1.81,0.49,2.76,1.2,2.76      c0.31,0,0.68-0.17,0.87-0.83c0.06-0.14,0.08-0.35,0.08-0.58V565.46z"/><path data-cppathid="10137" d="M479.79,569.01c0.37,0.23,1.07,0.5,1.71,0.5c0.66,0,1.03-0.29,1.03-0.85c0-0.49-0.27-0.8-1.11-1.28      c-1.55-0.87-1.92-1.86-1.92-2.74c0-1.71,1.22-2.99,3.13-2.99c0.8,0,1.42,0.19,1.92,0.43l-0.45,1.86      c-0.37-0.21-0.82-0.39-1.32-0.39c-0.64,0-0.95,0.39-0.95,0.82s0.21,0.66,1.11,1.18c1.4,0.8,1.92,1.79,1.92,2.88      c0,1.94-1.4,2.99-3.36,2.99c-0.8,0-1.73-0.21-2.18-0.54L479.79,569.01z"/></g></g></g><g><ellipse data-cppathid="10138" ry="71.01" rx="71.01" cy="527.17" cx="232.57" class="st20" transform="matrix(0.7071 -0.7071 0.7071 0.7071 -304.6429 318.8572)"/><g><g><path data-cppathid="10139" d="M235.44,488.67h-3.34l-0.29,2.25c0.12,0,0.25,0,0.39,0c0.54,0.02,1.65,0.27,2.37,0.95c0.7,0.68,1.09,1.63,1.09,2.89      c0,2.47-1.63,4.47-4.39,4.47c-0.89,0-1.86-0.23-2.37-0.5l0.39-2.02c0.47,0.23,1.13,0.45,1.81,0.45c1.24,0,2.06-0.8,2.06-2.16      c0-1.69-1.28-2.25-2.74-2.25c-0.35,0-0.64,0-0.89,0.04l0.7-6.33h5.23V488.67z"/><path data-cppathid="10140" d="M172.57,507.29c0.64-0.16,1.57-0.25,2.58-0.25c1.65,0,2.8,0.39,3.63,1.17c1.13,1.01,1.71,2.74,1.71,5.28      c0,2.64-0.68,4.53-1.83,5.54c-0.87,0.85-2.18,1.26-4,1.26c-0.8,0-1.59-0.08-2.1-0.14V507.29z M175.11,518.16      c0.12,0.04,0.31,0.04,0.45,0.04c1.22,0,2.29-1.2,2.29-4.82c0-2.68-0.7-4.31-2.23-4.31c-0.17,0-0.35,0-0.5,0.06V518.16z"/><path data-cppathid="10141" d="M183.99,516.34c0.04,1.48,0.89,2.02,2.02,2.02c0.72,0,1.36-0.16,1.81-0.31l0.35,1.83c-0.66,0.25-1.65,0.43-2.62,0.43      c-2.58,0-4-1.71-4-4.68c0-3.19,1.65-5.09,3.81-5.09c2.04,0,3.22,1.61,3.22,4.49c0,0.68-0.02,1.05-0.08,1.32H183.99z       M186.26,514.55c0-1.22-0.31-2.18-1.07-2.18c-0.84,0-1.17,1.22-1.19,2.18H186.26z"/><path data-cppathid="10142" d="M189.93,517.89c0.37,0.23,1.07,0.5,1.71,0.5c0.66,0,1.03-0.29,1.03-0.85c0-0.49-0.27-0.8-1.11-1.28      c-1.55-0.87-1.92-1.86-1.92-2.74c0-1.71,1.22-2.99,3.13-2.99c0.8,0,1.42,0.19,1.92,0.43l-0.45,1.86      c-0.37-0.21-0.82-0.39-1.32-0.39c-0.64,0-0.95,0.39-0.95,0.82s0.21,0.66,1.11,1.18c1.4,0.8,1.92,1.79,1.92,2.88      c0,1.94-1.4,2.99-3.36,2.99c-0.8,0-1.73-0.21-2.18-0.54L189.93,517.89z"/><path data-cppathid="10143" d="M198.84,508.16c0.02,0.82-0.56,1.38-1.34,1.38c-0.7,0-1.28-0.56-1.26-1.38c-0.02-0.85,0.6-1.38,1.3-1.38      C198.28,506.78,198.84,507.3,198.84,508.16z M196.3,520.18v-9.5h2.54v9.5H196.3z"/><path data-cppathid="10144" d="M207.64,510.68c-0.04,0.86-0.1,1.87-0.1,3.01v5.42c0,2.04-0.37,3.17-1.15,3.9c-0.7,0.66-1.69,1.05-3.09,1.05      c-0.87,0-1.69-0.16-2.37-0.45l0.47-1.96c0.49,0.21,1.09,0.41,1.83,0.41c1.28,0,1.79-0.85,1.79-2.31v-0.58h-0.04      c-0.33,0.6-0.99,0.95-1.71,0.95c-2.14,0-2.97-2.33-2.97-4.6c0-3.17,1.44-4.99,3.21-4.99c0.76,0,1.38,0.39,1.75,1.11h0.04      l0.14-0.95H207.64z M205.02,514.14c0-0.25-0.04-0.5-0.1-0.7c-0.12-0.41-0.39-0.78-0.82-0.78c-0.91,0-1.28,1.24-1.28,2.8      c0,1.77,0.51,2.66,1.22,2.66c0.33,0,0.66-0.17,0.85-0.68c0.08-0.21,0.12-0.5,0.12-0.76V514.14z"/><path data-cppathid="10145" d="M209.31,513.54c0-1.05-0.06-1.96-0.08-2.86h2.19l0.12,1.09h0.04c0.51-0.76,1.32-1.24,2.31-1.24      c1.81,0,2.53,1.44,2.53,3.55v6.1h-2.54v-5.94c0-0.82-0.19-1.57-0.93-1.57c-0.43,0-0.78,0.29-0.95,0.86      c-0.08,0.19-0.14,0.5-0.14,0.87v5.79h-2.54V513.54z"/><path data-cppathid="10146" d="M224.28,508.12v2.56h1.86v1.81h-1.86v4.33c0,1.11,0.47,1.38,0.97,1.38c0.25,0,0.45-0.02,0.66-0.06l0.02,1.98      c-0.35,0.1-0.87,0.17-1.55,0.17c-0.74,0-1.38-0.17-1.83-0.6c-0.52-0.5-0.82-1.22-0.82-2.72v-4.49h-1.13v-1.81h1.13v-1.96      L224.28,508.12z"/><path data-cppathid="10147" d="M227.33,506.74h2.54v4.93h0.04c0.21-0.33,0.5-0.6,0.82-0.82c0.37-0.21,0.82-0.33,1.28-0.33c1.75,0,2.43,1.48,2.43,3.88      v5.77h-2.54v-5.77c0-0.93-0.18-1.75-0.93-1.75c-0.43,0-0.8,0.25-0.99,0.89c-0.04,0.16-0.1,0.5-0.1,0.72v5.91h-2.54V506.74z"/><path data-cppathid="10148" d="M238.34,516.34c0.04,1.48,0.89,2.02,2.02,2.02c0.72,0,1.36-0.16,1.81-0.31l0.35,1.83c-0.66,0.25-1.65,0.43-2.62,0.43      c-2.58,0-4-1.71-4-4.68c0-3.19,1.65-5.09,3.81-5.09c2.04,0,3.22,1.61,3.22,4.49c0,0.68-0.02,1.05-0.08,1.32H238.34z       M240.62,514.55c0-1.22-0.31-2.18-1.07-2.18c-0.84,0-1.17,1.22-1.19,2.18H240.62z"/><path data-cppathid="10149" d="M254.38,515.4c0,3.96-2.19,4.93-3.63,4.93c-2.27,0-3.63-1.79-3.63-4.88c0-3.42,1.79-4.93,3.67-4.93      C253.02,510.53,254.38,512.41,254.38,515.4z M249.64,515.4c0,1.63,0.25,2.99,1.17,2.99c0.82,0,1.03-1.59,1.03-2.99      c0-1.3-0.21-2.95-1.07-2.95C249.84,512.45,249.64,514.1,249.64,515.4z"/><path data-cppathid="10150" d="M255.82,513.54c0-1.05-0.06-1.96-0.08-2.86h2.19l0.12,1.09h0.04c0.51-0.76,1.32-1.24,2.31-1.24      c1.81,0,2.53,1.44,2.53,3.55v6.1h-2.54v-5.94c0-0.82-0.19-1.57-0.93-1.57c-0.43,0-0.78,0.29-0.95,0.86      c-0.08,0.19-0.14,0.5-0.14,0.87v5.79h-2.54V513.54z"/><path data-cppathid="10151" d="M268.27,513.91v1.83h-3.87v-1.83H268.27z"/><path data-cppathid="10152" d="M269.66,517.89c0.37,0.23,1.07,0.5,1.71,0.5c0.66,0,1.03-0.29,1.03-0.85c0-0.49-0.27-0.8-1.11-1.28      c-1.55-0.87-1.92-1.86-1.92-2.74c0-1.71,1.22-2.99,3.13-2.99c0.8,0,1.42,0.19,1.92,0.43l-0.45,1.86      c-0.37-0.21-0.82-0.39-1.32-0.39c-0.64,0-0.95,0.39-0.95,0.82s0.21,0.66,1.11,1.18c1.4,0.8,1.92,1.79,1.92,2.88      c0,1.94-1.4,2.99-3.36,2.99c-0.8,0-1.73-0.21-2.18-0.54L269.66,517.89z"/><path data-cppathid="10153" d="M278.58,508.16c0.02,0.82-0.56,1.38-1.34,1.38c-0.7,0-1.28-0.56-1.26-1.38c-0.02-0.85,0.6-1.38,1.3-1.38      C278.02,506.78,278.58,507.3,278.58,508.16z M276.03,520.18v-9.5h2.54v9.5H276.03z"/><path data-cppathid="10154" d="M283.36,508.12v2.56h1.86v1.81h-1.86v4.33c0,1.11,0.47,1.38,0.97,1.38c0.25,0,0.45-0.02,0.66-0.06l0.02,1.98      c-0.35,0.1-0.87,0.17-1.55,0.17c-0.74,0-1.38-0.17-1.83-0.6c-0.52-0.5-0.82-1.22-0.82-2.72v-4.49h-1.13v-1.81h1.13v-1.96      L283.36,508.12z"/><path data-cppathid="10155" d="M288.4,516.34c0.04,1.48,0.89,2.02,2.02,2.02c0.72,0,1.36-0.16,1.81-0.31l0.35,1.83c-0.66,0.25-1.65,0.43-2.62,0.43      c-2.58,0-4-1.71-4-4.68c0-3.19,1.65-5.09,3.81-5.09c2.04,0,3.22,1.61,3.22,4.49c0,0.68-0.02,1.05-0.08,1.32H288.4z       M290.68,514.55c0-1.22-0.31-2.18-1.07-2.18c-0.84,0-1.17,1.22-1.19,2.18H290.68z"/><path data-cppathid="10156" d="M197.45,534.64c0-0.95-0.04-1.98-0.08-2.86h2.21l0.14,1.38h0.06c0.43-1.01,1.19-1.54,1.88-1.54c0.25,0,0.39,0,0.54,0.04      v2.53c-0.16-0.04-0.33-0.04-0.54-0.04c-0.54,0-1.26,0.37-1.55,1.36c-0.06,0.21-0.1,0.54-0.1,0.95v4.82h-2.56V534.64z"/><path data-cppathid="10157" d="M205.22,537.43c0.04,1.48,0.89,2.02,2.02,2.02c0.72,0,1.36-0.16,1.81-0.31l0.35,1.83c-0.66,0.25-1.65,0.43-2.62,0.43      c-2.58,0-4-1.71-4-4.68c0-3.19,1.65-5.09,3.81-5.09c2.04,0,3.22,1.61,3.22,4.49c0,0.68-0.02,1.05-0.08,1.32H205.22z       M207.5,535.65c0-1.22-0.31-2.18-1.07-2.18c-0.84,0-1.17,1.22-1.19,2.18H207.5z"/><path data-cppathid="10158" d="M211.24,534.64c0-1.05-0.06-1.96-0.08-2.86h2.19l0.12,1.09h0.04c0.51-0.76,1.32-1.24,2.31-1.24      c1.81,0,2.53,1.44,2.53,3.55v6.1h-2.54v-5.94c0-0.82-0.19-1.57-0.93-1.57c-0.43,0-0.78,0.29-0.95,0.86      c-0.08,0.19-0.14,0.5-0.14,0.87v5.79h-2.54V534.64z"/><path data-cppathid="10159" d="M222.25,537.43c0.04,1.48,0.89,2.02,2.02,2.02c0.72,0,1.36-0.16,1.81-0.31l0.35,1.83c-0.66,0.25-1.65,0.43-2.62,0.43      c-2.58,0-4-1.71-4-4.68c0-3.19,1.65-5.09,3.81-5.09c2.04,0,3.22,1.61,3.22,4.49c0,0.68-0.02,1.05-0.08,1.32H222.25z       M224.53,535.65c0-1.22-0.31-2.18-1.07-2.18c-0.84,0-1.17,1.22-1.19,2.18H224.53z"/><path data-cppathid="10160" d="M230.06,531.78l0.51,4.1c0.14,1.03,0.25,1.98,0.33,2.88h0.06c0.16-0.89,0.35-1.94,0.52-2.84l0.84-4.14h1.96l0.82,4.04      c0.19,1.07,0.37,2,0.49,2.93h0.06c0.06-0.89,0.17-1.88,0.33-2.91l0.58-4.06h2.51l-2.45,9.5h-2.16l-0.72-3.32      c-0.19-0.87-0.37-1.88-0.49-2.97h-0.04c-0.12,1.11-0.33,2.1-0.54,2.99l-0.82,3.3h-2.18l-2.33-9.5H230.06z"/><path data-cppathid="10161" d="M244.16,541.28l-0.14-0.93h-0.04c-0.52,0.74-1.26,1.09-2.1,1.09c-1.44,0-2.51-1.2-2.51-2.89c0-2.49,2.19-3.52,4.35-3.54      v-0.21c0-0.74-0.45-1.28-1.34-1.28c-0.76,0-1.38,0.19-1.94,0.54l-0.47-1.71c0.52-0.31,1.63-0.72,2.95-0.72      c2.89,0,3.36,2.02,3.36,3.94v3.54c0,0.76,0.04,1.54,0.16,2.18H244.16z M243.81,536.66c-0.85,0.02-2.02,0.29-2.02,1.61      c0,0.95,0.52,1.3,0.91,1.3c0.41,0,0.87-0.25,1.05-0.82c0.04-0.14,0.06-0.29,0.06-0.45V536.66z"/><path data-cppathid="10162" d="M248,541.28c0.04-0.83,0.08-1.9,0.08-2.82v-10.62h2.54v4.89h0.04c0.47-0.68,1.07-1.11,1.98-1.11      c1.85,0,2.68,2.08,2.68,4.64c0,3.32-1.32,5.17-3.09,5.17c-0.8,0-1.36-0.33-1.86-1.28h-0.06l-0.14,1.13H248z M250.62,537.88      c0,0.23,0.04,0.47,0.1,0.6c0.21,0.68,0.56,0.87,0.87,0.87c0.85,0,1.2-1.07,1.2-2.89c0-1.63-0.37-2.7-1.22-2.7      c-0.39,0-0.72,0.41-0.85,0.87c-0.06,0.16-0.1,0.41-0.1,0.58V537.88z"/><path data-cppathid="10163" d="M256.78,527.84h2.54v13.44h-2.54V527.84z"/><path data-cppathid="10164" d="M263.27,537.43c0.04,1.48,0.89,2.02,2.02,2.02c0.72,0,1.36-0.16,1.81-0.31l0.35,1.83c-0.66,0.25-1.65,0.43-2.62,0.43      c-2.58,0-4-1.71-4-4.68c0-3.19,1.65-5.09,3.81-5.09c2.04,0,3.22,1.61,3.22,4.49c0,0.68-0.02,1.05-0.08,1.32H263.27z       M265.54,535.65c0-1.22-0.31-2.18-1.07-2.18c-0.84,0-1.17,1.22-1.19,2.18H265.54z"/><path data-cppathid="10165" d="M186.74,558.53c0.04,1.48,0.89,2.02,2.02,2.02c0.72,0,1.36-0.16,1.81-0.31l0.35,1.83c-0.66,0.25-1.65,0.43-2.62,0.43      c-2.58,0-4-1.71-4-4.68c0-3.19,1.65-5.09,3.81-5.09c2.04,0,3.22,1.61,3.22,4.49c0,0.68-0.02,1.05-0.08,1.32H186.74z       M189.01,556.74c0-1.22-0.31-2.18-1.07-2.18c-0.84,0-1.17,1.22-1.19,2.18H189.01z"/><path data-cppathid="10166" d="M192.76,555.73c0-1.05-0.06-1.96-0.08-2.86h2.19l0.12,1.09h0.04c0.51-0.76,1.32-1.24,2.31-1.24      c1.81,0,2.53,1.44,2.53,3.55v6.1h-2.54v-5.94c0-0.82-0.19-1.57-0.93-1.57c-0.43,0-0.78,0.29-0.95,0.86      c-0.08,0.19-0.14,0.5-0.14,0.87v5.79h-2.54V555.73z"/><path data-cppathid="10167" d="M203.77,558.53c0.04,1.48,0.89,2.02,2.02,2.02c0.72,0,1.36-0.16,1.81-0.31l0.35,1.83c-0.66,0.25-1.65,0.43-2.62,0.43      c-2.58,0-4-1.71-4-4.68c0-3.19,1.65-5.09,3.81-5.09c2.04,0,3.22,1.61,3.22,4.49c0,0.68-0.02,1.05-0.08,1.32H203.77z       M206.04,556.74c0-1.22-0.31-2.18-1.07-2.18c-0.84,0-1.17,1.22-1.19,2.18H206.04z"/><path data-cppathid="10168" d="M209.77,555.73c0-0.95-0.04-1.98-0.08-2.86h2.21l0.14,1.38h0.06c0.43-1.01,1.19-1.54,1.88-1.54c0.25,0,0.39,0,0.54,0.04      v2.53c-0.16-0.04-0.33-0.04-0.54-0.04c-0.54,0-1.26,0.37-1.55,1.36c-0.06,0.21-0.1,0.54-0.1,0.95v4.82h-2.56V555.73z"/><path data-cppathid="10169" d="M222.43,552.88c-0.04,0.86-0.1,1.87-0.1,3.01v5.42c0,2.04-0.37,3.17-1.15,3.9c-0.7,0.66-1.69,1.05-3.09,1.05      c-0.87,0-1.69-0.16-2.37-0.45l0.47-1.96c0.49,0.21,1.09,0.41,1.83,0.41c1.28,0,1.79-0.85,1.79-2.31v-0.58h-0.04      c-0.33,0.6-0.99,0.95-1.71,0.95c-2.14,0-2.97-2.33-2.97-4.6c0-3.17,1.44-4.99,3.21-4.99c0.76,0,1.38,0.39,1.75,1.11h0.04      l0.14-0.95H222.43z M219.81,556.34c0-0.25-0.04-0.5-0.1-0.7c-0.12-0.41-0.39-0.78-0.82-0.78c-0.91,0-1.28,1.24-1.28,2.8      c0,1.77,0.51,2.66,1.22,2.66c0.33,0,0.66-0.17,0.85-0.68c0.08-0.21,0.12-0.5,0.12-0.76V556.34z"/><path data-cppathid="10170" d="M226.04,552.88l0.93,4.93c0.1,0.56,0.17,1.09,0.25,1.59h0.04c0.08-0.49,0.16-1.03,0.23-1.55l0.8-4.97h2.49l-1.94,7.32      c-0.47,1.79-1.09,3.63-2.12,4.86c-0.8,0.93-1.77,1.38-2.16,1.5l-0.78-2.19c0.45-0.16,0.87-0.45,1.26-0.8      c0.35-0.33,0.62-0.72,0.8-1.13c0.08-0.17,0.14-0.27,0.14-0.41c0-0.12-0.04-0.23-0.08-0.35l-2.6-8.8H226.04z"/><path data-cppathid="10171" d="M234.7,560.08c0.37,0.23,1.07,0.5,1.71,0.5c0.66,0,1.03-0.29,1.03-0.85c0-0.49-0.27-0.8-1.11-1.28      c-1.55-0.87-1.92-1.86-1.92-2.74c0-1.71,1.22-2.99,3.13-2.99c0.8,0,1.42,0.19,1.92,0.43l-0.45,1.86      c-0.37-0.21-0.82-0.39-1.32-0.39c-0.64,0-0.95,0.39-0.95,0.82s0.21,0.66,1.11,1.18c1.4,0.8,1.92,1.79,1.92,2.88      c0,1.94-1.4,2.99-3.36,2.99c-0.8,0-1.73-0.21-2.18-0.54L234.7,560.08z"/><path data-cppathid="10172" d="M243.01,552.88l0.93,4.93c0.1,0.56,0.17,1.09,0.25,1.59h0.04c0.08-0.49,0.16-1.03,0.23-1.55l0.8-4.97h2.49l-1.94,7.32      c-0.47,1.79-1.09,3.63-2.12,4.86c-0.8,0.93-1.77,1.38-2.16,1.5l-0.78-2.19c0.45-0.16,0.87-0.45,1.26-0.8      c0.35-0.33,0.62-0.72,0.8-1.13c0.08-0.17,0.14-0.27,0.14-0.41c0-0.12-0.04-0.23-0.08-0.35l-2.6-8.8H243.01z"/><path data-cppathid="10173" d="M248.51,560.08c0.37,0.23,1.07,0.5,1.71,0.5c0.66,0,1.03-0.29,1.03-0.85c0-0.49-0.27-0.8-1.11-1.28      c-1.55-0.87-1.92-1.86-1.92-2.74c0-1.71,1.22-2.99,3.13-2.99c0.8,0,1.42,0.19,1.92,0.43l-0.45,1.86      c-0.37-0.21-0.82-0.39-1.32-0.39c-0.64,0-0.95,0.39-0.95,0.82s0.21,0.66,1.11,1.18c1.4,0.8,1.92,1.79,1.92,2.88      c0,1.94-1.4,2.99-3.36,2.99c-0.8,0-1.73-0.21-2.18-0.54L248.51,560.08z"/><path data-cppathid="10174" d="M257.87,550.31v2.56h1.86v1.81h-1.86v4.33c0,1.11,0.47,1.38,0.97,1.38c0.25,0,0.45-0.02,0.66-0.06l0.02,1.98      c-0.35,0.1-0.87,0.17-1.55,0.17c-0.74,0-1.38-0.17-1.83-0.6c-0.52-0.5-0.82-1.22-0.82-2.72v-4.49h-1.13v-1.81h1.13v-1.96      L257.87,550.31z"/><path data-cppathid="10175" d="M262.92,558.53c0.04,1.48,0.89,2.02,2.02,2.02c0.72,0,1.36-0.16,1.81-0.31l0.35,1.83c-0.66,0.25-1.65,0.43-2.62,0.43      c-2.58,0-4-1.71-4-4.68c0-3.19,1.65-5.09,3.81-5.09c2.04,0,3.22,1.61,3.22,4.49c0,0.68-0.02,1.05-0.08,1.32H262.92z       M265.19,556.74c0-1.22-0.31-2.18-1.07-2.18c-0.84,0-1.17,1.22-1.19,2.18H265.19z"/><path data-cppathid="10176" d="M268.94,555.73c0-1.05-0.06-1.96-0.08-2.86h2.21l0.12,1.11h0.04c0.49-0.72,1.28-1.26,2.27-1.26      c1.07,0,1.75,0.49,2.08,1.28h0.04c0.23-0.37,0.58-0.72,0.95-0.95c0.39-0.21,0.85-0.33,1.34-0.33c1.69,0,2.45,1.34,2.45,3.63      v6.02h-2.52v-5.59c0-1.09-0.12-1.96-0.89-1.96c-0.45,0-0.78,0.31-0.95,0.87c-0.04,0.14-0.08,0.41-0.08,0.66v6.02h-2.52v-5.96      c0-0.68-0.08-1.59-0.87-1.59c-0.39,0-0.78,0.29-0.95,0.85c-0.06,0.17-0.1,0.45-0.1,0.72v5.98h-2.52V555.73z"/></g></g></g><g><ellipse data-cppathid="10177" ry="71.01" rx="71.01" cy="185.09" cx="158.23" class="st21" transform="matrix(0.7071 -0.7071 0.7071 0.7071 -84.5311 166.094)"/><g><g><path data-cppathid="10178" d="M158.39,147.62v1.67l-3.96,10.96h-2.49l3.88-10.35v-0.04h-4.31v-2.23H158.39z"/><path data-cppathid="10179" d="M108.98,181.35l-2.93-13.09h2.82l0.93,5.65c0.23,1.4,0.5,3.01,0.68,4.55h0.04c0.17-1.55,0.39-3.13,0.62-4.6l0.89-5.59      h2.8l-2.99,13.09H108.98z"/><path data-cppathid="10180" d="M117.39,177.5c0.04,1.48,0.89,2.02,2.02,2.02c0.72,0,1.36-0.16,1.81-0.31l0.35,1.83c-0.66,0.25-1.65,0.43-2.62,0.43      c-2.58,0-4-1.71-4-4.68c0-3.19,1.65-5.09,3.81-5.09c2.04,0,3.22,1.61,3.22,4.49c0,0.68-0.02,1.05-0.08,1.32H117.39z       M119.66,175.71c0-1.22-0.31-2.18-1.07-2.18c-0.84,0-1.17,1.22-1.19,2.18H119.66z"/><path data-cppathid="10181" d="M123.39,174.7c0-0.95-0.04-1.98-0.08-2.86h2.21l0.14,1.38h0.06c0.43-1.01,1.19-1.53,1.88-1.53c0.25,0,0.39,0,0.54,0.04      v2.53c-0.16-0.04-0.33-0.04-0.54-0.04c-0.54,0-1.26,0.37-1.55,1.36c-0.06,0.21-0.1,0.54-0.1,0.95v4.82h-2.56V174.7z"/><path data-cppathid="10182" d="M131.66,169.32c0.02,0.82-0.56,1.38-1.34,1.38c-0.7,0-1.28-0.56-1.26-1.38c-0.02-0.85,0.6-1.38,1.3-1.38      C131.1,167.94,131.66,168.47,131.66,169.32z M129.12,181.35v-9.5h2.54v9.5H129.12z"/><path data-cppathid="10183" d="M133.89,181.35v-7.69h-1.28v-1.81h1.28v-0.39c0-1.07,0.21-2.06,0.97-2.84c0.56-0.58,1.38-0.87,2.27-0.87      c0.66,0,1.17,0.1,1.53,0.21l-0.29,1.98c-0.19-0.08-0.47-0.12-0.78-0.12c-0.85,0-1.17,0.74-1.17,1.57v0.45h1.65v1.81h-1.65v7.69      H133.89z"/><path data-cppathid="10184" d="M140.94,171.85l0.93,4.93c0.1,0.56,0.17,1.09,0.25,1.59h0.04c0.08-0.49,0.16-1.03,0.23-1.55l0.8-4.97h2.49l-1.94,7.32      c-0.47,1.79-1.09,3.63-2.12,4.86c-0.8,0.93-1.77,1.38-2.16,1.5l-0.78-2.19c0.45-0.16,0.87-0.45,1.26-0.8      c0.35-0.33,0.62-0.72,0.8-1.13c0.08-0.17,0.14-0.27,0.14-0.41c0-0.12-0.04-0.23-0.08-0.35l-2.6-8.8H140.94z"/><path data-cppathid="10185" d="M152.67,169.29v2.56h1.86v1.81h-1.86v4.33c0,1.11,0.47,1.38,0.97,1.38c0.25,0,0.45-0.02,0.66-0.06l0.02,1.98      c-0.35,0.1-0.87,0.17-1.55,0.17c-0.74,0-1.38-0.17-1.83-0.6c-0.52-0.5-0.82-1.22-0.82-2.72v-4.49H149v-1.81h1.13v-1.96      L152.67,169.29z"/><path data-cppathid="10186" d="M155.72,167.91h2.54v4.93h0.04c0.21-0.33,0.5-0.6,0.82-0.82c0.37-0.21,0.82-0.33,1.28-0.33c1.75,0,2.43,1.48,2.43,3.88      v5.77h-2.54v-5.77c0-0.93-0.18-1.75-0.93-1.75c-0.43,0-0.8,0.25-0.99,0.89c-0.04,0.16-0.1,0.5-0.1,0.72v5.91h-2.54V167.91z"/><path data-cppathid="10187" d="M166.73,177.5c0.04,1.48,0.89,2.02,2.02,2.02c0.72,0,1.36-0.16,1.81-0.31l0.35,1.83c-0.66,0.25-1.65,0.43-2.62,0.43      c-2.58,0-4-1.71-4-4.68c0-3.19,1.65-5.09,3.81-5.09c2.04,0,3.22,1.61,3.22,4.49c0,0.68-0.02,1.05-0.08,1.32H166.73z M169,175.71      c0-1.22-0.31-2.18-1.07-2.18c-0.84,0-1.17,1.22-1.19,2.18H169z"/><path data-cppathid="10188" d="M175.3,179.75l2.33-4.23c0.31-0.54,0.72-1.17,0.89-1.53v-0.06h-2.93v-2.08h5.71v1.73l-2.27,4.08      c-0.33,0.56-0.7,1.17-0.91,1.55v0.06h3.26v2.08h-6.08V179.75z"/><path data-cppathid="10189" d="M184.64,177.5c0.04,1.48,0.89,2.02,2.02,2.02c0.72,0,1.36-0.16,1.81-0.31l0.35,1.83c-0.66,0.25-1.65,0.43-2.62,0.43      c-2.58,0-4-1.71-4-4.68c0-3.19,1.65-5.09,3.81-5.09c2.04,0,3.22,1.61,3.22,4.49c0,0.68-0.02,1.05-0.08,1.32H184.64z       M186.91,175.71c0-1.22-0.31-2.18-1.07-2.18c-0.84,0-1.17,1.22-1.19,2.18H186.91z"/><path data-cppathid="10190" d="M190.64,174.7c0-0.95-0.04-1.98-0.08-2.86h2.21l0.14,1.38h0.06c0.43-1.01,1.19-1.53,1.88-1.53c0.25,0,0.39,0,0.54,0.04      v2.53c-0.16-0.04-0.33-0.04-0.54-0.04c-0.54,0-1.26,0.37-1.55,1.36c-0.06,0.21-0.1,0.54-0.1,0.95v4.82h-2.56V174.7z"/><path data-cppathid="10191" d="M203.22,176.57c0,3.96-2.19,4.93-3.63,4.93c-2.27,0-3.63-1.79-3.63-4.88c0-3.42,1.79-4.93,3.67-4.93      C201.86,171.69,203.22,173.58,203.22,176.57z M198.48,176.57c0,1.63,0.25,2.99,1.17,2.99c0.82,0,1.03-1.59,1.03-2.99      c0-1.3-0.21-2.95-1.07-2.95C198.68,173.62,198.48,175.27,198.48,176.57z"/><path data-cppathid="10192" d="M118.02,198.6c0.04,1.48,0.89,2.02,2.02,2.02c0.72,0,1.36-0.16,1.81-0.31l0.35,1.83c-0.66,0.25-1.65,0.43-2.62,0.43      c-2.58,0-4-1.71-4-4.68c0-3.19,1.65-5.09,3.81-5.09c2.04,0,3.22,1.61,3.22,4.49c0,0.68-0.02,1.05-0.08,1.32H118.02z       M120.29,196.81c0-1.22-0.31-2.18-1.07-2.18c-0.84,0-1.17,1.22-1.19,2.18H120.29z"/><path data-cppathid="10193" d="M124.04,195.8c0-1.05-0.06-1.96-0.08-2.86h2.19l0.12,1.09h0.04c0.51-0.76,1.32-1.24,2.31-1.24      c1.81,0,2.53,1.44,2.53,3.55v6.1h-2.54v-5.94c0-0.82-0.19-1.57-0.93-1.57c-0.43,0-0.78,0.29-0.95,0.85      c-0.08,0.19-0.14,0.5-0.14,0.87v5.79h-2.54V195.8z"/><path data-cppathid="10194" d="M135.05,198.6c0.04,1.48,0.89,2.02,2.02,2.02c0.72,0,1.36-0.16,1.81-0.31l0.35,1.83c-0.66,0.25-1.65,0.43-2.62,0.43      c-2.58,0-4-1.71-4-4.68c0-3.19,1.65-5.09,3.81-5.09c2.04,0,3.22,1.61,3.22,4.49c0,0.68-0.02,1.05-0.08,1.32H135.05z       M137.32,196.81c0-1.22-0.31-2.18-1.07-2.18c-0.84,0-1.17,1.22-1.19,2.18H137.32z"/><path data-cppathid="10195" d="M141.05,195.8c0-0.95-0.04-1.98-0.08-2.86h2.21l0.14,1.38h0.06c0.43-1.01,1.19-1.53,1.88-1.53c0.25,0,0.39,0,0.54,0.04      v2.53c-0.16-0.04-0.33-0.04-0.54-0.04c-0.54,0-1.26,0.37-1.55,1.36c-0.06,0.21-0.1,0.54-0.1,0.95v4.82h-2.56V195.8z"/><path data-cppathid="10196" d="M153.71,192.95c-0.04,0.85-0.1,1.86-0.1,3.01v5.42c0,2.04-0.37,3.17-1.15,3.9c-0.7,0.66-1.69,1.05-3.09,1.05      c-0.87,0-1.69-0.16-2.37-0.45l0.47-1.96c0.49,0.21,1.09,0.41,1.83,0.41c1.28,0,1.79-0.85,1.79-2.31v-0.58h-0.04      c-0.33,0.6-0.99,0.95-1.71,0.95c-2.14,0-2.97-2.33-2.97-4.6c0-3.17,1.44-4.99,3.21-4.99c0.76,0,1.38,0.39,1.75,1.11h0.04      l0.14-0.95H153.71z M151.09,196.4c0-0.25-0.04-0.5-0.1-0.7c-0.12-0.41-0.39-0.78-0.82-0.78c-0.91,0-1.28,1.24-1.28,2.8      c0,1.77,0.51,2.66,1.22,2.66c0.33,0,0.66-0.17,0.85-0.68c0.08-0.21,0.12-0.5,0.12-0.76V196.4z"/><path data-cppathid="10197" d="M157.32,192.95l0.93,4.93c0.1,0.56,0.17,1.09,0.25,1.59h0.04c0.08-0.49,0.16-1.03,0.23-1.55l0.8-4.97h2.49l-1.94,7.32      c-0.47,1.79-1.09,3.63-2.12,4.86c-0.8,0.93-1.77,1.38-2.16,1.5l-0.78-2.19c0.45-0.16,0.87-0.45,1.26-0.8      c0.35-0.33,0.62-0.72,0.8-1.13c0.08-0.17,0.14-0.27,0.14-0.41c0-0.12-0.04-0.23-0.08-0.35l-2.6-8.8H157.32z"/><path data-cppathid="10198" d="M173.07,192.95c-0.04,0.85-0.1,1.86-0.1,3.01v5.42c0,2.04-0.37,3.17-1.15,3.9c-0.7,0.66-1.69,1.05-3.09,1.05      c-0.87,0-1.69-0.16-2.37-0.45l0.47-1.96c0.49,0.21,1.09,0.41,1.83,0.41c1.28,0,1.79-0.85,1.79-2.31v-0.58h-0.04      c-0.33,0.6-0.99,0.95-1.71,0.95c-2.14,0-2.97-2.33-2.97-4.6c0-3.17,1.44-4.99,3.21-4.99c0.76,0,1.38,0.39,1.75,1.11h0.04      l0.14-0.95H173.07z M170.45,196.4c0-0.25-0.04-0.5-0.1-0.7c-0.12-0.41-0.39-0.78-0.82-0.78c-0.91,0-1.28,1.24-1.28,2.8      c0,1.77,0.51,2.66,1.22,2.66c0.33,0,0.66-0.17,0.85-0.68c0.08-0.21,0.12-0.5,0.12-0.76V196.4z"/><path data-cppathid="10199" d="M181.68,197.67c0,3.96-2.19,4.93-3.63,4.93c-2.27,0-3.63-1.79-3.63-4.88c0-3.42,1.79-4.93,3.67-4.93      C180.32,192.79,181.68,194.67,181.68,197.67z M176.94,197.67c0,1.63,0.25,2.99,1.17,2.99c0.82,0,1.03-1.59,1.03-2.99      c0-1.3-0.21-2.95-1.07-2.95C177.13,194.71,176.94,196.36,176.94,197.67z"/><path data-cppathid="10200" d="M187.37,202.44l-0.14-0.93h-0.04c-0.52,0.74-1.26,1.09-2.1,1.09c-1.44,0-2.51-1.2-2.51-2.89c0-2.49,2.19-3.52,4.35-3.54      v-0.21c0-0.74-0.45-1.28-1.34-1.28c-0.76,0-1.38,0.19-1.94,0.54l-0.47-1.71c0.52-0.31,1.63-0.72,2.95-0.72      c2.89,0,3.36,2.02,3.36,3.94v3.54c0,0.76,0.04,1.53,0.16,2.18H187.37z M187.02,197.82c-0.85,0.02-2.02,0.29-2.02,1.61      c0,0.95,0.52,1.3,0.91,1.3c0.41,0,0.87-0.25,1.05-0.82c0.04-0.14,0.06-0.29,0.06-0.45V197.82z"/><path data-cppathid="10201" d="M191.31,189h2.54v13.44h-2.54V189z"/></g></g></g><g><ellipse data-cppathid="10202" ry="71.01" rx="71.01" cy="370.88" cx="568.02" class="st22" transform="matrix(0.9961 -0.0887 0.0887 0.9961 -30.6478 51.8253)"/><g><g><g><path data-cppathid="10203" d="M564.47,317.48c0.5,0.29,1.21,0.49,1.88,0.49c1.22,0,1.9-0.76,1.9-1.83c0-1.4-1.07-2-2.37-2h-0.35v-1.86h0.25       c0.93-0.02,2.14-0.41,2.14-1.63c0-0.91-0.58-1.46-1.48-1.46c-0.56,0-1.13,0.21-1.59,0.5l-0.33-1.92       c0.52-0.33,1.55-0.66,2.6-0.66c2.21,0,3.32,1.44,3.32,3.05c0,1.26-0.7,2.31-1.81,2.84v0.04c1.22,0.41,2.16,1.5,2.16,3.2       c0,1.92-1.48,3.81-4.22,3.81c-1.03,0-1.92-0.25-2.49-0.56L564.47,317.48z"/><path data-cppathid="10204" d="M544.47,327.89v13.09h-2.54v-13.09H544.47z"/><path data-cppathid="10205" d="M553.31,327.54v10.63c0,0.91,0.04,1.94,0.08,2.82h-2.2l-0.14-1.07h-0.04c-0.35,0.66-1.11,1.22-1.98,1.22       c-2.02,0-2.95-2.23-2.95-4.89c0-3.3,1.44-4.92,3.05-4.92c0.83,0,1.36,0.41,1.59,0.95h0.04v-4.74H553.31z M550.77,335.14       c0-0.17,0-0.37-0.02-0.56c-0.1-0.58-0.41-1.11-0.91-1.11c-0.89,0-1.22,1.3-1.22,2.84c0,1.81,0.49,2.76,1.2,2.76       c0.31,0,0.68-0.17,0.87-0.83c0.06-0.14,0.08-0.35,0.08-0.58V335.14z"/><path data-cppathid="10206" d="M557.21,337.14c0.04,1.48,0.89,2.02,2.02,2.02c0.72,0,1.36-0.16,1.81-0.31l0.35,1.83c-0.66,0.25-1.65,0.43-2.62,0.43       c-2.58,0-4-1.71-4-4.68c0-3.19,1.65-5.09,3.81-5.09c2.04,0,3.22,1.61,3.22,4.49c0,0.68-0.02,1.05-0.08,1.32H557.21z        M559.49,335.35c0-1.22-0.31-2.18-1.07-2.18c-0.83,0-1.17,1.22-1.18,2.18H559.49z"/><path data-cppathid="10207" d="M563.23,334.34c0-1.05-0.06-1.96-0.08-2.86h2.2l0.12,1.09h0.04c0.5-0.76,1.32-1.24,2.31-1.24       c1.81,0,2.53,1.44,2.53,3.55v6.1h-2.54v-5.94c0-0.82-0.19-1.57-0.93-1.57c-0.43,0-0.78,0.29-0.95,0.86       c-0.08,0.19-0.14,0.5-0.14,0.87v5.79h-2.54V334.34z"/><path data-cppathid="10208" d="M575.12,328.92v2.56h1.87v1.81h-1.87v4.33c0,1.11,0.47,1.38,0.97,1.38c0.25,0,0.45-0.02,0.66-0.06l0.02,1.98       c-0.35,0.1-0.87,0.17-1.55,0.17c-0.74,0-1.38-0.17-1.83-0.6c-0.52-0.5-0.82-1.22-0.82-2.72v-4.49h-1.13v-1.81h1.13v-1.96       L575.12,328.92z"/><path data-cppathid="10209" d="M580.71,328.96c0.02,0.82-0.56,1.38-1.34,1.38c-0.7,0-1.28-0.56-1.26-1.38c-0.02-0.85,0.6-1.38,1.3-1.38       C580.15,327.58,580.71,328.11,580.71,328.96z M578.17,340.99v-9.5h2.54v9.5H578.17z"/><path data-cppathid="10210" d="M582.94,340.99v-7.69h-1.28v-1.81h1.28v-0.39c0-1.07,0.21-2.06,0.97-2.84c0.56-0.58,1.38-0.87,2.27-0.87       c0.66,0,1.17,0.1,1.54,0.21l-0.29,1.98c-0.19-0.08-0.47-0.12-0.78-0.12c-0.86,0-1.17,0.74-1.17,1.57v0.45h1.65v1.81h-1.65v7.69       H582.94z"/><path data-cppathid="10211" d="M589.99,331.49l0.93,4.93c0.1,0.56,0.17,1.09,0.25,1.59h0.04c0.08-0.49,0.16-1.03,0.23-1.55l0.8-4.97h2.49l-1.94,7.32       c-0.47,1.79-1.09,3.63-2.12,4.86c-0.8,0.93-1.77,1.38-2.16,1.5l-0.78-2.19c0.45-0.16,0.87-0.45,1.26-0.8       c0.35-0.33,0.62-0.72,0.8-1.13c0.08-0.17,0.14-0.27,0.14-0.41c0-0.12-0.04-0.23-0.08-0.35l-2.6-8.8H589.99z"/><path data-cppathid="10212" d="M512.25,358.24c0.04,1.48,0.89,2.02,2.02,2.02c0.72,0,1.36-0.16,1.81-0.31l0.35,1.83c-0.66,0.25-1.65,0.43-2.62,0.43       c-2.58,0-4-1.71-4-4.68c0-3.19,1.65-5.09,3.81-5.09c2.04,0,3.22,1.61,3.22,4.49c0,0.68-0.02,1.05-0.08,1.32H512.25z        M514.52,356.45c0-1.22-0.31-2.18-1.07-2.18c-0.83,0-1.17,1.22-1.18,2.18H514.52z"/><path data-cppathid="10213" d="M518.27,355.44c0-1.05-0.06-1.96-0.08-2.86h2.2l0.12,1.09h0.04c0.5-0.76,1.32-1.24,2.31-1.24       c1.81,0,2.53,1.44,2.53,3.55v6.1h-2.54v-5.94c0-0.82-0.19-1.57-0.93-1.57c-0.43,0-0.78,0.29-0.95,0.86       c-0.08,0.19-0.14,0.5-0.14,0.87v5.79h-2.54V355.44z"/><path data-cppathid="10214" d="M529.28,358.24c0.04,1.48,0.89,2.02,2.02,2.02c0.72,0,1.36-0.16,1.81-0.31l0.35,1.83c-0.66,0.25-1.65,0.43-2.62,0.43       c-2.58,0-4-1.71-4-4.68c0-3.19,1.65-5.09,3.81-5.09c2.04,0,3.22,1.61,3.22,4.49c0,0.68-0.02,1.05-0.08,1.32H529.28z        M531.55,356.45c0-1.22-0.31-2.18-1.07-2.18c-0.83,0-1.17,1.22-1.18,2.18H531.55z"/><path data-cppathid="10215" d="M535.28,355.44c0-0.95-0.04-1.98-0.08-2.86h2.21l0.14,1.38h0.06c0.43-1.01,1.18-1.54,1.88-1.54       c0.25,0,0.39,0,0.54,0.04v2.53c-0.16-0.04-0.33-0.04-0.54-0.04c-0.54,0-1.26,0.37-1.55,1.36c-0.06,0.21-0.1,0.54-0.1,0.95v4.82       h-2.56V355.44z"/><path data-cppathid="10216" d="M547.94,352.58c-0.04,0.86-0.1,1.87-0.1,3.01v5.42c0,2.04-0.37,3.17-1.15,3.9c-0.7,0.66-1.69,1.05-3.09,1.05       c-0.87,0-1.69-0.16-2.37-0.45l0.47-1.96c0.49,0.21,1.09,0.41,1.83,0.41c1.28,0,1.79-0.85,1.79-2.31v-0.58h-0.04       c-0.33,0.6-0.99,0.95-1.71,0.95c-2.14,0-2.97-2.33-2.97-4.6c0-3.17,1.44-4.99,3.21-4.99c0.76,0,1.38,0.39,1.75,1.11h0.04       l0.14-0.95H547.94z M545.32,356.04c0-0.25-0.04-0.5-0.1-0.7c-0.12-0.41-0.39-0.78-0.82-0.78c-0.91,0-1.28,1.24-1.28,2.8       c0,1.77,0.5,2.66,1.22,2.66c0.33,0,0.66-0.17,0.85-0.68c0.08-0.21,0.12-0.5,0.12-0.76V356.04z"/><path data-cppathid="10217" d="M551.55,352.58l0.93,4.93c0.1,0.56,0.17,1.09,0.25,1.59h0.04c0.08-0.49,0.16-1.03,0.23-1.55l0.8-4.97h2.49l-1.94,7.32       c-0.47,1.79-1.09,3.63-2.12,4.86c-0.8,0.93-1.77,1.38-2.16,1.5l-0.78-2.19c0.45-0.16,0.87-0.45,1.26-0.8       c0.35-0.33,0.62-0.72,0.8-1.13c0.08-0.17,0.14-0.27,0.14-0.41c0-0.12-0.04-0.23-0.08-0.35l-2.6-8.8H551.55z"/><path data-cppathid="10218" d="M560.76,355.81v1.83h-3.87v-1.83H560.76z"/><path data-cppathid="10219" d="M564.7,358.24c0.04,1.48,0.89,2.02,2.02,2.02c0.72,0,1.36-0.16,1.81-0.31l0.35,1.83c-0.66,0.25-1.65,0.43-2.62,0.43       c-2.58,0-4-1.71-4-4.68c0-3.19,1.65-5.09,3.81-5.09c2.04,0,3.22,1.61,3.22,4.49c0,0.68-0.02,1.05-0.08,1.32H564.7z        M566.97,356.45c0-1.22-0.31-2.18-1.07-2.18c-0.83,0-1.17,1.22-1.18,2.18H566.97z"/><path data-cppathid="10220" d="M582.26,350.88c-0.45-0.16-1.03-0.31-1.79-0.31c-1.4,0-1.79,0.78-1.79,1.67v0.35h4.74v9.5h-2.54v-7.69h-2.2v7.69h-2.54       v-7.69h-2.43v7.69h-2.54v-7.69h-1.28v-1.81h1.28v-0.25c0-1.32,0.45-2.41,1.38-3.07c0.56-0.41,1.28-0.62,2.1-0.62       c0.6,0,1.13,0.14,1.44,0.25l-0.64,1.88c-0.17-0.08-0.37-0.14-0.66-0.14s-0.56,0.14-0.72,0.33c-0.29,0.31-0.35,0.82-0.35,1.28       v0.33h2.43v-0.5c0-1.22,0.78-3.59,4.22-3.59c0.91,0,1.75,0.16,2.25,0.39L582.26,350.88z"/><path data-cppathid="10221" d="M590.45,361.93c-0.25,0.12-0.89,0.27-1.61,0.27c-2.41,0-3.98-1.67-3.98-4.78c0-2.93,1.73-4.97,4.35-4.97       c0.6,0,1.15,0.14,1.4,0.25l-0.33,2c-0.21-0.08-0.52-0.17-0.95-0.17c-1.22,0-1.94,1.17-1.94,2.82c0,1.73,0.72,2.78,1.9,2.78       c0.37,0,0.68-0.06,0.95-0.19L590.45,361.93z"/><path data-cppathid="10222" d="M594,350.06c0.02,0.82-0.56,1.38-1.34,1.38c-0.7,0-1.28-0.56-1.26-1.38c-0.02-0.85,0.6-1.38,1.3-1.38       C593.44,348.68,594,349.21,594,350.06z M591.46,362.08v-9.5H594v9.5H591.46z"/><path data-cppathid="10223" d="M597.91,358.24c0.04,1.48,0.89,2.02,2.02,2.02c0.72,0,1.36-0.16,1.81-0.31l0.35,1.83c-0.66,0.25-1.65,0.43-2.62,0.43       c-2.58,0-4-1.71-4-4.68c0-3.19,1.65-5.09,3.81-5.09c2.04,0,3.22,1.61,3.22,4.49c0,0.68-0.02,1.05-0.08,1.32H597.91z        M600.18,356.45c0-1.22-0.31-2.18-1.07-2.18c-0.83,0-1.17,1.22-1.18,2.18H600.18z"/><path data-cppathid="10224" d="M603.93,355.44c0-1.05-0.06-1.96-0.08-2.86h2.2l0.12,1.09h0.04c0.5-0.76,1.32-1.24,2.31-1.24       c1.81,0,2.53,1.44,2.53,3.55v6.1h-2.54v-5.94c0-0.82-0.19-1.57-0.93-1.57c-0.43,0-0.78,0.29-0.95,0.86       c-0.08,0.19-0.14,0.5-0.14,0.87v5.79h-2.54V355.44z"/><path data-cppathid="10225" d="M618.08,361.93c-0.25,0.12-0.89,0.27-1.61,0.27c-2.41,0-3.98-1.67-3.98-4.78c0-2.93,1.73-4.97,4.35-4.97       c0.6,0,1.15,0.14,1.4,0.25l-0.33,2c-0.21-0.08-0.52-0.17-0.95-0.17c-1.22,0-1.94,1.17-1.94,2.82c0,1.73,0.72,2.78,1.9,2.78       c0.37,0,0.68-0.06,0.95-0.19L618.08,361.93z"/><path data-cppathid="10226" d="M621.56,352.58l0.93,4.93c0.1,0.56,0.17,1.09,0.25,1.59h0.04c0.08-0.49,0.16-1.03,0.23-1.55l0.8-4.97h2.49l-1.94,7.32       c-0.47,1.79-1.09,3.63-2.12,4.86c-0.8,0.93-1.77,1.38-2.16,1.5l-0.78-2.19c0.45-0.16,0.87-0.45,1.26-0.8       c0.35-0.33,0.62-0.72,0.8-1.13c0.08-0.17,0.14-0.27,0.14-0.41c0-0.12-0.04-0.23-0.08-0.35l-2.6-8.8H621.56z"/><path data-cppathid="10227" d="M521.91,376.54c0-1.05-0.06-1.96-0.08-2.86h2.21l0.12,1.11h0.04c0.49-0.72,1.28-1.26,2.27-1.26       c1.07,0,1.75,0.49,2.08,1.28h0.04c0.23-0.37,0.58-0.72,0.95-0.95c0.39-0.21,0.85-0.33,1.34-0.33c1.69,0,2.45,1.34,2.45,3.63       v6.02h-2.53v-5.59c0-1.09-0.12-1.96-0.89-1.96c-0.45,0-0.78,0.31-0.95,0.87c-0.04,0.14-0.08,0.41-0.08,0.66v6.02h-2.53v-5.96       c0-0.68-0.08-1.59-0.87-1.59c-0.39,0-0.78,0.29-0.95,0.85c-0.06,0.17-0.1,0.45-0.1,0.72v5.98h-2.53V376.54z"/><path data-cppathid="10228" d="M537.23,379.33c0.04,1.48,0.89,2.02,2.02,2.02c0.72,0,1.36-0.16,1.81-0.31l0.35,1.83c-0.66,0.25-1.65,0.43-2.62,0.43       c-2.58,0-4-1.71-4-4.68c0-3.19,1.65-5.09,3.81-5.09c2.04,0,3.22,1.61,3.22,4.49c0,0.68-0.02,1.05-0.08,1.32H537.23z        M539.5,377.55c0-1.22-0.31-2.18-1.07-2.18c-0.83,0-1.17,1.22-1.18,2.18H539.5z"/><path data-cppathid="10229" d="M547.5,383.18l-0.14-0.93h-0.04c-0.52,0.74-1.26,1.09-2.1,1.09c-1.44,0-2.51-1.2-2.51-2.89c0-2.49,2.2-3.52,4.35-3.54       v-0.21c0-0.74-0.45-1.28-1.34-1.28c-0.76,0-1.38,0.19-1.94,0.54l-0.47-1.71c0.52-0.31,1.63-0.72,2.95-0.72       c2.89,0,3.36,2.02,3.36,3.94V381c0,0.76,0.04,1.54,0.16,2.18H547.5z M547.16,378.56c-0.85,0.02-2.02,0.29-2.02,1.61       c0,0.95,0.52,1.3,0.91,1.3c0.41,0,0.87-0.25,1.05-0.82c0.04-0.14,0.06-0.29,0.06-0.45V378.56z"/><path data-cppathid="10230" d="M551.37,380.89c0.37,0.23,1.07,0.5,1.71,0.5c0.66,0,1.03-0.29,1.03-0.85c0-0.49-0.27-0.8-1.11-1.28       c-1.55-0.87-1.92-1.86-1.92-2.74c0-1.71,1.22-2.99,3.13-2.99c0.8,0,1.42,0.19,1.92,0.43l-0.45,1.86       c-0.37-0.21-0.82-0.39-1.32-0.39c-0.64,0-0.95,0.39-0.95,0.82s0.21,0.66,1.11,1.18c1.4,0.8,1.92,1.79,1.92,2.88       c0,1.94-1.4,2.99-3.36,2.99c-0.8,0-1.73-0.21-2.18-0.54L551.37,380.89z"/><path data-cppathid="10231" d="M564.69,380.29c0,1.01,0.04,2,0.08,2.89h-2.19l-0.14-1.01h-0.04c-0.45,0.64-1.22,1.17-2.2,1.17       c-1.81,0-2.54-1.34-2.54-3.9v-5.75h2.56v5.48c0,1.24,0.23,2.04,0.95,2.04c0.43,0,0.7-0.33,0.82-0.64       c0.1-0.19,0.16-0.49,0.16-0.82v-6.06h2.54V380.29z"/><path data-cppathid="10232" d="M566.5,376.54c0-0.95-0.04-1.98-0.08-2.86h2.21l0.14,1.38h0.06c0.43-1.01,1.18-1.54,1.88-1.54c0.25,0,0.39,0,0.54,0.04       v2.53c-0.16-0.04-0.33-0.04-0.54-0.04c-0.54,0-1.26,0.37-1.55,1.36c-0.06,0.21-0.1,0.54-0.1,0.95v4.82h-2.56V376.54z"/><path data-cppathid="10233" d="M574.26,379.33c0.04,1.48,0.89,2.02,2.02,2.02c0.72,0,1.36-0.16,1.81-0.31l0.35,1.83c-0.66,0.25-1.65,0.43-2.62,0.43       c-2.58,0-4-1.71-4-4.68c0-3.19,1.65-5.09,3.81-5.09c2.04,0,3.22,1.61,3.22,4.49c0,0.68-0.02,1.05-0.08,1.32H574.26z        M576.54,377.55c0-1.22-0.31-2.18-1.07-2.18c-0.83,0-1.17,1.22-1.18,2.18H576.54z"/><path data-cppathid="10234" d="M580.21,380.89c0.37,0.23,1.07,0.5,1.71,0.5c0.66,0,1.03-0.29,1.03-0.85c0-0.49-0.27-0.8-1.11-1.28       c-1.55-0.87-1.92-1.86-1.92-2.74c0-1.71,1.22-2.99,3.13-2.99c0.8,0,1.42,0.19,1.92,0.43l-0.45,1.86       c-0.37-0.21-0.82-0.39-1.32-0.39c-0.64,0-0.95,0.39-0.95,0.82s0.21,0.66,1.11,1.18c1.4,0.8,1.92,1.79,1.92,2.88       c0,1.94-1.4,2.99-3.36,2.99c-0.8,0-1.73-0.21-2.18-0.54L580.21,380.89z"/><path data-cppathid="10235" d="M593.92,383.18l-0.14-0.93h-0.04c-0.52,0.74-1.26,1.09-2.1,1.09c-1.44,0-2.51-1.2-2.51-2.89c0-2.49,2.2-3.52,4.35-3.54       v-0.21c0-0.74-0.45-1.28-1.34-1.28c-0.76,0-1.38,0.19-1.94,0.54l-0.47-1.71c0.52-0.31,1.63-0.72,2.95-0.72       c2.89,0,3.36,2.02,3.36,3.94V381c0,0.76,0.04,1.54,0.16,2.18H593.92z M593.57,378.56c-0.85,0.02-2.02,0.29-2.02,1.61       c0,0.95,0.52,1.3,0.91,1.3c0.41,0,0.87-0.25,1.05-0.82c0.04-0.14,0.06-0.29,0.06-0.45V378.56z"/><path data-cppathid="10236" d="M597.86,376.54c0-1.05-0.06-1.96-0.08-2.86h2.2l0.12,1.09h0.04c0.5-0.76,1.32-1.24,2.31-1.24       c1.81,0,2.53,1.44,2.53,3.55v6.1h-2.54v-5.94c0-0.82-0.19-1.57-0.93-1.57c-0.43,0-0.78,0.29-0.95,0.86       c-0.08,0.19-0.14,0.5-0.14,0.87v5.79h-2.54V376.54z"/><path data-cppathid="10237" d="M613.65,369.74v10.62c0,0.91,0.04,1.94,0.08,2.82h-2.2l-0.14-1.07h-0.04c-0.35,0.66-1.11,1.22-1.98,1.22       c-2.02,0-2.95-2.23-2.95-4.89c0-3.3,1.44-4.92,3.05-4.92c0.83,0,1.36,0.41,1.59,0.95h0.04v-4.74H613.65z M611.1,377.33       c0-0.17,0-0.37-0.02-0.56c-0.1-0.58-0.41-1.11-0.91-1.11c-0.89,0-1.22,1.3-1.22,2.84c0,1.81,0.49,2.76,1.2,2.76       c0.31,0,0.68-0.17,0.87-0.83c0.06-0.14,0.08-0.35,0.08-0.58V377.33z"/><path data-cppathid="10238" d="M545.83,397.63c0-0.95-0.04-1.98-0.08-2.86h2.21l0.14,1.38h0.06c0.43-1.01,1.18-1.54,1.88-1.54       c0.25,0,0.39,0,0.54,0.04v2.53c-0.16-0.04-0.33-0.04-0.54-0.04c-0.54,0-1.26,0.37-1.55,1.36c-0.06,0.21-0.1,0.54-0.1,0.95v4.82       h-2.56V397.63z"/><path data-cppathid="10239" d="M553.6,400.43c0.04,1.48,0.89,2.02,2.02,2.02c0.72,0,1.36-0.16,1.81-0.31l0.35,1.83c-0.66,0.25-1.65,0.43-2.62,0.43       c-2.58,0-4-1.71-4-4.68c0-3.19,1.65-5.09,3.81-5.09c2.04,0,3.22,1.61,3.22,4.49c0,0.68-0.02,1.05-0.08,1.32H553.6z        M555.87,398.64c0-1.22-0.31-2.18-1.07-2.18c-0.83,0-1.17,1.22-1.18,2.18H555.87z"/><path data-cppathid="10240" d="M566.52,390.83v10.62c0,0.91,0.04,1.94,0.08,2.82h-2.2l-0.14-1.07h-0.04c-0.35,0.66-1.11,1.22-1.98,1.22       c-2.02,0-2.95-2.23-2.95-4.89c0-3.3,1.44-4.92,3.05-4.92c0.83,0,1.36,0.41,1.59,0.95h0.04v-4.74H566.52z M563.97,398.43       c0-0.17,0-0.37-0.02-0.56c-0.1-0.58-0.41-1.11-0.91-1.11c-0.89,0-1.22,1.3-1.22,2.84c0,1.81,0.49,2.76,1.2,2.76       c0.31,0,0.68-0.17,0.87-0.83c0.06-0.14,0.08-0.35,0.08-0.58V398.43z"/><path data-cppathid="10241" d="M575.25,401.38c0,1.01,0.04,2,0.08,2.89h-2.19l-0.14-1.01h-0.04c-0.45,0.64-1.22,1.17-2.2,1.17       c-1.81,0-2.54-1.34-2.54-3.9v-5.75h2.56v5.48c0,1.24,0.23,2.04,0.95,2.04c0.43,0,0.7-0.33,0.82-0.64       c0.1-0.19,0.16-0.49,0.16-0.82v-6.06h2.54V401.38z"/><path data-cppathid="10242" d="M582.34,404.12c-0.25,0.12-0.89,0.27-1.61,0.27c-2.41,0-3.98-1.67-3.98-4.78c0-2.93,1.73-4.97,4.35-4.97       c0.6,0,1.15,0.14,1.4,0.25l-0.33,2c-0.21-0.08-0.52-0.17-0.95-0.17c-1.22,0-1.94,1.17-1.94,2.82c0,1.73,0.72,2.78,1.9,2.78       c0.37,0,0.68-0.06,0.95-0.19L582.34,404.12z"/><path data-cppathid="10243" d="M585.47,400.43c0.04,1.48,0.89,2.02,2.02,2.02c0.72,0,1.36-0.16,1.81-0.31l0.35,1.83c-0.66,0.25-1.65,0.43-2.62,0.43       c-2.58,0-4-1.71-4-4.68c0-3.19,1.65-5.09,3.81-5.09c2.04,0,3.22,1.61,3.22,4.49c0,0.68-0.02,1.05-0.08,1.32H585.47z        M587.74,398.64c0-1.22-0.31-2.18-1.07-2.18c-0.83,0-1.17,1.22-1.18,2.18H587.74z"/><path data-cppathid="10244" d="M530.9,421.53c0.04,1.48,0.89,2.02,2.02,2.02c0.72,0,1.36-0.16,1.81-0.31l0.35,1.83c-0.66,0.25-1.65,0.43-2.62,0.43       c-2.58,0-4-1.71-4-4.68c0-3.19,1.65-5.09,3.81-5.09c2.04,0,3.22,1.61,3.22,4.49c0,0.68-0.02,1.05-0.08,1.32H530.9z        M533.17,419.74c0-1.22-0.31-2.18-1.07-2.18c-0.83,0-1.17,1.22-1.18,2.18H533.17z"/><path data-cppathid="10245" d="M536.92,418.73c0-1.05-0.06-1.96-0.08-2.86h2.2l0.12,1.09h0.04c0.5-0.76,1.32-1.24,2.31-1.24       c1.81,0,2.53,1.44,2.53,3.55v6.1h-2.54v-5.94c0-0.82-0.19-1.57-0.93-1.57c-0.43,0-0.78,0.29-0.95,0.86       c-0.08,0.19-0.14,0.5-0.14,0.87v5.79h-2.54V418.73z"/><path data-cppathid="10246" d="M547.93,421.53c0.04,1.48,0.89,2.02,2.02,2.02c0.72,0,1.36-0.16,1.81-0.31l0.35,1.83c-0.66,0.25-1.65,0.43-2.62,0.43       c-2.58,0-4-1.71-4-4.68c0-3.19,1.65-5.09,3.81-5.09c2.04,0,3.22,1.61,3.22,4.49c0,0.68-0.02,1.05-0.08,1.32H547.93z        M550.2,419.74c0-1.22-0.31-2.18-1.07-2.18c-0.83,0-1.17,1.22-1.18,2.18H550.2z"/><path data-cppathid="10247" d="M553.93,418.73c0-0.95-0.04-1.98-0.08-2.86h2.21l0.14,1.38h0.06c0.43-1.01,1.18-1.54,1.88-1.54       c0.25,0,0.39,0,0.54,0.04v2.53c-0.16-0.04-0.33-0.04-0.54-0.04c-0.54,0-1.26,0.37-1.55,1.36c-0.06,0.21-0.1,0.54-0.1,0.95v4.82       h-2.56V418.73z"/><path data-cppathid="10248" d="M566.59,415.88c-0.04,0.86-0.1,1.87-0.1,3.01v5.42c0,2.04-0.37,3.17-1.15,3.9c-0.7,0.66-1.69,1.05-3.09,1.05       c-0.87,0-1.69-0.16-2.37-0.45l0.47-1.96c0.49,0.21,1.09,0.41,1.83,0.41c1.28,0,1.79-0.85,1.79-2.31v-0.58h-0.04       c-0.33,0.6-0.99,0.95-1.71,0.95c-2.14,0-2.97-2.33-2.97-4.6c0-3.17,1.44-4.99,3.21-4.99c0.76,0,1.38,0.39,1.75,1.11h0.04       l0.14-0.95H566.59z M563.97,419.33c0-0.25-0.04-0.5-0.1-0.7c-0.12-0.41-0.39-0.78-0.82-0.78c-0.91,0-1.28,1.24-1.28,2.8       c0,1.77,0.5,2.66,1.22,2.66c0.33,0,0.66-0.17,0.85-0.68c0.08-0.21,0.12-0.5,0.12-0.76V419.33z"/><path data-cppathid="10249" d="M570.2,415.88l0.93,4.93c0.1,0.56,0.17,1.09,0.25,1.59h0.04c0.08-0.49,0.16-1.03,0.23-1.55l0.8-4.97h2.49L573,423.2       c-0.47,1.79-1.09,3.63-2.12,4.86c-0.8,0.93-1.77,1.38-2.16,1.5l-0.78-2.19c0.45-0.16,0.87-0.45,1.26-0.8       c0.35-0.33,0.62-0.72,0.8-1.13c0.08-0.17,0.14-0.27,0.14-0.41c0-0.12-0.04-0.23-0.08-0.35l-2.6-8.8H570.2z"/><path data-cppathid="10250" d="M578.94,411.93h2.54v13.44h-2.54V411.93z"/><path data-cppathid="10251" d="M590.25,420.6c0,3.96-2.2,4.93-3.63,4.93c-2.27,0-3.63-1.79-3.63-4.88c0-3.42,1.79-4.93,3.67-4.93       C588.89,415.72,590.25,417.6,590.25,420.6z M585.51,420.6c0,1.63,0.25,2.99,1.17,2.99c0.82,0,1.03-1.59,1.03-2.99       c0-1.3-0.21-2.95-1.07-2.95C585.7,417.64,585.51,419.29,585.51,420.6z"/><path data-cppathid="10252" d="M595.94,425.37l-0.14-0.93h-0.04c-0.52,0.74-1.26,1.09-2.1,1.09c-1.44,0-2.51-1.2-2.51-2.89c0-2.49,2.2-3.52,4.35-3.54       v-0.21c0-0.74-0.45-1.28-1.34-1.28c-0.76,0-1.38,0.19-1.94,0.54l-0.47-1.71c0.52-0.31,1.63-0.72,2.95-0.72       c2.89,0,3.36,2.02,3.36,3.94v3.54c0,0.76,0.04,1.54,0.16,2.18H595.94z M595.59,420.75c-0.85,0.02-2.02,0.29-2.02,1.61       c0,0.95,0.52,1.3,0.91,1.3c0.41,0,0.87-0.25,1.05-0.82c0.04-0.14,0.06-0.29,0.06-0.45V420.75z"/><path data-cppathid="10253" d="M606.77,411.93v10.62c0,0.91,0.04,1.94,0.08,2.82h-2.2l-0.14-1.07h-0.04c-0.35,0.66-1.11,1.22-1.98,1.22       c-2.02,0-2.95-2.23-2.95-4.89c0-3.3,1.44-4.92,3.05-4.92c0.83,0,1.36,0.41,1.59,0.95h0.04v-4.74H606.77z M604.23,419.53       c0-0.17,0-0.37-0.02-0.56c-0.1-0.58-0.41-1.11-0.91-1.11c-0.89,0-1.22,1.3-1.22,2.84c0,1.81,0.49,2.76,1.2,2.76       c0.31,0,0.68-0.17,0.87-0.83c0.06-0.14,0.08-0.35,0.08-0.58V419.53z"/></g></g></g></g><g><ellipse data-cppathid="10254" ry="71.01" rx="71.01" cy="370.81" cx="117.29" class="st23" transform="matrix(0.7071 -0.7071 0.7071 0.7071 -227.8452 191.5465)"/><g><g><path data-cppathid="10255" d="M117.53,325.51c-0.31,0.02-0.66,0.06-1.05,0.13c-1.67,0.37-2.51,1.77-2.82,3.36h0.06c0.45-0.6,1.11-1.01,1.94-1.01      c1.71,0,2.86,1.53,2.86,3.92c0,2.21-1.13,4.47-3.59,4.47c-2.39,0-3.85-2.08-3.85-5.21c0-2.76,0.91-4.64,2.08-5.89      c0.82-0.91,2.04-1.51,3.09-1.71c0.6-0.12,1.01-0.12,1.28-0.14V325.51z M116.02,331.9c-0.02-1.07-0.37-2.08-1.18-2.08      c-0.41,0-0.8,0.27-1.03,0.85c-0.08,0.14-0.14,0.52-0.14,1.11c0,1.65,0.47,2.76,1.22,2.76      C115.75,334.55,116.02,333.42,116.02,331.9z"/><path data-cppathid="10256" d="M90.28,357.14c-0.37,0.17-1.09,0.31-1.98,0.31c-3.34,0-4.93-2.76-4.93-6.47c0-4.93,2.74-6.86,5.28-6.86      c0.89,0,1.52,0.17,1.77,0.35l-0.43,2.14c-0.29-0.14-0.62-0.25-1.19-0.25c-1.44,0-2.74,1.24-2.74,4.49      c0,3.13,1.19,4.35,2.74,4.35c0.43,0,0.91-0.1,1.22-0.19L90.28,357.14z"/><path data-cppathid="10257" d="M91.54,350.69c0-0.95-0.04-1.98-0.08-2.86h2.21l0.14,1.38h0.06c0.43-1.01,1.19-1.54,1.88-1.54c0.25,0,0.39,0,0.54,0.04      v2.53c-0.16-0.04-0.33-0.04-0.54-0.04c-0.54,0-1.26,0.37-1.55,1.36c-0.06,0.21-0.1,0.54-0.1,0.95v4.82h-2.56V350.69z"/><path data-cppathid="10258" d="M99.31,353.49c0.04,1.48,0.89,2.02,2.02,2.02c0.72,0,1.36-0.16,1.81-0.31l0.35,1.83c-0.66,0.25-1.65,0.43-2.62,0.43      c-2.58,0-4-1.71-4-4.68c0-3.19,1.65-5.09,3.81-5.09c2.04,0,3.22,1.61,3.22,4.49c0,0.68-0.02,1.05-0.08,1.32H99.31z       M101.58,351.7c0-1.22-0.31-2.18-1.07-2.18c-0.84,0-1.17,1.22-1.19,2.18H101.58z"/><path data-cppathid="10259" d="M109.58,357.33l-0.14-0.93h-0.04c-0.52,0.74-1.26,1.09-2.1,1.09c-1.44,0-2.51-1.2-2.51-2.89c0-2.49,2.19-3.52,4.35-3.54      v-0.21c0-0.74-0.45-1.28-1.34-1.28c-0.76,0-1.38,0.19-1.94,0.54l-0.47-1.71c0.52-0.31,1.63-0.72,2.95-0.72      c2.89,0,3.36,2.02,3.36,3.94v3.54c0,0.76,0.04,1.54,0.16,2.18H109.58z M109.23,352.71c-0.85,0.02-2.02,0.29-2.02,1.61      c0,0.95,0.52,1.3,0.91,1.3c0.41,0,0.87-0.25,1.05-0.82c0.04-0.14,0.06-0.29,0.06-0.45V352.71z"/><path data-cppathid="10260" d="M116.32,345.27v2.56h1.86v1.81h-1.86v4.33c0,1.11,0.47,1.38,0.97,1.38c0.25,0,0.45-0.02,0.66-0.06l0.02,1.98      c-0.35,0.1-0.87,0.17-1.55,0.17c-0.74,0-1.38-0.17-1.83-0.6c-0.52-0.5-0.82-1.22-0.82-2.72v-4.49h-1.13v-1.81h1.13v-1.96      L116.32,345.27z"/><path data-cppathid="10261" d="M121.37,353.49c0.04,1.48,0.89,2.02,2.02,2.02c0.72,0,1.36-0.16,1.81-0.31l0.35,1.83c-0.66,0.25-1.65,0.43-2.62,0.43      c-2.58,0-4-1.71-4-4.68c0-3.19,1.65-5.09,3.81-5.09c2.04,0,3.22,1.61,3.22,4.49c0,0.68-0.02,1.05-0.08,1.32H121.37z       M123.64,351.7c0-1.22-0.31-2.18-1.07-2.18c-0.84,0-1.17,1.22-1.19,2.18H123.64z"/><path data-cppathid="10262" d="M134.73,357.33l-0.14-0.93h-0.04c-0.52,0.74-1.26,1.09-2.1,1.09c-1.44,0-2.51-1.2-2.51-2.89c0-2.49,2.19-3.52,4.35-3.54      v-0.21c0-0.74-0.45-1.28-1.34-1.28c-0.76,0-1.38,0.19-1.94,0.54l-0.47-1.71c0.52-0.31,1.63-0.72,2.95-0.72      c2.89,0,3.36,2.02,3.36,3.94v3.54c0,0.76,0.04,1.54,0.16,2.18H134.73z M134.38,352.71c-0.85,0.02-2.02,0.29-2.02,1.61      c0,0.95,0.52,1.3,0.91,1.3c0.41,0,0.87-0.25,1.05-0.82c0.04-0.14,0.06-0.29,0.06-0.45V352.71z"/><path data-cppathid="10263" d="M138.67,350.69c0-1.05-0.06-1.96-0.08-2.86h2.19l0.12,1.09h0.04c0.51-0.76,1.32-1.24,2.31-1.24      c1.81,0,2.53,1.44,2.53,3.55v6.1h-2.54v-5.94c0-0.82-0.19-1.57-0.93-1.57c-0.43,0-0.78,0.29-0.95,0.86      c-0.08,0.19-0.14,0.5-0.14,0.87v5.79h-2.54V350.69z"/><path data-cppathid="10264" d="M94.06,378.43l-0.14-0.93h-0.04c-0.52,0.74-1.26,1.09-2.1,1.09c-1.44,0-2.51-1.2-2.51-2.89c0-2.49,2.19-3.52,4.35-3.54      v-0.21c0-0.74-0.45-1.28-1.34-1.28c-0.76,0-1.38,0.19-1.94,0.54l-0.47-1.71c0.52-0.31,1.63-0.72,2.95-0.72      c2.89,0,3.36,2.02,3.36,3.94v3.54c0,0.76,0.04,1.54,0.16,2.18H94.06z M93.72,373.81c-0.85,0.02-2.02,0.29-2.02,1.61      c0,0.95,0.52,1.3,0.91,1.3c0.41,0,0.87-0.25,1.05-0.82c0.04-0.14,0.06-0.29,0.06-0.45V373.81z"/><path data-cppathid="10265" d="M97.93,376.14c0.37,0.23,1.07,0.5,1.71,0.5c0.66,0,1.03-0.29,1.03-0.85c0-0.49-0.27-0.8-1.11-1.28      c-1.55-0.87-1.92-1.86-1.92-2.74c0-1.71,1.22-2.99,3.13-2.99c0.8,0,1.42,0.19,1.92,0.43l-0.45,1.86      c-0.37-0.21-0.82-0.39-1.32-0.39c-0.64,0-0.95,0.39-0.95,0.82s0.21,0.66,1.11,1.18c1.4,0.8,1.92,1.79,1.92,2.88      c0,1.94-1.4,2.99-3.36,2.99c-0.8,0-1.73-0.21-2.18-0.54L97.93,376.14z"/><path data-cppathid="10266" d="M107.85,372.16v1.83h-3.87v-1.83H107.85z"/><path data-cppathid="10267" d="M109.23,378.43c0.04-0.83,0.08-1.9,0.08-2.82v-10.62h2.54v4.89h0.04c0.47-0.68,1.07-1.11,1.98-1.11      c1.85,0,2.68,2.08,2.68,4.64c0,3.32-1.32,5.17-3.09,5.17c-0.8,0-1.36-0.33-1.86-1.28h-0.06l-0.14,1.13H109.23z M111.85,375.03      c0,0.23,0.04,0.47,0.1,0.6c0.21,0.68,0.56,0.87,0.87,0.87c0.85,0,1.2-1.07,1.2-2.89c0-1.63-0.37-2.7-1.22-2.7      c-0.39,0-0.72,0.41-0.85,0.87c-0.06,0.16-0.1,0.41-0.1,0.58V375.03z"/><path data-cppathid="10268" d="M124.96,375.54c0,1.01,0.04,2,0.08,2.89h-2.2l-0.14-1.01h-0.04c-0.45,0.64-1.22,1.17-2.19,1.17      c-1.81,0-2.54-1.34-2.54-3.9v-5.75h2.56v5.48c0,1.24,0.23,2.04,0.95,2.04c0.43,0,0.7-0.33,0.82-0.64      c0.1-0.19,0.16-0.49,0.16-0.82v-6.06h2.54V375.54z"/><path data-cppathid="10269" d="M129.33,366.41c0.02,0.82-0.56,1.38-1.34,1.38c-0.7,0-1.28-0.56-1.26-1.38c-0.02-0.85,0.6-1.38,1.3-1.38      C128.77,365.03,129.33,365.55,129.33,366.41z M126.78,378.43v-9.5h2.54v9.5H126.78z"/><path data-cppathid="10270" d="M131.12,364.99h2.54v13.44h-2.54V364.99z"/><path data-cppathid="10271" d="M138.48,366.37v2.56h1.86v1.81h-1.86v4.33c0,1.11,0.47,1.38,0.97,1.38c0.25,0,0.45-0.02,0.66-0.06l0.02,1.98      c-0.35,0.1-0.87,0.17-1.55,0.17c-0.74,0-1.38-0.17-1.83-0.6c-0.52-0.5-0.82-1.22-0.82-2.72v-4.49h-1.13v-1.81h1.13v-1.96      L138.48,366.37z"/><path data-cppathid="10272" d="M71.32,395.68c0.04,1.48,0.89,2.02,2.02,2.02c0.72,0,1.36-0.16,1.81-0.31l0.35,1.83c-0.66,0.25-1.65,0.43-2.62,0.43      c-2.58,0-4-1.71-4-4.68c0-3.19,1.65-5.09,3.81-5.09c2.04,0,3.22,1.61,3.22,4.49c0,0.68-0.02,1.05-0.08,1.32H71.32z M73.6,393.89      c0-1.22-0.31-2.18-1.07-2.18c-0.84,0-1.17,1.22-1.19,2.18H73.6z"/><path data-cppathid="10273" d="M77.34,392.88c0-1.05-0.06-1.96-0.08-2.86h2.19l0.12,1.09h0.04c0.51-0.76,1.32-1.24,2.31-1.24      c1.81,0,2.53,1.44,2.53,3.55v6.1h-2.54v-5.94c0-0.82-0.19-1.57-0.93-1.57c-0.43,0-0.78,0.29-0.95,0.86      c-0.08,0.19-0.14,0.5-0.14,0.87v5.79h-2.54V392.88z"/><path data-cppathid="10274" d="M88.36,395.68c0.04,1.48,0.89,2.02,2.02,2.02c0.72,0,1.36-0.16,1.81-0.31l0.35,1.83c-0.66,0.25-1.65,0.43-2.62,0.43      c-2.58,0-4-1.71-4-4.68c0-3.19,1.65-5.09,3.81-5.09c2.04,0,3.22,1.61,3.22,4.49c0,0.68-0.02,1.05-0.08,1.32H88.36z       M90.63,393.89c0-1.22-0.31-2.18-1.07-2.18c-0.84,0-1.17,1.22-1.19,2.18H90.63z"/><path data-cppathid="10275" d="M94.35,392.88c0-0.95-0.04-1.98-0.08-2.86h2.21l0.14,1.38h0.06c0.43-1.01,1.19-1.54,1.88-1.54c0.25,0,0.39,0,0.54,0.04      v2.53c-0.16-0.04-0.33-0.04-0.54-0.04c-0.54,0-1.26,0.37-1.55,1.36c-0.06,0.21-0.1,0.54-0.1,0.95v4.82h-2.56V392.88z"/><path data-cppathid="10276" d="M107.02,390.03c-0.04,0.86-0.1,1.87-0.1,3.01v5.42c0,2.04-0.37,3.17-1.15,3.9c-0.7,0.66-1.69,1.05-3.09,1.05      c-0.87,0-1.69-0.16-2.37-0.45l0.47-1.96c0.49,0.21,1.09,0.41,1.83,0.41c1.28,0,1.79-0.85,1.79-2.31v-0.58h-0.04      c-0.33,0.6-0.99,0.95-1.71,0.95c-2.14,0-2.97-2.33-2.97-4.6c0-3.17,1.44-4.99,3.21-4.99c0.76,0,1.38,0.39,1.75,1.11h0.04      l0.14-0.95H107.02z M104.4,393.49c0-0.25-0.04-0.5-0.1-0.7c-0.12-0.41-0.39-0.78-0.82-0.78c-0.91,0-1.28,1.24-1.28,2.8      c0,1.77,0.51,2.66,1.22,2.66c0.33,0,0.66-0.17,0.85-0.68c0.08-0.21,0.12-0.5,0.12-0.76V393.49z"/><path data-cppathid="10277" d="M110.63,390.03l0.93,4.93c0.1,0.56,0.17,1.09,0.25,1.59h0.04c0.08-0.49,0.16-1.03,0.23-1.55l0.8-4.97h2.49l-1.94,7.32      c-0.47,1.79-1.09,3.63-2.12,4.86c-0.8,0.93-1.77,1.38-2.16,1.5l-0.78-2.19c0.45-0.16,0.87-0.45,1.26-0.8      c0.35-0.33,0.62-0.72,0.8-1.13c0.08-0.17,0.14-0.27,0.14-0.41c0-0.12-0.04-0.23-0.08-0.35l-2.6-8.8H110.63z"/><path data-cppathid="10278" d="M119.37,392.88c0-1.05-0.06-1.96-0.08-2.86h2.21l0.12,1.11h0.04c0.49-0.72,1.28-1.26,2.27-1.26      c1.07,0,1.75,0.49,2.08,1.28h0.04c0.23-0.37,0.58-0.72,0.95-0.95c0.39-0.21,0.85-0.33,1.34-0.33c1.69,0,2.45,1.34,2.45,3.63      v6.02h-2.52v-5.59c0-1.09-0.12-1.96-0.89-1.96c-0.45,0-0.78,0.31-0.95,0.87c-0.04,0.14-0.08,0.41-0.08,0.66v6.02h-2.52v-5.96      c0-0.68-0.08-1.59-0.87-1.59c-0.39,0-0.78,0.29-0.95,0.85c-0.06,0.17-0.1,0.45-0.1,0.72v5.98h-2.52V392.88z"/><path data-cppathid="10279" d="M139.51,394.75c0,3.96-2.19,4.93-3.63,4.93c-2.27,0-3.63-1.79-3.63-4.88c0-3.42,1.79-4.93,3.67-4.93      C138.15,389.87,139.51,391.76,139.51,394.75z M134.77,394.75c0,1.63,0.25,2.99,1.17,2.99c0.82,0,1.03-1.59,1.03-2.99      c0-1.3-0.21-2.95-1.07-2.95C134.96,391.8,134.77,393.45,134.77,394.75z"/><path data-cppathid="10280" d="M147.84,386.08v10.62c0,0.91,0.04,1.94,0.08,2.82h-2.19l-0.14-1.07h-0.04c-0.35,0.66-1.11,1.22-1.98,1.22      c-2.02,0-2.95-2.23-2.95-4.89c0-3.3,1.44-4.92,3.05-4.92c0.84,0,1.36,0.41,1.59,0.95h0.04v-4.74H147.84z M145.29,393.68      c0-0.17,0-0.37-0.02-0.56c-0.1-0.58-0.41-1.11-0.91-1.11c-0.89,0-1.22,1.3-1.22,2.84c0,1.81,0.49,2.76,1.2,2.76      c0.31,0,0.68-0.17,0.87-0.83c0.06-0.14,0.08-0.35,0.08-0.58V393.68z"/><path data-cppathid="10281" d="M151.74,395.68c0.04,1.48,0.89,2.02,2.02,2.02c0.72,0,1.36-0.16,1.81-0.31l0.35,1.83c-0.66,0.25-1.65,0.43-2.62,0.43      c-2.58,0-4-1.71-4-4.68c0-3.19,1.65-5.09,3.81-5.09c2.04,0,3.22,1.61,3.22,4.49c0,0.68-0.02,1.05-0.08,1.32H151.74z       M154.01,393.89c0-1.22-0.31-2.18-1.07-2.18c-0.84,0-1.17,1.22-1.19,2.18H154.01z"/><path data-cppathid="10282" d="M157.76,386.08h2.54v13.44h-2.54V386.08z"/></g></g></g></g></svg>