<?xml version="1.0" encoding="UTF-8"?>
<svg xmlns="http://www.w3.org/2000/svg" onmouseup="{ if(window.parent.document.onmouseup) window.parent.document.onmouseup(arguments[0]);}" xml:space="preserve" style="enable-background:new 0 0 699 627;" viewBox="0 0 699 627" y="0px" x="0px" id="Layer_2" version="1.1" xmlns:xlink="http://www.w3.org/1999/xlink"><style type="text/css">
	.st0{fill:none;stroke:#F15A24;stroke-width:11.6539;stroke-linecap:round;stroke-miterlimit:10;}
	.st1{fill:#F15A24;}
	.st2{fill:none;stroke:#F7931E;stroke-width:11.6539;stroke-linecap:round;stroke-miterlimit:10;}
	.st3{fill:#F7931E;}
	.st4{fill:none;stroke:#8CC63F;stroke-width:11.6539;stroke-linecap:round;stroke-miterlimit:10;}
	.st5{fill:#8CC63F;}
	.st6{fill:none;stroke:#00A99D;stroke-width:11.6539;stroke-linecap:round;stroke-miterlimit:10;}
	.st7{fill:#00A99D;}
	.st8{fill:none;stroke:#3FA9F5;stroke-width:11.6539;stroke-linecap:round;stroke-miterlimit:10;}
	.st9{fill:#3FA9F5;}
	.st10{fill:none;stroke:#0071BC;stroke-width:11.6539;stroke-linecap:round;stroke-miterlimit:10;}
	.st11{fill:#0071BC;}
	.st12{fill:none;stroke:#662D91;stroke-width:11.6539;stroke-linecap:round;stroke-miterlimit:10;}
	.st13{fill:#662D91;}
	.st14{fill:#686868;}
	.st15{fill:none;stroke:#686868;stroke-width:22.1548;stroke-miterlimit:10;}
	.st16{opacity:0.71;fill:#F7931E;}
	.st17{fill:#FFFFFF;}
	.st18{fill:#FF931E;}
	.st19{opacity:0.71;fill:#7AC943;}
	.st20{fill:#7AC943;}
	.st21{opacity:0.71;fill:#3FA9F5;}
	.st22{opacity:0.71;fill:#0071BC;}
	.st23{opacity:0.71;fill:#F15A24;}
	.st24{opacity:0.71;fill:#00A99D;}
	.st25{opacity:0.71;fill:#662D91;}
</style><g><g><g><g><path data-cppathid="10000" d="M205.22,276.34c10.34-27.11,28.47-50.13,51.46-66.56" class="st0"/><g><polygon data-cppathid="10001" points="261.6,227.61 278.27,196.99 243.42,197.86      " class="st1"/></g></g></g><g><g><path data-cppathid="10002" d="M295.99,189.86c17.97-5.89,37.4-8.36,57.44-6.68c11.89,0.99,23.32,3.39,34.15,7.01" class="st2"/><g><polygon data-cppathid="10003" points="376.02,204.62 410.59,200.18 389.46,172.45      " class="st3"/></g></g></g><g><g><path data-cppathid="10004" d="M432.19,214.5c20.78,16.63,36.8,38.78,46,64.01" class="st4"/><g><polygon data-cppathid="10005" points="459.67,278.46 484.7,302.74 493.21,268.93      " class="st5"/></g></g></g><g><g><path data-cppathid="10006" d="M485.96,311.39c1.1,9.46,1.27,19.17,0.45,29.03c-1.67,19.99-7.3,38.7-16.06,55.42" class="st6"/><g><polygon data-cppathid="10007" points="457.9,382.13 456.82,416.97 487.54,400.48      " class="st7"/></g></g></g><g><g><path data-cppathid="10008" d="M441.61,433.86c-24.57,23.32-57.13,38.04-92.63,39.87" class="st8"/><g><polygon data-cppathid="10009" points="354.44,456.07 323.89,472.87 353.71,490.93      " class="st9"/></g></g></g><g><g><path data-cppathid="10010" d="M309.9,470.51c-27.66-6.07-52.13-19.89-71.25-38.92" class="st10"/><g><polygon data-cppathid="10011" points="255.42,423.75 222.44,412.43 229.12,446.65      " class="st11"/></g></g></g><g><g><path data-cppathid="10012" d="M215.09,400.95c-14.31-24.81-21.47-54.08-18.9-84.79c0.02-0.23,0.04-0.45,0.06-0.68" class="st12"/><g><polygon data-cppathid="10013" points="212.99,323.35 200.57,290.77 178.57,317.81      " class="st13"/></g></g></g></g><g><g><path data-cppathid="10014" d="M-151.31-121.81c0.52,0,1.69-0.78,0.64-0.78C-151.19-122.59-152.36-121.81-151.31-121.81L-151.31-121.81z" class="st14"/></g></g><path data-cppathid="10015" d="M-252-4.14" class="st15"/><g><path data-cppathid="10016" d="M337.73,16.42c-47.02,0-85.13,38.12-85.13,85.13c0,47.02,38.12,85.13,85.13,85.13    c47.02,0,85.13-38.12,85.13-85.13C422.87,54.54,384.75,16.42,337.73,16.42z M337.73,178.36c-42.42,0-76.8-34.39-76.8-76.8    c0-42.42,34.39-76.8,76.8-76.8s76.8,34.39,76.8,76.8C414.53,143.97,380.15,178.36,337.73,178.36z" class="st3"/><ellipse data-cppathid="10017" ry="71.01" rx="71.01" cy="101.21" cx="337.45" class="st16" transform="matrix(0.303 -0.953 0.953 0.303 138.7664 392.1371)"/><g><path data-cppathid="10018" d="M336.92,54.74h-0.04l-2.14,1.11l-0.43-2l2.89-1.5h2.23v12.63h-2.53V54.74z"/><path data-cppathid="10019" d="M303.53,73.18c0.64-0.16,1.57-0.25,2.58-0.25c1.65,0,2.8,0.39,3.63,1.17c1.13,1.01,1.71,2.74,1.71,5.28     c0,2.64-0.68,4.53-1.83,5.54c-0.87,0.85-2.18,1.26-4,1.26c-0.8,0-1.59-0.08-2.1-0.14V73.18z M306.08,84.06     c0.12,0.04,0.31,0.04,0.45,0.04c1.22,0,2.29-1.2,2.29-4.82c0-2.68-0.7-4.31-2.23-4.31c-0.17,0-0.35,0-0.5,0.06V84.06z"/><path data-cppathid="10020" d="M314.95,82.23c0.04,1.48,0.89,2.02,2.02,2.02c0.72,0,1.36-0.16,1.81-0.31l0.35,1.83c-0.66,0.25-1.65,0.43-2.62,0.43     c-2.58,0-4-1.71-4-4.68c0-3.19,1.65-5.09,3.81-5.09c2.04,0,3.22,1.61,3.22,4.49c0,0.68-0.02,1.05-0.08,1.32H314.95z      M317.22,80.44c0-1.22-0.31-2.18-1.07-2.18c-0.84,0-1.17,1.22-1.19,2.18H317.22z"/><path data-cppathid="10021" d="M321.42,86.08v-7.69h-1.28v-1.81h1.28v-0.5c0-1.22,0.76-3.59,4.21-3.59c0.91,0,1.73,0.16,2.25,0.39l-0.37,2     c-0.43-0.16-1.01-0.31-1.79-0.31c-1.38,0-1.77,0.78-1.77,1.67v0.35h4.74v9.5h-2.56v-7.69h-2.18v7.69H321.42z"/><path data-cppathid="10022" d="M330.47,79.43c0-1.05-0.06-1.96-0.08-2.86h2.2l0.12,1.09h0.04c0.5-0.76,1.32-1.24,2.31-1.24c1.81,0,2.53,1.44,2.53,3.55     v6.1h-2.54v-5.94c0-0.82-0.19-1.57-0.93-1.57c-0.43,0-0.78,0.29-0.95,0.85c-0.08,0.19-0.14,0.5-0.14,0.87v5.79h-2.54V79.43z"/><path data-cppathid="10023" d="M341.48,82.23c0.04,1.48,0.89,2.02,2.02,2.02c0.72,0,1.36-0.16,1.81-0.31l0.35,1.83c-0.66,0.25-1.65,0.43-2.62,0.43     c-2.58,0-4-1.71-4-4.68c0-3.19,1.65-5.09,3.81-5.09c2.04,0,3.22,1.61,3.22,4.49c0,0.68-0.02,1.05-0.08,1.32H341.48z      M343.75,80.44c0-1.22-0.31-2.18-1.07-2.18c-0.83,0-1.17,1.22-1.18,2.18H343.75z"/><path data-cppathid="10024" d="M353.58,74.01v2.56h1.87v1.81h-1.87v4.33c0,1.11,0.47,1.38,0.97,1.38c0.25,0,0.45-0.02,0.66-0.06l0.02,1.98     c-0.35,0.1-0.87,0.17-1.55,0.17c-0.74,0-1.38-0.17-1.83-0.6c-0.52-0.5-0.82-1.22-0.82-2.72v-4.49h-1.13v-1.81h1.13v-1.96     L353.58,74.01z"/><path data-cppathid="10025" d="M356.62,72.63h2.54v4.93h0.04c0.21-0.33,0.51-0.6,0.82-0.82c0.37-0.21,0.82-0.33,1.28-0.33c1.75,0,2.43,1.48,2.43,3.88     v5.77h-2.54v-5.77c0-0.93-0.17-1.75-0.93-1.75c-0.43,0-0.8,0.25-0.99,0.89c-0.04,0.16-0.1,0.5-0.1,0.72v5.9h-2.54V72.63z"/><path data-cppathid="10026" d="M367.64,82.23c0.04,1.48,0.89,2.02,2.02,2.02c0.72,0,1.36-0.16,1.81-0.31l0.35,1.83c-0.66,0.25-1.65,0.43-2.62,0.43     c-2.58,0-4-1.71-4-4.68c0-3.19,1.65-5.09,3.81-5.09c2.04,0,3.22,1.61,3.22,4.49c0,0.68-0.02,1.05-0.08,1.32H367.64z      M369.91,80.44c0-1.22-0.31-2.18-1.07-2.18c-0.83,0-1.17,1.22-1.18,2.18H369.91z"/><path data-cppathid="10027" d="M317.06,103.33c0.04,1.48,0.89,2.02,2.02,2.02c0.72,0,1.36-0.16,1.81-0.31l0.35,1.83c-0.66,0.25-1.65,0.43-2.62,0.43     c-2.58,0-4-1.71-4-4.68c0-3.19,1.65-5.09,3.81-5.09c2.04,0,3.22,1.61,3.22,4.49c0,0.68-0.02,1.05-0.08,1.32H317.06z      M319.33,101.54c0-1.22-0.31-2.18-1.07-2.18c-0.84,0-1.17,1.22-1.19,2.18H319.33z"/><path data-cppathid="10028" d="M323.08,100.53c0-1.05-0.06-1.96-0.08-2.86h2.19l0.12,1.09h0.04c0.5-0.76,1.32-1.24,2.31-1.24     c1.81,0,2.52,1.44,2.52,3.55v6.1h-2.54v-5.94c0-0.82-0.19-1.57-0.93-1.57c-0.43,0-0.78,0.29-0.95,0.85     c-0.08,0.19-0.14,0.5-0.14,0.87v5.79h-2.54V100.53z"/><path data-cppathid="10029" d="M334.09,103.33c0.04,1.48,0.89,2.02,2.02,2.02c0.72,0,1.36-0.16,1.81-0.31l0.35,1.83c-0.66,0.25-1.65,0.43-2.62,0.43     c-2.58,0-4-1.71-4-4.68c0-3.19,1.65-5.09,3.81-5.09c2.04,0,3.22,1.61,3.22,4.49c0,0.68-0.02,1.05-0.08,1.32H334.09z      M336.36,101.54c0-1.22-0.31-2.18-1.07-2.18c-0.83,0-1.17,1.22-1.18,2.18H336.36z"/><path data-cppathid="10030" d="M340.09,100.53c0-0.95-0.04-1.98-0.08-2.86h2.21l0.14,1.38h0.06c0.43-1.01,1.18-1.53,1.88-1.53c0.25,0,0.39,0,0.54,0.04     v2.53c-0.16-0.04-0.33-0.04-0.54-0.04c-0.54,0-1.26,0.37-1.55,1.36c-0.06,0.21-0.1,0.54-0.1,0.95v4.82h-2.56V100.53z"/><path data-cppathid="10031" d="M352.75,97.67c-0.04,0.85-0.1,1.86-0.1,3.01v5.42c0,2.04-0.37,3.17-1.15,3.9c-0.7,0.66-1.69,1.05-3.09,1.05     c-0.87,0-1.69-0.16-2.37-0.45l0.47-1.96c0.49,0.21,1.09,0.41,1.83,0.41c1.28,0,1.79-0.85,1.79-2.31v-0.58h-0.04     c-0.33,0.6-0.99,0.95-1.71,0.95c-2.14,0-2.97-2.33-2.97-4.6c0-3.17,1.44-4.99,3.21-4.99c0.76,0,1.38,0.39,1.75,1.11h0.04     l0.14-0.95H352.75z M350.13,101.13c0-0.25-0.04-0.5-0.1-0.7c-0.12-0.41-0.39-0.78-0.82-0.78c-0.91,0-1.28,1.24-1.28,2.8     c0,1.77,0.5,2.66,1.22,2.66c0.33,0,0.66-0.17,0.85-0.68c0.08-0.21,0.12-0.5,0.12-0.76V101.13z"/><path data-cppathid="10032" d="M356.36,97.67l0.93,4.93c0.1,0.56,0.17,1.09,0.25,1.59h0.04c0.08-0.49,0.16-1.03,0.23-1.55l0.8-4.97h2.49l-1.94,7.32     c-0.47,1.79-1.09,3.63-2.12,4.86c-0.8,0.93-1.77,1.38-2.16,1.5l-0.78-2.19c0.45-0.16,0.87-0.45,1.26-0.8     c0.35-0.33,0.62-0.72,0.8-1.13c0.08-0.17,0.14-0.27,0.14-0.41c0-0.12-0.04-0.23-0.08-0.35l-2.6-8.8H356.36z"/><path data-cppathid="10033" d="M300.35,128.27c0.04-0.84,0.08-1.9,0.08-2.82v-10.63h2.54v4.9h0.04c0.47-0.68,1.07-1.11,1.98-1.11     c1.85,0,2.68,2.08,2.68,4.64c0,3.32-1.32,5.17-3.09,5.17c-0.8,0-1.36-0.33-1.86-1.28h-0.06l-0.14,1.13H300.35z M302.97,124.87     c0,0.23,0.04,0.47,0.1,0.6c0.21,0.68,0.56,0.87,0.87,0.87c0.85,0,1.2-1.07,1.2-2.89c0-1.63-0.37-2.7-1.22-2.7     c-0.39,0-0.72,0.41-0.85,0.87c-0.06,0.16-0.1,0.41-0.1,0.58V124.87z"/><path data-cppathid="10034" d="M316.06,123.49c0,3.96-2.19,4.93-3.63,4.93c-2.27,0-3.63-1.79-3.63-4.88c0-3.42,1.79-4.93,3.67-4.93     C314.7,118.62,316.06,120.5,316.06,123.49z M311.32,123.49c0,1.63,0.25,2.99,1.17,2.99c0.82,0,1.03-1.59,1.03-2.99     c0-1.3-0.21-2.95-1.07-2.95C311.51,120.54,311.32,122.19,311.32,123.49z"/><path data-cppathid="10035" d="M324.45,125.38c0,1.01,0.04,2,0.08,2.89h-2.2l-0.14-1.01h-0.04c-0.45,0.64-1.22,1.17-2.19,1.17     c-1.81,0-2.54-1.34-2.54-3.9v-5.75h2.56v5.48c0,1.24,0.23,2.04,0.95,2.04c0.43,0,0.7-0.33,0.82-0.64     c0.1-0.19,0.15-0.49,0.15-0.82v-6.06h2.54V125.38z"/><path data-cppathid="10036" d="M326.27,121.63c0-1.05-0.06-1.96-0.08-2.86h2.2l0.12,1.09h0.04c0.5-0.76,1.32-1.24,2.31-1.24c1.81,0,2.52,1.44,2.52,3.55     v6.1h-2.54v-5.94c0-0.82-0.19-1.57-0.93-1.57c-0.43,0-0.78,0.29-0.95,0.85c-0.08,0.19-0.14,0.5-0.14,0.87v5.79h-2.54V121.63z"/><path data-cppathid="10037" d="M342.06,114.83v10.63c0,0.91,0.04,1.94,0.08,2.82h-2.2l-0.14-1.07h-0.04c-0.35,0.66-1.11,1.22-1.98,1.22     c-2.02,0-2.95-2.23-2.95-4.9c0-3.3,1.44-4.91,3.05-4.91c0.83,0,1.36,0.41,1.59,0.95h0.04v-4.74H342.06z M339.52,122.42     c0-0.17,0-0.37-0.02-0.56c-0.1-0.58-0.41-1.11-0.91-1.11c-0.89,0-1.22,1.3-1.22,2.84c0,1.81,0.49,2.76,1.2,2.76     c0.31,0,0.68-0.17,0.87-0.84c0.06-0.14,0.08-0.35,0.08-0.58V122.42z"/><path data-cppathid="10038" d="M348.1,128.27l-0.14-0.93h-0.04c-0.52,0.74-1.26,1.09-2.1,1.09c-1.44,0-2.51-1.2-2.51-2.89c0-2.49,2.2-3.52,4.35-3.54     v-0.21c0-0.74-0.45-1.28-1.34-1.28c-0.76,0-1.38,0.19-1.94,0.54l-0.47-1.71c0.52-0.31,1.63-0.72,2.95-0.72     c2.89,0,3.36,2.02,3.36,3.94v3.54c0,0.76,0.04,1.53,0.16,2.18H348.1z M347.75,123.65c-0.85,0.02-2.02,0.29-2.02,1.61     c0,0.95,0.52,1.3,0.91,1.3c0.41,0,0.87-0.25,1.05-0.82c0.04-0.14,0.06-0.29,0.06-0.45V123.65z"/><path data-cppathid="10039" d="M352.02,121.63c0-0.95-0.04-1.98-0.08-2.86h2.21l0.14,1.38h0.06c0.43-1.01,1.18-1.53,1.88-1.53c0.25,0,0.39,0,0.54,0.04     v2.53c-0.16-0.04-0.33-0.04-0.54-0.04c-0.54,0-1.26,0.37-1.55,1.36c-0.06,0.21-0.1,0.54-0.1,0.95v4.82h-2.56V121.63z"/><path data-cppathid="10040" d="M360.3,116.25c0.02,0.82-0.56,1.38-1.34,1.38c-0.7,0-1.28-0.56-1.26-1.38c-0.02-0.85,0.6-1.38,1.3-1.38     C359.73,114.87,360.3,115.39,360.3,116.25z M357.75,128.27v-9.5h2.54v9.5H357.75z"/><path data-cppathid="10041" d="M364.2,124.42c0.04,1.48,0.89,2.02,2.02,2.02c0.72,0,1.36-0.16,1.81-0.31l0.35,1.83c-0.66,0.25-1.65,0.43-2.62,0.43     c-2.58,0-4-1.71-4-4.68c0-3.19,1.65-5.09,3.81-5.09c2.04,0,3.22,1.61,3.22,4.49c0,0.68-0.02,1.05-0.08,1.32H364.2z      M366.47,122.64c0-1.22-0.31-2.18-1.07-2.18c-0.83,0-1.17,1.22-1.18,2.18H366.47z"/><path data-cppathid="10042" d="M370.14,125.98c0.37,0.23,1.07,0.5,1.71,0.5c0.66,0,1.03-0.29,1.03-0.85c0-0.49-0.27-0.8-1.11-1.28     c-1.55-0.87-1.92-1.86-1.92-2.74c0-1.71,1.22-2.99,3.13-2.99c0.8,0,1.42,0.19,1.92,0.43l-0.45,1.86     c-0.37-0.21-0.82-0.39-1.32-0.39c-0.64,0-0.95,0.39-0.95,0.82s0.21,0.66,1.11,1.19c1.4,0.8,1.92,1.79,1.92,2.87     c0,1.94-1.4,2.99-3.36,2.99c-0.8,0-1.73-0.21-2.18-0.54L370.14,125.98z"/></g><polygon data-cppathid="10043" points="308.35,36.62 303.39,14.12 325.35,21.08   " class="st17"/><polygon data-cppathid="10044" points="305.11,37.27 300.15,14.77 322.12,21.72   " class="st18"/></g><g><ellipse data-cppathid="10045" ry="71.01" rx="71.01" cy="186.39" cx="522.63" class="st19" transform="matrix(0.9961 -0.0887 0.0887 0.9961 -14.468 47.0742)"/><polygon data-cppathid="10046" points="594.47,189.1 616.8,194.75 600.74,211.26   " class="st17"/><g><path data-cppathid="10047" d="M522.63,101.53c-47.02,0-85.13,38.12-85.13,85.13c0,47.02,38.12,85.13,85.13,85.13s85.13-38.12,85.13-85.13     C607.77,139.64,569.65,101.53,522.63,101.53z M522.63,263.47c-42.42,0-76.8-34.39-76.8-76.8c0-42.42,34.39-76.8,76.8-76.8     s76.8,34.39,76.8,76.8C599.44,229.08,565.05,263.47,522.63,263.47z" class="st20"/><g><g><path data-cppathid="10048" d="M517.99,145.13v-1.71l1.26-1.61c1.63-2.08,2.97-3.81,2.97-5.61c0-1.01-0.56-1.73-1.61-1.73c-0.8,0-1.44,0.35-1.9,0.64       l-0.45-1.98c0.58-0.37,1.67-0.78,2.82-0.78c2.76,0,3.65,1.85,3.65,3.65c0,2.37-1.48,4.27-2.93,5.96l-0.76,0.89v0.04h3.87v2.23       H517.99z"/><path data-cppathid="10049" d="M499.49,160.48h-2.99v3.54h3.38v2.21h-5.92v-13.09h5.69v2.21h-3.15v3.01h2.99V160.48z"/><path data-cppathid="10050" d="M501.3,163.94c0.37,0.23,1.07,0.5,1.71,0.5c0.66,0,1.03-0.29,1.03-0.85c0-0.49-0.27-0.8-1.11-1.28       c-1.55-0.87-1.92-1.86-1.92-2.74c0-1.71,1.22-2.99,3.13-2.99c0.8,0,1.42,0.19,1.92,0.43l-0.45,1.86       c-0.37-0.21-0.82-0.39-1.32-0.39c-0.64,0-0.95,0.39-0.95,0.82s0.21,0.66,1.11,1.19c1.4,0.8,1.92,1.79,1.92,2.87       c0,1.94-1.4,2.99-3.36,2.99c-0.8,0-1.73-0.21-2.18-0.54L501.3,163.94z"/><path data-cppathid="10051" d="M510.66,154.16v2.56h1.87v1.81h-1.87v4.33c0,1.11,0.47,1.38,0.97,1.38c0.25,0,0.45-0.02,0.66-0.06l0.02,1.98       c-0.35,0.1-0.87,0.17-1.55,0.17c-0.74,0-1.38-0.17-1.83-0.6c-0.52-0.5-0.82-1.22-0.82-2.72v-4.49h-1.13v-1.81h1.13v-1.96       L510.66,154.16z"/><path data-cppathid="10052" d="M517.96,166.23l-0.14-0.93h-0.04c-0.52,0.74-1.26,1.09-2.1,1.09c-1.44,0-2.51-1.2-2.51-2.89c0-2.49,2.2-3.52,4.35-3.54       v-0.21c0-0.74-0.45-1.28-1.34-1.28c-0.76,0-1.38,0.19-1.94,0.54l-0.47-1.71c0.52-0.31,1.63-0.72,2.95-0.72       c2.89,0,3.36,2.02,3.36,3.94v3.54c0,0.76,0.04,1.53,0.16,2.18H517.96z M517.61,161.6c-0.85,0.02-2.02,0.29-2.02,1.61       c0,0.95,0.52,1.3,0.91,1.3c0.41,0,0.87-0.25,1.05-0.82c0.04-0.14,0.06-0.29,0.06-0.45V161.6z"/><path data-cppathid="10053" d="M521.8,166.23c0.04-0.84,0.08-1.9,0.08-2.82v-10.63h2.54v4.9h0.04c0.47-0.68,1.07-1.11,1.98-1.11       c1.85,0,2.68,2.08,2.68,4.64c0,3.32-1.32,5.17-3.09,5.17c-0.8,0-1.36-0.33-1.87-1.28h-0.06l-0.14,1.13H521.8z M524.42,162.83       c0,0.23,0.04,0.47,0.1,0.6c0.21,0.68,0.56,0.87,0.87,0.87c0.85,0,1.2-1.07,1.2-2.89c0-1.63-0.37-2.7-1.22-2.7       c-0.39,0-0.72,0.41-0.85,0.87c-0.06,0.16-0.1,0.41-0.1,0.58V162.83z"/><path data-cppathid="10054" d="M530.58,152.79h2.54v13.44h-2.54V152.79z"/><path data-cppathid="10055" d="M537.49,154.2c0.02,0.82-0.56,1.38-1.34,1.38c-0.7,0-1.28-0.56-1.26-1.38c-0.02-0.85,0.6-1.38,1.3-1.38       C536.93,152.82,537.49,153.35,537.49,154.2z M534.95,166.23v-9.5h2.54v9.5H534.95z"/><path data-cppathid="10056" d="M539.2,163.94c0.37,0.23,1.07,0.5,1.71,0.5c0.66,0,1.03-0.29,1.03-0.85c0-0.49-0.27-0.8-1.11-1.28       c-1.55-0.87-1.92-1.86-1.92-2.74c0-1.71,1.22-2.99,3.13-2.99c0.8,0,1.42,0.19,1.92,0.43l-0.45,1.86       c-0.37-0.21-0.82-0.39-1.32-0.39c-0.64,0-0.95,0.39-0.95,0.82s0.21,0.66,1.11,1.19c1.4,0.8,1.92,1.79,1.92,2.87       c0,1.94-1.4,2.99-3.36,2.99c-0.8,0-1.73-0.21-2.18-0.54L539.2,163.94z"/><path data-cppathid="10057" d="M545.57,152.79h2.54v4.93h0.04c0.21-0.33,0.51-0.6,0.82-0.82c0.37-0.21,0.82-0.33,1.28-0.33       c1.75,0,2.43,1.48,2.43,3.88v5.77h-2.54v-5.77c0-0.93-0.17-1.75-0.93-1.75c-0.43,0-0.8,0.25-0.99,0.89       c-0.04,0.16-0.1,0.5-0.1,0.72v5.9h-2.54V152.79z"/><path data-cppathid="10058" d="M502.67,183.48c0.04,1.48,0.89,2.02,2.02,2.02c0.72,0,1.36-0.16,1.81-0.31l0.35,1.83c-0.66,0.25-1.65,0.43-2.62,0.43       c-2.58,0-4-1.71-4-4.68c0-3.19,1.65-5.09,3.81-5.09c2.04,0,3.22,1.61,3.22,4.49c0,0.68-0.02,1.05-0.08,1.32H502.67z        M504.95,181.69c0-1.22-0.31-2.18-1.07-2.18c-0.83,0-1.17,1.22-1.18,2.18H504.95z"/><path data-cppathid="10059" d="M508.69,180.68c0-1.05-0.06-1.96-0.08-2.86h2.2l0.12,1.09h0.04c0.5-0.76,1.32-1.24,2.31-1.24       c1.81,0,2.53,1.44,2.53,3.55v6.1h-2.54v-5.94c0-0.82-0.19-1.57-0.93-1.57c-0.43,0-0.78,0.29-0.95,0.85       c-0.08,0.19-0.14,0.5-0.14,0.87v5.79h-2.54V180.68z"/><path data-cppathid="10060" d="M519.71,183.48c0.04,1.48,0.89,2.02,2.02,2.02c0.72,0,1.36-0.16,1.81-0.31l0.35,1.83c-0.66,0.25-1.65,0.43-2.62,0.43       c-2.58,0-4-1.71-4-4.68c0-3.19,1.65-5.09,3.81-5.09c2.04,0,3.22,1.61,3.22,4.49c0,0.68-0.02,1.05-0.08,1.32H519.71z        M521.98,181.69c0-1.22-0.31-2.18-1.07-2.18c-0.83,0-1.17,1.22-1.18,2.18H521.98z"/><path data-cppathid="10061" d="M525.71,180.68c0-0.95-0.04-1.98-0.08-2.86h2.21l0.14,1.38h0.06c0.43-1.01,1.18-1.53,1.88-1.53       c0.25,0,0.39,0,0.54,0.04v2.53c-0.16-0.04-0.33-0.04-0.54-0.04c-0.54,0-1.26,0.37-1.55,1.36c-0.06,0.21-0.1,0.54-0.1,0.95v4.82       h-2.56V180.68z"/><path data-cppathid="10062" d="M538.37,177.83c-0.04,0.85-0.1,1.86-0.1,3.01v5.42c0,2.04-0.37,3.17-1.15,3.9c-0.7,0.66-1.69,1.05-3.09,1.05       c-0.87,0-1.69-0.16-2.37-0.45l0.47-1.96c0.49,0.21,1.09,0.41,1.83,0.41c1.28,0,1.79-0.85,1.79-2.31v-0.58h-0.04       c-0.33,0.6-0.99,0.95-1.71,0.95c-2.14,0-2.97-2.33-2.97-4.6c0-3.17,1.44-4.99,3.21-4.99c0.76,0,1.38,0.39,1.75,1.11h0.04       l0.14-0.95H538.37z M535.75,181.28c0-0.25-0.04-0.5-0.1-0.7c-0.12-0.41-0.39-0.78-0.82-0.78c-0.91,0-1.28,1.24-1.28,2.8       c0,1.77,0.5,2.66,1.22,2.66c0.33,0,0.66-0.17,0.85-0.68c0.08-0.21,0.12-0.5,0.12-0.76V181.28z"/><path data-cppathid="10063" d="M541.98,177.83l0.93,4.93c0.1,0.56,0.17,1.09,0.25,1.59h0.04c0.08-0.49,0.16-1.03,0.23-1.55l0.8-4.97h2.49l-1.94,7.32       c-0.47,1.79-1.09,3.63-2.12,4.86c-0.8,0.93-1.77,1.38-2.16,1.5l-0.78-2.19c0.45-0.16,0.87-0.45,1.26-0.8       c0.35-0.33,0.62-0.72,0.8-1.13c0.08-0.17,0.14-0.27,0.14-0.41c0-0.12-0.04-0.23-0.08-0.35l-2.6-8.8H541.98z"/><path data-cppathid="10064" d="M478.68,201.93c0-1.15-0.04-2.12-0.08-3.01h2.21l0.14,1.09h0.04c0.39-0.78,1.11-1.24,1.98-1.24       c2.1,0,2.95,2.25,2.95,4.9c0,3.38-1.5,4.91-3.09,4.91c-0.78,0-1.3-0.49-1.57-0.93h-0.04v4.51h-2.54V201.93z M481.23,204.94       c0,0.33,0.04,0.62,0.14,0.82c0.19,0.58,0.52,0.74,0.82,0.74c0.89,0,1.21-1.32,1.21-2.82c0-1.81-0.43-2.78-1.19-2.78       c-0.39,0-0.76,0.37-0.85,0.82c-0.1,0.19-0.12,0.45-0.12,0.68V204.94z"/><path data-cppathid="10065" d="M487.36,201.78c0-0.95-0.04-1.98-0.08-2.86h2.21l0.14,1.38h0.06c0.43-1.01,1.18-1.53,1.88-1.53       c0.25,0,0.39,0,0.54,0.04v2.53c-0.16-0.04-0.33-0.04-0.54-0.04c-0.54,0-1.26,0.37-1.55,1.36c-0.06,0.21-0.1,0.54-0.1,0.95v4.82       h-2.56V201.78z"/><path data-cppathid="10066" d="M495.64,196.4c0.02,0.82-0.56,1.38-1.34,1.38c-0.7,0-1.28-0.56-1.26-1.38c-0.02-0.85,0.6-1.38,1.3-1.38       C495.07,195.02,495.64,195.54,495.64,196.4z M493.09,208.42v-9.5h2.54v9.5H493.09z"/><path data-cppathid="10067" d="M504.36,203.64c0,3.96-2.2,4.93-3.63,4.93c-2.27,0-3.63-1.79-3.63-4.88c0-3.42,1.79-4.93,3.67-4.93       C503,198.77,504.36,200.65,504.36,203.64z M499.62,203.64c0,1.63,0.25,2.99,1.17,2.99c0.82,0,1.03-1.59,1.03-2.99       c0-1.3-0.21-2.95-1.07-2.95C499.81,200.69,499.62,202.34,499.62,203.64z"/><path data-cppathid="10068" d="M505.77,201.78c0-0.95-0.04-1.98-0.08-2.86h2.21l0.14,1.38h0.06c0.43-1.01,1.18-1.53,1.88-1.53       c0.25,0,0.39,0,0.54,0.04v2.53c-0.16-0.04-0.33-0.04-0.54-0.04c-0.54,0-1.26,0.37-1.55,1.36c-0.06,0.21-0.1,0.54-0.1,0.95v4.82       h-2.56V201.78z"/><path data-cppathid="10069" d="M514.05,196.4c0.02,0.82-0.56,1.38-1.34,1.38c-0.7,0-1.28-0.56-1.26-1.38c-0.02-0.85,0.6-1.38,1.3-1.38       C513.48,195.02,514.05,195.54,514.05,196.4z M511.5,208.42v-9.5h2.54v9.5H511.5z"/><path data-cppathid="10070" d="M518.82,196.36v2.56h1.87v1.81h-1.87v4.33c0,1.11,0.47,1.38,0.97,1.38c0.25,0,0.45-0.02,0.66-0.06l0.02,1.98       c-0.35,0.1-0.87,0.17-1.55,0.17c-0.74,0-1.38-0.17-1.83-0.6c-0.52-0.5-0.82-1.22-0.82-2.72v-4.49h-1.13v-1.81h1.13v-1.96       L518.82,196.36z"/><path data-cppathid="10071" d="M524.42,196.4c0.02,0.82-0.56,1.38-1.34,1.38c-0.7,0-1.28-0.56-1.26-1.38c-0.02-0.85,0.6-1.38,1.3-1.38       C523.85,195.02,524.42,195.54,524.42,196.4z M521.87,208.42v-9.5h2.54v9.5H521.87z"/><path data-cppathid="10072" d="M528.32,204.57c0.04,1.48,0.89,2.02,2.02,2.02c0.72,0,1.36-0.16,1.81-0.31l0.35,1.83c-0.66,0.25-1.65,0.43-2.62,0.43       c-2.58,0-4-1.71-4-4.68c0-3.19,1.65-5.09,3.81-5.09c2.04,0,3.22,1.61,3.22,4.49c0,0.68-0.02,1.05-0.08,1.32H528.32z        M530.59,202.79c0-1.22-0.31-2.18-1.07-2.18c-0.83,0-1.17,1.22-1.18,2.18H530.59z"/><path data-cppathid="10073" d="M534.26,206.13c0.37,0.23,1.07,0.5,1.71,0.5c0.66,0,1.03-0.29,1.03-0.85c0-0.49-0.27-0.8-1.11-1.28       c-1.55-0.87-1.92-1.86-1.92-2.74c0-1.71,1.22-2.99,3.13-2.99c0.8,0,1.42,0.19,1.92,0.43l-0.45,1.86       c-0.37-0.21-0.82-0.39-1.32-0.39c-0.64,0-0.95,0.39-0.95,0.82s0.21,0.66,1.11,1.19c1.4,0.8,1.92,1.79,1.92,2.87       c0,1.94-1.4,2.99-3.36,2.99c-0.8,0-1.73-0.21-2.18-0.54L534.26,206.13z"/><path data-cppathid="10074" d="M547.97,208.42l-0.14-0.93h-0.04c-0.52,0.74-1.26,1.09-2.1,1.09c-1.44,0-2.51-1.2-2.51-2.89c0-2.49,2.2-3.52,4.35-3.54       v-0.21c0-0.74-0.45-1.28-1.34-1.28c-0.76,0-1.38,0.19-1.94,0.54l-0.47-1.71c0.52-0.31,1.63-0.72,2.95-0.72       c2.89,0,3.36,2.02,3.36,3.94v3.54c0,0.76,0.04,1.53,0.16,2.18H547.97z M547.62,203.8c-0.85,0.02-2.02,0.29-2.02,1.61       c0,0.95,0.52,1.3,0.91,1.3c0.41,0,0.87-0.25,1.05-0.82c0.04-0.14,0.06-0.29,0.06-0.45V203.8z"/><path data-cppathid="10075" d="M551.91,201.78c0-1.05-0.06-1.96-0.08-2.86h2.2l0.12,1.09h0.04c0.5-0.76,1.32-1.24,2.31-1.24       c1.81,0,2.53,1.44,2.53,3.55v6.1h-2.54v-5.94c0-0.82-0.19-1.57-0.93-1.57c-0.43,0-0.78,0.29-0.95,0.85       c-0.08,0.19-0.14,0.5-0.14,0.87v5.79h-2.54V201.78z"/><path data-cppathid="10076" d="M567.7,194.98v10.63c0,0.91,0.04,1.94,0.08,2.82h-2.2l-0.14-1.07h-0.04c-0.35,0.66-1.11,1.22-1.98,1.22       c-2.02,0-2.95-2.23-2.95-4.9c0-3.3,1.44-4.91,3.05-4.91c0.83,0,1.36,0.41,1.59,0.95h0.04v-4.74H567.7z M565.16,202.57       c0-0.17,0-0.37-0.02-0.56c-0.1-0.58-0.41-1.11-0.91-1.11c-0.89,0-1.22,1.3-1.22,2.84c0,1.81,0.49,2.76,1.2,2.76       c0.31,0,0.68-0.17,0.87-0.84c0.06-0.14,0.08-0.35,0.08-0.58V202.57z"/><path data-cppathid="10077" d="M493.09,217.46v2.56h1.87v1.81h-1.87v4.33c0,1.11,0.47,1.38,0.97,1.38c0.25,0,0.45-0.02,0.66-0.06l0.02,1.98       c-0.35,0.1-0.87,0.17-1.55,0.17c-0.74,0-1.38-0.17-1.83-0.6c-0.52-0.5-0.82-1.22-0.82-2.72v-4.49h-1.13v-1.81h1.13v-1.96       L493.09,217.46z"/><path data-cppathid="10078" d="M500.39,229.52l-0.14-0.93h-0.04c-0.52,0.74-1.26,1.09-2.1,1.09c-1.44,0-2.51-1.2-2.51-2.89c0-2.49,2.2-3.52,4.35-3.54       v-0.21c0-0.74-0.45-1.28-1.34-1.28c-0.76,0-1.38,0.19-1.94,0.54l-0.47-1.71c0.52-0.31,1.63-0.72,2.95-0.72       c2.89,0,3.36,2.02,3.36,3.94v3.54c0,0.76,0.04,1.53,0.16,2.18H500.39z M500.04,224.9c-0.85,0.02-2.02,0.29-2.02,1.61       c0,0.95,0.52,1.3,0.91,1.3c0.41,0,0.87-0.25,1.05-0.82c0.04-0.14,0.06-0.29,0.06-0.45V224.9z"/><path data-cppathid="10079" d="M504.32,222.88c0-0.95-0.04-1.98-0.08-2.86h2.21l0.14,1.38h0.06c0.43-1.01,1.18-1.53,1.88-1.53       c0.25,0,0.39,0,0.54,0.04v2.53c-0.16-0.04-0.33-0.04-0.54-0.04c-0.54,0-1.26,0.37-1.55,1.36c-0.06,0.21-0.1,0.54-0.1,0.95v4.82       h-2.56V222.88z"/><path data-cppathid="10080" d="M516.98,220.02c-0.04,0.85-0.1,1.86-0.1,3.01v5.42c0,2.04-0.37,3.17-1.15,3.9c-0.7,0.66-1.69,1.05-3.09,1.05       c-0.87,0-1.69-0.16-2.37-0.45l0.47-1.96c0.49,0.21,1.09,0.41,1.83,0.41c1.28,0,1.79-0.85,1.79-2.31v-0.58h-0.04       c-0.33,0.6-0.99,0.95-1.71,0.95c-2.14,0-2.97-2.33-2.97-4.6c0-3.17,1.44-4.99,3.21-4.99c0.76,0,1.38,0.39,1.75,1.11h0.04       l0.14-0.95H516.98z M514.36,223.48c0-0.25-0.04-0.5-0.1-0.7c-0.12-0.41-0.39-0.78-0.82-0.78c-0.91,0-1.28,1.24-1.28,2.8       c0,1.77,0.5,2.66,1.22,2.66c0.33,0,0.66-0.17,0.85-0.68c0.08-0.21,0.12-0.5,0.12-0.76V223.48z"/><path data-cppathid="10081" d="M520.76,225.67c0.04,1.48,0.89,2.02,2.02,2.02c0.72,0,1.36-0.16,1.81-0.31l0.35,1.83c-0.66,0.25-1.65,0.43-2.62,0.43       c-2.58,0-4-1.71-4-4.68c0-3.19,1.65-5.09,3.81-5.09c2.04,0,3.22,1.61,3.22,4.49c0,0.68-0.02,1.05-0.08,1.32H520.76z        M523.04,223.88c0-1.22-0.31-2.18-1.07-2.18c-0.83,0-1.17,1.22-1.18,2.18H523.04z"/><path data-cppathid="10082" d="M529.77,217.46v2.56h1.87v1.81h-1.87v4.33c0,1.11,0.47,1.38,0.97,1.38c0.25,0,0.45-0.02,0.66-0.06l0.02,1.98       c-0.35,0.1-0.87,0.17-1.55,0.17c-0.74,0-1.38-0.17-1.83-0.6c-0.52-0.5-0.82-1.22-0.82-2.72v-4.49h-1.13v-1.81h1.13v-1.96       L529.77,217.46z"/><path data-cppathid="10083" d="M541.68,223.77h-2.99v3.54h3.38v2.21h-5.92v-13.09h5.69v2.21h-3.15v3.01h2.99V223.77z"/><path data-cppathid="10084" d="M546.26,216.43v8.51c0,1.92,0.58,2.51,1.24,2.51c0.74,0,1.26-0.52,1.26-2.51v-8.51h2.54v8.06       c0,3.36-1.26,5.19-3.79,5.19c-2.74,0-3.81-1.88-3.81-5.17v-8.08H546.26z"/><path data-cppathid="10085" d="M556.05,216.43v13.09h-2.54v-13.09H556.05z"/></g></g><polygon data-cppathid="10086" points="594.53,189.97 616.86,195.62 600.8,212.14    " class="st17"/><polygon data-cppathid="10087" points="595.34,185.91 617.68,191.56 601.61,208.08    " class="st20"/></g></g><g><path data-cppathid="10088" d="M436.42,450.1c-47.02,0-85.13,38.12-85.13,85.14c0,47.02,38.12,85.13,85.13,85.13    c47.02,0,85.13-38.12,85.13-85.13C521.55,488.22,483.44,450.1,436.42,450.1z M436.42,612.04c-42.42,0-76.8-34.39-76.8-76.8    c0-42.42,34.39-76.8,76.8-76.8c42.42,0,76.8,34.39,76.8,76.8C513.22,577.65,478.84,612.04,436.42,612.04z" class="st9"/><ellipse data-cppathid="10089" ry="71.01" rx="71.01" cy="534.88" cx="436.42" class="st21" transform="matrix(0.7071 -0.7071 0.7071 0.7071 -250.3955 465.2577)"/><g><g><path data-cppathid="10090" d="M437.55,488.14v-3.01h-4.33v-1.75l4.14-7.87h2.45v7.58h1.26v2.04h-1.26v3.01H437.55z M437.55,483.09v-2.58      c0-0.68,0.08-1.42,0.14-2.08h-0.08c-0.29,0.7-0.54,1.26-0.87,1.96l-1.36,2.66v0.04H437.55z"/><path data-cppathid="10091" d="M387.53,506.63c0.52,0.29,1.42,0.5,2.16,0.5c1.2,0,1.79-0.62,1.79-1.48c0-0.95-0.58-1.42-1.69-2.14      c-1.79-1.09-2.47-2.47-2.47-3.65c0-2.1,1.4-3.85,4.14-3.85c0.85,0,1.67,0.23,2.06,0.47l-0.41,2.19      c-0.37-0.23-0.93-0.45-1.67-0.45c-1.09,0-1.61,0.66-1.61,1.36c0,0.78,0.39,1.19,1.81,2.04c1.73,1.05,2.37,2.37,2.37,3.75      c0,2.39-1.77,3.96-4.33,3.96c-1.05,0-2.08-0.27-2.51-0.52L387.53,506.63z"/><path data-cppathid="10092" d="M397.53,505.39c0.04,1.48,0.89,2.02,2.02,2.02c0.72,0,1.36-0.16,1.81-0.31l0.35,1.83c-0.66,0.25-1.65,0.43-2.62,0.43      c-2.58,0-4-1.71-4-4.68c0-3.19,1.65-5.09,3.81-5.09c2.04,0,3.22,1.61,3.22,4.49c0,0.68-0.02,1.05-0.08,1.32H397.53z       M399.8,503.6c0-1.22-0.31-2.18-1.07-2.18c-0.83,0-1.17,1.22-1.18,2.18H399.8z"/><path data-cppathid="10093" d="M403.55,495.8h2.54v13.44h-2.54V495.8z"/><path data-cppathid="10094" d="M410.04,505.39c0.04,1.48,0.89,2.02,2.02,2.02c0.72,0,1.36-0.16,1.81-0.31l0.35,1.83c-0.66,0.25-1.65,0.43-2.62,0.43      c-2.58,0-4-1.71-4-4.68c0-3.19,1.65-5.09,3.81-5.09c2.04,0,3.22,1.61,3.22,4.49c0,0.68-0.02,1.05-0.08,1.32H410.04z       M412.31,503.6c0-1.22-0.31-2.18-1.07-2.18c-0.83,0-1.17,1.22-1.18,2.18H412.31z"/><path data-cppathid="10095" d="M421.32,509.08c-0.25,0.12-0.89,0.27-1.61,0.27c-2.41,0-3.98-1.67-3.98-4.78c0-2.93,1.73-4.97,4.35-4.97      c0.6,0,1.15,0.14,1.4,0.25l-0.33,2c-0.21-0.08-0.52-0.17-0.95-0.17c-1.22,0-1.94,1.17-1.94,2.82c0,1.73,0.72,2.78,1.9,2.78      c0.37,0,0.68-0.06,0.95-0.19L421.32,509.08z"/><path data-cppathid="10096" d="M425.69,497.17v2.56h1.87v1.81h-1.87v4.33c0,1.11,0.47,1.38,0.97,1.38c0.25,0,0.45-0.02,0.66-0.06l0.02,1.98      c-0.35,0.1-0.87,0.17-1.55,0.17c-0.74,0-1.38-0.17-1.83-0.6c-0.52-0.5-0.82-1.22-0.82-2.72v-4.49h-1.13v-1.81h1.13v-1.96      L425.69,497.17z"/><path data-cppathid="10097" d="M434.82,497.17v2.56h1.87v1.81h-1.87v4.33c0,1.11,0.47,1.38,0.97,1.38c0.25,0,0.45-0.02,0.66-0.06l0.02,1.98      c-0.35,0.1-0.87,0.17-1.55,0.17c-0.74,0-1.38-0.17-1.83-0.6c-0.52-0.5-0.82-1.22-0.82-2.72v-4.49h-1.13v-1.81h1.13v-1.96      L434.82,497.17z"/><path data-cppathid="10098" d="M437.86,495.8h2.54v4.93h0.04c0.21-0.33,0.51-0.6,0.82-0.82c0.37-0.21,0.82-0.33,1.28-0.33c1.75,0,2.43,1.48,2.43,3.88      v5.77h-2.54v-5.77c0-0.93-0.17-1.75-0.93-1.75c-0.43,0-0.8,0.25-0.99,0.89c-0.04,0.16-0.1,0.5-0.1,0.72v5.91h-2.54V495.8z"/><path data-cppathid="10099" d="M448.87,505.39c0.04,1.48,0.89,2.02,2.02,2.02c0.72,0,1.36-0.16,1.81-0.31l0.35,1.83c-0.66,0.25-1.65,0.43-2.62,0.43      c-2.58,0-4-1.71-4-4.68c0-3.19,1.65-5.09,3.81-5.09c2.04,0,3.22,1.61,3.22,4.49c0,0.68-0.02,1.05-0.08,1.32H448.87z       M451.15,503.6c0-1.22-0.31-2.18-1.07-2.18c-0.83,0-1.17,1.22-1.18,2.18H451.15z"/><path data-cppathid="10100" d="M460.97,497.17v2.56h1.87v1.81h-1.87v4.33c0,1.11,0.47,1.38,0.97,1.38c0.25,0,0.45-0.02,0.66-0.06l0.02,1.98      c-0.35,0.1-0.87,0.17-1.55,0.17c-0.74,0-1.38-0.17-1.83-0.6c-0.52-0.5-0.82-1.22-0.82-2.72v-4.49h-1.13v-1.81h1.13v-1.96      L460.97,497.17z"/><path data-cppathid="10101" d="M466.02,499.74l0.93,4.93c0.1,0.56,0.17,1.09,0.25,1.59h0.04c0.08-0.49,0.16-1.03,0.23-1.55l0.8-4.97h2.49l-1.94,7.32      c-0.47,1.79-1.09,3.63-2.12,4.86c-0.8,0.93-1.77,1.38-2.16,1.5l-0.78-2.19c0.45-0.16,0.87-0.45,1.26-0.8      c0.35-0.33,0.62-0.72,0.8-1.13c0.08-0.17,0.14-0.27,0.14-0.41c0-0.12-0.04-0.23-0.08-0.35l-2.6-8.8H466.02z"/><path data-cppathid="10102" d="M471.65,502.75c0-1.15-0.04-2.12-0.08-3.01h2.21l0.14,1.09h0.04c0.39-0.78,1.11-1.24,1.98-1.24      c2.1,0,2.95,2.25,2.95,4.9c0,3.38-1.5,4.91-3.09,4.91c-0.78,0-1.3-0.49-1.57-0.93h-0.04v4.51h-2.54V502.75z M474.2,505.76      c0,0.33,0.04,0.62,0.14,0.82c0.19,0.58,0.52,0.74,0.82,0.74c0.89,0,1.21-1.32,1.21-2.82c0-1.81-0.43-2.78-1.19-2.78      c-0.39,0-0.76,0.37-0.85,0.82c-0.1,0.19-0.12,0.45-0.12,0.68V505.76z"/><path data-cppathid="10103" d="M482.47,505.39c0.04,1.48,0.89,2.02,2.02,2.02c0.72,0,1.36-0.16,1.81-0.31l0.35,1.83c-0.66,0.25-1.65,0.43-2.62,0.43      c-2.58,0-4-1.71-4-4.68c0-3.19,1.65-5.09,3.81-5.09c2.04,0,3.22,1.61,3.22,4.49c0,0.68-0.02,1.05-0.08,1.32H482.47z       M484.74,503.6c0-1.22-0.31-2.18-1.07-2.18c-0.83,0-1.17,1.22-1.18,2.18H484.74z"/><path data-cppathid="10104" d="M393.88,525.56c0,3.96-2.2,4.93-3.63,4.93c-2.27,0-3.63-1.79-3.63-4.88c0-3.42,1.79-4.93,3.67-4.93      C392.52,520.68,393.88,522.57,393.88,525.56z M389.14,525.56c0,1.63,0.25,2.99,1.17,2.99c0.82,0,1.03-1.59,1.03-2.99      c0-1.3-0.21-2.95-1.07-2.95C389.34,522.6,389.14,524.25,389.14,525.56z"/><path data-cppathid="10105" d="M395.76,530.33v-7.69h-1.28v-1.81h1.28v-0.39c0-1.07,0.21-2.06,0.97-2.84c0.56-0.58,1.38-0.87,2.27-0.87      c0.66,0,1.17,0.1,1.54,0.21l-0.29,1.98c-0.19-0.08-0.47-0.12-0.78-0.12c-0.86,0-1.17,0.74-1.17,1.57v0.45h1.65v1.81h-1.65v7.69      H395.76z"/><path data-cppathid="10106" d="M406.74,517.24v5.24h2.66v-5.24h2.54v13.09h-2.54v-5.48h-2.66v5.48h-2.54v-13.09H406.74z"/><path data-cppathid="10107" d="M416.02,530.33l-2.93-13.09h2.82l0.93,5.65c0.23,1.4,0.5,3.01,0.68,4.54h0.04c0.17-1.55,0.39-3.13,0.62-4.6l0.89-5.59      h2.8l-2.99,13.09H416.02z"/><path data-cppathid="10108" d="M424.74,527.34l-0.58,2.99h-2.47l2.84-13.09h3.05l2.54,13.09h-2.47l-0.56-2.99H424.74z M426.85,525.36l-0.43-2.74      c-0.14-0.8-0.31-2.1-0.43-2.97h-0.06c-0.14,0.87-0.33,2.23-0.47,2.99l-0.49,2.72H426.85z"/><path data-cppathid="10109" d="M437.52,530.14c-0.37,0.17-1.09,0.31-1.98,0.31c-3.34,0-4.93-2.76-4.93-6.47c0-4.93,2.74-6.86,5.28-6.86      c0.89,0,1.51,0.17,1.77,0.35l-0.43,2.14c-0.29-0.14-0.62-0.25-1.18-0.25c-1.44,0-2.74,1.24-2.74,4.49      c0,3.13,1.18,4.35,2.74,4.35c0.43,0,0.91-0.1,1.22-0.19L437.52,530.14z"/><path data-cppathid="10110" d="M441.69,528.04c0.37,0.23,1.07,0.5,1.71,0.5c0.66,0,1.03-0.29,1.03-0.85c0-0.49-0.27-0.8-1.11-1.28      c-1.55-0.87-1.92-1.86-1.92-2.74c0-1.71,1.22-2.99,3.13-2.99c0.8,0,1.42,0.19,1.92,0.43l-0.45,1.86      c-0.37-0.21-0.82-0.39-1.32-0.39c-0.64,0-0.95,0.39-0.95,0.82s0.21,0.66,1.11,1.18c1.4,0.8,1.92,1.79,1.92,2.88      c0,1.94-1.4,2.99-3.36,2.99c-0.8,0-1.73-0.21-2.18-0.54L441.69,528.04z"/><path data-cppathid="10111" d="M450,520.84l0.93,4.93c0.1,0.56,0.17,1.09,0.25,1.59h0.04c0.08-0.49,0.16-1.03,0.23-1.55l0.8-4.97h2.49l-1.94,7.32      c-0.47,1.79-1.09,3.63-2.12,4.86c-0.8,0.93-1.77,1.38-2.16,1.5l-0.78-2.19c0.45-0.16,0.87-0.45,1.26-0.8      c0.35-0.33,0.62-0.72,0.8-1.13c0.08-0.17,0.14-0.27,0.14-0.41c0-0.12-0.04-0.23-0.08-0.35l-2.6-8.8H450z"/><path data-cppathid="10112" d="M455.5,528.04c0.37,0.23,1.07,0.5,1.71,0.5c0.66,0,1.03-0.29,1.03-0.85c0-0.49-0.27-0.8-1.11-1.28      c-1.55-0.87-1.92-1.86-1.92-2.74c0-1.71,1.22-2.99,3.13-2.99c0.8,0,1.42,0.19,1.92,0.43l-0.45,1.86      c-0.37-0.21-0.82-0.39-1.32-0.39c-0.64,0-0.95,0.39-0.95,0.82s0.21,0.66,1.11,1.18c1.4,0.8,1.92,1.79,1.92,2.88      c0,1.94-1.4,2.99-3.36,2.99c-0.8,0-1.73-0.21-2.18-0.54L455.5,528.04z"/><path data-cppathid="10113" d="M464.86,518.27v2.56h1.87v1.81h-1.87v4.33c0,1.11,0.47,1.38,0.97,1.38c0.25,0,0.45-0.02,0.66-0.06l0.02,1.98      c-0.35,0.1-0.87,0.17-1.55,0.17c-0.74,0-1.38-0.17-1.83-0.6c-0.52-0.5-0.82-1.22-0.82-2.72v-4.49h-1.13v-1.81h1.13v-1.96      L464.86,518.27z"/><path data-cppathid="10114" d="M469.91,526.49c0.04,1.48,0.89,2.02,2.02,2.02c0.72,0,1.36-0.16,1.81-0.31l0.35,1.83c-0.66,0.25-1.65,0.43-2.62,0.43      c-2.58,0-4-1.71-4-4.68c0-3.19,1.65-5.09,3.81-5.09c2.04,0,3.22,1.61,3.22,4.49c0,0.68-0.02,1.05-0.08,1.32H469.91z       M472.18,524.7c0-1.22-0.31-2.18-1.07-2.18c-0.83,0-1.17,1.22-1.18,2.18H472.18z"/><path data-cppathid="10115" d="M475.92,523.69c0-1.05-0.06-1.96-0.08-2.86h2.21l0.12,1.11h0.04c0.49-0.72,1.28-1.26,2.27-1.26      c1.07,0,1.75,0.49,2.08,1.28h0.04c0.23-0.37,0.58-0.72,0.95-0.95c0.39-0.21,0.85-0.33,1.34-0.33c1.69,0,2.45,1.34,2.45,3.63      v6.02h-2.53v-5.59c0-1.09-0.12-1.96-0.89-1.96c-0.45,0-0.78,0.31-0.95,0.87c-0.04,0.14-0.08,0.41-0.08,0.66v6.02h-2.53v-5.96      c0-0.68-0.08-1.59-0.87-1.59c-0.39,0-0.78,0.29-0.95,0.85c-0.06,0.17-0.1,0.45-0.1,0.72v5.98h-2.53V523.69z"/><path data-cppathid="10116" d="M372.37,551.43c0.04-0.83,0.08-1.9,0.08-2.82v-10.62H375v4.89h0.04c0.47-0.68,1.07-1.11,1.98-1.11      c1.85,0,2.68,2.08,2.68,4.64c0,3.32-1.32,5.17-3.09,5.17c-0.8,0-1.36-0.33-1.87-1.28h-0.06l-0.14,1.13H372.37z M375,548.03      c0,0.23,0.04,0.47,0.1,0.6c0.21,0.68,0.56,0.87,0.87,0.87c0.85,0,1.2-1.07,1.2-2.89c0-1.63-0.37-2.7-1.22-2.7      c-0.39,0-0.72,0.41-0.85,0.87c-0.06,0.16-0.1,0.41-0.1,0.58V548.03z"/><path data-cppathid="10117" d="M385.4,551.43l-0.14-0.93h-0.04c-0.52,0.74-1.26,1.09-2.1,1.09c-1.44,0-2.51-1.2-2.51-2.89c0-2.49,2.2-3.52,4.35-3.54      v-0.21c0-0.74-0.45-1.28-1.34-1.28c-0.76,0-1.38,0.19-1.94,0.54l-0.47-1.71c0.52-0.31,1.63-0.72,2.95-0.72      c2.89,0,3.36,2.02,3.36,3.94v3.54c0,0.76,0.04,1.54,0.16,2.18H385.4z M385.05,546.81c-0.85,0.02-2.02,0.29-2.02,1.61      c0,0.95,0.52,1.3,0.91,1.3c0.41,0,0.87-0.25,1.05-0.82c0.04-0.14,0.06-0.29,0.06-0.45V546.81z"/><path data-cppathid="10118" d="M389.27,549.14c0.37,0.23,1.07,0.5,1.71,0.5c0.66,0,1.03-0.29,1.03-0.85c0-0.49-0.27-0.8-1.11-1.28      c-1.55-0.87-1.92-1.86-1.92-2.74c0-1.71,1.22-2.99,3.13-2.99c0.8,0,1.42,0.19,1.92,0.43l-0.45,1.86      c-0.37-0.21-0.82-0.39-1.32-0.39c-0.64,0-0.95,0.39-0.95,0.82s0.21,0.66,1.11,1.18c1.4,0.8,1.92,1.79,1.92,2.88      c0,1.94-1.4,2.99-3.36,2.99c-0.8,0-1.73-0.21-2.18-0.54L389.27,549.14z"/><path data-cppathid="10119" d="M397.75,547.59c0.04,1.48,0.89,2.02,2.02,2.02c0.72,0,1.36-0.16,1.81-0.31l0.35,1.83c-0.66,0.25-1.65,0.43-2.62,0.43      c-2.58,0-4-1.71-4-4.68c0-3.19,1.65-5.09,3.81-5.09c2.04,0,3.22,1.61,3.22,4.49c0,0.68-0.02,1.05-0.08,1.32H397.75z       M400.03,545.8c0-1.22-0.31-2.18-1.07-2.18c-0.83,0-1.17,1.22-1.18,2.18H400.03z"/><path data-cppathid="10120" d="M410.67,537.99v10.62c0,0.91,0.04,1.94,0.08,2.82h-2.2l-0.14-1.07h-0.04c-0.35,0.66-1.11,1.22-1.98,1.22      c-2.02,0-2.95-2.23-2.95-4.89c0-3.3,1.44-4.92,3.05-4.92c0.83,0,1.36,0.41,1.59,0.95h0.04v-4.74H410.67z M408.12,545.58      c0-0.17,0-0.37-0.02-0.56c-0.1-0.58-0.41-1.11-0.91-1.11c-0.89,0-1.22,1.3-1.22,2.84c0,1.81,0.49,2.76,1.2,2.76      c0.31,0,0.68-0.17,0.87-0.83c0.06-0.14,0.08-0.35,0.08-0.58V545.58z"/><path data-cppathid="10121" d="M422.48,546.65c0,3.96-2.2,4.93-3.63,4.93c-2.27,0-3.63-1.79-3.63-4.88c0-3.42,1.79-4.93,3.67-4.93      C421.12,541.78,422.48,543.66,422.48,546.65z M417.74,546.65c0,1.63,0.25,2.99,1.17,2.99c0.82,0,1.03-1.59,1.03-2.99      c0-1.3-0.21-2.95-1.07-2.95C417.93,543.7,417.74,545.35,417.74,546.65z"/><path data-cppathid="10122" d="M423.91,544.79c0-1.05-0.06-1.96-0.08-2.86h2.2l0.12,1.09h0.04c0.5-0.76,1.32-1.24,2.31-1.24      c1.81,0,2.53,1.44,2.53,3.55v6.1h-2.54v-5.94c0-0.82-0.19-1.57-0.93-1.57c-0.43,0-0.78,0.29-0.95,0.86      c-0.08,0.19-0.14,0.5-0.14,0.87v5.79h-2.54V544.79z"/><path data-cppathid="10123" d="M435.81,549.14c0.37,0.23,1.07,0.5,1.71,0.5c0.66,0,1.03-0.29,1.03-0.85c0-0.49-0.27-0.8-1.11-1.28      c-1.55-0.87-1.92-1.86-1.92-2.74c0-1.71,1.22-2.99,3.13-2.99c0.8,0,1.42,0.19,1.92,0.43l-0.45,1.86      c-0.37-0.21-0.82-0.39-1.32-0.39c-0.64,0-0.95,0.39-0.95,0.82s0.21,0.66,1.11,1.18c1.4,0.8,1.92,1.79,1.92,2.88      c0,1.94-1.4,2.99-3.36,2.99c-0.8,0-1.73-0.21-2.18-0.54L435.81,549.14z"/><path data-cppathid="10124" d="M444.73,539.41c0.02,0.82-0.56,1.38-1.34,1.38c-0.7,0-1.28-0.56-1.26-1.38c-0.02-0.85,0.6-1.38,1.3-1.38      C444.17,538.03,444.73,538.55,444.73,539.41z M442.18,551.43v-9.5h2.54v9.5H442.18z"/><path data-cppathid="10125" d="M446.51,544.79c0-1.05-0.06-1.96-0.08-2.86h2.21l0.12,1.11h0.04c0.49-0.72,1.28-1.26,2.27-1.26      c1.07,0,1.75,0.49,2.08,1.28h0.04c0.23-0.37,0.58-0.72,0.95-0.95c0.39-0.21,0.85-0.33,1.34-0.33c1.69,0,2.45,1.34,2.45,3.63      v6.02h-2.53v-5.59c0-1.09-0.12-1.96-0.89-1.96c-0.45,0-0.78,0.31-0.95,0.87c-0.04,0.14-0.08,0.41-0.08,0.66v6.02h-2.53v-5.96      c0-0.68-0.08-1.59-0.87-1.59c-0.39,0-0.78,0.29-0.95,0.85c-0.06,0.17-0.1,0.45-0.1,0.72v5.98h-2.53V544.79z"/><path data-cppathid="10126" d="M466.67,548.54c0,1.01,0.04,2,0.08,2.89h-2.19l-0.14-1.01h-0.04c-0.45,0.64-1.22,1.17-2.2,1.17      c-1.81,0-2.54-1.34-2.54-3.9v-5.75h2.56v5.48c0,1.24,0.23,2.04,0.95,2.04c0.43,0,0.7-0.33,0.82-0.64      c0.1-0.19,0.16-0.49,0.16-0.82v-6.06h2.54V548.54z"/><path data-cppathid="10127" d="M468.5,537.99h2.54v13.44h-2.54V537.99z"/><path data-cppathid="10128" d="M477.12,551.43l-0.14-0.93h-0.04c-0.52,0.74-1.26,1.09-2.1,1.09c-1.44,0-2.51-1.2-2.51-2.89c0-2.49,2.2-3.52,4.35-3.54      v-0.21c0-0.74-0.45-1.28-1.34-1.28c-0.76,0-1.38,0.19-1.94,0.54l-0.47-1.71c0.52-0.31,1.63-0.72,2.95-0.72      c2.89,0,3.36,2.02,3.36,3.94v3.54c0,0.76,0.04,1.54,0.16,2.18H477.12z M476.77,546.81c-0.85,0.02-2.02,0.29-2.02,1.61      c0,0.95,0.52,1.3,0.91,1.3c0.41,0,0.87-0.25,1.05-0.82c0.04-0.14,0.06-0.29,0.06-0.45V546.81z"/><path data-cppathid="10129" d="M483.86,539.37v2.56h1.87v1.81h-1.87v4.33c0,1.11,0.47,1.38,0.97,1.38c0.25,0,0.45-0.02,0.66-0.06l0.02,1.98      c-0.35,0.1-0.87,0.17-1.55,0.17c-0.74,0-1.38-0.17-1.83-0.6c-0.52-0.5-0.82-1.22-0.82-2.72v-4.49h-1.13v-1.81h1.13v-1.96      L483.86,539.37z"/><path data-cppathid="10130" d="M488.91,547.59c0.04,1.48,0.89,2.02,2.02,2.02c0.72,0,1.36-0.16,1.81-0.31l0.35,1.83c-0.66,0.25-1.65,0.43-2.62,0.43      c-2.58,0-4-1.71-4-4.68c0-3.19,1.65-5.09,3.81-5.09c2.04,0,3.22,1.61,3.22,4.49c0,0.68-0.02,1.05-0.08,1.32H488.91z       M491.18,545.8c0-1.22-0.31-2.18-1.07-2.18c-0.83,0-1.17,1.22-1.18,2.18H491.18z"/><path data-cppathid="10131" d="M501.82,537.99v10.62c0,0.91,0.04,1.94,0.08,2.82h-2.2l-0.14-1.07h-0.04c-0.35,0.66-1.11,1.22-1.98,1.22      c-2.02,0-2.95-2.23-2.95-4.89c0-3.3,1.44-4.92,3.05-4.92c0.83,0,1.36,0.41,1.59,0.95h0.04v-4.74H501.82z M499.28,545.58      c0-0.17,0-0.37-0.02-0.56c-0.1-0.58-0.41-1.11-0.91-1.11c-0.89,0-1.22,1.3-1.22,2.84c0,1.81,0.49,2.76,1.2,2.76      c0.31,0,0.68-0.17,0.87-0.83c0.06-0.14,0.08-0.35,0.08-0.58V545.58z"/><path data-cppathid="10132" d="M390.07,572.53c0.04-0.83,0.08-1.9,0.08-2.82v-10.62h2.54v4.89h0.04c0.47-0.68,1.07-1.11,1.98-1.11      c1.85,0,2.68,2.08,2.68,4.64c0,3.32-1.32,5.17-3.09,5.17c-0.8,0-1.36-0.33-1.87-1.28h-0.06l-0.14,1.13H390.07z M392.7,569.13      c0,0.23,0.04,0.47,0.1,0.6c0.21,0.68,0.56,0.87,0.87,0.87c0.85,0,1.21-1.07,1.21-2.89c0-1.63-0.37-2.7-1.22-2.7      c-0.39,0-0.72,0.41-0.85,0.87c-0.06,0.16-0.1,0.41-0.1,0.58V569.13z"/><path data-cppathid="10133" d="M405.8,569.63c0,1.01,0.04,2,0.08,2.89h-2.19l-0.14-1.01h-0.04c-0.45,0.64-1.22,1.17-2.2,1.17      c-1.81,0-2.54-1.34-2.54-3.9v-5.75h2.56v5.48c0,1.24,0.23,2.04,0.95,2.04c0.43,0,0.7-0.33,0.82-0.64      c0.1-0.19,0.16-0.49,0.16-0.82v-6.06h2.54V569.63z"/><path data-cppathid="10134" d="M410.17,560.5c0.02,0.82-0.56,1.38-1.34,1.38c-0.7,0-1.28-0.56-1.26-1.38c-0.02-0.85,0.6-1.38,1.3-1.38      C409.61,559.12,410.17,559.65,410.17,560.5z M407.63,572.53v-9.5h2.54v9.5H407.63z"/><path data-cppathid="10135" d="M411.96,559.09h2.54v13.44h-2.54V559.09z"/><path data-cppathid="10136" d="M423.22,559.09v10.62c0,0.91,0.04,1.94,0.08,2.82h-2.2l-0.14-1.07h-0.04c-0.35,0.66-1.11,1.22-1.98,1.22      c-2.02,0-2.95-2.23-2.95-4.89c0-3.3,1.44-4.92,3.05-4.92c0.83,0,1.36,0.41,1.59,0.95h0.04v-4.74H423.22z M420.68,566.68      c0-0.17,0-0.37-0.02-0.56c-0.1-0.58-0.41-1.11-0.91-1.11c-0.89,0-1.22,1.3-1.22,2.84c0,1.81,0.49,2.76,1.2,2.76      c0.31,0,0.68-0.17,0.87-0.83c0.06-0.14,0.08-0.35,0.08-0.58V566.68z"/><path data-cppathid="10137" d="M427.55,560.5c0.02,0.82-0.56,1.38-1.34,1.38c-0.7,0-1.28-0.56-1.26-1.38c-0.02-0.85,0.6-1.38,1.3-1.38      C426.99,559.12,427.55,559.65,427.55,560.5z M425.01,572.53v-9.5h2.54v9.5H425.01z"/><path data-cppathid="10138" d="M429.34,565.88c0-1.05-0.06-1.96-0.08-2.86h2.2l0.12,1.09h0.04c0.5-0.76,1.32-1.24,2.31-1.24      c1.81,0,2.53,1.44,2.53,3.55v6.1h-2.54v-5.94c0-0.82-0.19-1.57-0.93-1.57c-0.43,0-0.78,0.29-0.95,0.86      c-0.08,0.19-0.14,0.5-0.14,0.87v5.79h-2.54V565.88z"/><path data-cppathid="10139" d="M445.24,563.03c-0.04,0.86-0.1,1.87-0.1,3.01v5.42c0,2.04-0.37,3.17-1.15,3.9c-0.7,0.66-1.69,1.05-3.09,1.05      c-0.87,0-1.69-0.16-2.37-0.45l0.47-1.96c0.49,0.21,1.09,0.41,1.83,0.41c1.28,0,1.79-0.85,1.79-2.31v-0.58h-0.04      c-0.33,0.6-0.99,0.95-1.71,0.95c-2.14,0-2.97-2.33-2.97-4.6c0-3.17,1.44-4.99,3.21-4.99c0.76,0,1.38,0.39,1.75,1.11h0.04      l0.14-0.95H445.24z M442.62,566.49c0-0.25-0.04-0.5-0.1-0.7c-0.12-0.41-0.39-0.78-0.82-0.78c-0.91,0-1.28,1.24-1.28,2.8      c0,1.77,0.5,2.66,1.22,2.66c0.33,0,0.66-0.17,0.85-0.68c0.08-0.21,0.12-0.5,0.12-0.76V566.49z"/><path data-cppathid="10140" d="M450,559.09h2.54v13.44H450V559.09z"/><path data-cppathid="10141" d="M461.3,567.75c0,3.96-2.2,4.93-3.63,4.93c-2.27,0-3.63-1.79-3.63-4.88c0-3.42,1.79-4.93,3.67-4.93      C459.94,562.87,461.3,564.76,461.3,567.75z M456.56,567.75c0,1.63,0.25,2.99,1.17,2.99c0.82,0,1.03-1.59,1.03-2.99      c0-1.3-0.21-2.95-1.07-2.95C456.76,564.8,456.56,566.45,456.56,567.75z"/><path data-cppathid="10142" d="M466.99,572.53l-0.14-0.93h-0.04c-0.52,0.74-1.26,1.09-2.1,1.09c-1.44,0-2.51-1.2-2.51-2.89c0-2.49,2.2-3.52,4.35-3.54      v-0.21c0-0.74-0.45-1.28-1.34-1.28c-0.76,0-1.38,0.19-1.94,0.54l-0.47-1.71c0.52-0.31,1.63-0.72,2.95-0.72      c2.89,0,3.36,2.02,3.36,3.94v3.54c0,0.76,0.04,1.54,0.16,2.18H466.99z M466.64,567.91c-0.85,0.02-2.02,0.29-2.02,1.61      c0,0.95,0.52,1.3,0.91,1.3c0.41,0,0.87-0.25,1.05-0.82c0.04-0.14,0.06-0.29,0.06-0.45V567.91z"/><path data-cppathid="10143" d="M477.83,559.09v10.62c0,0.91,0.04,1.94,0.08,2.82h-2.2l-0.14-1.07h-0.04c-0.35,0.66-1.11,1.22-1.98,1.22      c-2.02,0-2.95-2.23-2.95-4.89c0-3.3,1.44-4.92,3.05-4.92c0.83,0,1.36,0.41,1.59,0.95h0.04v-4.74H477.83z M475.28,566.68      c0-0.17,0-0.37-0.02-0.56c-0.1-0.58-0.41-1.11-0.91-1.11c-0.89,0-1.22,1.3-1.22,2.84c0,1.81,0.49,2.76,1.2,2.76      c0.31,0,0.68-0.17,0.87-0.83c0.06-0.14,0.08-0.35,0.08-0.58V566.68z"/><path data-cppathid="10144" d="M479.54,570.24c0.37,0.23,1.07,0.5,1.71,0.5c0.66,0,1.03-0.29,1.03-0.85c0-0.49-0.27-0.8-1.11-1.28      c-1.55-0.87-1.92-1.86-1.92-2.74c0-1.71,1.22-2.99,3.13-2.99c0.8,0,1.42,0.19,1.92,0.43l-0.45,1.86      c-0.37-0.21-0.82-0.39-1.32-0.39c-0.64,0-0.95,0.39-0.95,0.82s0.21,0.66,1.11,1.18c1.4,0.8,1.92,1.79,1.92,2.88      c0,1.94-1.4,2.99-3.36,2.99c-0.8,0-1.73-0.21-2.18-0.54L479.54,570.24z"/></g></g><polygon data-cppathid="10145" points="397.2,593.11 382.95,611.22 374.39,589.83   " class="st17"/><polygon data-cppathid="10146" points="399.75,595.2 385.5,613.31 376.95,591.92   " class="st9"/></g><g><path data-cppathid="10147" d="M232.32,443.61c-47.02,0-85.13,38.12-85.13,85.14c0,47.02,38.12,85.13,85.13,85.13    c47.02,0,85.13-38.12,85.13-85.13C317.46,481.73,279.34,443.61,232.32,443.61z M232.32,605.55c-42.42,0-76.8-34.39-76.8-76.8    c0-42.42,34.39-76.8,76.8-76.8c42.42,0,76.8,34.39,76.8,76.8C309.12,571.16,274.74,605.55,232.32,605.55z" class="st11"/><ellipse data-cppathid="10148" ry="71.01" rx="71.01" cy="528.39" cx="232.32" class="st22" transform="matrix(0.7071 -0.7071 0.7071 0.7071 -305.584 319.0381)"/><g><g><path data-cppathid="10149" d="M235.19,487.54h-3.34l-0.29,2.25c0.12,0,0.25,0,0.39,0c0.54,0.02,1.65,0.27,2.37,0.95c0.7,0.68,1.09,1.63,1.09,2.89      c0,2.47-1.63,4.47-4.39,4.47c-0.89,0-1.86-0.23-2.37-0.5l0.39-2.02c0.47,0.23,1.13,0.45,1.81,0.45c1.24,0,2.06-0.8,2.06-2.16      c0-1.69-1.28-2.25-2.74-2.25c-0.35,0-0.64,0-0.89,0.04l0.7-6.33h5.23V487.54z"/><path data-cppathid="10150" d="M172.32,506.15c0.64-0.16,1.57-0.25,2.58-0.25c1.65,0,2.8,0.39,3.63,1.17c1.13,1.01,1.71,2.74,1.71,5.28      c0,2.64-0.68,4.53-1.83,5.54c-0.87,0.85-2.18,1.26-4,1.26c-0.8,0-1.59-0.08-2.1-0.14V506.15z M174.86,517.03      c0.12,0.04,0.31,0.04,0.45,0.04c1.22,0,2.29-1.2,2.29-4.82c0-2.68-0.7-4.31-2.23-4.31c-0.17,0-0.35,0-0.5,0.06V517.03z"/><path data-cppathid="10151" d="M183.74,515.2c0.04,1.48,0.89,2.02,2.02,2.02c0.72,0,1.36-0.16,1.81-0.31l0.35,1.83c-0.66,0.25-1.65,0.43-2.62,0.43      c-2.58,0-4-1.71-4-4.68c0-3.19,1.65-5.09,3.81-5.09c2.04,0,3.22,1.61,3.22,4.49c0,0.68-0.02,1.05-0.08,1.32H183.74z       M186.01,513.42c0-1.22-0.31-2.18-1.07-2.18c-0.84,0-1.17,1.22-1.19,2.18H186.01z"/><path data-cppathid="10152" d="M189.68,516.76c0.37,0.23,1.07,0.5,1.71,0.5c0.66,0,1.03-0.29,1.03-0.85c0-0.49-0.27-0.8-1.11-1.28      c-1.55-0.87-1.92-1.86-1.92-2.74c0-1.71,1.22-2.99,3.13-2.99c0.8,0,1.42,0.19,1.92,0.43l-0.45,1.86      c-0.37-0.21-0.82-0.39-1.32-0.39c-0.64,0-0.95,0.39-0.95,0.82s0.21,0.66,1.11,1.18c1.4,0.8,1.92,1.79,1.92,2.88      c0,1.94-1.4,2.99-3.36,2.99c-0.8,0-1.73-0.21-2.18-0.54L189.68,516.76z"/><path data-cppathid="10153" d="M198.59,507.03c0.02,0.82-0.56,1.38-1.34,1.38c-0.7,0-1.28-0.56-1.26-1.38c-0.02-0.85,0.6-1.38,1.3-1.38      C198.03,505.65,198.59,506.17,198.59,507.03z M196.05,519.05v-9.5h2.54v9.5H196.05z"/><path data-cppathid="10154" d="M207.39,509.55c-0.04,0.86-0.1,1.87-0.1,3.01v5.42c0,2.04-0.37,3.17-1.15,3.9c-0.7,0.66-1.69,1.05-3.09,1.05      c-0.87,0-1.69-0.16-2.37-0.45l0.47-1.96c0.49,0.21,1.09,0.41,1.83,0.41c1.28,0,1.79-0.85,1.79-2.31v-0.58h-0.04      c-0.33,0.6-0.99,0.95-1.71,0.95c-2.14,0-2.97-2.33-2.97-4.6c0-3.17,1.44-4.99,3.21-4.99c0.76,0,1.38,0.39,1.75,1.11h0.04      l0.14-0.95H207.39z M204.77,513.01c0-0.25-0.04-0.5-0.1-0.7c-0.12-0.41-0.39-0.78-0.82-0.78c-0.91,0-1.28,1.24-1.28,2.8      c0,1.77,0.51,2.66,1.22,2.66c0.33,0,0.66-0.17,0.85-0.68c0.08-0.21,0.12-0.5,0.12-0.76V513.01z"/><path data-cppathid="10155" d="M209.06,512.41c0-1.05-0.06-1.96-0.08-2.86h2.19l0.12,1.09h0.04c0.51-0.76,1.32-1.24,2.31-1.24      c1.81,0,2.53,1.44,2.53,3.55v6.1h-2.54v-5.94c0-0.82-0.19-1.57-0.93-1.57c-0.43,0-0.78,0.29-0.95,0.86      c-0.08,0.19-0.14,0.5-0.14,0.87v5.79h-2.54V512.41z"/><path data-cppathid="10156" d="M224.03,506.99v2.56h1.86v1.81h-1.86v4.33c0,1.11,0.47,1.38,0.97,1.38c0.25,0,0.45-0.02,0.66-0.06l0.02,1.98      c-0.35,0.1-0.87,0.17-1.55,0.17c-0.74,0-1.38-0.17-1.83-0.6c-0.52-0.5-0.82-1.22-0.82-2.72v-4.49h-1.13v-1.81h1.13v-1.96      L224.03,506.99z"/><path data-cppathid="10157" d="M227.08,505.61h2.54v4.93h0.04c0.21-0.33,0.5-0.6,0.82-0.82c0.37-0.21,0.82-0.33,1.28-0.33c1.75,0,2.43,1.48,2.43,3.88      v5.77h-2.54v-5.77c0-0.93-0.18-1.75-0.93-1.75c-0.43,0-0.8,0.25-0.99,0.89c-0.04,0.16-0.1,0.5-0.1,0.72v5.91h-2.54V505.61z"/><path data-cppathid="10158" d="M238.09,515.2c0.04,1.48,0.89,2.02,2.02,2.02c0.72,0,1.36-0.16,1.81-0.31l0.35,1.83c-0.66,0.25-1.65,0.43-2.62,0.43      c-2.58,0-4-1.71-4-4.68c0-3.19,1.65-5.09,3.81-5.09c2.04,0,3.22,1.61,3.22,4.49c0,0.68-0.02,1.05-0.08,1.32H238.09z       M240.36,513.42c0-1.22-0.31-2.18-1.07-2.18c-0.84,0-1.17,1.22-1.19,2.18H240.36z"/><path data-cppathid="10159" d="M254.13,514.27c0,3.96-2.19,4.93-3.63,4.93c-2.27,0-3.63-1.79-3.63-4.88c0-3.42,1.79-4.93,3.67-4.93      C252.77,509.39,254.13,511.28,254.13,514.27z M249.39,514.27c0,1.63,0.25,2.99,1.17,2.99c0.82,0,1.03-1.59,1.03-2.99      c0-1.3-0.21-2.95-1.07-2.95C249.59,511.32,249.39,512.97,249.39,514.27z"/><path data-cppathid="10160" d="M255.57,512.41c0-1.05-0.06-1.96-0.08-2.86h2.19l0.12,1.09h0.04c0.51-0.76,1.32-1.24,2.31-1.24      c1.81,0,2.53,1.44,2.53,3.55v6.1h-2.54v-5.94c0-0.82-0.19-1.57-0.93-1.57c-0.43,0-0.78,0.29-0.95,0.86      c-0.08,0.19-0.14,0.5-0.14,0.87v5.79h-2.54V512.41z"/><path data-cppathid="10161" d="M268.02,512.77v1.83h-3.87v-1.83H268.02z"/><path data-cppathid="10162" d="M269.41,516.76c0.37,0.23,1.07,0.5,1.71,0.5c0.66,0,1.03-0.29,1.03-0.85c0-0.49-0.27-0.8-1.11-1.28      c-1.55-0.87-1.92-1.86-1.92-2.74c0-1.71,1.22-2.99,3.13-2.99c0.8,0,1.42,0.19,1.92,0.43l-0.45,1.86      c-0.37-0.21-0.82-0.39-1.32-0.39c-0.64,0-0.95,0.39-0.95,0.82s0.21,0.66,1.11,1.18c1.4,0.8,1.92,1.79,1.92,2.88      c0,1.94-1.4,2.99-3.36,2.99c-0.8,0-1.73-0.21-2.18-0.54L269.41,516.76z"/><path data-cppathid="10163" d="M278.33,507.03c0.02,0.82-0.56,1.38-1.34,1.38c-0.7,0-1.28-0.56-1.26-1.38c-0.02-0.85,0.6-1.38,1.3-1.38      C277.76,505.65,278.33,506.17,278.33,507.03z M275.78,519.05v-9.5h2.54v9.5H275.78z"/><path data-cppathid="10164" d="M283.1,506.99v2.56h1.86v1.81h-1.86v4.33c0,1.11,0.47,1.38,0.97,1.38c0.25,0,0.45-0.02,0.66-0.06l0.02,1.98      c-0.35,0.1-0.87,0.17-1.55,0.17c-0.74,0-1.38-0.17-1.83-0.6c-0.52-0.5-0.82-1.22-0.82-2.72v-4.49h-1.13v-1.81h1.13v-1.96      L283.1,506.99z"/><path data-cppathid="10165" d="M288.15,515.2c0.04,1.48,0.89,2.02,2.02,2.02c0.72,0,1.36-0.16,1.81-0.31l0.35,1.83c-0.66,0.25-1.65,0.43-2.62,0.43      c-2.58,0-4-1.71-4-4.68c0-3.19,1.65-5.09,3.81-5.09c2.04,0,3.22,1.61,3.22,4.49c0,0.68-0.02,1.05-0.08,1.32H288.15z       M290.42,513.42c0-1.22-0.31-2.18-1.07-2.18c-0.84,0-1.17,1.22-1.19,2.18H290.42z"/><path data-cppathid="10166" d="M197.2,533.5c0-0.95-0.04-1.98-0.08-2.86h2.21l0.14,1.38h0.06c0.43-1.01,1.19-1.54,1.88-1.54c0.25,0,0.39,0,0.54,0.04      v2.53c-0.16-0.04-0.33-0.04-0.54-0.04c-0.54,0-1.26,0.37-1.55,1.36c-0.06,0.21-0.1,0.54-0.1,0.95v4.82h-2.56V533.5z"/><path data-cppathid="10167" d="M204.97,536.3c0.04,1.48,0.89,2.02,2.02,2.02c0.72,0,1.36-0.16,1.81-0.31l0.35,1.83c-0.66,0.25-1.65,0.43-2.62,0.43      c-2.58,0-4-1.71-4-4.68c0-3.19,1.65-5.09,3.81-5.09c2.04,0,3.22,1.61,3.22,4.49c0,0.68-0.02,1.05-0.08,1.32H204.97z       M207.24,534.51c0-1.22-0.31-2.18-1.07-2.18c-0.84,0-1.17,1.22-1.19,2.18H207.24z"/><path data-cppathid="10168" d="M210.99,533.5c0-1.05-0.06-1.96-0.08-2.86h2.19l0.12,1.09h0.04c0.51-0.76,1.32-1.24,2.31-1.24      c1.81,0,2.53,1.44,2.53,3.55v6.1h-2.54v-5.94c0-0.82-0.19-1.57-0.93-1.57c-0.43,0-0.78,0.29-0.95,0.86      c-0.08,0.19-0.14,0.5-0.14,0.87v5.79h-2.54V533.5z"/><path data-cppathid="10169" d="M222,536.3c0.04,1.48,0.89,2.02,2.02,2.02c0.72,0,1.36-0.16,1.81-0.31l0.35,1.83c-0.66,0.25-1.65,0.43-2.62,0.43      c-2.58,0-4-1.71-4-4.68c0-3.19,1.65-5.09,3.81-5.09c2.04,0,3.22,1.61,3.22,4.49c0,0.68-0.02,1.05-0.08,1.32H222z M224.27,534.51      c0-1.22-0.31-2.18-1.07-2.18c-0.84,0-1.17,1.22-1.19,2.18H224.27z"/><path data-cppathid="10170" d="M229.81,530.65l0.51,4.1c0.14,1.03,0.25,1.98,0.33,2.88h0.06c0.16-0.89,0.35-1.94,0.52-2.84l0.84-4.14h1.96l0.82,4.04      c0.19,1.07,0.37,2,0.49,2.93h0.06c0.06-0.89,0.17-1.88,0.33-2.91l0.58-4.06h2.51l-2.45,9.5h-2.16l-0.72-3.32      c-0.19-0.87-0.37-1.88-0.49-2.97h-0.04c-0.12,1.11-0.33,2.1-0.54,2.99l-0.82,3.3h-2.18l-2.33-9.5H229.81z"/><path data-cppathid="10171" d="M243.91,540.15l-0.14-0.93h-0.04c-0.52,0.74-1.26,1.09-2.1,1.09c-1.44,0-2.51-1.2-2.51-2.89c0-2.49,2.19-3.52,4.35-3.54      v-0.21c0-0.74-0.45-1.28-1.34-1.28c-0.76,0-1.38,0.19-1.94,0.54l-0.47-1.71c0.52-0.31,1.63-0.72,2.95-0.72      c2.89,0,3.36,2.02,3.36,3.94v3.54c0,0.76,0.04,1.54,0.16,2.18H243.91z M243.56,535.52c-0.85,0.02-2.02,0.29-2.02,1.61      c0,0.95,0.52,1.3,0.91,1.3c0.41,0,0.87-0.25,1.05-0.82c0.04-0.14,0.06-0.29,0.06-0.45V535.52z"/><path data-cppathid="10172" d="M247.75,540.15c0.04-0.83,0.08-1.9,0.08-2.82v-10.62h2.54v4.89h0.04c0.47-0.68,1.07-1.11,1.98-1.11      c1.85,0,2.68,2.08,2.68,4.64c0,3.32-1.32,5.17-3.09,5.17c-0.8,0-1.36-0.33-1.86-1.28h-0.06l-0.14,1.13H247.75z M250.37,536.75      c0,0.23,0.04,0.47,0.1,0.6c0.21,0.68,0.56,0.87,0.87,0.87c0.85,0,1.2-1.07,1.2-2.89c0-1.63-0.37-2.7-1.22-2.7      c-0.39,0-0.72,0.41-0.85,0.87c-0.06,0.16-0.1,0.41-0.1,0.58V536.75z"/><path data-cppathid="10173" d="M256.53,526.71h2.54v13.44h-2.54V526.71z"/><path data-cppathid="10174" d="M263.01,536.3c0.04,1.48,0.89,2.02,2.02,2.02c0.72,0,1.36-0.16,1.81-0.31l0.35,1.83c-0.66,0.25-1.65,0.43-2.62,0.43      c-2.58,0-4-1.71-4-4.68c0-3.19,1.65-5.09,3.81-5.09c2.04,0,3.22,1.61,3.22,4.49c0,0.68-0.02,1.05-0.08,1.32H263.01z       M265.29,534.51c0-1.22-0.31-2.18-1.07-2.18c-0.84,0-1.17,1.22-1.19,2.18H265.29z"/><path data-cppathid="10175" d="M186.48,557.4c0.04,1.48,0.89,2.02,2.02,2.02c0.72,0,1.36-0.16,1.81-0.31l0.35,1.83c-0.66,0.25-1.65,0.43-2.62,0.43      c-2.58,0-4-1.71-4-4.68c0-3.19,1.65-5.09,3.81-5.09c2.04,0,3.22,1.61,3.22,4.49c0,0.68-0.02,1.05-0.08,1.32H186.48z       M188.76,555.61c0-1.22-0.31-2.18-1.07-2.18c-0.84,0-1.17,1.22-1.19,2.18H188.76z"/><path data-cppathid="10176" d="M192.5,554.6c0-1.05-0.06-1.96-0.08-2.86h2.19l0.12,1.09h0.04c0.51-0.76,1.32-1.24,2.31-1.24      c1.81,0,2.53,1.44,2.53,3.55v6.1h-2.54v-5.94c0-0.82-0.19-1.57-0.93-1.57c-0.43,0-0.78,0.29-0.95,0.86      c-0.08,0.19-0.14,0.5-0.14,0.87v5.79h-2.54V554.6z"/><path data-cppathid="10177" d="M203.51,557.4c0.04,1.48,0.89,2.02,2.02,2.02c0.72,0,1.36-0.16,1.81-0.31l0.35,1.83c-0.66,0.25-1.65,0.43-2.62,0.43      c-2.58,0-4-1.71-4-4.68c0-3.19,1.65-5.09,3.81-5.09c2.04,0,3.22,1.61,3.22,4.49c0,0.68-0.02,1.05-0.08,1.32H203.51z       M205.79,555.61c0-1.22-0.31-2.18-1.07-2.18c-0.84,0-1.17,1.22-1.19,2.18H205.79z"/><path data-cppathid="10178" d="M209.51,554.6c0-0.95-0.04-1.98-0.08-2.86h2.21l0.14,1.38h0.06c0.43-1.01,1.19-1.54,1.88-1.54c0.25,0,0.39,0,0.54,0.04      v2.53c-0.16-0.04-0.33-0.04-0.54-0.04c-0.54,0-1.26,0.37-1.55,1.36c-0.06,0.21-0.1,0.54-0.1,0.95v4.82h-2.56V554.6z"/><path data-cppathid="10179" d="M222.18,551.74c-0.04,0.86-0.1,1.87-0.1,3.01v5.42c0,2.04-0.37,3.17-1.15,3.9c-0.7,0.66-1.69,1.05-3.09,1.05      c-0.87,0-1.69-0.16-2.37-0.45l0.47-1.96c0.49,0.21,1.09,0.41,1.83,0.41c1.28,0,1.79-0.85,1.79-2.31v-0.58h-0.04      c-0.33,0.6-0.99,0.95-1.71,0.95c-2.14,0-2.97-2.33-2.97-4.6c0-3.17,1.44-4.99,3.21-4.99c0.76,0,1.38,0.39,1.75,1.11h0.04      l0.14-0.95H222.18z M219.56,555.2c0-0.25-0.04-0.5-0.1-0.7c-0.12-0.41-0.39-0.78-0.82-0.78c-0.91,0-1.28,1.24-1.28,2.8      c0,1.77,0.51,2.66,1.22,2.66c0.33,0,0.66-0.17,0.85-0.68c0.08-0.21,0.12-0.5,0.12-0.76V555.2z"/><path data-cppathid="10180" d="M225.79,551.74l0.93,4.93c0.1,0.56,0.17,1.09,0.25,1.59h0.04c0.08-0.49,0.16-1.03,0.23-1.55l0.8-4.97h2.49l-1.94,7.32      c-0.47,1.79-1.09,3.63-2.12,4.86c-0.8,0.93-1.77,1.38-2.16,1.5l-0.78-2.19c0.45-0.16,0.87-0.45,1.26-0.8      c0.35-0.33,0.62-0.72,0.8-1.13c0.08-0.17,0.14-0.27,0.14-0.41c0-0.12-0.04-0.23-0.08-0.35l-2.6-8.8H225.79z"/><path data-cppathid="10181" d="M234.45,558.95c0.37,0.23,1.07,0.5,1.71,0.5c0.66,0,1.03-0.29,1.03-0.85c0-0.49-0.27-0.8-1.11-1.28      c-1.55-0.87-1.92-1.86-1.92-2.74c0-1.71,1.22-2.99,3.13-2.99c0.8,0,1.42,0.19,1.92,0.43l-0.45,1.86      c-0.37-0.21-0.82-0.39-1.32-0.39c-0.64,0-0.95,0.39-0.95,0.82s0.21,0.66,1.11,1.18c1.4,0.8,1.92,1.79,1.92,2.88      c0,1.94-1.4,2.99-3.36,2.99c-0.8,0-1.73-0.21-2.18-0.54L234.45,558.95z"/><path data-cppathid="10182" d="M242.76,551.74l0.93,4.93c0.1,0.56,0.17,1.09,0.25,1.59h0.04c0.08-0.49,0.16-1.03,0.23-1.55l0.8-4.97h2.49l-1.94,7.32      c-0.47,1.79-1.09,3.63-2.12,4.86c-0.8,0.93-1.77,1.38-2.16,1.5l-0.78-2.19c0.45-0.16,0.87-0.45,1.26-0.8      c0.35-0.33,0.62-0.72,0.8-1.13c0.08-0.17,0.14-0.27,0.14-0.41c0-0.12-0.04-0.23-0.08-0.35l-2.6-8.8H242.76z"/><path data-cppathid="10183" d="M248.26,558.95c0.37,0.23,1.07,0.5,1.71,0.5c0.66,0,1.03-0.29,1.03-0.85c0-0.49-0.27-0.8-1.11-1.28      c-1.55-0.87-1.92-1.86-1.92-2.74c0-1.71,1.22-2.99,3.13-2.99c0.8,0,1.42,0.19,1.92,0.43l-0.45,1.86      c-0.37-0.21-0.82-0.39-1.32-0.39c-0.64,0-0.95,0.39-0.95,0.82s0.21,0.66,1.11,1.18c1.4,0.8,1.92,1.79,1.92,2.88      c0,1.94-1.4,2.99-3.36,2.99c-0.8,0-1.73-0.21-2.18-0.54L248.26,558.95z"/><path data-cppathid="10184" d="M257.62,549.18v2.56h1.86v1.81h-1.86v4.33c0,1.11,0.47,1.38,0.97,1.38c0.25,0,0.45-0.02,0.66-0.06l0.02,1.98      c-0.35,0.1-0.87,0.17-1.55,0.17c-0.74,0-1.38-0.17-1.83-0.6c-0.52-0.5-0.82-1.22-0.82-2.72v-4.49h-1.13v-1.81h1.13v-1.96      L257.62,549.18z"/><path data-cppathid="10185" d="M262.66,557.4c0.04,1.48,0.89,2.02,2.02,2.02c0.72,0,1.36-0.16,1.81-0.31l0.35,1.83c-0.66,0.25-1.65,0.43-2.62,0.43      c-2.58,0-4-1.71-4-4.68c0-3.19,1.65-5.09,3.81-5.09c2.04,0,3.22,1.61,3.22,4.49c0,0.68-0.02,1.05-0.08,1.32H262.66z       M264.94,555.61c0-1.22-0.31-2.18-1.07-2.18c-0.84,0-1.17,1.22-1.19,2.18H264.94z"/><path data-cppathid="10186" d="M268.68,554.6c0-1.05-0.06-1.96-0.08-2.86h2.21l0.12,1.11h0.04c0.49-0.72,1.28-1.26,2.27-1.26      c1.07,0,1.75,0.49,2.08,1.28h0.04c0.23-0.37,0.58-0.72,0.95-0.95c0.39-0.21,0.85-0.33,1.34-0.33c1.69,0,2.45,1.34,2.45,3.63      v6.02h-2.52v-5.59c0-1.09-0.12-1.96-0.89-1.96c-0.45,0-0.78,0.31-0.95,0.87c-0.04,0.14-0.08,0.41-0.08,0.66v6.02h-2.52v-5.96      c0-0.68-0.08-1.59-0.87-1.59c-0.39,0-0.78,0.29-0.95,0.85c-0.06,0.17-0.1,0.45-0.1,0.72v5.98h-2.52V554.6z"/></g></g><polygon data-cppathid="10187" points="193.1,586.62 178.85,604.73 170.3,583.34   " class="st17"/><polygon data-cppathid="10188" points="195.65,588.71 181.41,606.82 172.85,585.43   " class="st11"/></g><g><path data-cppathid="10189" d="M157.98,101.53c-47.02,0-85.13,38.12-85.13,85.14c0,47.02,38.12,85.13,85.13,85.13    c47.02,0,85.13-38.12,85.13-85.13C243.11,139.65,204.99,101.53,157.98,101.53z M157.98,263.47c-42.42,0-76.8-34.39-76.8-76.8    c0-42.42,34.39-76.8,76.8-76.8c42.42,0,76.8,34.39,76.8,76.8C234.78,229.08,200.39,263.47,157.98,263.47z" class="st1"/><ellipse data-cppathid="10190" ry="71.01" rx="71.01" cy="186.31" cx="157.98" class="st23" transform="matrix(0.7071 -0.7071 0.7071 0.7071 -85.4722 166.2748)"/><g><g><path data-cppathid="10191" d="M158.14,148.85v1.67l-3.96,10.96h-2.49l3.88-10.35v-0.04h-4.31v-2.23H158.14z"/><path data-cppathid="10192" d="M108.73,182.57l-2.93-13.09h2.82l0.93,5.65c0.23,1.4,0.5,3.01,0.68,4.55h0.04c0.18-1.55,0.39-3.13,0.62-4.6l0.89-5.59      h2.8l-2.99,13.09H108.73z"/><path data-cppathid="10193" d="M117.14,178.73c0.04,1.48,0.89,2.02,2.02,2.02c0.72,0,1.36-0.16,1.81-0.31l0.35,1.83c-0.66,0.25-1.65,0.43-2.62,0.43      c-2.58,0-4-1.71-4-4.68c0-3.19,1.65-5.09,3.81-5.09c2.04,0,3.22,1.61,3.22,4.49c0,0.68-0.02,1.05-0.08,1.32H117.14z       M119.41,176.94c0-1.22-0.31-2.18-1.07-2.18c-0.84,0-1.17,1.22-1.19,2.18H119.41z"/><path data-cppathid="10194" d="M123.14,175.93c0-0.95-0.04-1.98-0.08-2.86h2.21l0.14,1.38h0.06c0.43-1.01,1.19-1.53,1.88-1.53c0.25,0,0.39,0,0.54,0.04      v2.53c-0.16-0.04-0.33-0.04-0.54-0.04c-0.54,0-1.26,0.37-1.55,1.36c-0.06,0.21-0.1,0.54-0.1,0.95v4.82h-2.56V175.93z"/><path data-cppathid="10195" d="M131.41,170.55c0.02,0.82-0.56,1.38-1.34,1.38c-0.7,0-1.28-0.56-1.26-1.38c-0.02-0.85,0.6-1.38,1.3-1.38      C130.85,169.17,131.41,169.7,131.41,170.55z M128.87,182.57v-9.5h2.54v9.5H128.87z"/><path data-cppathid="10196" d="M133.64,182.57v-7.69h-1.28v-1.81h1.28v-0.39c0-1.07,0.21-2.06,0.97-2.84c0.56-0.58,1.38-0.87,2.27-0.87      c0.66,0,1.17,0.1,1.53,0.21l-0.29,1.98c-0.19-0.08-0.47-0.12-0.78-0.12c-0.85,0-1.17,0.74-1.17,1.57v0.45h1.65v1.81h-1.65v7.69      H133.64z"/><path data-cppathid="10197" d="M140.69,173.08l0.93,4.93c0.1,0.56,0.17,1.09,0.25,1.59h0.04c0.08-0.49,0.16-1.03,0.23-1.55l0.8-4.97h2.49l-1.94,7.32      c-0.47,1.79-1.09,3.63-2.12,4.86c-0.8,0.93-1.77,1.38-2.16,1.5l-0.78-2.19c0.45-0.16,0.87-0.45,1.26-0.8      c0.35-0.33,0.62-0.72,0.8-1.13c0.08-0.17,0.14-0.27,0.14-0.41c0-0.12-0.04-0.23-0.08-0.35l-2.6-8.8H140.69z"/><path data-cppathid="10198" d="M152.42,170.51v2.56h1.86v1.81h-1.86v4.33c0,1.11,0.47,1.38,0.97,1.38c0.25,0,0.45-0.02,0.66-0.06l0.02,1.98      c-0.35,0.1-0.87,0.17-1.55,0.17c-0.74,0-1.38-0.17-1.83-0.6c-0.52-0.5-0.82-1.22-0.82-2.72v-4.49h-1.13v-1.81h1.13v-1.96      L152.42,170.51z"/><path data-cppathid="10199" d="M155.47,169.13h2.54v4.93h0.04c0.21-0.33,0.5-0.6,0.82-0.82c0.37-0.21,0.82-0.33,1.28-0.33c1.75,0,2.43,1.48,2.43,3.88      v5.77h-2.54v-5.77c0-0.93-0.17-1.75-0.93-1.75c-0.43,0-0.8,0.25-0.99,0.89c-0.04,0.16-0.1,0.5-0.1,0.72v5.91h-2.54V169.13z"/><path data-cppathid="10200" d="M166.48,178.73c0.04,1.48,0.89,2.02,2.02,2.02c0.72,0,1.36-0.16,1.81-0.31l0.35,1.83c-0.66,0.25-1.65,0.43-2.62,0.43      c-2.58,0-4-1.71-4-4.68c0-3.19,1.65-5.09,3.81-5.09c2.04,0,3.22,1.61,3.22,4.49c0,0.68-0.02,1.05-0.08,1.32H166.48z       M168.75,176.94c0-1.22-0.31-2.18-1.07-2.18c-0.84,0-1.17,1.22-1.19,2.18H168.75z"/><path data-cppathid="10201" d="M175.04,180.98l2.33-4.23c0.31-0.54,0.72-1.17,0.89-1.53v-0.06h-2.93v-2.08h5.71v1.73l-2.27,4.08      c-0.33,0.56-0.7,1.17-0.91,1.55v0.06h3.26v2.08h-6.08V180.98z"/><path data-cppathid="10202" d="M184.38,178.73c0.04,1.48,0.89,2.02,2.02,2.02c0.72,0,1.36-0.16,1.81-0.31l0.35,1.83c-0.66,0.25-1.65,0.43-2.62,0.43      c-2.58,0-4-1.71-4-4.68c0-3.19,1.65-5.09,3.81-5.09c2.04,0,3.22,1.61,3.22,4.49c0,0.68-0.02,1.05-0.08,1.32H184.38z       M186.66,176.94c0-1.22-0.31-2.18-1.07-2.18c-0.84,0-1.17,1.22-1.19,2.18H186.66z"/><path data-cppathid="10203" d="M190.38,175.93c0-0.95-0.04-1.98-0.08-2.86h2.21l0.14,1.38h0.06c0.43-1.01,1.19-1.53,1.88-1.53c0.25,0,0.39,0,0.54,0.04      v2.53c-0.16-0.04-0.33-0.04-0.54-0.04c-0.54,0-1.26,0.37-1.55,1.36c-0.06,0.21-0.1,0.54-0.1,0.95v4.82h-2.56V175.93z"/><path data-cppathid="10204" d="M202.97,177.8c0,3.96-2.19,4.93-3.63,4.93c-2.27,0-3.63-1.79-3.63-4.88c0-3.42,1.79-4.93,3.67-4.93      C201.61,172.92,202.97,174.8,202.97,177.8z M198.23,177.8c0,1.63,0.25,2.99,1.17,2.99c0.82,0,1.03-1.59,1.03-2.99      c0-1.3-0.21-2.95-1.07-2.95C198.42,174.84,198.23,176.49,198.23,177.8z"/><path data-cppathid="10205" d="M117.77,199.82c0.04,1.48,0.89,2.02,2.02,2.02c0.72,0,1.36-0.16,1.81-0.31l0.35,1.83c-0.66,0.25-1.65,0.43-2.62,0.43      c-2.58,0-4-1.71-4-4.68c0-3.19,1.65-5.09,3.81-5.09c2.04,0,3.22,1.61,3.22,4.49c0,0.68-0.02,1.05-0.08,1.32H117.77z       M120.04,198.04c0-1.22-0.31-2.18-1.07-2.18c-0.84,0-1.17,1.22-1.19,2.18H120.04z"/><path data-cppathid="10206" d="M123.79,197.03c0-1.05-0.06-1.96-0.08-2.86h2.19l0.12,1.09h0.04c0.51-0.76,1.32-1.24,2.31-1.24      c1.81,0,2.53,1.44,2.53,3.55v6.1h-2.54v-5.94c0-0.82-0.19-1.57-0.93-1.57c-0.43,0-0.78,0.29-0.95,0.85      c-0.08,0.19-0.14,0.5-0.14,0.87v5.79h-2.54V197.03z"/><path data-cppathid="10207" d="M134.8,199.82c0.04,1.48,0.89,2.02,2.02,2.02c0.72,0,1.36-0.16,1.81-0.31l0.35,1.83c-0.66,0.25-1.65,0.43-2.62,0.43      c-2.58,0-4-1.71-4-4.68c0-3.19,1.65-5.09,3.81-5.09c2.04,0,3.22,1.61,3.22,4.49c0,0.68-0.02,1.05-0.08,1.32H134.8z       M137.07,198.04c0-1.22-0.31-2.18-1.07-2.18c-0.84,0-1.17,1.22-1.19,2.18H137.07z"/><path data-cppathid="10208" d="M140.8,197.03c0-0.95-0.04-1.98-0.08-2.86h2.21l0.14,1.38h0.06c0.43-1.01,1.19-1.53,1.88-1.53c0.25,0,0.39,0,0.54,0.04      v2.53c-0.16-0.04-0.33-0.04-0.54-0.04c-0.54,0-1.26,0.37-1.55,1.36c-0.06,0.21-0.1,0.54-0.1,0.95v4.82h-2.56V197.03z"/><path data-cppathid="10209" d="M153.46,194.17c-0.04,0.85-0.1,1.86-0.1,3.01v5.42c0,2.04-0.37,3.17-1.15,3.9c-0.7,0.66-1.69,1.05-3.09,1.05      c-0.87,0-1.69-0.16-2.37-0.45l0.47-1.96c0.49,0.21,1.09,0.41,1.83,0.41c1.28,0,1.79-0.85,1.79-2.31v-0.58h-0.04      c-0.33,0.6-0.99,0.95-1.71,0.95c-2.14,0-2.97-2.33-2.97-4.6c0-3.17,1.44-4.99,3.21-4.99c0.76,0,1.38,0.39,1.75,1.11h0.04      l0.14-0.95H153.46z M150.84,197.63c0-0.25-0.04-0.5-0.1-0.7c-0.12-0.41-0.39-0.78-0.82-0.78c-0.91,0-1.28,1.24-1.28,2.8      c0,1.77,0.51,2.66,1.22,2.66c0.33,0,0.66-0.17,0.85-0.68c0.08-0.21,0.12-0.5,0.12-0.76V197.63z"/><path data-cppathid="10210" d="M157.07,194.17l0.93,4.93c0.1,0.56,0.17,1.09,0.25,1.59h0.04c0.08-0.49,0.16-1.03,0.23-1.55l0.8-4.97h2.49l-1.94,7.32      c-0.47,1.79-1.09,3.63-2.12,4.86c-0.8,0.93-1.77,1.38-2.16,1.5l-0.78-2.19c0.45-0.16,0.87-0.45,1.26-0.8      c0.35-0.33,0.62-0.72,0.8-1.13c0.08-0.17,0.14-0.27,0.14-0.41c0-0.12-0.04-0.23-0.08-0.35l-2.6-8.8H157.07z"/><path data-cppathid="10211" d="M172.82,194.17c-0.04,0.85-0.1,1.86-0.1,3.01v5.42c0,2.04-0.37,3.17-1.15,3.9c-0.7,0.66-1.69,1.05-3.09,1.05      c-0.87,0-1.69-0.16-2.37-0.45l0.47-1.96c0.49,0.21,1.09,0.41,1.83,0.41c1.28,0,1.79-0.85,1.79-2.31v-0.58h-0.04      c-0.33,0.6-0.99,0.95-1.71,0.95c-2.14,0-2.97-2.33-2.97-4.6c0-3.17,1.44-4.99,3.21-4.99c0.76,0,1.38,0.39,1.75,1.11h0.04      l0.14-0.95H172.82z M170.2,197.63c0-0.25-0.04-0.5-0.1-0.7c-0.12-0.41-0.39-0.78-0.82-0.78c-0.91,0-1.28,1.24-1.28,2.8      c0,1.77,0.51,2.66,1.22,2.66c0.33,0,0.66-0.17,0.85-0.68c0.08-0.21,0.12-0.5,0.12-0.76V197.63z"/><path data-cppathid="10212" d="M181.42,198.89c0,3.96-2.19,4.93-3.63,4.93c-2.27,0-3.63-1.79-3.63-4.88c0-3.42,1.79-4.93,3.67-4.93      C180.06,194.02,181.42,195.9,181.42,198.89z M176.69,198.89c0,1.63,0.25,2.99,1.17,2.99c0.82,0,1.03-1.59,1.03-2.99      c0-1.3-0.21-2.95-1.07-2.95C176.88,195.94,176.69,197.59,176.69,198.89z"/><path data-cppathid="10213" d="M187.11,203.67l-0.14-0.93h-0.04c-0.52,0.74-1.26,1.09-2.1,1.09c-1.44,0-2.51-1.2-2.51-2.89c0-2.49,2.19-3.52,4.35-3.54      v-0.21c0-0.74-0.45-1.28-1.34-1.28c-0.76,0-1.38,0.19-1.94,0.54l-0.47-1.71c0.52-0.31,1.63-0.72,2.95-0.72      c2.89,0,3.36,2.02,3.36,3.94v3.54c0,0.76,0.04,1.53,0.16,2.18H187.11z M186.76,199.05c-0.85,0.02-2.02,0.29-2.02,1.61      c0,0.95,0.52,1.3,0.91,1.3c0.41,0,0.87-0.25,1.05-0.82c0.04-0.14,0.06-0.29,0.06-0.45V199.05z"/><path data-cppathid="10214" d="M191.05,190.23h2.54v13.44h-2.54V190.23z"/></g></g><polygon data-cppathid="10215" points="118.75,244.54 104.51,262.65 95.95,241.26   " class="st17"/><polygon data-cppathid="10216" points="121.31,246.63 107.06,264.74 98.5,243.35   " class="st1"/></g><g><ellipse data-cppathid="10217" ry="71.01" rx="71.01" cy="372.11" cx="567.77" class="st24" transform="matrix(0.9961 -0.0887 0.0887 0.9961 -30.7575 51.8077)"/><g><path data-cppathid="10218" d="M567.77,287.25c-47.02,0-85.13,38.12-85.13,85.13c0,47.02,38.12,85.13,85.13,85.13s85.13-38.12,85.13-85.13     C652.9,325.37,614.79,287.25,567.77,287.25z M567.77,449.19c-42.42,0-76.8-34.39-76.8-76.8c0-42.42,34.39-76.8,76.8-76.8     s76.8,34.39,76.8,76.8C644.57,414.8,610.19,449.19,567.77,449.19z" class="st7"/><g><g><path data-cppathid="10219" d="M564.22,318.71c0.5,0.29,1.21,0.49,1.88,0.49c1.22,0,1.9-0.76,1.9-1.83c0-1.4-1.07-2-2.37-2h-0.35v-1.86h0.25       c0.93-0.02,2.14-0.41,2.14-1.63c0-0.91-0.58-1.46-1.48-1.46c-0.56,0-1.13,0.21-1.59,0.5l-0.33-1.92       c0.52-0.33,1.55-0.66,2.6-0.66c2.21,0,3.32,1.44,3.32,3.05c0,1.26-0.7,2.31-1.81,2.84v0.04c1.22,0.41,2.16,1.5,2.16,3.21       c0,1.92-1.48,3.81-4.22,3.81c-1.03,0-1.92-0.25-2.49-0.56L564.22,318.71z"/><path data-cppathid="10220" d="M544.22,329.12v13.09h-2.54v-13.09H544.22z"/><path data-cppathid="10221" d="M553.06,328.77v10.62c0,0.91,0.04,1.94,0.08,2.82h-2.2l-0.14-1.07h-0.04c-0.35,0.66-1.11,1.22-1.98,1.22       c-2.02,0-2.95-2.23-2.95-4.89c0-3.3,1.44-4.92,3.05-4.92c0.83,0,1.36,0.41,1.59,0.95h0.04v-4.74H553.06z M550.51,336.37       c0-0.17,0-0.37-0.02-0.56c-0.1-0.58-0.41-1.11-0.91-1.11c-0.89,0-1.22,1.3-1.22,2.84c0,1.81,0.49,2.76,1.2,2.76       c0.31,0,0.68-0.17,0.87-0.83c0.06-0.14,0.08-0.35,0.08-0.58V336.37z"/><path data-cppathid="10222" d="M556.96,338.37c0.04,1.48,0.89,2.02,2.02,2.02c0.72,0,1.36-0.16,1.81-0.31l0.35,1.83c-0.66,0.25-1.65,0.43-2.62,0.43       c-2.58,0-4-1.71-4-4.68c0-3.19,1.65-5.09,3.81-5.09c2.04,0,3.22,1.61,3.22,4.49c0,0.68-0.02,1.05-0.08,1.32H556.96z        M559.23,336.58c0-1.22-0.31-2.18-1.07-2.18c-0.83,0-1.17,1.22-1.18,2.18H559.23z"/><path data-cppathid="10223" d="M562.98,335.57c0-1.05-0.06-1.96-0.08-2.86h2.2l0.12,1.09h0.04c0.5-0.76,1.32-1.24,2.31-1.24       c1.81,0,2.53,1.44,2.53,3.55v6.1h-2.54v-5.94c0-0.82-0.19-1.57-0.93-1.57c-0.43,0-0.78,0.29-0.95,0.86       c-0.08,0.19-0.14,0.5-0.14,0.87v5.79h-2.54V335.57z"/><path data-cppathid="10224" d="M574.87,330.15v2.56h1.87v1.81h-1.87v4.33c0,1.11,0.47,1.38,0.97,1.38c0.25,0,0.45-0.02,0.66-0.06l0.02,1.98       c-0.35,0.1-0.87,0.17-1.55,0.17c-0.74,0-1.38-0.17-1.83-0.6c-0.52-0.5-0.82-1.22-0.82-2.72v-4.49h-1.13v-1.81h1.13v-1.96       L574.87,330.15z"/><path data-cppathid="10225" d="M580.46,330.19c0.02,0.82-0.56,1.38-1.34,1.38c-0.7,0-1.28-0.56-1.26-1.38c-0.02-0.85,0.6-1.38,1.3-1.38       C579.9,328.81,580.46,329.33,580.46,330.19z M577.91,342.21v-9.5h2.54v9.5H577.91z"/><path data-cppathid="10226" d="M582.69,342.21v-7.69h-1.28v-1.81h1.28v-0.39c0-1.07,0.21-2.06,0.97-2.84c0.56-0.58,1.38-0.87,2.27-0.87       c0.66,0,1.17,0.1,1.54,0.21l-0.29,1.98c-0.19-0.08-0.47-0.12-0.78-0.12c-0.86,0-1.17,0.74-1.17,1.57v0.45h1.65v1.81h-1.65v7.69       H582.69z"/><path data-cppathid="10227" d="M589.74,332.71l0.93,4.93c0.1,0.56,0.17,1.09,0.25,1.59h0.04c0.08-0.49,0.16-1.03,0.23-1.55l0.8-4.97h2.49l-1.94,7.32       c-0.47,1.79-1.09,3.63-2.12,4.86c-0.8,0.93-1.77,1.38-2.16,1.5l-0.78-2.19c0.45-0.16,0.87-0.45,1.26-0.8       c0.35-0.33,0.62-0.72,0.8-1.13c0.08-0.17,0.14-0.27,0.14-0.41c0-0.12-0.04-0.23-0.08-0.35l-2.6-8.8H589.74z"/><path data-cppathid="10228" d="M512,359.46c0.04,1.48,0.89,2.02,2.02,2.02c0.72,0,1.36-0.16,1.81-0.31l0.35,1.83c-0.66,0.25-1.65,0.43-2.62,0.43       c-2.58,0-4-1.71-4-4.68c0-3.19,1.65-5.09,3.81-5.09c2.04,0,3.22,1.61,3.22,4.49c0,0.68-0.02,1.05-0.08,1.32H512z        M514.27,357.68c0-1.22-0.31-2.18-1.07-2.18c-0.83,0-1.17,1.22-1.18,2.18H514.27z"/><path data-cppathid="10229" d="M518.02,356.67c0-1.05-0.06-1.96-0.08-2.86h2.2l0.12,1.09h0.04c0.5-0.76,1.32-1.24,2.31-1.24       c1.81,0,2.53,1.44,2.53,3.55v6.1h-2.54v-5.94c0-0.82-0.19-1.57-0.93-1.57c-0.43,0-0.78,0.29-0.95,0.86       c-0.08,0.19-0.14,0.5-0.14,0.87v5.79h-2.54V356.67z"/><path data-cppathid="10230" d="M529.03,359.46c0.04,1.48,0.89,2.02,2.02,2.02c0.72,0,1.36-0.16,1.81-0.31l0.35,1.83c-0.66,0.25-1.65,0.43-2.62,0.43       c-2.58,0-4-1.71-4-4.68c0-3.19,1.65-5.09,3.81-5.09c2.04,0,3.22,1.61,3.22,4.49c0,0.68-0.02,1.05-0.08,1.32H529.03z        M531.3,357.68c0-1.22-0.31-2.18-1.07-2.18c-0.83,0-1.17,1.22-1.18,2.18H531.3z"/><path data-cppathid="10231" d="M535.03,356.67c0-0.95-0.04-1.98-0.08-2.86h2.21l0.14,1.38h0.06c0.43-1.01,1.18-1.54,1.88-1.54       c0.25,0,0.39,0,0.54,0.04v2.53c-0.16-0.04-0.33-0.04-0.54-0.04c-0.54,0-1.26,0.37-1.55,1.36c-0.06,0.21-0.1,0.54-0.1,0.95v4.82       h-2.56V356.67z"/><path data-cppathid="10232" d="M547.69,353.81c-0.04,0.86-0.1,1.87-0.1,3.01v5.42c0,2.04-0.37,3.17-1.15,3.9c-0.7,0.66-1.69,1.05-3.09,1.05       c-0.87,0-1.69-0.16-2.37-0.45l0.47-1.96c0.49,0.21,1.09,0.41,1.83,0.41c1.28,0,1.79-0.85,1.79-2.31v-0.58h-0.04       c-0.33,0.6-0.99,0.95-1.71,0.95c-2.14,0-2.97-2.33-2.97-4.6c0-3.17,1.44-4.99,3.21-4.99c0.76,0,1.38,0.39,1.75,1.11h0.04       l0.14-0.95H547.69z M545.07,357.27c0-0.25-0.04-0.5-0.1-0.7c-0.12-0.41-0.39-0.78-0.82-0.78c-0.91,0-1.28,1.24-1.28,2.8       c0,1.77,0.5,2.66,1.22,2.66c0.33,0,0.66-0.17,0.85-0.68c0.08-0.21,0.12-0.5,0.12-0.76V357.27z"/><path data-cppathid="10233" d="M551.3,353.81l0.93,4.93c0.1,0.56,0.17,1.09,0.25,1.59h0.04c0.08-0.49,0.16-1.03,0.23-1.55l0.8-4.97h2.49l-1.94,7.32       c-0.47,1.79-1.09,3.63-2.12,4.86c-0.8,0.93-1.77,1.38-2.16,1.5l-0.78-2.19c0.45-0.16,0.87-0.45,1.26-0.8       c0.35-0.33,0.62-0.72,0.8-1.13c0.08-0.17,0.14-0.27,0.14-0.41c0-0.12-0.04-0.23-0.08-0.35l-2.6-8.8H551.3z"/><path data-cppathid="10234" d="M560.51,357.03v1.83h-3.87v-1.83H560.51z"/><path data-cppathid="10235" d="M564.45,359.46c0.04,1.48,0.89,2.02,2.02,2.02c0.72,0,1.36-0.16,1.81-0.31l0.35,1.83c-0.66,0.25-1.65,0.43-2.62,0.43       c-2.58,0-4-1.71-4-4.68c0-3.19,1.65-5.09,3.81-5.09c2.04,0,3.22,1.61,3.22,4.49c0,0.68-0.02,1.05-0.08,1.32H564.45z        M566.72,357.68c0-1.22-0.31-2.18-1.07-2.18c-0.83,0-1.17,1.22-1.18,2.18H566.72z"/><path data-cppathid="10236" d="M582,352.1c-0.45-0.16-1.03-0.31-1.79-0.31c-1.4,0-1.79,0.78-1.79,1.67v0.35h4.74v9.5h-2.54v-7.69h-2.2v7.69h-2.54       v-7.69h-2.43v7.69h-2.54v-7.69h-1.28v-1.81h1.28v-0.25c0-1.32,0.45-2.41,1.38-3.07c0.56-0.41,1.28-0.62,2.1-0.62       c0.6,0,1.13,0.14,1.44,0.25l-0.64,1.88c-0.17-0.08-0.37-0.14-0.66-0.14s-0.56,0.14-0.72,0.33c-0.29,0.31-0.35,0.82-0.35,1.28       v0.33h2.43v-0.5c0-1.22,0.78-3.59,4.22-3.59c0.91,0,1.75,0.16,2.25,0.39L582,352.1z"/><path data-cppathid="10237" d="M590.2,363.15c-0.25,0.12-0.89,0.27-1.61,0.27c-2.41,0-3.98-1.67-3.98-4.78c0-2.93,1.73-4.97,4.35-4.97       c0.6,0,1.15,0.14,1.4,0.25l-0.33,2c-0.21-0.08-0.52-0.17-0.95-0.17c-1.22,0-1.94,1.17-1.94,2.82c0,1.73,0.72,2.78,1.9,2.78       c0.37,0,0.68-0.06,0.95-0.19L590.2,363.15z"/><path data-cppathid="10238" d="M593.75,351.29c0.02,0.82-0.56,1.38-1.34,1.38c-0.7,0-1.28-0.56-1.26-1.38c-0.02-0.85,0.6-1.38,1.3-1.38       C593.19,349.91,593.75,350.43,593.75,351.29z M591.21,363.31v-9.5h2.54v9.5H591.21z"/><path data-cppathid="10239" d="M597.65,359.46c0.04,1.48,0.89,2.02,2.02,2.02c0.72,0,1.36-0.16,1.81-0.31l0.35,1.83c-0.66,0.25-1.65,0.43-2.62,0.43       c-2.58,0-4-1.71-4-4.68c0-3.19,1.65-5.09,3.81-5.09c2.04,0,3.22,1.61,3.22,4.49c0,0.68-0.02,1.05-0.08,1.32H597.65z        M599.93,357.68c0-1.22-0.31-2.18-1.07-2.18c-0.83,0-1.17,1.22-1.18,2.18H599.93z"/><path data-cppathid="10240" d="M603.67,356.67c0-1.05-0.06-1.96-0.08-2.86h2.2l0.12,1.09h0.04c0.5-0.76,1.32-1.24,2.31-1.24       c1.81,0,2.53,1.44,2.53,3.55v6.1h-2.54v-5.94c0-0.82-0.19-1.57-0.93-1.57c-0.43,0-0.78,0.29-0.95,0.86       c-0.08,0.19-0.14,0.5-0.14,0.87v5.79h-2.54V356.67z"/><path data-cppathid="10241" d="M617.83,363.15c-0.25,0.12-0.89,0.27-1.61,0.27c-2.41,0-3.98-1.67-3.98-4.78c0-2.93,1.73-4.97,4.35-4.97       c0.6,0,1.15,0.14,1.4,0.25l-0.33,2c-0.21-0.08-0.52-0.17-0.95-0.17c-1.22,0-1.94,1.17-1.94,2.82c0,1.73,0.72,2.78,1.9,2.78       c0.37,0,0.68-0.06,0.95-0.19L617.83,363.15z"/><path data-cppathid="10242" d="M621.31,353.81l0.93,4.93c0.1,0.56,0.17,1.09,0.25,1.59h0.04c0.08-0.49,0.16-1.03,0.23-1.55l0.8-4.97h2.49l-1.94,7.32       c-0.47,1.79-1.09,3.63-2.12,4.86c-0.8,0.93-1.77,1.38-2.16,1.5l-0.78-2.19c0.45-0.16,0.87-0.45,1.26-0.8       c0.35-0.33,0.62-0.72,0.8-1.13c0.08-0.17,0.14-0.27,0.14-0.41c0-0.12-0.04-0.23-0.08-0.35l-2.6-8.8H621.31z"/><path data-cppathid="10243" d="M521.66,377.76c0-1.05-0.06-1.96-0.08-2.86h2.21l0.12,1.11h0.04c0.49-0.72,1.28-1.26,2.27-1.26       c1.07,0,1.75,0.49,2.08,1.28h0.04c0.23-0.37,0.58-0.72,0.95-0.95c0.39-0.21,0.85-0.33,1.34-0.33c1.69,0,2.45,1.34,2.45,3.63       v6.02h-2.53v-5.59c0-1.09-0.12-1.96-0.89-1.96c-0.45,0-0.78,0.31-0.95,0.87c-0.04,0.14-0.08,0.41-0.08,0.66v6.02h-2.53v-5.96       c0-0.68-0.08-1.59-0.87-1.59c-0.39,0-0.78,0.29-0.95,0.85c-0.06,0.17-0.1,0.45-0.1,0.72v5.98h-2.53V377.76z"/><path data-cppathid="10244" d="M536.98,380.56c0.04,1.48,0.89,2.02,2.02,2.02c0.72,0,1.36-0.16,1.81-0.31l0.35,1.83c-0.66,0.25-1.65,0.43-2.62,0.43       c-2.58,0-4-1.71-4-4.68c0-3.19,1.65-5.09,3.81-5.09c2.04,0,3.22,1.61,3.22,4.49c0,0.68-0.02,1.05-0.08,1.32H536.98z        M539.25,378.77c0-1.22-0.31-2.18-1.07-2.18c-0.83,0-1.17,1.22-1.18,2.18H539.25z"/><path data-cppathid="10245" d="M547.25,384.41l-0.14-0.93h-0.04c-0.52,0.74-1.26,1.09-2.1,1.09c-1.44,0-2.51-1.2-2.51-2.89c0-2.49,2.2-3.52,4.35-3.54       v-0.21c0-0.74-0.45-1.28-1.34-1.28c-0.76,0-1.38,0.19-1.94,0.54l-0.47-1.71c0.52-0.31,1.63-0.72,2.95-0.72       c2.89,0,3.36,2.02,3.36,3.94v3.54c0,0.76,0.04,1.54,0.16,2.18H547.25z M546.9,379.78c-0.85,0.02-2.02,0.29-2.02,1.61       c0,0.95,0.52,1.3,0.91,1.3c0.41,0,0.87-0.25,1.05-0.82c0.04-0.14,0.06-0.29,0.06-0.45V379.78z"/><path data-cppathid="10246" d="M551.12,382.11c0.37,0.23,1.07,0.5,1.71,0.5c0.66,0,1.03-0.29,1.03-0.85c0-0.49-0.27-0.8-1.11-1.28       c-1.55-0.87-1.92-1.86-1.92-2.74c0-1.71,1.22-2.99,3.13-2.99c0.8,0,1.42,0.19,1.92,0.43l-0.45,1.86       c-0.37-0.21-0.82-0.39-1.32-0.39c-0.64,0-0.95,0.39-0.95,0.82s0.21,0.66,1.11,1.18c1.4,0.8,1.92,1.79,1.92,2.88       c0,1.94-1.4,2.99-3.36,2.99c-0.8,0-1.73-0.21-2.18-0.54L551.12,382.11z"/><path data-cppathid="10247" d="M564.44,381.51c0,1.01,0.04,2,0.08,2.89h-2.19l-0.14-1.01h-0.04c-0.45,0.64-1.22,1.17-2.2,1.17       c-1.81,0-2.54-1.34-2.54-3.9v-5.75h2.56v5.48c0,1.24,0.23,2.04,0.95,2.04c0.43,0,0.7-0.33,0.82-0.64       c0.1-0.19,0.16-0.49,0.16-0.82v-6.06h2.54V381.51z"/><path data-cppathid="10248" d="M566.24,377.76c0-0.95-0.04-1.98-0.08-2.86h2.21l0.14,1.38h0.06c0.43-1.01,1.18-1.54,1.88-1.54       c0.25,0,0.39,0,0.54,0.04v2.53c-0.16-0.04-0.33-0.04-0.54-0.04c-0.54,0-1.26,0.37-1.55,1.36c-0.06,0.21-0.1,0.54-0.1,0.95v4.82       h-2.56V377.76z"/><path data-cppathid="10249" d="M574.01,380.56c0.04,1.48,0.89,2.02,2.02,2.02c0.72,0,1.36-0.16,1.81-0.31l0.35,1.83c-0.66,0.25-1.65,0.43-2.62,0.43       c-2.58,0-4-1.71-4-4.68c0-3.19,1.65-5.09,3.81-5.09c2.04,0,3.22,1.61,3.22,4.49c0,0.68-0.02,1.05-0.08,1.32H574.01z        M576.28,378.77c0-1.22-0.31-2.18-1.07-2.18c-0.83,0-1.17,1.22-1.18,2.18H576.28z"/><path data-cppathid="10250" d="M579.95,382.11c0.37,0.23,1.07,0.5,1.71,0.5c0.66,0,1.03-0.29,1.03-0.85c0-0.49-0.27-0.8-1.11-1.28       c-1.55-0.87-1.92-1.86-1.92-2.74c0-1.71,1.22-2.99,3.13-2.99c0.8,0,1.42,0.19,1.92,0.43l-0.45,1.86       c-0.37-0.21-0.82-0.39-1.32-0.39c-0.64,0-0.95,0.39-0.95,0.82s0.21,0.66,1.11,1.18c1.4,0.8,1.92,1.79,1.92,2.88       c0,1.94-1.4,2.99-3.36,2.99c-0.8,0-1.73-0.21-2.18-0.54L579.95,382.11z"/><path data-cppathid="10251" d="M593.66,384.41l-0.14-0.93h-0.04c-0.52,0.74-1.26,1.09-2.1,1.09c-1.44,0-2.51-1.2-2.51-2.89c0-2.49,2.2-3.52,4.35-3.54       v-0.21c0-0.74-0.45-1.28-1.34-1.28c-0.76,0-1.38,0.19-1.94,0.54l-0.47-1.71c0.52-0.31,1.63-0.72,2.95-0.72       c2.89,0,3.36,2.02,3.36,3.94v3.54c0,0.76,0.04,1.54,0.16,2.18H593.66z M593.31,379.78c-0.85,0.02-2.02,0.29-2.02,1.61       c0,0.95,0.52,1.3,0.91,1.3c0.41,0,0.87-0.25,1.05-0.82c0.04-0.14,0.06-0.29,0.06-0.45V379.78z"/><path data-cppathid="10252" d="M597.61,377.76c0-1.05-0.06-1.96-0.08-2.86h2.2l0.12,1.09h0.04c0.5-0.76,1.32-1.24,2.31-1.24       c1.81,0,2.53,1.44,2.53,3.55v6.1h-2.54v-5.94c0-0.82-0.19-1.57-0.93-1.57c-0.43,0-0.78,0.29-0.95,0.86       c-0.08,0.19-0.14,0.5-0.14,0.87v5.79h-2.54V377.76z"/><path data-cppathid="10253" d="M613.39,370.96v10.62c0,0.91,0.04,1.94,0.08,2.82h-2.2l-0.14-1.07h-0.04c-0.35,0.66-1.11,1.22-1.98,1.22       c-2.02,0-2.95-2.23-2.95-4.89c0-3.3,1.44-4.92,3.05-4.92c0.83,0,1.36,0.41,1.59,0.95h0.04v-4.74H613.39z M610.85,378.56       c0-0.17,0-0.37-0.02-0.56c-0.1-0.58-0.41-1.11-0.91-1.11c-0.89,0-1.22,1.3-1.22,2.84c0,1.81,0.49,2.76,1.2,2.76       c0.31,0,0.68-0.17,0.87-0.83c0.06-0.14,0.08-0.35,0.08-0.58V378.56z"/><path data-cppathid="10254" d="M545.58,398.86c0-0.95-0.04-1.98-0.08-2.86h2.21l0.14,1.38h0.06c0.43-1.01,1.18-1.54,1.88-1.54       c0.25,0,0.39,0,0.54,0.04v2.53c-0.16-0.04-0.33-0.04-0.54-0.04c-0.54,0-1.26,0.37-1.55,1.36c-0.06,0.21-0.1,0.54-0.1,0.95v4.82       h-2.56V398.86z"/><path data-cppathid="10255" d="M553.35,401.66c0.04,1.48,0.89,2.02,2.02,2.02c0.72,0,1.36-0.16,1.81-0.31l0.35,1.83c-0.66,0.25-1.65,0.43-2.62,0.43       c-2.58,0-4-1.71-4-4.68c0-3.19,1.65-5.09,3.81-5.09c2.04,0,3.22,1.61,3.22,4.49c0,0.68-0.02,1.05-0.08,1.32H553.35z        M555.62,399.87c0-1.22-0.31-2.18-1.07-2.18c-0.83,0-1.17,1.22-1.18,2.18H555.62z"/><path data-cppathid="10256" d="M566.26,392.06v10.62c0,0.91,0.04,1.94,0.08,2.82h-2.2l-0.14-1.07h-0.04c-0.35,0.66-1.11,1.22-1.98,1.22       c-2.02,0-2.95-2.23-2.95-4.89c0-3.3,1.44-4.92,3.05-4.92c0.83,0,1.36,0.41,1.59,0.95h0.04v-4.74H566.26z M563.72,399.66       c0-0.17,0-0.37-0.02-0.56c-0.1-0.58-0.41-1.11-0.91-1.11c-0.89,0-1.22,1.3-1.22,2.84c0,1.81,0.49,2.76,1.2,2.76       c0.31,0,0.68-0.17,0.87-0.83c0.06-0.14,0.08-0.35,0.08-0.58V399.66z"/><path data-cppathid="10257" d="M575,402.61c0,1.01,0.04,2,0.08,2.89h-2.19l-0.14-1.01h-0.04c-0.45,0.64-1.22,1.17-2.2,1.17       c-1.81,0-2.54-1.34-2.54-3.9V396h2.56v5.48c0,1.24,0.23,2.04,0.95,2.04c0.43,0,0.7-0.33,0.82-0.64       c0.1-0.19,0.16-0.49,0.16-0.82V396H575V402.61z"/><path data-cppathid="10258" d="M582.09,405.35c-0.25,0.12-0.89,0.27-1.61,0.27c-2.41,0-3.98-1.67-3.98-4.78c0-2.93,1.73-4.97,4.35-4.97       c0.6,0,1.15,0.14,1.4,0.25l-0.33,2c-0.21-0.08-0.52-0.17-0.95-0.17c-1.22,0-1.94,1.17-1.94,2.82c0,1.73,0.72,2.78,1.9,2.78       c0.37,0,0.68-0.06,0.95-0.19L582.09,405.35z"/><path data-cppathid="10259" d="M585.22,401.66c0.04,1.48,0.89,2.02,2.02,2.02c0.72,0,1.36-0.16,1.81-0.31l0.35,1.83c-0.66,0.25-1.65,0.43-2.62,0.43       c-2.58,0-4-1.71-4-4.68c0-3.19,1.65-5.09,3.81-5.09c2.04,0,3.22,1.61,3.22,4.49c0,0.68-0.02,1.05-0.08,1.32H585.22z        M587.49,399.87c0-1.22-0.31-2.18-1.07-2.18c-0.83,0-1.17,1.22-1.18,2.18H587.49z"/><path data-cppathid="10260" d="M530.65,422.75c0.04,1.48,0.89,2.02,2.02,2.02c0.72,0,1.36-0.16,1.81-0.31l0.35,1.83c-0.66,0.25-1.65,0.43-2.62,0.43       c-2.58,0-4-1.71-4-4.68c0-3.19,1.65-5.09,3.81-5.09c2.04,0,3.22,1.61,3.22,4.49c0,0.68-0.02,1.05-0.08,1.32H530.65z        M532.92,420.97c0-1.22-0.31-2.18-1.07-2.18c-0.83,0-1.17,1.22-1.18,2.18H532.92z"/><path data-cppathid="10261" d="M536.67,419.96c0-1.05-0.06-1.96-0.08-2.86h2.2l0.12,1.09h0.04c0.5-0.76,1.32-1.24,2.31-1.24       c1.81,0,2.53,1.44,2.53,3.55v6.1h-2.54v-5.94c0-0.82-0.19-1.57-0.93-1.57c-0.43,0-0.78,0.29-0.95,0.86       c-0.08,0.19-0.14,0.5-0.14,0.87v5.79h-2.54V419.96z"/><path data-cppathid="10262" d="M547.68,422.75c0.04,1.48,0.89,2.02,2.02,2.02c0.72,0,1.36-0.16,1.81-0.31l0.35,1.83c-0.66,0.25-1.65,0.43-2.62,0.43       c-2.58,0-4-1.71-4-4.68c0-3.19,1.65-5.09,3.81-5.09c2.04,0,3.22,1.61,3.22,4.49c0,0.68-0.02,1.05-0.08,1.32H547.68z        M549.95,420.97c0-1.22-0.31-2.18-1.07-2.18c-0.83,0-1.17,1.22-1.18,2.18H549.95z"/><path data-cppathid="10263" d="M553.68,419.96c0-0.95-0.04-1.98-0.08-2.86h2.21l0.14,1.38h0.06c0.43-1.01,1.18-1.54,1.88-1.54       c0.25,0,0.39,0,0.54,0.04v2.53c-0.16-0.04-0.33-0.04-0.54-0.04c-0.54,0-1.26,0.37-1.55,1.36c-0.06,0.21-0.1,0.54-0.1,0.95v4.82       h-2.56V419.96z"/><path data-cppathid="10264" d="M566.34,417.1c-0.04,0.86-0.1,1.87-0.1,3.01v5.42c0,2.04-0.37,3.17-1.15,3.9c-0.7,0.66-1.69,1.05-3.09,1.05       c-0.87,0-1.69-0.16-2.37-0.45l0.47-1.96c0.49,0.21,1.09,0.41,1.83,0.41c1.28,0,1.79-0.85,1.79-2.31v-0.58h-0.04       c-0.33,0.6-0.99,0.95-1.71,0.95c-2.14,0-2.97-2.33-2.97-4.6c0-3.17,1.44-4.99,3.21-4.99c0.76,0,1.38,0.39,1.75,1.11h0.04       l0.14-0.95H566.34z M563.72,420.56c0-0.25-0.04-0.5-0.1-0.7c-0.12-0.41-0.39-0.78-0.82-0.78c-0.91,0-1.28,1.24-1.28,2.8       c0,1.77,0.5,2.66,1.22,2.66c0.33,0,0.66-0.17,0.85-0.68c0.08-0.21,0.12-0.5,0.12-0.76V420.56z"/><path data-cppathid="10265" d="M569.95,417.1l0.93,4.93c0.1,0.56,0.17,1.09,0.25,1.59h0.04c0.08-0.49,0.16-1.03,0.23-1.55l0.8-4.97h2.49l-1.94,7.32       c-0.47,1.79-1.09,3.63-2.12,4.86c-0.8,0.93-1.77,1.38-2.16,1.5l-0.78-2.19c0.45-0.16,0.87-0.45,1.26-0.8       c0.35-0.33,0.62-0.72,0.8-1.13c0.08-0.17,0.14-0.27,0.14-0.41c0-0.12-0.04-0.23-0.08-0.35l-2.6-8.8H569.95z"/><path data-cppathid="10266" d="M578.69,413.16h2.54v13.44h-2.54V413.16z"/><path data-cppathid="10267" d="M589.99,421.82c0,3.96-2.2,4.93-3.63,4.93c-2.27,0-3.63-1.79-3.63-4.88c0-3.42,1.79-4.93,3.67-4.93       C588.63,416.95,589.99,418.83,589.99,421.82z M585.25,421.82c0,1.63,0.25,2.99,1.17,2.99c0.82,0,1.03-1.59,1.03-2.99       c0-1.3-0.21-2.95-1.07-2.95C585.45,418.87,585.25,420.52,585.25,421.82z"/><path data-cppathid="10268" d="M595.68,426.6l-0.14-0.93h-0.04c-0.52,0.74-1.26,1.09-2.1,1.09c-1.44,0-2.51-1.2-2.51-2.89c0-2.49,2.2-3.52,4.35-3.54       v-0.21c0-0.74-0.45-1.28-1.34-1.28c-0.76,0-1.38,0.19-1.94,0.54l-0.47-1.71c0.52-0.31,1.63-0.72,2.95-0.72       c2.89,0,3.36,2.02,3.36,3.94v3.54c0,0.76,0.04,1.54,0.16,2.18H595.68z M595.33,421.98c-0.85,0.02-2.02,0.29-2.02,1.61       c0,0.95,0.52,1.3,0.91,1.3c0.41,0,0.87-0.25,1.05-0.82c0.04-0.14,0.06-0.29,0.06-0.45V421.98z"/><path data-cppathid="10269" d="M606.52,413.16v10.62c0,0.91,0.04,1.94,0.08,2.82h-2.2l-0.14-1.07h-0.04c-0.35,0.66-1.11,1.22-1.98,1.22       c-2.02,0-2.95-2.23-2.95-4.89c0-3.3,1.44-4.92,3.05-4.92c0.83,0,1.36,0.41,1.59,0.95h0.04v-4.74H606.52z M603.97,420.75       c0-0.17,0-0.37-0.02-0.56c-0.1-0.58-0.41-1.11-0.91-1.11c-0.89,0-1.22,1.3-1.22,2.84c0,1.81,0.49,2.76,1.2,2.76       c0.31,0,0.68-0.17,0.87-0.83c0.06-0.14,0.08-0.35,0.08-0.58V420.75z"/></g></g></g><polygon data-cppathid="10270" points="638.79,372.38 661.13,378.03 645.07,394.55   " class="st17"/><polygon data-cppathid="10271" points="639.66,370.01 662,375.66 645.94,392.18   " class="st7"/></g><g><path data-cppathid="10272" d="M117.04,287.25c-47.02,0-85.13,38.12-85.13,85.14s38.12,85.13,85.13,85.13c47.02,0,85.13-38.12,85.13-85.13    S164.06,287.25,117.04,287.25z M117.04,449.19c-42.42,0-76.8-34.39-76.8-76.8c0-42.42,34.39-76.8,76.8-76.8    c42.42,0,76.8,34.39,76.8,76.8C193.85,414.8,159.46,449.19,117.04,449.19z" class="st13"/><ellipse data-cppathid="10273" ry="71.01" rx="71.01" cy="372.03" cx="117.04" class="st25" transform="matrix(0.7071 -0.7071 0.7071 0.7071 -228.7863 191.7273)"/><g><g><path data-cppathid="10274" d="M117.28,326.74c-0.31,0.02-0.66,0.06-1.05,0.13c-1.67,0.37-2.51,1.77-2.82,3.36h0.06c0.45-0.6,1.11-1.01,1.94-1.01      c1.71,0,2.86,1.54,2.86,3.92c0,2.21-1.13,4.47-3.59,4.47c-2.39,0-3.85-2.08-3.85-5.21c0-2.76,0.91-4.64,2.08-5.89      c0.82-0.91,2.04-1.51,3.09-1.71c0.6-0.12,1.01-0.12,1.28-0.14V326.74z M115.77,333.13c-0.02-1.07-0.37-2.08-1.18-2.08      c-0.41,0-0.8,0.27-1.03,0.85c-0.08,0.14-0.14,0.52-0.14,1.11c0,1.65,0.47,2.76,1.22,2.76      C115.49,335.77,115.77,334.65,115.77,333.13z"/><path data-cppathid="10275" d="M90.03,358.36c-0.37,0.17-1.09,0.31-1.98,0.31c-3.34,0-4.93-2.76-4.93-6.47c0-4.93,2.74-6.86,5.28-6.86      c0.89,0,1.52,0.17,1.77,0.35l-0.43,2.14c-0.29-0.14-0.62-0.25-1.19-0.25c-1.44,0-2.74,1.24-2.74,4.49      c0,3.13,1.19,4.35,2.74,4.35c0.43,0,0.91-0.1,1.22-0.19L90.03,358.36z"/><path data-cppathid="10276" d="M91.29,351.92c0-0.95-0.04-1.98-0.08-2.86h2.21l0.14,1.38h0.06c0.43-1.01,1.19-1.54,1.88-1.54c0.25,0,0.39,0,0.54,0.04      v2.53c-0.16-0.04-0.33-0.04-0.54-0.04c-0.54,0-1.26,0.37-1.55,1.36c-0.06,0.21-0.1,0.54-0.1,0.95v4.82h-2.56V351.92z"/><path data-cppathid="10277" d="M99.06,354.71c0.04,1.48,0.89,2.02,2.02,2.02c0.72,0,1.36-0.16,1.81-0.31l0.35,1.83c-0.66,0.25-1.65,0.43-2.62,0.43      c-2.58,0-4-1.71-4-4.68c0-3.19,1.65-5.09,3.81-5.09c2.04,0,3.22,1.61,3.22,4.49c0,0.68-0.02,1.05-0.08,1.32H99.06z       M101.33,352.93c0-1.22-0.31-2.18-1.07-2.18c-0.84,0-1.17,1.22-1.19,2.18H101.33z"/><path data-cppathid="10278" d="M109.33,358.56l-0.14-0.93h-0.04c-0.52,0.74-1.26,1.09-2.1,1.09c-1.44,0-2.51-1.2-2.51-2.89c0-2.49,2.19-3.52,4.35-3.54      v-0.21c0-0.74-0.45-1.28-1.34-1.28c-0.76,0-1.38,0.19-1.94,0.54l-0.47-1.71c0.52-0.31,1.63-0.72,2.95-0.72      c2.89,0,3.36,2.02,3.36,3.94v3.54c0,0.76,0.04,1.54,0.16,2.18H109.33z M108.98,353.94c-0.85,0.02-2.02,0.29-2.02,1.61      c0,0.95,0.52,1.3,0.91,1.3c0.41,0,0.87-0.25,1.05-0.82c0.04-0.14,0.06-0.29,0.06-0.45V353.94z"/><path data-cppathid="10279" d="M116.07,346.5v2.56h1.86v1.81h-1.86v4.33c0,1.11,0.47,1.38,0.97,1.38c0.25,0,0.45-0.02,0.66-0.06l0.02,1.98      c-0.35,0.1-0.87,0.17-1.55,0.17c-0.74,0-1.38-0.17-1.83-0.6c-0.52-0.5-0.82-1.22-0.82-2.72v-4.49h-1.13v-1.81h1.13v-1.96      L116.07,346.5z"/><path data-cppathid="10280" d="M121.12,354.71c0.04,1.48,0.89,2.02,2.02,2.02c0.72,0,1.36-0.16,1.81-0.31l0.35,1.83c-0.66,0.25-1.65,0.43-2.62,0.43      c-2.58,0-4-1.71-4-4.68c0-3.19,1.65-5.09,3.81-5.09c2.04,0,3.22,1.61,3.22,4.49c0,0.68-0.02,1.05-0.08,1.32H121.12z       M123.39,352.93c0-1.22-0.31-2.18-1.07-2.18c-0.84,0-1.17,1.22-1.19,2.18H123.39z"/><path data-cppathid="10281" d="M134.48,358.56l-0.14-0.93h-0.04c-0.52,0.74-1.26,1.09-2.1,1.09c-1.44,0-2.51-1.2-2.51-2.89c0-2.49,2.19-3.52,4.35-3.54      v-0.21c0-0.74-0.45-1.28-1.34-1.28c-0.76,0-1.38,0.19-1.94,0.54l-0.47-1.71c0.52-0.31,1.63-0.72,2.95-0.72      c2.89,0,3.36,2.02,3.36,3.94v3.54c0,0.76,0.04,1.54,0.16,2.18H134.48z M134.13,353.94c-0.85,0.02-2.02,0.29-2.02,1.61      c0,0.95,0.52,1.3,0.91,1.3c0.41,0,0.87-0.25,1.05-0.82c0.04-0.14,0.06-0.29,0.06-0.45V353.94z"/><path data-cppathid="10282" d="M138.42,351.92c0-1.05-0.06-1.96-0.08-2.86h2.19l0.12,1.09h0.04c0.51-0.76,1.32-1.24,2.31-1.24      c1.81,0,2.53,1.44,2.53,3.55v6.1h-2.54v-5.94c0-0.82-0.19-1.57-0.93-1.57c-0.43,0-0.78,0.29-0.95,0.86      c-0.08,0.19-0.14,0.5-0.14,0.87v5.79h-2.54V351.92z"/><path data-cppathid="10283" d="M93.81,379.66l-0.14-0.93h-0.04c-0.52,0.74-1.26,1.09-2.1,1.09c-1.44,0-2.51-1.2-2.51-2.89c0-2.49,2.19-3.52,4.35-3.54      v-0.21c0-0.74-0.45-1.28-1.34-1.28c-0.76,0-1.38,0.19-1.94,0.54l-0.47-1.71c0.52-0.31,1.63-0.72,2.95-0.72      c2.89,0,3.36,2.02,3.36,3.94v3.54c0,0.76,0.04,1.54,0.16,2.18H93.81z M93.46,375.03c-0.85,0.02-2.02,0.29-2.02,1.61      c0,0.95,0.52,1.3,0.91,1.3c0.41,0,0.87-0.25,1.05-0.82c0.04-0.14,0.06-0.29,0.06-0.45V375.03z"/><path data-cppathid="10284" d="M97.68,377.36c0.37,0.23,1.07,0.5,1.71,0.5c0.66,0,1.03-0.29,1.03-0.85c0-0.49-0.27-0.8-1.11-1.28      c-1.55-0.87-1.92-1.86-1.92-2.74c0-1.71,1.22-2.99,3.13-2.99c0.8,0,1.42,0.19,1.92,0.43l-0.45,1.86      c-0.37-0.21-0.82-0.39-1.32-0.39c-0.64,0-0.95,0.39-0.95,0.82s0.21,0.66,1.11,1.18c1.4,0.8,1.92,1.79,1.92,2.88      c0,1.94-1.4,2.99-3.36,2.99c-0.8,0-1.73-0.21-2.18-0.54L97.68,377.36z"/><path data-cppathid="10285" d="M107.6,373.38v1.83h-3.87v-1.83H107.6z"/><path data-cppathid="10286" d="M108.98,379.66c0.04-0.83,0.08-1.9,0.08-2.82v-10.62h2.54v4.89h0.04c0.47-0.68,1.07-1.11,1.98-1.11      c1.85,0,2.68,2.08,2.68,4.64c0,3.32-1.32,5.17-3.09,5.17c-0.8,0-1.36-0.33-1.86-1.28h-0.06l-0.14,1.13H108.98z M111.6,376.26      c0,0.23,0.04,0.47,0.1,0.6c0.21,0.68,0.56,0.87,0.87,0.87c0.85,0,1.2-1.07,1.2-2.89c0-1.63-0.37-2.7-1.22-2.7      c-0.39,0-0.72,0.41-0.85,0.87c-0.06,0.16-0.1,0.41-0.1,0.58V376.26z"/><path data-cppathid="10287" d="M124.71,376.76c0,1.01,0.04,2,0.08,2.89h-2.2l-0.14-1.01h-0.04c-0.45,0.64-1.22,1.17-2.19,1.17      c-1.81,0-2.54-1.34-2.54-3.9v-5.75h2.56v5.48c0,1.24,0.23,2.04,0.95,2.04c0.43,0,0.7-0.33,0.82-0.64      c0.1-0.19,0.16-0.49,0.16-0.82v-6.06h2.54V376.76z"/><path data-cppathid="10288" d="M129.08,367.63c0.02,0.82-0.56,1.38-1.34,1.38c-0.7,0-1.28-0.56-1.26-1.38c-0.02-0.85,0.6-1.38,1.3-1.38      C128.51,366.25,129.08,366.78,129.08,367.63z M126.53,379.66v-9.5h2.54v9.5H126.53z"/><path data-cppathid="10289" d="M130.86,366.21h2.54v13.44h-2.54V366.21z"/><path data-cppathid="10290" d="M138.22,367.59v2.56h1.86v1.81h-1.86v4.33c0,1.11,0.47,1.38,0.97,1.38c0.25,0,0.45-0.02,0.66-0.06l0.02,1.98      c-0.35,0.1-0.87,0.17-1.55,0.17c-0.74,0-1.38-0.17-1.83-0.6c-0.52-0.5-0.82-1.22-0.82-2.72v-4.49h-1.13v-1.81h1.13v-1.96      L138.22,367.59z"/><path data-cppathid="10291" d="M71.07,396.91c0.04,1.48,0.89,2.02,2.02,2.02c0.72,0,1.36-0.16,1.81-0.31l0.35,1.83c-0.66,0.25-1.65,0.43-2.62,0.43      c-2.58,0-4-1.71-4-4.68c0-3.19,1.65-5.09,3.81-5.09c2.04,0,3.22,1.61,3.22,4.49c0,0.68-0.02,1.05-0.08,1.32H71.07z       M73.35,395.12c0-1.22-0.31-2.18-1.07-2.18c-0.84,0-1.17,1.22-1.19,2.18H73.35z"/><path data-cppathid="10292" d="M77.09,394.11c0-1.05-0.06-1.96-0.08-2.86h2.19l0.12,1.09h0.04c0.51-0.76,1.32-1.24,2.31-1.24      c1.81,0,2.53,1.44,2.53,3.55v6.1h-2.54v-5.94c0-0.82-0.19-1.57-0.93-1.57c-0.43,0-0.78,0.29-0.95,0.86      c-0.08,0.19-0.14,0.5-0.14,0.87v5.79h-2.54V394.11z"/><path data-cppathid="10293" d="M88.1,396.91c0.04,1.48,0.89,2.02,2.02,2.02c0.72,0,1.36-0.16,1.81-0.31l0.35,1.83c-0.66,0.25-1.65,0.43-2.62,0.43      c-2.58,0-4-1.71-4-4.68c0-3.19,1.65-5.09,3.81-5.09c2.04,0,3.22,1.61,3.22,4.49c0,0.68-0.02,1.05-0.08,1.32H88.1z M90.38,395.12      c0-1.22-0.31-2.18-1.07-2.18c-0.84,0-1.17,1.22-1.19,2.18H90.38z"/><path data-cppathid="10294" d="M94.1,394.11c0-0.95-0.04-1.98-0.08-2.86h2.21l0.14,1.38h0.06c0.43-1.01,1.19-1.54,1.88-1.54c0.25,0,0.39,0,0.54,0.04      v2.53c-0.16-0.04-0.33-0.04-0.54-0.04c-0.54,0-1.26,0.37-1.55,1.36c-0.06,0.21-0.1,0.54-0.1,0.95v4.82H94.1V394.11z"/><path data-cppathid="10295" d="M106.77,391.25c-0.04,0.86-0.1,1.87-0.1,3.01v5.42c0,2.04-0.37,3.17-1.15,3.9c-0.7,0.66-1.69,1.05-3.09,1.05      c-0.87,0-1.69-0.16-2.37-0.45l0.47-1.96c0.49,0.21,1.09,0.41,1.83,0.41c1.28,0,1.79-0.85,1.79-2.31v-0.58h-0.04      c-0.33,0.6-0.99,0.95-1.71,0.95c-2.14,0-2.97-2.33-2.97-4.6c0-3.17,1.44-4.99,3.21-4.99c0.76,0,1.38,0.39,1.75,1.11h0.04      l0.14-0.95H106.77z M104.14,394.71c0-0.25-0.04-0.5-0.1-0.7c-0.12-0.41-0.39-0.78-0.82-0.78c-0.91,0-1.28,1.24-1.28,2.8      c0,1.77,0.51,2.66,1.22,2.66c0.33,0,0.66-0.17,0.85-0.68c0.08-0.21,0.12-0.5,0.12-0.76V394.71z"/><path data-cppathid="10296" d="M110.38,391.25l0.93,4.93c0.1,0.56,0.17,1.09,0.25,1.59h0.04c0.08-0.49,0.16-1.03,0.23-1.55l0.8-4.97h2.49l-1.94,7.32      c-0.47,1.79-1.09,3.63-2.12,4.86c-0.8,0.93-1.77,1.38-2.16,1.5l-0.78-2.19c0.45-0.16,0.87-0.45,1.26-0.8      c0.35-0.33,0.62-0.72,0.8-1.13c0.08-0.17,0.14-0.27,0.14-0.41c0-0.12-0.04-0.23-0.08-0.35l-2.6-8.8H110.38z"/><path data-cppathid="10297" d="M119.11,394.11c0-1.05-0.06-1.96-0.08-2.86h2.21l0.12,1.11h0.04c0.49-0.72,1.28-1.26,2.27-1.26      c1.07,0,1.75,0.49,2.08,1.28h0.04c0.23-0.37,0.58-0.72,0.95-0.95c0.39-0.21,0.85-0.33,1.34-0.33c1.69,0,2.45,1.34,2.45,3.63      v6.02h-2.52v-5.59c0-1.09-0.12-1.96-0.89-1.96c-0.45,0-0.78,0.31-0.95,0.87c-0.04,0.14-0.08,0.41-0.08,0.66v6.02h-2.52v-5.96      c0-0.68-0.08-1.59-0.87-1.59c-0.39,0-0.78,0.29-0.95,0.85c-0.06,0.17-0.1,0.45-0.1,0.72v5.98h-2.52V394.11z"/><path data-cppathid="10298" d="M139.25,395.97c0,3.96-2.19,4.93-3.63,4.93c-2.27,0-3.63-1.79-3.63-4.88c0-3.42,1.79-4.93,3.67-4.93      C137.89,391.1,139.25,392.98,139.25,395.97z M134.51,395.97c0,1.63,0.25,2.99,1.17,2.99c0.82,0,1.03-1.59,1.03-2.99      c0-1.3-0.21-2.95-1.07-2.95C134.71,393.02,134.51,394.67,134.51,395.97z"/><path data-cppathid="10299" d="M147.59,387.31v10.62c0,0.91,0.04,1.94,0.08,2.82h-2.19l-0.14-1.07h-0.04c-0.35,0.66-1.11,1.22-1.98,1.22      c-2.02,0-2.95-2.23-2.95-4.89c0-3.3,1.44-4.92,3.05-4.92c0.84,0,1.36,0.41,1.59,0.95h0.04v-4.74H147.59z M145.04,394.91      c0-0.17,0-0.37-0.02-0.56c-0.1-0.58-0.41-1.11-0.91-1.11c-0.89,0-1.22,1.3-1.22,2.84c0,1.81,0.49,2.76,1.2,2.76      c0.31,0,0.68-0.17,0.87-0.83c0.06-0.14,0.08-0.35,0.08-0.58V394.91z"/><path data-cppathid="10300" d="M151.49,396.91c0.04,1.48,0.89,2.02,2.02,2.02c0.72,0,1.36-0.16,1.81-0.31l0.35,1.83c-0.66,0.25-1.65,0.43-2.62,0.43      c-2.58,0-4-1.71-4-4.68c0-3.19,1.65-5.09,3.81-5.09c2.04,0,3.22,1.61,3.22,4.49c0,0.68-0.02,1.05-0.08,1.32H151.49z       M153.76,395.12c0-1.22-0.31-2.18-1.07-2.18c-0.84,0-1.17,1.22-1.19,2.18H153.76z"/><path data-cppathid="10301" d="M157.51,387.31h2.54v13.44h-2.54V387.31z"/></g></g><polygon data-cppathid="10302" points="77.82,430.26 63.58,448.37 55.02,426.98   " class="st17"/><polygon data-cppathid="10303" points="80.37,432.35 66.13,450.46 57.57,429.07   " class="st13"/></g></g></svg>