<?xml version="1.0" encoding="UTF-8"?>
<svg xmlns="http://www.w3.org/2000/svg" onmouseup="{ if(window.parent.document.onmouseup) window.parent.document.onmouseup(arguments[0]);}" xml:space="preserve" style="enable-background:new 0 0 300 300;" viewBox="0 0 300 300" y="0px" x="0px" id="Layer_1" version="1.1" xmlns:xlink="http://www.w3.org/1999/xlink"><style type="text/css">
	.st0{fill:#39B54A;}
</style><g><path data-cppathid="10000" d="M259.16,67.59l0.01-0.03l0.01,0.03c0,0,20.36,0.04,20.36-20.36l-0.03-0.01l0.03-0.01   c0-20.4-20.36-20.36-20.36-20.36l-0.01,0.03l-0.01-0.03c0,0-20.36-0.04-20.36,20.36l0.03,0.01l-0.03,0.01   C238.8,67.63,259.16,67.59,259.16,67.59z" class="st0"/><path data-cppathid="10001" d="M284.69,135.51h0.1V94.77h0.01c0-20.4-20.36-20.36-20.36-20.36l-0.03,0.09v-0.13h-10.19v0.04   c-0.05,0-20.32-0.01-20.34,20.34h-0.03v14.16h-25.51V54h-0.01c0-5.62-4.56-10.18-10.18-10.18v-0.01H19.19v0.01   c-5.62,0-10.17,4.56-10.17,10.18H9v122.28h0.01c0,5.62,4.55,10.18,10.17,10.18v0.01h178.95v-0.01c5.62,0,10.18-4.56,10.18-10.18   h0.01V129.3h25.51l9.09,32.79v27.34h-0.01v66.46c0.73,7.8,7.09,13.99,15.11,13.99c8.41,0,15.22-6.81,15.32-15.21h0.14v-49.6h0.01   v-40.82l0.03,0.09c13.86,0.44,11.29-28.78,11.29-28.78L284.69,135.51z M187.95,108.92h-0.89c-5.2,0.5-9.31,4.74-9.31,10.07   c0,5.61,4.52,10.15,10.12,10.23v0.08h0.09v46.97H29.38V54h158.57V108.92z" class="st0"/></g><path data-cppathid="10002" d="M142.35,154.41l12.15-12.15l-28.17-28.16l-11.16,11.15L85.49,95.58l-10.46,10.46L41,61.66l34.04,23.67  l10.46-10.45l29.69,29.68l11.16-11.16l38.51,38.51L177,119.76v34.65H142.35L142.35,154.41z" class="st0"/></svg>