<?xml version="1.0" encoding="UTF-8"?>
<svg xmlns="http://www.w3.org/2000/svg" onmouseup="{ if(window.parent.document.onmouseup) window.parent.document.onmouseup(arguments[0]);}" xml:space="preserve" style="enable-background:new 0 0 300 300;" viewBox="0 0 300 300" y="0px" x="0px" id="Layer_1" version="1.1" xmlns:xlink="http://www.w3.org/1999/xlink"><style type="text/css">
	.st0{fill:#39B54A;}
</style><path data-cppathid="10000" d="M94.54,122.47c2.83,0.63,4.97,0.71,4.97,0.71v-0.02l0.02,0.02c0,0,11.78,0.02,17.7-8.82  c1.99-2.96,3.32-6.91,3.32-12.2l-0.02-0.01l0.02-0.01c0-1.08-0.27-1.89-0.37-2.86c-0.89-8.27-5.18-12.9-9.76-15.3  c-5.38-2.82-10.89-2.86-10.89-2.86l-0.02,0.02v-0.02c0,0-21.02-0.04-21.02,21.02l0.02,0.01l-0.02,0.01  C78.49,116.63,88.33,121.05,94.54,122.47z M127.98,101.84c1.84,0.29,3.09,0.3,3.09,0.3v-0.02l0.02,0.02c0,0,21.02,0.04,21.02-21.02  l-0.02-0.01l0.02-0.01c0-21.06-21.02-21.02-21.02-21.02l-0.02,0.02v-0.02c0,0-17.11,0.15-20.34,15.82c3.2,1.25,6.63,3.16,9.63,6.15  C125.29,86.96,127.9,93.8,127.98,101.84z M128.64,211.51c-1.51,2.68-3.62,5.1-6.25,7.29c0,5.6,0,30.58,0,30.58l-0.1,18.2  c2.38,1.5,5.19,2.38,8.24,2.38c8.69,0,15.72-7.03,15.82-15.7h0.14v-38.55c-0.22,0.11-0.37,0.32-0.6,0.42  C139.64,219,132.77,216.65,128.64,211.51z M191.09,59.76c1.84,0.29,3.09,0.3,3.09,0.3v-0.02l0.02,0.02c0,0,21.02,0.04,21.02-21.02  l-0.02-0.01l0.02-0.01C215.22,17.96,194.2,18,194.2,18l-0.02,0.02V18c0,0-17.11,0.15-20.34,15.82c3.2,1.25,6.63,3.16,9.63,6.15  C188.4,44.89,191.02,51.73,191.09,59.76z M159.54,80.8c1.84,0.29,3.09,0.3,3.09,0.3v-0.02l0.02,0.02c0,0,21.02,0.04,21.02-21.02  l-0.02-0.01l0.02-0.01c0-21.06-21.02-21.02-21.02-21.02l-0.02,0.02v-0.02c0,0-17.11,0.15-20.34,15.82c3.2,1.25,6.63,3.16,9.63,6.15  C156.85,65.93,159.46,72.76,159.54,80.8z M191.76,169.43c-1.51,2.68-3.62,5.1-6.25,7.29c0,5.6,0,30.58,0,30.58l-0.1,18.2  c2.38,1.5,5.19,2.38,8.24,2.38c8.69,0,15.72-7.03,15.82-15.7h0.14v-38.55c-0.22,0.11-0.37,0.32-0.6,0.42  C202.75,176.93,195.89,174.58,191.76,169.43z M200.51,104.37h0.02c-5.26-11.55-15.78-8.69-18.63-7.65  c-6.16-5.09-14.32-5.09-14.32-5.09l-0.04,0.08v-0.12h-9.72c-1.28,3.68-3.23,6.94-5.9,9.61c-2.47,2.47-5.23,4.15-7.92,5.38  c2.44,0.72,5.2,1.79,7.89,3.44c8.46-1.64,18.48,0.45,23.86,12.3c0.26,0.59,0.45,1.19,0.56,1.83l7.54,44.14  c4.64-6.03,4.75-13.55,4.75-13.55l-0.12-0.04h0.1v-35.93l7.58,44.97l0.08-0.04c1.68,3.65,6.02,5.25,9.68,3.57  c3.49-1.58,5.03-5.53,3.8-9.08L200.51,104.37z M241.27,137.16l-9.2-53.83h0.02c-5.26-11.55-15.78-8.69-18.63-7.65  c-6.16-5.09-14.32-5.09-14.32-5.09l-0.04,0.08v-0.12h-9.72c-1.28,3.68-3.23,6.94-5.9,9.61c-2.47,2.47-5.23,4.15-7.92,5.38  c2.44,0.72,5.2,1.79,7.89,3.44c8.46-1.64,18.48,0.45,23.86,12.3c0.26,0.59,0.45,1.19,0.56,1.83l7.54,44.14  c4.64-6.03,4.75-13.55,4.75-13.55l-0.12-0.04h0.1V97.74l7.58,44.97l0.08-0.04c1.68,3.65,6.02,5.25,9.68,3.57  C240.96,144.66,242.5,140.71,241.27,137.16z M160.2,190.47c-1.51,2.68-3.62,5.1-6.25,7.29c0,5.6,0,30.58,0,30.58l-0.1,18.2  c2.38,1.5,5.19,2.38,8.24,2.38c8.69,0,15.72-7.03,15.82-15.7h0.14v-38.55c-0.22,0.11-0.37,0.32-0.6,0.42  C171.19,197.96,164.33,195.61,160.2,190.47z M168.95,125.41h0.02c-5.26-11.55-15.78-8.69-18.63-7.65  c-6.16-5.09-14.32-5.09-14.32-5.09l-0.04,0.08v-0.12h-9.72c-1.28,3.68-3.23,6.94-5.9,9.61c-2.47,2.47-5.23,4.15-7.92,5.38  c2.44,0.72,5.2,1.79,7.89,3.44c8.46-1.64,18.48,0.45,23.86,12.3c0.26,0.59,0.45,1.19,0.56,1.83l7.54,44.14  c4.64-6.03,4.75-13.55,4.75-13.55l-0.12-0.04h0.1v-35.93l7.58,44.97l0.08-0.04c1.68,3.65,6.02,5.25,9.68,3.57  c3.49-1.58,5.03-5.53,3.8-9.08L168.95,125.41z M146.5,199.68l-9.1-53.24h0.02c-5.26-11.55-15.78-8.69-18.63-7.65  c-6.16-5.09-14.32-5.09-14.32-5.09l-0.04,0.08v-0.12H93.9v0.04c-0.01,0-1.04,0.02-2.57,0.23c-2.88,0.4-7.65,1.54-11.65,4.81  c-3.06-1.08-13.27-3.66-18.45,7.7l-9.2,53.83c-1.21,3.55,0.33,7.5,3.8,9.08c3.68,1.68,7.99,0.07,9.7-3.57l0.06,0.04l7.27-43.14  v34.11h0.16l-0.12,0.04c0,0,0.16,12.94,10.48,18.47v61.26C84.14,284.61,90.7,291,98.98,291c8.69,0,15.72-7.03,15.82-15.7h0.14  v-59.97c10.4-5.51,10.54-18.51,10.54-18.51l-0.12-0.04h0.1v-35.93l7.58,44.97l0.08-0.04c1.68,3.65,6.02,5.25,9.68,3.57  c1.79-0.81,3.04-2.24,3.7-3.92c0.63-1.6,0.7-3.44,0.1-5.16L146.5,199.68z" class="st0"/></svg>