<?xml version="1.0" encoding="UTF-8"?>
<svg xmlns="http://www.w3.org/2000/svg" onmouseup="{ if(window.parent.document.onmouseup) window.parent.document.onmouseup(arguments[0]);}" xml:space="preserve" style="enable-background:new 0 0 300 300;" viewBox="0 0 300 300" y="0px" x="0px" id="Layer_1" version="1.1" xmlns:xlink="http://www.w3.org/1999/xlink"><style type="text/css">
	.st0{fill:#6BC4E8;}
	.st1{fill:#39B54A;}
	.st2{fill:none;stroke:#39B54A;stroke-width:4;stroke-miterlimit:10;}
	.st3{fill:#39B54A;stroke:#39B54A;stroke-width:4;stroke-miterlimit:10;}
</style><g><polygon data-cppathid="10000" points="571.1,17.96 570.82,17.93 555.53,17.93 541.47,48.2 555.14,47.39 545.78,69.11 571.75,36.86    559.33,37.59  " class="st0"/><path data-cppathid="10001" d="M542.82,61.39c-5.41-4.09-8.91-10.58-8.91-17.89l0,0c0-8.36,4.59-15.63,11.36-19.48l0,0h0   c0.81-0.46,1.84-0.18,2.3,0.63l0,0c0.46,0.81,0.18,1.84-0.63,2.3l0,0c-5.77,3.29-9.65,9.45-9.65,16.55l0,0   c0,6.21,2.97,11.71,7.58,15.2l0,0c0.74,0.56,0.89,1.62,0.33,2.36l0,0c-0.33,0.44-0.83,0.67-1.34,0.67l0,0   C543.49,61.73,543.13,61.62,542.82,61.39L542.82,61.39z" class="st1"/><path data-cppathid="10002" d="M554.9,64.27c-0.01-0.93,0.74-1.69,1.67-1.71l0,0c10.44-0.11,18.87-8.6,18.87-19.07l0,0   c0-5.33-2.19-10.12-5.71-13.58l0,0c-0.66-0.65-0.67-1.72-0.02-2.38l0,0c0.65-0.67,1.72-0.67,2.38-0.02l0,0   c4.13,4.06,6.71,9.73,6.71,15.99l0,0c0,12.32-9.92,22.31-22.2,22.44l0,0c-0.01,0-0.01,0-0.02,0l0,0   C555.66,65.94,554.91,65.2,554.9,64.27L554.9,64.27z" class="st1"/></g><path data-cppathid="10003" d="M225.65,78.41v138.22c0,10.71-8.69,19.4-19.41,19.4H93.63c-10.72,0-19.41-8.69-19.41-19.4v-7.42h7.95v-5.84  h-11.9c-7.91,0-7.91-11.87,0-11.87h11.9v-5.84h-7.95v-26.35h7.95v-5.84h-11.9c-7.91,0-7.91-11.88,0-11.88l11.9,0.01v-5.85h-7.95  v-26.35h7.95v-5.84h-11.9c-7.91,0-7.91-11.87,0-11.87h11.9v-5.85h-7.95v-7.42C74.23,67.69,82.92,59,93.63,59h112.61  C216.96,59,225.65,67.69,225.65,78.41z M206.24,78.41H94.05v138.22h112.19V78.41z" class="st1"/><rect data-cppathid="10004" height="31.02" width="31.02" class="st2" y="89.21" x="135.56"/><polygon data-cppathid="10005" points="145.17,102.24 145.17,103.73 154.15,115.24 179.56,90.14 178.72,89.52 154.69,110.93 " class="st3"/><rect data-cppathid="10006" height="31.02" width="31.02" class="st2" y="131.21" x="135.56"/><polygon data-cppathid="10007" points="145.17,144.24 145.17,145.73 154.15,157.24 179.56,132.14 178.72,131.52 154.69,152.93 " class="st3"/><rect data-cppathid="10008" height="31.02" width="31.02" class="st2" y="176.21" x="135.56"/><polygon data-cppathid="10009" points="145.17,189.24 145.17,190.73 154.15,202.24 179.56,177.14 178.72,176.52 154.69,197.93 " class="st3"/></svg>