<?xml version="1.0" encoding="UTF-8"?>
<svg xmlns="http://www.w3.org/2000/svg" onmouseup="{ if(window.parent.document.onmouseup) window.parent.document.onmouseup(arguments[0]);}" xml:space="preserve" style="enable-background:new 0 0 169.4 169.4;" viewBox="0 0 169.4 169.4" y="0px" x="0px" version="1.1" xmlns:xlink="http://www.w3.org/1999/xlink"><style type="text/css">
	.st0{fill:#39B54A;}
	.st1{enable-background:new    ;}
	.st2{fill:#262626;}
	.st3{display:none;}
	.st4{display:inline;}
	.st5{font-family:'ChaparralPro-Semibold';}
	.st6{font-size:27px;}
	.st7{fill:none;}
	.st8{font-family:'MyriadPro-BoldCond';}
	.st9{font-size:23px;}
</style><g id="Layer_1"><g><polygon data-cppathid="10000" points="6.48,84.7 26.32,79.03 7.99,69.64 28.56,67.89 12.44,55.15 32.97,57.4 19.66,41.8 39.35,47.97     29.39,30.1 47.49,39.94 41.25,20.5 57.05,33.63 54.77,13.37 67.67,29.29 69.44,8.97 78.95,27.07 84.7,7.49 90.45,27.07     99.96,8.97 101.73,29.29 114.63,13.37 112.35,33.63 128.15,20.5 121.91,39.94 140.01,30.1 130.05,47.97 149.73,41.8 136.43,57.4     156.96,55.15 140.83,67.89 161.41,69.64 143.07,79.03 162.91,84.7 143.07,90.37 161.41,99.77 140.83,101.51 156.96,114.25     136.43,112 149.73,127.59 130.05,121.43 140.01,139.3 121.91,129.46 128.15,148.9 112.35,135.77 114.63,156.03 101.73,140.11     99.96,160.43 90.45,142.33 84.7,161.91 78.95,142.33 69.44,160.43 67.67,140.11 54.77,156.03 57.05,135.77 41.25,148.9     47.49,129.46 29.39,139.3 39.35,121.43 19.66,127.59 32.97,112 12.44,114.25 28.56,101.51 7.99,99.77 26.32,90.37   " class="st0"/></g></g><g id="Layer_1_copy_2"><g><polygon data-cppathid="10001" points="6.48,84.7 26.32,79.03 7.99,69.64 28.56,67.89 12.44,55.15 32.97,57.4 19.66,41.8 39.35,47.97     29.39,30.1 47.49,39.94 41.25,20.5 57.05,33.63 54.77,13.37 67.67,29.29 69.44,8.97 78.95,27.07 84.7,7.49 90.45,27.07     99.96,8.97 101.73,29.29 114.63,13.37 112.35,33.63 128.15,20.5 121.91,39.94 140.01,30.1 130.05,47.97 149.73,41.8 136.43,57.4     156.96,55.15 140.83,67.89 161.41,69.64 143.07,79.03 162.91,84.7 143.07,90.37 161.41,99.77 140.83,101.51 156.96,114.25     136.43,112 149.73,127.59 130.05,121.43 140.01,139.3 121.91,129.46 128.15,148.9 112.35,135.77 114.63,156.03 101.73,140.11     99.96,160.43 90.45,142.33 84.7,161.91 78.95,142.33 69.44,160.43 67.67,140.11 54.77,156.03 57.05,135.77 41.25,148.9     47.49,129.46 29.39,139.3 39.35,121.43 19.66,127.59 32.97,112 12.44,114.25 28.56,101.51 7.99,99.77 26.32,90.37   " class="st0"/></g><g><g><path data-cppathid="10002" d="M56.51,76.62l-1.57,5.16h-3.43l5.83-18.19h4.24l5.91,18.19h-3.56l-1.65-5.16H56.51z M61.72,74.11l-1.43-4.48     c-0.35-1.11-0.65-2.35-0.92-3.4h-0.05c-0.27,1.05-0.54,2.32-0.86,3.4l-1.4,4.48H61.72z"/><path data-cppathid="10003" d="M80.21,73.7h-6.86v5.34h7.67v2.73H70.04V63.58h10.58v2.73h-7.26V71h6.86V73.7z"/><path data-cppathid="10004" d="M83.94,63.82c1.46-0.24,3.32-0.38,5.29-0.38c3.4,0,5.75,0.7,7.42,2.11c1.75,1.43,2.83,3.59,2.83,6.69     c0,3.24-1.11,5.67-2.83,7.23c-1.81,1.65-4.7,2.48-8.23,2.48c-1.94,0-3.4-0.11-4.48-0.24V63.82z M87.26,79.23     c0.46,0.08,1.16,0.08,1.84,0.08c4.32,0.03,6.88-2.35,6.88-6.96c0.03-4.02-2.29-6.32-6.45-6.32c-1.05,0-1.81,0.08-2.27,0.19V79.23     z"/><path data-cppathid="10005" d="M116.96,80.94c-1.16,0.43-3.43,1.03-5.86,1.03c-3.08,0-5.4-0.78-7.13-2.43c-1.62-1.54-2.56-3.94-2.54-6.69     c0-5.75,4.1-9.45,10.12-9.45c2.24,0,4,0.46,4.83,0.86l-0.73,2.67c-1-0.43-2.21-0.78-4.13-0.78c-3.89,0-6.61,2.29-6.61,6.53     c0,4.13,2.54,6.59,6.32,6.59c1.19,0,2.08-0.16,2.51-0.38v-4.53h-3.21v-2.62h6.42V80.94z"/></g><g class="st1"><path data-cppathid="10006" d="M49.04,92.48c0.85-0.18,2-0.3,3.15-0.3c1.79,0,3.2,0.25,4.21,1.2c0.92,0.8,1.33,2.09,1.33,3.4     c0,1.68-0.51,2.85-1.31,3.73c-0.97,1.01-2.53,1.47-3.77,1.47c-0.21,0-0.41,0-0.6,0v5.77h-3.01V92.48z M52.05,99.51     c0.14,0.05,0.3,0.05,0.48,0.05c1.52,0,2.21-1.08,2.21-2.53c0-1.36-0.55-2.41-1.95-2.41c-0.28,0-0.55,0.05-0.74,0.11V99.51z" class="st2"/><path data-cppathid="10007" d="M66.93,96.5c-0.05,1.01-0.12,2.21-0.12,3.56v6.42c0,2.41-0.44,3.75-1.36,4.62c-0.83,0.78-2,1.24-3.66,1.24     c-1.04,0-2-0.18-2.81-0.53l0.55-2.32c0.58,0.25,1.29,0.48,2.16,0.48c1.52,0,2.12-1.01,2.12-2.74v-0.69h-0.05     c-0.39,0.71-1.17,1.13-2.02,1.13c-2.53,0-3.52-2.76-3.52-5.45c0-3.75,1.7-5.91,3.79-5.91c0.9,0,1.63,0.46,2.07,1.31h0.05     l0.16-1.13H66.93z M63.82,100.6c0-0.3-0.05-0.6-0.12-0.83c-0.14-0.48-0.46-0.92-0.97-0.92c-1.08,0-1.52,1.47-1.52,3.31     c0,2.09,0.6,3.15,1.45,3.15c0.39,0,0.78-0.21,1.01-0.8c0.09-0.25,0.14-0.6,0.14-0.9V100.6z" class="st2"/><path data-cppathid="10008" d="M68.63,105.93c0-1.15,0.85-2,1.77-2c0.97,0,1.75,0.76,1.75,2c0,1.22-0.71,2-1.77,2     C69.44,107.93,68.63,107.15,68.63,105.93z" class="st2"/><path data-cppathid="10009" d="M77.09,107.75v-2.02l1.5-1.91c1.93-2.46,3.52-4.51,3.52-6.65c0-1.2-0.67-2.05-1.91-2.05     c-0.94,0-1.7,0.41-2.25,0.76l-0.53-2.35c0.69-0.44,1.98-0.92,3.33-0.92c3.27,0,4.32,2.18,4.32,4.32c0,2.81-1.75,5.06-3.47,7.06     l-0.9,1.06v0.05h4.58v2.64H77.09z" class="st2"/><path data-cppathid="10010" d="M94.5,95.05c-0.37,0.02-0.78,0.07-1.24,0.16c-1.98,0.44-2.97,2.09-3.33,3.98H90c0.53-0.71,1.31-1.2,2.3-1.2     c2.02,0,3.38,1.82,3.38,4.65c0,2.62-1.33,5.29-4.25,5.29c-2.83,0-4.55-2.46-4.55-6.16c0-3.27,1.08-5.5,2.46-6.97     c0.97-1.08,2.42-1.79,3.66-2.02c0.71-0.14,1.2-0.14,1.52-0.16V95.05z M92.71,102.62c-0.02-1.26-0.44-2.46-1.4-2.46     c-0.48,0-0.94,0.32-1.22,1.01c-0.09,0.16-0.16,0.62-0.16,1.31c0,1.95,0.55,3.26,1.45,3.26     C92.39,105.75,92.71,104.41,92.71,102.62z" class="st2"/><path data-cppathid="10011" d="M101.4,100.32v2.16h-4.58v-2.16H101.4z" class="st2"/><path data-cppathid="10012" d="M103.09,104.9c0.6,0.34,1.42,0.58,2.23,0.58c1.45,0,2.25-0.9,2.25-2.16c0-1.66-1.26-2.37-2.81-2.37h-0.41     v-2.21h0.3c1.1-0.02,2.53-0.48,2.53-1.93c0-1.08-0.69-1.72-1.75-1.72c-0.67,0-1.33,0.25-1.89,0.6l-0.39-2.28     c0.62-0.39,1.84-0.78,3.08-0.78c2.62,0,3.93,1.7,3.93,3.61c0,1.5-0.83,2.74-2.14,3.36v0.05c1.45,0.48,2.55,1.77,2.55,3.79     c0,2.28-1.75,4.51-4.99,4.51c-1.22,0-2.28-0.3-2.94-0.67L103.09,104.9z" class="st2"/><path data-cppathid="10013" d="M112.45,107.75v-2.02l1.5-1.91c1.93-2.46,3.52-4.51,3.52-6.65c0-1.2-0.67-2.05-1.91-2.05     c-0.94,0-1.7,0.41-2.25,0.76l-0.53-2.35c0.69-0.44,1.98-0.92,3.33-0.92c3.27,0,4.32,2.18,4.32,4.32c0,2.81-1.75,5.06-3.47,7.06     l-0.9,1.06v0.05h4.58v2.64H112.45z" class="st2"/></g></g></g><g class="st3" id="Layer_1_copy"><g class="st4"><polygon data-cppathid="10014" points="6.48,84.7 26.32,79.03 7.99,69.64 28.56,67.89 12.44,55.15 32.97,57.4 19.66,41.8 39.35,47.97     29.39,30.1 47.49,39.94 41.25,20.5 57.05,33.63 54.77,13.37 67.67,29.29 69.44,8.97 78.95,27.07 84.7,7.49 90.45,27.07     99.96,8.97 101.73,29.29 114.63,13.37 112.35,33.63 128.15,20.5 121.91,39.94 140.01,30.1 130.05,47.97 149.73,41.8 136.43,57.4     156.96,55.15 140.83,67.89 161.41,69.64 143.07,79.03 162.91,84.7 143.07,90.37 161.41,99.77 140.83,101.51 156.96,114.25     136.43,112 149.73,127.59 130.05,121.43 140.01,139.3 121.91,129.46 128.15,148.9 112.35,135.77 114.63,156.03 101.73,140.11     99.96,160.43 90.45,142.33 84.7,161.91 78.95,142.33 69.44,160.43 67.67,140.11 54.77,156.03 57.05,135.77 41.25,148.9     47.49,129.46 29.39,139.3 39.35,121.43 19.66,127.59 32.97,112 12.44,114.25 28.56,101.51 7.99,99.77 26.32,90.37   " class="st0"/></g><g class="st4"><text data-cppathid="10015" class="st5 st6" transform="matrix(1 0 0 1 50.0423 65.7722)">AEDG</text><rect data-cppathid="10016" height="50.32" width="74.93" class="st7" y="75.58" x="47.23"/><text data-cppathid="10017" class="st2 st8 st9" transform="matrix(1 0 0 1 52.7351 91.7468)">Pg. 1-7, </text><text data-cppathid="10018" class="st2 st8 st9" transform="matrix(1 0 0 1 76.2039 119.6403)">34</text></g></g></svg>