<?xml version="1.0" encoding="UTF-8"?>
<svg xmlns="http://www.w3.org/2000/svg" onmouseup="{ if(window.parent.document.onmouseup) window.parent.document.onmouseup(arguments[0]);}" xml:space="preserve" style="enable-background:new 0 0 300 300;" viewBox="0 0 300 300" y="0px" x="0px" id="Layer_1" version="1.1" xmlns:xlink="http://www.w3.org/1999/xlink"><style type="text/css">
	.st0{fill-rule:evenodd;clip-rule:evenodd;fill:#39B54A;}
</style><path data-cppathid="10000" d="M133.47,112.04l14.55,36.03l-6,2.42c-1.67,0.68-2.48,2.58-1.8,4.25l1.74,4.31c0.68,1.67,2.58,2.48,4.25,1.8  l6-2.42l3.03,7.51l-10.95,4.42c-1.91,0.77-2.84,2.95-2.07,4.86l1.39,3.44c0.77,1.91,2.95,2.84,4.86,2.07l10.95-4.42l0.02,0.05  l14.39-5.81l-26.21-64.89c8.83-7.54,12.29-20.14,7.71-31.49c-5.74-14.21-21.91-21.08-36.12-15.34  c-14.21,5.74-21.08,21.91-15.34,36.12C108.76,107.01,121.15,113.78,133.47,112.04z M121.63,64.8c2.89-1.17,6.17,0.23,7.34,3.11  c1.17,2.89-0.23,6.17-3.11,7.34c-2.89,1.17-6.17-0.23-7.34-3.11C117.35,69.25,118.75,65.97,121.63,64.8z" class="st0"/></svg>