<?xml version="1.0" encoding="UTF-8"?>
<svg xmlns="http://www.w3.org/2000/svg" onmouseup="{ if(window.parent.document.onmouseup) window.parent.document.onmouseup(arguments[0]);}" xml:space="preserve" style="enable-background:new 0 0 300 300;" viewBox="0 0 300 300" y="0px" x="0px" id="Layer_1" version="1.1" xmlns:xlink="http://www.w3.org/1999/xlink"><style type="text/css">
	.st0{fill:#39B54A;}
</style><g><polygon data-cppathid="10000" points="159.8,82.86 159.52,82.83 144.23,82.83 130.17,113.1 143.84,112.29 134.48,134.01 160.45,101.76    148.03,102.49  " class="st0"/><path data-cppathid="10001" d="M131.52,126.29c-5.41-4.09-8.91-10.58-8.91-17.89l0,0c0-8.36,4.59-15.63,11.36-19.48l0,0h0   c0.81-0.46,1.84-0.18,2.3,0.63l0,0c0.46,0.81,0.18,1.84-0.63,2.3l0,0c-5.76,3.29-9.65,9.45-9.65,16.55l0,0   c0,6.21,2.97,11.71,7.58,15.2l0,0c0.74,0.56,0.89,1.62,0.33,2.36l0,0c-0.33,0.44-0.83,0.67-1.34,0.67l0,0   C132.19,126.63,131.83,126.52,131.52,126.29L131.52,126.29z" class="st0"/><path data-cppathid="10002" d="M143.6,129.17c-0.01-0.93,0.74-1.69,1.67-1.71l0,0c10.44-0.11,18.87-8.6,18.87-19.07l0,0   c0-5.33-2.19-10.12-5.71-13.58l0,0c-0.66-0.65-0.67-1.72-0.02-2.38l0,0c0.65-0.67,1.72-0.67,2.38-0.02l0,0   c4.13,4.06,6.71,9.73,6.71,15.99l0,0c0,12.32-9.92,22.31-22.2,22.44l0,0c-0.01,0-0.01,0-0.02,0l0,0   C144.36,130.84,143.61,130.1,143.6,129.17L143.6,129.17z" class="st0"/></g></svg>