<?xml version="1.0" encoding="UTF-8"?>
<svg xmlns="http://www.w3.org/2000/svg" onmouseup="{ if(window.parent.document.onmouseup) window.parent.document.onmouseup(arguments[0]);}" xml:space="preserve" style="enable-background:new 0 0 300 300;" viewBox="0 0 300 300" y="0px" x="0px" id="Layer_1" version="1.1" xmlns:xlink="http://www.w3.org/1999/xlink"><style type="text/css">
	.st0{enable-background:new    ;}
	.st1{clip-path:url(#SVGID_2_);}
	.st2{fill:#39B54A;}
</style><g><g><g><g class="st0"><defs><polygon data-cppathid="10000" points="89.4,179.2 91.13,82.65 195.11,68.53 193.38,165.08      " class="st0" id="SVGID_1_"/></defs><clipPath id="SVGID_2_"><use style="overflow:visible;" xlink:href="#SVGID_1_"/></clipPath><g class="st1"><g><g><g><polyline data-cppathid="10001" points="150.75,110.96 112.33,116.18 112.08,130.12 131.29,127.51 130.79,155.38 150,152.77           150.75,110.96         " class="st2"/><polyline data-cppathid="10002" points="172.93,89.75 134.51,94.97 134.26,108.9 153.47,106.29 152.97,134.16 172.18,131.55           172.93,89.75         " class="st2"/><polyline data-cppathid="10003" points="195.11,68.53 156.68,73.75 156.43,87.68 175.65,85.07 175.15,112.94 194.36,110.33           195.11,68.53         " class="st2"/><polyline data-cppathid="10004" points="128.58,132.18 90.15,137.4 89.9,151.34 109.11,148.73 108.61,176.6 127.83,173.99           128.58,132.18         " class="st2"/></g></g></g></g></g></g></g></g></svg>