<?xml version="1.0" encoding="UTF-8"?>
<svg xmlns="http://www.w3.org/2000/svg" onmouseup="{ if(window.parent.document.onmouseup) window.parent.document.onmouseup(arguments[0]);}" xml:space="preserve" style="enable-background:new 0 0 169.4 169.4;" viewBox="0 0 169.4 169.4" y="0px" x="0px" version="1.1" xmlns:xlink="http://www.w3.org/1999/xlink"><style type="text/css">
	.st0{fill:#39B54A;}
	.st1{enable-background:new    ;}
	.st2{fill:#262626;}
	.st3{display:none;}
	.st4{display:inline;}
	.st5{font-family:'ChaparralPro-Semibold';}
	.st6{font-size:27px;}
	.st7{fill:none;}
	.st8{font-family:'MyriadPro-BoldCond';}
	.st9{font-size:23px;}
</style><g id="Layer_1"><g><polygon data-cppathid="10000" points="6.5,84.7 26.3,79 8,69.6 28.6,67.9 12.4,55.2 33,57.4 19.7,41.8 39.4,48 29.4,30.1 47.5,39.9     41.2,20.5 57,33.6 54.8,13.4 67.7,29.3 69.4,9 79,27.1 84.7,7.5 90.4,27.1 100,9 101.7,29.3 114.6,13.4 112.4,33.6 128.2,20.5     121.9,39.9 140,30.1 130,48 149.7,41.8 136.4,57.4 157,55.2 140.8,67.9 161.4,69.6 143.1,79 162.9,84.7 143.1,90.4 161.4,99.8     140.8,101.5 157,114.2 136.4,112 149.7,127.6 130,121.4 140,139.3 121.9,129.5 128.2,148.9 112.4,135.8 114.6,156 101.7,140.1     100,160.4 90.4,142.3 84.7,161.9 79,142.3 69.4,160.4 67.7,140.1 54.8,156 57,135.8 41.2,148.9 47.5,129.5 29.4,139.3 39.4,121.4     19.7,127.6 33,112 12.4,114.2 28.6,101.5 8,99.8 26.3,90.4   " class="st0"/></g></g><g id="Layer_1_copy_2"><g><polygon data-cppathid="10001" points="6.5,84.7 26.3,79 8,69.6 28.6,67.9 12.4,55.2 33,57.4 19.7,41.8 39.4,48 29.4,30.1 47.5,39.9     41.2,20.5 57,33.6 54.8,13.4 67.7,29.3 69.4,9 79,27.1 84.7,7.5 90.4,27.1 100,9 101.7,29.3 114.6,13.4 112.4,33.6 128.2,20.5     121.9,39.9 140,30.1 130,48 149.7,41.8 136.4,57.4 157,55.2 140.8,67.9 161.4,69.6 143.1,79 162.9,84.7 143.1,90.4 161.4,99.8     140.8,101.5 157,114.2 136.4,112 149.7,127.6 130,121.4 140,139.3 121.9,129.5 128.2,148.9 112.4,135.8 114.6,156 101.7,140.1     100,160.4 90.4,142.3 84.7,161.9 79,142.3 69.4,160.4 67.7,140.1 54.8,156 57,135.8 41.2,148.9 47.5,129.5 29.4,139.3 39.4,121.4     19.7,127.6 33,112 12.4,114.2 28.6,101.5 8,99.8 26.3,90.4   " class="st0"/></g><g><g><path data-cppathid="10002" d="M56.5,63.6l-1.6,5.2h-3.4l5.8-18.2h4.2l5.9,18.2h-3.6l-1.6-5.2H56.5z M61.7,61.1l-1.4-4.5c-0.4-1.1-0.6-2.3-0.9-3.4h-0.1     c-0.3,1.1-0.5,2.3-0.9,3.4L57,61.1H61.7z"/><path data-cppathid="10003" d="M80.2,60.7h-6.9V66H81v2.7H70V50.6h10.6v2.7h-7.3V58h6.9V60.7z"/><path data-cppathid="10004" d="M83.9,50.8c1.5-0.2,3.3-0.4,5.3-0.4c3.4,0,5.8,0.7,7.4,2.1c1.8,1.4,2.8,3.6,2.8,6.7c0,3.2-1.1,5.7-2.8,7.2     C94.8,68.1,92,69,88.4,69c-1.9,0-3.4-0.1-4.5-0.2V50.8z M87.3,66.2c0.5,0.1,1.2,0.1,1.8,0.1c4.3,0,6.9-2.3,6.9-7     c0-4-2.3-6.3-6.5-6.3c-1.1,0-1.8,0.1-2.3,0.2V66.2z"/><path data-cppathid="10005" d="M117,67.9c-1.2,0.4-3.4,1-5.9,1c-3.1,0-5.4-0.8-7.1-2.4c-1.6-1.5-2.6-3.9-2.5-6.7c0-5.8,4.1-9.4,10.1-9.4     c2.2,0,4,0.5,4.8,0.9l-0.7,2.7c-1-0.4-2.2-0.8-4.1-0.8c-3.9,0-6.6,2.3-6.6,6.5c0,4.1,2.5,6.6,6.3,6.6c1.2,0,2.1-0.2,2.5-0.4v-4.5     h-3.2v-2.6h6.4V67.9z"/></g><g class="st1"><path data-cppathid="10006" d="M55.2,94.5c-0.4,0.2-1.3,0.4-2.3,0.4c-4,0-5.8-3.3-5.8-7.7c0-5.8,3.2-8.1,6.3-8.1c1.1,0,1.8,0.2,2.1,0.4     l-0.5,2.5c-0.3-0.2-0.7-0.3-1.4-0.3c-1.7,0-3.2,1.5-3.2,5.3c0,3.7,1.4,5.2,3.2,5.2c0.5,0,1.1-0.1,1.4-0.2L55.2,94.5z" class="st2"/><path data-cppathid="10007" d="M56.7,78.8h3v5.8h0c0.3-0.4,0.6-0.7,1-1c0.4-0.3,1-0.4,1.5-0.4c2.1,0,2.9,1.7,2.9,4.6v6.8h-3v-6.8     c0-1.1-0.2-2.1-1.1-2.1c-0.5,0-0.9,0.3-1.2,1.1c0,0.2-0.1,0.6-0.1,0.9v7h-3V78.8z" class="st2"/><path data-cppathid="10008" d="M72.2,94.7l-0.2-1.1h0c-0.6,0.9-1.5,1.3-2.5,1.3c-1.7,0-3-1.4-3-3.4c0-2.9,2.6-4.2,5.2-4.2v-0.3     c0-0.9-0.5-1.5-1.6-1.5c-0.9,0-1.6,0.2-2.3,0.6l-0.6-2c0.6-0.4,1.9-0.9,3.5-0.9c3.4,0,4,2.4,4,4.7v4.2c0,0.9,0,1.8,0.2,2.6H72.2z      M71.8,89.3c-1,0-2.4,0.3-2.4,1.9c0,1.1,0.6,1.5,1.1,1.5c0.5,0,1-0.3,1.2-1c0-0.2,0.1-0.3,0.1-0.5V89.3z" class="st2"/><path data-cppathid="10009" d="M76.9,87.1c0-1.4,0-2.5-0.1-3.6h2.6l0.2,1.3h0c0.5-0.9,1.3-1.5,2.3-1.5c2.5,0,3.5,2.7,3.5,5.8     c0,4-1.8,5.8-3.7,5.8c-0.9,0-1.5-0.6-1.9-1.1h0v5.3h-3V87.1z M79.9,90.6c0,0.4,0,0.7,0.2,1c0.2,0.7,0.6,0.9,1,0.9     c1.1,0,1.4-1.6,1.4-3.3c0-2.1-0.5-3.3-1.4-3.3c-0.5,0-0.9,0.4-1,1c-0.1,0.2-0.1,0.5-0.1,0.8V90.6z" class="st2"/><path data-cppathid="10010" d="M90.7,80.5v3h2.2v2.1h-2.2v5.1c0,1.3,0.6,1.6,1.2,1.6c0.3,0,0.5,0,0.8-0.1l0,2.3c-0.4,0.1-1,0.2-1.8,0.2     c-0.9,0-1.6-0.2-2.2-0.7c-0.6-0.6-1-1.4-1-3.2v-5.3h-1.3v-2.1h1.3v-2.3L90.7,80.5z" class="st2"/><path data-cppathid="10011" d="M96.7,90.2c0,1.7,1.1,2.4,2.4,2.4c0.9,0,1.6-0.2,2.1-0.4l0.4,2.2c-0.8,0.3-2,0.5-3.1,0.5     c-3.1,0-4.7-2-4.7-5.5c0-3.8,2-6,4.5-6c2.4,0,3.8,1.9,3.8,5.3c0,0.8,0,1.2-0.1,1.6H96.7z M99.4,88.1c0-1.4-0.4-2.6-1.3-2.6     c-1,0-1.4,1.4-1.4,2.6H99.4z" class="st2"/><path data-cppathid="10012" d="M103.8,86.9c0-1.1,0-2.3-0.1-3.4h2.6l0.2,1.6h0.1c0.5-1.2,1.4-1.8,2.2-1.8c0.3,0,0.5,0,0.6,0v3     c-0.2,0-0.4,0-0.6,0c-0.6,0-1.5,0.4-1.8,1.6c-0.1,0.3-0.1,0.6-0.1,1.1v5.7h-3V86.9z" class="st2"/><path data-cppathid="10013" d="M114.2,91.9c0.6,0.3,1.4,0.6,2.2,0.6c1.4,0,2.3-0.9,2.3-2.2c0-1.7-1.3-2.4-2.8-2.4h-0.4v-2.2h0.3     c1.1,0,2.5-0.5,2.5-1.9c0-1.1-0.7-1.7-1.7-1.7c-0.7,0-1.3,0.3-1.9,0.6l-0.4-2.3c0.6-0.4,1.8-0.8,3.1-0.8c2.6,0,3.9,1.7,3.9,3.6     c0,1.5-0.8,2.7-2.1,3.4v0c1.4,0.5,2.6,1.8,2.6,3.8c0,2.3-1.7,4.5-5,4.5c-1.2,0-2.3-0.3-2.9-0.7L114.2,91.9z" class="st2"/><path data-cppathid="10014" d="M61.8,107.1c0.9-0.2,2-0.3,3.2-0.3c1.8,0,3.2,0.3,4.2,1.2c0.9,0.8,1.3,2.1,1.3,3.4c0,1.7-0.5,2.9-1.3,3.7     c-1,1-2.5,1.5-3.8,1.5c-0.2,0-0.4,0-0.6,0v5.8h-3V107.1z M64.8,114.1c0.1,0,0.3,0,0.5,0c1.5,0,2.2-1.1,2.2-2.5     c0-1.4-0.6-2.4-2-2.4c-0.3,0-0.6,0-0.7,0.1V114.1z" class="st2"/><path data-cppathid="10015" d="M79.7,111.1c0,1-0.1,2.2-0.1,3.6v6.4c0,2.4-0.4,3.7-1.4,4.6c-0.8,0.8-2,1.2-3.7,1.2c-1,0-2-0.2-2.8-0.5     l0.6-2.3c0.6,0.3,1.3,0.5,2.2,0.5c1.5,0,2.1-1,2.1-2.7v-0.7h0c-0.4,0.7-1.2,1.1-2,1.1c-2.5,0-3.5-2.8-3.5-5.4     c0-3.7,1.7-5.9,3.8-5.9c0.9,0,1.6,0.5,2.1,1.3h0l0.2-1.1H79.7z M76.6,115.2c0-0.3,0-0.6-0.1-0.8c-0.1-0.5-0.5-0.9-1-0.9     c-1.1,0-1.5,1.5-1.5,3.3c0,2.1,0.6,3.2,1.4,3.2c0.4,0,0.8-0.2,1-0.8c0.1-0.3,0.1-0.6,0.1-0.9V115.2z" class="st2"/><path data-cppathid="10016" d="M81.4,120.5c0-1.2,0.9-2,1.8-2c1,0,1.7,0.8,1.7,2c0,1.2-0.7,2-1.8,2C82.2,122.5,81.4,121.7,81.4,120.5z" class="st2"/><path data-cppathid="10017" d="M90.3,119.5c0.6,0.3,1.4,0.6,2.2,0.6c1.4,0,2.3-0.9,2.3-2.2c0-1.7-1.3-2.4-2.8-2.4h-0.4v-2.2h0.3     c1.1,0,2.5-0.5,2.5-1.9c0-1.1-0.7-1.7-1.7-1.7c-0.7,0-1.3,0.3-1.9,0.6l-0.4-2.3c0.6-0.4,1.8-0.8,3.1-0.8c2.6,0,3.9,1.7,3.9,3.6     c0,1.5-0.8,2.7-2.1,3.4v0c1.4,0.5,2.6,1.8,2.6,3.8c0,2.3-1.7,4.5-5,4.5c-1.2,0-2.3-0.3-2.9-0.7L90.3,119.5z" class="st2"/><path data-cppathid="10018" d="M104.5,122.3v-3.6h-5.1v-2.1l4.9-9.3h2.9v9h1.5v2.4h-1.5v3.6H104.5z M104.5,116.4v-3.1     c0-0.8,0.1-1.7,0.2-2.5h-0.1c-0.3,0.8-0.6,1.5-1,2.3l-1.6,3.2v0H104.5z" class="st2"/></g></g></g><g class="st3" id="Layer_1_copy"><g class="st4"><polygon data-cppathid="10019" points="6.5,84.7 26.3,79 8,69.6 28.6,67.9 12.4,55.2 33,57.4 19.7,41.8 39.4,48 29.4,30.1 47.5,39.9     41.2,20.5 57,33.6 54.8,13.4 67.7,29.3 69.4,9 79,27.1 84.7,7.5 90.4,27.1 100,9 101.7,29.3 114.6,13.4 112.4,33.6 128.2,20.5     121.9,39.9 140,30.1 130,48 149.7,41.8 136.4,57.4 157,55.2 140.8,67.9 161.4,69.6 143.1,79 162.9,84.7 143.1,90.4 161.4,99.8     140.8,101.5 157,114.2 136.4,112 149.7,127.6 130,121.4 140,139.3 121.9,129.5 128.2,148.9 112.4,135.8 114.6,156 101.7,140.1     100,160.4 90.4,142.3 84.7,161.9 79,142.3 69.4,160.4 67.7,140.1 54.8,156 57,135.8 41.2,148.9 47.5,129.5 29.4,139.3 39.4,121.4     19.7,127.6 33,112 12.4,114.2 28.6,101.5 8,99.8 26.3,90.4   " class="st0"/></g><g class="st4"><text data-cppathid="10020" class="st5 st6" transform="matrix(1 0 0 1 50.0423 65.7722)">AEDG</text><rect data-cppathid="10021" height="50.3" width="74.9" class="st7" y="75.6" x="47.2"/><text data-cppathid="10022" class="st2 st8 st9" transform="matrix(1 0 0 1 52.7351 91.7468)">Pg. 1-7, </text><text data-cppathid="10023" class="st2 st8 st9" transform="matrix(1 0 0 1 76.2039 119.6403)">34</text></g></g></svg>