<?xml version="1.0" encoding="UTF-8"?>
<svg xmlns="http://www.w3.org/2000/svg" onmouseup="{ if(window.parent.document.onmouseup) window.parent.document.onmouseup(arguments[0]);}" xml:space="preserve" style="enable-background:new 0 0 100 100;" viewBox="0 0 100 100" y="0px" x="0px" id="Layer_1" version="1.1" xmlns:xlink="http://www.w3.org/1999/xlink"><style type="text/css">
	.st0{fill:#39B54A;}
	.st1{enable-background:new    ;}
	.st2{fill:#262626;}
</style><g><polygon data-cppathid="10000" points="2.23,49.27 14.38,45.8 3.15,40.05 15.75,38.98 5.88,31.18 18.45,32.56 10.3,23.01 22.36,26.78    16.26,15.85 27.34,21.87 23.51,9.97 33.19,18.01 31.79,5.6 39.69,15.35 40.78,2.91 46.6,13.99 50.12,2 53.64,13.99 59.46,2.91    60.54,15.35 68.44,5.6 67.05,18.01 76.72,9.97 72.9,21.87 83.98,15.85 77.88,26.78 89.93,23.01 81.79,32.56 94.36,31.18    84.48,38.98 97.08,40.05 85.86,45.8 98,49.27 85.86,52.75 97.08,58.49 84.48,59.56 94.36,67.36 81.79,65.98 89.93,75.53    77.88,71.76 83.98,82.7 72.9,76.68 76.72,88.57 67.05,80.54 68.44,92.94 60.54,83.2 59.46,95.63 53.64,84.55 50.12,96.54    46.6,84.55 40.78,95.63 39.69,83.2 31.79,92.94 33.19,80.54 23.51,88.57 27.34,76.68 16.26,82.7 22.36,71.76 10.3,75.53    18.45,65.98 5.88,67.36 15.75,59.56 3.15,58.49 14.38,52.75  " class="st0"/></g><g><polygon data-cppathid="10001" points="2.23,49.27 14.38,45.8 3.15,40.05 15.75,38.98 5.88,31.18 18.45,32.56 10.3,23.01 22.36,26.78    16.26,15.85 27.34,21.87 23.51,9.97 33.19,18.01 31.79,5.6 39.69,15.35 40.78,2.91 46.6,13.99 50.12,2 53.64,13.99 59.46,2.91    60.54,15.35 68.44,5.6 67.05,18.01 76.72,9.97 72.9,21.87 83.98,15.85 77.88,26.78 89.93,23.01 81.79,32.56 94.36,31.18    84.48,38.98 97.08,40.05 85.86,45.8 98,49.27 85.86,52.75 97.08,58.49 84.48,59.56 94.36,67.36 81.79,65.98 89.93,75.53    77.88,71.76 83.98,82.7 72.9,76.68 76.72,88.57 67.05,80.54 68.44,92.94 60.54,83.2 59.46,95.63 53.64,84.55 50.12,96.54    46.6,84.55 40.78,95.63 39.69,83.2 31.79,92.94 33.19,80.54 23.51,88.57 27.34,76.68 16.26,82.7 22.36,71.76 10.3,75.53    18.45,65.98 5.88,67.36 15.75,59.56 3.15,58.49 14.38,52.75  " class="st0"/></g><g><g><path data-cppathid="10002" d="M32.86,38.2l-0.96,3.16h-2.1l3.57-11.14h2.59l3.62,11.14H37.4l-1.01-3.16H32.86z M36.05,36.66l-0.88-2.74    c-0.21-0.68-0.4-1.44-0.56-2.08h-0.03c-0.17,0.64-0.33,1.42-0.53,2.08l-0.86,2.74H36.05z"/><path data-cppathid="10003" d="M47.37,36.42h-4.2v3.27h4.69v1.67h-6.73V30.22h6.48v1.67h-4.45v2.88h4.2V36.42z"/><path data-cppathid="10004" d="M49.65,30.37c0.89-0.15,2.03-0.23,3.24-0.23c2.08,0,3.52,0.43,4.54,1.29c1.07,0.88,1.74,2.2,1.74,4.1    c0,1.98-0.68,3.47-1.74,4.43c-1.11,1.01-2.88,1.52-5.04,1.52c-1.19,0-2.08-0.07-2.74-0.15V30.37z M51.69,39.8    c0.28,0.05,0.71,0.05,1.12,0.05c2.64,0.02,4.21-1.44,4.21-4.26c0.02-2.46-1.4-3.87-3.95-3.87c-0.64,0-1.11,0.05-1.39,0.12V39.8z"/><path data-cppathid="10005" d="M69.87,40.84c-0.71,0.26-2.1,0.63-3.59,0.63c-1.88,0-3.3-0.48-4.36-1.49c-0.99-0.94-1.57-2.41-1.55-4.1    c0-3.52,2.51-5.78,6.2-5.78c1.37,0,2.45,0.28,2.96,0.53l-0.45,1.64c-0.61-0.26-1.36-0.48-2.53-0.48c-2.38,0-4.05,1.4-4.05,4    c0,2.53,1.55,4.03,3.87,4.03c0.73,0,1.27-0.1,1.54-0.23v-2.78h-1.97v-1.6h3.93V40.84z"/></g><g class="st1"><path data-cppathid="10006" d="M32.64,47.91c0.52-0.11,1.23-0.18,1.93-0.18c1.1,0,1.96,0.15,2.58,0.73c0.56,0.49,0.82,1.28,0.82,2.08    c0,1.03-0.31,1.75-0.8,2.28c-0.59,0.62-1.55,0.9-2.31,0.9c-0.13,0-0.25,0-0.37,0v3.54h-1.84V47.91z M34.49,52.22    c0.08,0.03,0.18,0.03,0.3,0.03c0.93,0,1.35-0.66,1.35-1.55c0-0.83-0.34-1.48-1.2-1.48c-0.17,0-0.34,0.03-0.45,0.07V52.22z" class="st2"/><path data-cppathid="10007" d="M43.6,50.37c-0.03,0.62-0.07,1.35-0.07,2.18v3.93c0,1.48-0.27,2.3-0.83,2.83c-0.51,0.48-1.23,0.76-2.24,0.76    c-0.63,0-1.23-0.11-1.72-0.32l0.34-1.42c0.35,0.16,0.79,0.3,1.32,0.3c0.93,0,1.3-0.62,1.3-1.68v-0.42h-0.03    c-0.24,0.44-0.72,0.69-1.24,0.69c-1.55,0-2.16-1.69-2.16-3.34c0-2.3,1.04-3.62,2.32-3.62c0.55,0,1,0.28,1.27,0.8h0.03l0.1-0.69    H43.6z M41.7,52.88c0-0.18-0.03-0.37-0.07-0.51c-0.08-0.3-0.28-0.56-0.59-0.56c-0.66,0-0.93,0.9-0.93,2.03    c0,1.28,0.37,1.93,0.89,1.93c0.24,0,0.48-0.13,0.62-0.49c0.06-0.16,0.08-0.37,0.08-0.55V52.88z" class="st2"/><path data-cppathid="10008" d="M44.64,56.15c0-0.7,0.52-1.23,1.08-1.23c0.59,0,1.07,0.46,1.07,1.23c0,0.75-0.44,1.22-1.08,1.22    C45.13,57.37,44.64,56.89,44.64,56.15z" class="st2"/><path data-cppathid="10009" d="M52,49.84h-0.03l-1.55,0.8l-0.31-1.45l2.1-1.08h1.62v9.15H52V49.84z" class="st2"/><path data-cppathid="10010" d="M58.71,52.71v1.32h-2.8v-1.32H58.71z" class="st2"/><path data-cppathid="10011" d="M64.66,48.11v1.21l-2.87,7.94h-1.8l2.82-7.51v-0.03h-3.13v-1.62H64.66z" class="st2"/><path data-cppathid="10012" d="M65.27,59.02c0.41-1.17,0.79-2.63,0.94-3.75l1.87-0.14c-0.42,1.27-1.01,2.75-1.63,3.76L65.27,59.02z" class="st2"/><path data-cppathid="10013" d="M44.72,72.41c0.37,0.21,0.87,0.35,1.37,0.35c0.89,0,1.38-0.55,1.38-1.32c0-1.01-0.77-1.45-1.72-1.45H45.5    v-1.35h0.18c0.68-0.01,1.55-0.3,1.55-1.18c0-0.66-0.42-1.06-1.07-1.06c-0.41,0-0.82,0.15-1.15,0.37l-0.24-1.39    c0.38-0.24,1.13-0.48,1.89-0.48c1.61,0,2.41,1.04,2.41,2.21c0,0.92-0.51,1.68-1.31,2.06v0.03c0.89,0.3,1.56,1.08,1.56,2.32    c0,1.39-1.07,2.76-3.06,2.76c-0.75,0-1.39-0.18-1.8-0.41L44.72,72.41z" class="st2"/><path data-cppathid="10014" d="M53.41,74.16v-2.18h-3.14v-1.27l3-5.7h1.77v5.49h0.92v1.48h-0.92v2.18H53.41z M53.41,70.5v-1.87    c0-0.49,0.06-1.03,0.1-1.51h-0.06c-0.21,0.51-0.39,0.92-0.63,1.42l-0.99,1.93v0.03H53.41z" class="st2"/></g></g></svg>