<?xml version="1.0" encoding="UTF-8"?>
<svg xmlns="http://www.w3.org/2000/svg" onmouseup="{ if(window.parent.document.onmouseup) window.parent.document.onmouseup(arguments[0]);}" viewBox="0 0 100 100" data-name="Layer 1" id="Layer_1"><defs><style>.cls-1{fill:#39b54a;}.cls-2{isolation:isolate;}.cls-3{fill:#262626;}</style></defs><title/><polygon data-cppathid="10000" points="2.23 49.27 14.38 45.8 3.15 40.05 15.75 38.98 5.88 31.18 18.45 32.56 10.3 23.01 22.36 26.78 16.26 15.85 27.34 21.87 23.52 9.97 33.19 18 31.79 5.6 39.69 15.35 40.78 2.91 46.6 13.99 50.12 2 53.64 13.99 59.46 2.91 60.54 15.35 68.44 5.6 67.05 18 76.72 9.97 72.9 21.87 83.98 15.85 77.88 26.78 89.93 23.01 81.79 32.56 94.36 31.18 84.48 38.98 97.08 40.05 85.86 45.8 98 49.27 85.86 52.74 97.08 58.49 84.48 59.56 94.36 67.36 81.79 65.98 89.93 75.53 77.88 71.76 83.98 82.7 72.9 76.68 76.72 88.57 67.05 80.54 68.44 92.94 60.54 83.2 59.46 95.63 53.64 84.55 50.12 96.54 46.6 84.55 40.78 95.63 39.69 83.2 31.79 92.94 33.19 80.54 23.52 88.57 27.34 76.68 16.26 82.7 22.36 71.76 10.3 75.53 18.45 65.98 5.88 67.36 15.75 59.56 3.15 58.49 14.38 52.74 2.23 49.27" class="cls-1"/><polygon data-cppathid="10001" points="2.23 49.27 14.38 45.8 3.15 40.05 15.75 38.98 5.88 31.18 18.45 32.56 10.3 23.01 22.36 26.78 16.26 15.85 27.34 21.87 23.52 9.97 33.19 18 31.79 5.6 39.69 15.35 40.78 2.91 46.6 13.99 50.12 2 53.64 13.99 59.46 2.91 60.54 15.35 68.44 5.6 67.05 18 76.72 9.97 72.9 21.87 83.98 15.85 77.88 26.78 89.93 23.01 81.79 32.56 94.36 31.18 84.48 38.98 97.08 40.05 85.86 45.8 98 49.27 85.86 52.74 97.08 58.49 84.48 59.56 94.36 67.36 81.79 65.98 89.93 75.53 77.88 71.76 83.98 82.7 72.9 76.68 76.72 88.57 67.05 80.54 68.44 92.94 60.54 83.2 59.46 95.63 53.64 84.55 50.12 96.54 46.6 84.55 40.78 95.63 39.69 83.2 31.79 92.94 33.19 80.54 23.52 88.57 27.34 76.68 16.26 82.7 22.36 71.76 10.3 75.53 18.45 65.98 5.88 67.36 15.75 59.56 3.15 58.49 14.38 52.74 2.23 49.27" class="cls-1"/><path data-cppathid="10002" d="M27.37,42.2l-1.25,4.14H23.36L28,31.73h3.41l4.74,14.61H33.33L32,42.2Zm4.18-2-1.14-3.59c-.29-.89-.52-1.89-.74-2.73h-.05c-.21.84-.43,1.86-.69,2.73l-1.12,3.59Z"/><path data-cppathid="10003" d="M46.4,39.86H40.9v4.29h6.15v2.19H38.23V31.73h8.49v2.19H40.9v3.77h5.5Z"/><path data-cppathid="10004" d="M49.39,31.93a26.31,26.31,0,0,1,4.25-.31c2.73,0,4.61.57,6,1.7a6.51,6.51,0,0,1,2.27,5.37A7.56,7.56,0,0,1,59.6,44.5c-1.45,1.32-3.77,2-6.61,2a28.7,28.7,0,0,1-3.6-.2ZM52.06,44.3a9.2,9.2,0,0,0,1.47.07c3.47,0,5.53-1.89,5.53-5.59,0-3.23-1.85-5.07-5.18-5.07a8.31,8.31,0,0,0-1.82.15Z"/><path data-cppathid="10005" d="M75.9,45.67a14.77,14.77,0,0,1-4.71.82,7.88,7.88,0,0,1-5.72-2,7.24,7.24,0,0,1-2-5.37c0-4.62,3.29-7.59,8.12-7.59a9.57,9.57,0,0,1,3.88.7l-.58,2.14a7.86,7.86,0,0,0-3.32-.63c-3.12,0-5.31,1.84-5.31,5.25s2,5.28,5.07,5.28a5.2,5.2,0,0,0,2-.3V40.38H70.74v-2.1H75.9Z"/><g class="cls-2"><path data-cppathid="10006" d="M31.63,54.93a12.49,12.49,0,0,1,2.53-.24,4.7,4.7,0,0,1,3.38,1,3.57,3.57,0,0,1,1.07,2.73,4.21,4.21,0,0,1-1,3,4.38,4.38,0,0,1-3,1.18h-.48v4.64H31.63Zm2.42,5.65a1.17,1.17,0,0,0,.39,0c1.21,0,1.77-.87,1.77-2s-.44-1.93-1.57-1.93a1.7,1.7,0,0,0-.59.09Z" class="cls-3"/><path data-cppathid="10007" d="M46,58.16c0,.81-.09,1.77-.09,2.86v5.15c0,1.94-.35,3-1.09,3.71a4,4,0,0,1-2.93,1,6,6,0,0,1-2.26-.42l.45-1.87A4.25,4.25,0,0,0,41.8,69c1.22,0,1.7-.81,1.7-2.2v-.55h0a1.82,1.82,0,0,1-1.62.9c-2,0-2.82-2.21-2.82-4.37,0-3,1.36-4.75,3-4.75a1.81,1.81,0,0,1,1.66,1.05h0l.13-.9ZM43.5,61.45a2.71,2.71,0,0,0-.09-.67.88.88,0,0,0-.78-.74c-.86,0-1.21,1.18-1.21,2.66,0,1.68.48,2.53,1.16,2.53a.85.85,0,0,0,.81-.65,2.3,2.3,0,0,0,.11-.71Z" class="cls-3"/><path data-cppathid="10008" d="M47.36,65.73a1.53,1.53,0,0,1,1.42-1.61,1.62,1.62,0,0,1,0,3.22A1.48,1.48,0,0,1,47.36,65.73Z" class="cls-3"/><path data-cppathid="10009" d="M54.5,64.9a3.75,3.75,0,0,0,1.8.46,1.65,1.65,0,0,0,1.81-1.74c0-1.32-1-1.9-2.26-1.9h-.33V60h.24c.89,0,2-.39,2-1.55A1.29,1.29,0,0,0,56.39,57a2.93,2.93,0,0,0-1.52.48l-.31-1.83A5,5,0,0,1,57,55a2.87,2.87,0,0,1,3.16,2.9,2.9,2.9,0,0,1-1.72,2.69v0a3,3,0,0,1,2.05,3,3.69,3.69,0,0,1-4,3.62,5.06,5.06,0,0,1-2.37-.54Z" class="cls-3"/><path data-cppathid="10010" d="M65.9,67.19V64.33H61.78V62.67l3.93-7.48H68v7.2h1.2v1.94H68v2.86Zm0-4.8V59.93c0-.64.07-1.35.13-2H66c-.28.66-.52,1.2-.83,1.86l-1.29,2.53v0Z" class="cls-3"/></g></svg>