<?xml version="1.0" encoding="UTF-8"?>
<svg xmlns="http://www.w3.org/2000/svg" onmouseup="{ if(window.parent.document.onmouseup) window.parent.document.onmouseup(arguments[0]);}" xml:space="preserve" style="enable-background:new 0 0 300 300;" viewBox="0 0 300 300" y="0px" x="0px" id="Layer_1" version="1.1" xmlns:xlink="http://www.w3.org/1999/xlink"><style type="text/css">
	.st0{fill:#39B54A;}
</style><title/><rect data-cppathid="10000" height="5.89" width="16.77" class="st0" y="60.67" x="131.31"/><path data-cppathid="10001" d="M125.2,87.72c-7.4,0.01-13.4,6.01-13.39,13.41c0.01,7.4,6.01,13.4,13.41,13.39c7.4-0.01,13.4-6.01,13.39-13.41  c0-7.4-5.99-13.39-13.39-13.39C125.21,87.72,125.21,87.72,125.2,87.72z" class="st0"/><rect data-cppathid="10002" height="5.89" width="16.77" class="st0" y="69.74" x="131.31"/><rect data-cppathid="10003" height="11.35" width="24.86" class="st0" y="139.38" x="174.76"/><path data-cppathid="10004" d="M110.94,72.05l-1.73,1.52c-1.01,0.95-1.63,2.25-1.74,3.63c0.18,1.31,1.37,2.24,2.69,2.1h13.2  c1.48,0,2.68-1.2,2.69-2.68v-0.34c-0.01-1.48-1.21-2.68-2.69-2.69H120c-1.48,0-2.68,0-2.68,0s0.55-0.48,1.23-1l1.24-1  c3-2.39,5.81-5.63,5.81-9.63c0-4.94-3.42-8.1-9.25-8.1c-2.18-0.01-4.34,0.41-6.35,1.24c-1.37,0.71-1.98,2.35-1.4,3.79  c0.45,1.18,1.77,1.77,2.94,1.32c0.11-0.04,0.22-0.09,0.33-0.16c0.94-0.43,1.96-0.66,3-0.68c2.54,0,3.74,1.27,3.74,3.09  C118.61,65,116,67.62,110.94,72.05z" class="st0"/><path data-cppathid="10005" d="M210.17,154.34V36h-166v118.34H41v9.52h50.71v20.36c0,0.45,0.05,0.91,0.14,1.35l0,0  c0.1,0.45,0.25,0.88,0.44,1.3c0.13,0.28,0.28,0.56,0.44,0.82l0.31,0.42c0.08,0.09,0.14,0.19,0.21,0.28l0,0  c2.27,2.72,6.31,3.09,9.03,0.82c0.3-0.25,0.57-0.52,0.82-0.82l0,0c0.23-0.27,0.43-0.56,0.62-0.86c0.02-0.05,0.04-0.09,0.07-0.13  c0.16-0.27,0.29-0.56,0.41-0.85c0.06-0.16,0.11-0.32,0.15-0.49c0.07-0.2,0.13-0.4,0.18-0.61c0.08-0.41,0.13-0.82,0.13-1.24v-20.35  h2.52v96.94c0,4.53,3.68,8.21,8.21,8.21c4.53,0,8.2-3.67,8.21-8.21v-68.2h3.1v68.2c0.16,4.53,3.96,8.08,8.49,7.92  c4.31-0.15,7.77-3.61,7.92-7.92v-93.32v-3.62H212v-9.52H210.17z M107.24,153.78h-2.52V140.5h2.52V153.78z M203.83,153.78h-60.57  l0.08-13.28v-5.71l27.2-17.79c1.67-1.06,2.85-2.74,3.27-4.67c0.36-1.44,0.29-2.96-0.21-4.36l-11.15-27.59  c-0.94-2.48-3.1-4.29-5.71-4.79c-3.11-0.54-6.23,0.96-7.74,3.73c-1.07,1.85-1.25,4.09-0.48,6.09l9,22.3l-17.23,11h-29.48  c-10.55,0-19.1,8.88-19.1,19.85v15.27H50.49V42.35h153.34L203.83,153.78z" class="st0"/><path data-cppathid="10006" d="M68.81,72.05l-1.73,1.53c-1.01,0.95-1.63,2.24-1.73,3.62c0.18,1.3,1.35,2.22,2.65,2.1h13.2  c1.48,0,2.68-1.2,2.69-2.68v-0.33c0-1.49-1.2-2.69-2.69-2.69c0,0,0,0,0,0h-3.34c-1.49,0-2.69,0-2.69,0s0.55-0.48,1.23-1l1.24-1  c3-2.4,5.82-5.63,5.82-9.64c0-4.93-3.43-8.1-9.25-8.1c-2.17,0-4.33,0.44-6.33,1.28c-1.35,0.73-1.95,2.35-1.4,3.79  c0.46,1.18,1.79,1.77,2.98,1.31c0.1-0.04,0.21-0.09,0.3-0.14c0.94-0.43,1.96-0.66,3-0.68c2.55,0,3.74,1.27,3.74,3.08  C76.48,65,73.9,67.62,68.81,72.05z" class="st0"/><rect data-cppathid="10007" height="6" width="15" class="st0" y="64" x="88"/><path data-cppathid="10008" d="M176.31,67.07c0,9.36-3.77,15.79-11.51,15.79s-11.28-7-11.32-15.61c0-8.76,3.73-15.7,11.55-15.7  C173.14,51.55,176.31,58.77,176.31,67.07z M160.61,67.25c-0.05,7,1.63,10.25,4.38,10.25s4.24-3.44,4.24-10.34  c0-6.71-1.45-10.25-4.29-10.25C162.33,56.91,160.56,60.22,160.61,67.25z" class="st0"/></svg>