<?xml version="1.0" encoding="UTF-8"?>
<svg xmlns="http://www.w3.org/2000/svg" onmouseup="{ if(window.parent.document.onmouseup) window.parent.document.onmouseup(arguments[0]);}" viewBox="0 0 300 300" id="presenting"><defs><style>.cls-1{opacity:0.82;}.cls-2{fill:#fff;}</style></defs><title/><g class="cls-1"><ellipse data-cppathid="10000" ry="18.8" rx="9.21" cy="145.47" cx="226.08" class="cls-2"/><path data-cppathid="10001" d="M242.5,145.47c-.09,8.77-1.13,17.71-4.42,25.91-1.94,4.86-5.79,12.61-12,12.61s-10.06-7.75-12-12.61c-3.26-8.16-4.41-17.17-4.41-25.91s1.15-17.74,4.41-25.91c2-4.86,5.8-12.61,12-12.61s10.06,7.75,12,12.61c3.29,8.2,4.33,17.14,4.42,25.91,0,3.22,5,3.22,5,0-.13-13.21-2.16-32.85-14.25-41.13-10.54-7.22-19.66,3.54-23.49,12.65-6.62,15.77-6.84,35.48-1.89,51.74,2.78,9.12,10.14,23.68,22.1,19.58,6-2.06,9.8-8.27,12.18-13.77,3.94-9.12,5.25-19.2,5.35-29.07C247.53,142.25,242.53,142.25,242.5,145.47Z" class="cls-2"/><path data-cppathid="10002" d="M40.09,162.76l28.57-33.91H41.12v-11H83.71v11l-28,33.91h29v11.46H40.09Z" class="cls-2"/><path data-cppathid="10003" d="M93.65,117.87h38.29v11.46H106.07v10.5h24.44V151.3H106.07v11.46h27.3v11.46H93.65Z" class="cls-2"/><path data-cppathid="10004" d="M143.32,117.87h21.81a38.4,38.4,0,0,1,8.16.83,19.44,19.44,0,0,1,6.76,2.79,13.86,13.86,0,0,1,4.62,5.25,17.8,17.8,0,0,1,1.71,8.24,16.61,16.61,0,0,1-3.1,10.15,14,14,0,0,1-9.08,5.29l14.33,23.8H173.64l-11.78-22.53h-6.12v22.53H143.32Zm12.42,23.32h7.32q1.66,0,3.54-.12a11,11,0,0,0,3.38-.72,5.84,5.84,0,0,0,2.51-1.87,5.71,5.71,0,0,0,1-3.58,6,6,0,0,0-.87-3.42,5.81,5.81,0,0,0-2.23-1.95,10,10,0,0,0-3.1-.92,25.27,25.27,0,0,0-3.43-.24h-8.11Z" class="cls-2"/><rect data-cppathid="10005" height="7.81" width="69.51" y="141.97" x="144.91" class="cls-2"/><polygon data-cppathid="10006" points="195.32 161.14 195.32 128 224.02 144.57 195.32 161.14" class="cls-2"/></g></svg>