<?xml version="1.0" encoding="UTF-8"?>
<svg xmlns="http://www.w3.org/2000/svg" onmouseup="{ if(window.parent.document.onmouseup) window.parent.document.onmouseup(arguments[0]);}" xml:space="preserve" style="enable-background:new 0 0 300 300;" viewBox="0 0 300 300" y="0px" x="0px" id="presenting" version="1.1" xmlns:xlink="http://www.w3.org/1999/xlink"><style type="text/css">
	.st0{fill:#3BB54A;}
</style><title/><g><path data-cppathid="10000" d="M262.73,153.54H250.3c0.69-1.66,0.78-3.52,0.23-5.25c-0.46-7.16-3.28-13.97-8-19.37   c-11.89-13.69-32.63-15.14-46.32-3.24c-7.18,6.24-11.3,15.28-11.29,24.79c-0.06,1.07,0.18,2.13,0.66,3.07h-40.27l-0.33-0.45h35.32   c0.26-1.44,0.4-2.9,0.41-4.36c0-15.94-14.49-28.86-32.36-28.86S116,132.79,116,148.73c0.01,1.5,0.16,3,0.44,4.48   c0.49-0.05,1-0.07,1.5-0.08c0.04,0.14,0.1,0.27,0.16,0.41h-10.45c0.76-0.28,1.47-0.71,2.08-1.28c1-1.17,1.51-2.68,1.42-4.22   c0-18.14-14.7-32.84-32.84-32.84c-9.5,0-18.53,4.11-24.77,11.28c-4.72,5.4-7.53,12.21-8,19.37c-0.62,1.95-0.43,4.06,0.53,5.87   c0.1,0.18,0.2,0.36,0.31,0.53c0.3,0.47,0.66,0.9,1.05,1.29H34.26L12,210.16h273L262.73,153.54z M222.32,147.98   c-0.41-1.13-1.21-2.09-2.26-2.68c-1.46-0.77-3.1-1.14-4.75-1.07h-15.03l3.72-9h2l-0.14,0.31l-2.81,6.78h12.27   c1.38-0.02,2.75,0.18,4.07,0.6c1.63,0.49,3.05,1.53,4,2.94c0.77,1.23,1.2,2.65,1.24,4.1l7.29-4l-3.5-9.53h2l3.82,10.39l-12.1,6.72   h-3.86l4.3-2.36v-0.06l0.16-0.68C222.74,149.6,222.6,148.77,222.32,147.98z M218.96,170.32l-12.7,7.36l-22.6-5.43l17.5-10.13   l12.41,3c0.16,0.52,0.36,1.03,0.62,1.51c0.16,0.28,0.34,0.55,0.53,0.81C215.76,168.86,217.26,169.88,218.96,170.32z M213.25,162.62   l-10.73-2.56l11.33-0.05C213.51,160.83,213.29,161.71,213.25,162.62z M76,152.28l-14.19-7.79l3.82-10.39h2l-3.5,9.53l7.29,4   c0.04-1.45,0.47-2.87,1.24-4.1c0.95-1.41,2.37-2.45,4-2.94c1.32-0.42,2.69-0.62,4.07-0.6H93l-2.82-6.77l-0.13-0.32h2l3.72,9H80.73   c-1.64-0.09-3.27,0.25-4.73,1c-1.05,0.59-1.85,1.55-2.26,2.68c-0.28,0.79-0.42,1.62-0.43,2.46l0.17,0.68v0.07l6.25,3.43l0.14,0.08   c0.62,0.34,1.18,0.77,1.7,1.24h-3.28L76,152.28z M43.39,160.82l16.47-0.08l6.21,3.43c0,0,7.7,4.44,7.84,4.54   c7.15,0.17,8.57-6.26,8.83-8.08l42.38-0.2l17.29,13.83c3.02,2.24,7.29,1.6,9.53-1.42c2.12-2.86,1.67-6.88-1.03-9.21l-4.13-3.3h0.48   l6.17,4.38l-3.19-4.39l49.84-0.24l-22.61,13.09l28.71,6.84l0.45,0.11l23.38-13.5l12.2-6.74l10.58-0.05L267.67,200L28.5,199.33   L43.39,160.82z" class="st0"/><path data-cppathid="10001" d="M148.93,117.7L148.93,117.7c8.6,0,15.57-6.97,15.57-15.56s-6.97-15.56-15.56-15.56s-15.56,6.97-15.56,15.56   v0.01C133.38,110.74,140.34,117.7,148.93,117.7z" class="st0"/><circle data-cppathid="10002" r="15.56" cy="98.61" cx="89.75" class="st0"/><path data-cppathid="10003" d="M206.28,116.63C206.28,116.63,206.29,116.63,206.28,116.63c8.6,0.02,15.58-6.94,15.6-15.53   c0-0.01,0-0.01,0-0.02h-0.03c0.01-8.59-6.96-15.56-15.55-15.57s-15.56,6.96-15.57,15.55C190.72,109.65,197.69,116.62,206.28,116.63   z" class="st0"/><polygon data-cppathid="10004" points="193.66,168.49 211.27,172.69 213.7,171.28 196.09,167.08  " class="st0"/><polygon data-cppathid="10005" points="188.66,171.4 206.27,175.61 208.7,174.19 191.09,170  " class="st0"/><path data-cppathid="10006" d="M212.52,167.49c-0.07-0.22-0.19-0.49-0.29-0.67h-0.03l-11.08-2.65l-2.43,1.41l15,3.58   C213.24,168.65,212.84,168.09,212.52,167.49z" class="st0"/></g></svg>