<?xml version="1.0" encoding="UTF-8"?>
<svg xmlns="http://www.w3.org/2000/svg" onmouseup="{ if(window.parent.document.onmouseup) window.parent.document.onmouseup(arguments[0]);}" xml:space="preserve" style="enable-background:new 0 0 300 300;" viewBox="0 0 300 300" y="0px" x="0px" id="Layer_1" version="1.1" xmlns:xlink="http://www.w3.org/1999/xlink"><style type="text/css">
	.st0{fill:#39B54A;}
	.st1{enable-background:new    ;}
	.st2{fill:#262626;}
</style><g><polygon data-cppathid="10000" points="71.86,150.1 91.7,144.43 73.37,135.04 93.94,133.29 77.82,120.55 98.35,122.8 85.04,107.2    104.73,113.37 94.77,95.5 112.87,105.34 106.63,85.91 122.43,99.03 120.15,78.77 133.05,94.69 134.82,74.38 144.33,92.47    150.08,72.89 155.83,92.47 165.34,74.38 167.11,94.69 180.01,78.77 177.73,99.03 193.53,85.91 187.29,105.34 205.39,95.5    195.43,113.37 215.11,107.2 201.81,122.8 222.34,120.55 206.21,133.29 226.79,135.04 208.45,144.43 228.29,150.1 208.45,155.78    226.79,165.17 206.21,166.91 222.34,179.65 201.81,177.4 215.11,192.99 195.43,186.84 205.39,204.7 187.29,194.86 193.53,214.3    177.73,201.17 180.01,221.43 167.11,205.51 165.34,225.83 155.83,207.73 150.08,227.31 144.33,207.73 134.82,225.83 133.05,205.51    120.15,221.43 122.43,201.17 106.63,214.3 112.87,194.86 94.77,204.7 104.73,186.84 85.04,192.99 98.35,177.4 77.82,179.65    93.94,166.91 73.37,165.17 91.7,155.78  " class="st0"/></g><g><g><path data-cppathid="10001" d="M121.89,142.02l-1.57,5.16h-3.43l5.83-18.19h4.24l5.91,18.19h-3.56l-1.65-5.16H121.89z M127.1,139.51l-1.43-4.48    c-0.35-1.11-0.65-2.35-0.92-3.4h-0.05c-0.27,1.05-0.54,2.32-0.86,3.4l-1.4,4.48H127.1z"/><path data-cppathid="10002" d="M145.59,139.1h-6.86v5.34h7.67v2.73h-10.99v-18.19H146v2.73h-7.26v4.7h6.86V139.1z"/><path data-cppathid="10003" d="M149.32,129.22c1.46-0.24,3.32-0.38,5.29-0.38c3.4,0,5.75,0.7,7.42,2.11c1.75,1.43,2.83,3.59,2.83,6.69    c0,3.24-1.11,5.67-2.83,7.23c-1.81,1.65-4.7,2.48-8.23,2.48c-1.94,0-3.4-0.11-4.48-0.24V129.22z M152.64,144.64    c0.46,0.08,1.16,0.08,1.84,0.08c4.32,0.03,6.88-2.35,6.88-6.96c0.03-4.02-2.29-6.32-6.45-6.32c-1.05,0-1.81,0.08-2.27,0.19V144.64    z"/><path data-cppathid="10004" d="M182.34,146.34c-1.16,0.43-3.43,1.03-5.86,1.03c-3.08,0-5.4-0.78-7.13-2.43c-1.62-1.54-2.56-3.94-2.54-6.69    c0-5.75,4.1-9.45,10.12-9.45c2.24,0,4,0.46,4.83,0.86l-0.73,2.67c-1-0.43-2.21-0.78-4.13-0.78c-3.89,0-6.61,2.29-6.61,6.53    c0,4.13,2.54,6.59,6.32,6.59c1.19,0,2.08-0.16,2.51-0.38v-4.53h-3.21v-2.62h6.42V146.34z"/></g><g class="st1"><path data-cppathid="10005" d="M114.42,157.88c0.85-0.18,2-0.3,3.15-0.3c1.79,0,3.2,0.25,4.21,1.2c0.92,0.8,1.33,2.09,1.33,3.4    c0,1.68-0.51,2.85-1.31,3.73c-0.97,1.01-2.53,1.47-3.77,1.47c-0.21,0-0.41,0-0.6,0v5.77h-3.01V157.88z M117.43,164.92    c0.14,0.05,0.3,0.05,0.48,0.05c1.52,0,2.21-1.08,2.21-2.53c0-1.36-0.55-2.41-1.95-2.41c-0.28,0-0.55,0.05-0.74,0.11V164.92z" class="st2"/><path data-cppathid="10006" d="M132.31,161.9c-0.05,1.01-0.12,2.21-0.12,3.56v6.42c0,2.41-0.44,3.75-1.36,4.62c-0.83,0.78-2,1.24-3.66,1.24    c-1.04,0-2-0.18-2.81-0.53l0.55-2.32c0.58,0.25,1.29,0.48,2.16,0.48c1.52,0,2.12-1.01,2.12-2.74v-0.69h-0.05    c-0.39,0.71-1.17,1.13-2.02,1.13c-2.53,0-3.52-2.76-3.52-5.45c0-3.75,1.7-5.91,3.79-5.91c0.9,0,1.63,0.46,2.07,1.31h0.05    l0.16-1.13H132.31z M129.2,166c0-0.3-0.05-0.6-0.12-0.83c-0.14-0.48-0.46-0.92-0.97-0.92c-1.08,0-1.52,1.47-1.52,3.31    c0,2.09,0.6,3.15,1.45,3.15c0.39,0,0.78-0.21,1.01-0.8c0.09-0.25,0.14-0.6,0.14-0.9V166z" class="st2"/><path data-cppathid="10007" d="M134.01,171.33c0-1.15,0.85-2,1.77-2c0.97,0,1.75,0.76,1.75,2c0,1.22-0.71,2-1.77,2    C134.82,173.33,134.01,172.55,134.01,171.33z" class="st2"/><path data-cppathid="10008" d="M142.91,170.3c0.6,0.34,1.42,0.58,2.23,0.58c1.45,0,2.25-0.9,2.25-2.16c0-1.66-1.26-2.37-2.81-2.37h-0.41    v-2.21h0.3c1.1-0.02,2.53-0.48,2.53-1.93c0-1.08-0.69-1.72-1.75-1.72c-0.67,0-1.33,0.25-1.89,0.6l-0.39-2.28    c0.62-0.39,1.84-0.78,3.08-0.78c2.62,0,3.93,1.7,3.93,3.61c0,1.5-0.83,2.74-2.14,3.36v0.05c1.45,0.48,2.55,1.77,2.55,3.79    c0,2.28-1.75,4.51-4.99,4.51c-1.22,0-2.28-0.3-2.94-0.67L142.91,170.3z" class="st2"/><path data-cppathid="10009" d="M152.27,173.15v-2.02l1.5-1.91c1.93-2.46,3.52-4.51,3.52-6.65c0-1.2-0.67-2.05-1.91-2.05    c-0.94,0-1.7,0.41-2.25,0.76l-0.53-2.35c0.69-0.44,1.98-0.92,3.33-0.92c3.27,0,4.32,2.18,4.32,4.32c0,2.81-1.75,5.06-3.47,7.06    l-0.9,1.06v0.05h4.58v2.64H152.27z" class="st2"/><path data-cppathid="10010" d="M166.78,165.72v2.16h-4.58v-2.16H166.78z" class="st2"/><path data-cppathid="10011" d="M168.46,170.3c0.6,0.34,1.42,0.58,2.23,0.58c1.45,0,2.25-0.9,2.25-2.16c0-1.66-1.26-2.37-2.81-2.37h-0.41    v-2.21h0.3c1.1-0.02,2.53-0.48,2.53-1.93c0-1.08-0.69-1.72-1.75-1.72c-0.67,0-1.33,0.25-1.89,0.6l-0.39-2.28    c0.62-0.39,1.84-0.78,3.08-0.78c2.62,0,3.93,1.7,3.93,3.61c0,1.5-0.83,2.74-2.14,3.36v0.05c1.45,0.48,2.55,1.77,2.55,3.79    c0,2.28-1.75,4.51-4.99,4.51c-1.22,0-2.28-0.3-2.94-0.67L168.46,170.3z" class="st2"/><path data-cppathid="10012" d="M177.73,169.26c0-1.86,1.04-3.2,2.25-3.98v-0.05c-1.27-0.83-1.84-2.12-1.84-3.29c0-2.44,1.93-3.93,4.23-3.93    c2.14,0,3.86,1.45,3.86,3.68c0,0.99-0.39,2.32-1.95,3.31v0.05c1.38,0.76,2.3,2.14,2.3,3.91c0,2.76-2.02,4.37-4.48,4.37    C179.55,173.33,177.73,171.7,177.73,169.26z M183.67,169.08c0-1.4-0.87-2.32-1.72-2.76c-0.76,0.53-1.29,1.45-1.29,2.6    c0,1.29,0.53,2.39,1.56,2.39C183.16,171.31,183.67,170.34,183.67,169.08z M180.98,161.86c0,1.06,0.6,1.79,1.47,2.25    c0.64-0.34,1.04-1.26,1.04-2.14c0-1.01-0.35-1.93-1.22-1.93C181.39,160.04,180.98,160.94,180.98,161.86z" class="st2"/></g></g></svg>