<?xml version="1.0" encoding="UTF-8"?>
<svg xmlns="http://www.w3.org/2000/svg" onmouseup="{ if(window.parent.document.onmouseup) window.parent.document.onmouseup(arguments[0]);}" xml:space="preserve" style="enable-background:new 0 0 300 300;" viewBox="0 0 300 300" y="0px" x="0px" id="Layer_1" version="1.1" xmlns:xlink="http://www.w3.org/1999/xlink"><style type="text/css">
	.st0{fill:#39B54A;}
</style><path data-cppathid="10000" d="M153.58,95.73L153.58,95.73L153.58,95.73c0,0,7,0.01,7-6.99l0,0l0-0.01c0-7-7-6.99-7-6.99v0v0  c0,0-7-0.01-7,6.99l0.01,0.01l-0.01,0C146.58,95.74,153.58,95.73,153.58,95.73z M204.74,130.49L204.74,130.49L204.74,130.49  c0.01,0,7,0.02,7-6.99l-0.01,0l0.01-0.01c0-7-6.99-6.99-6.99-6.99l0,0.01l0-0.01c0,0-6.99-0.01-6.99,6.99l0.01,0.01l-0.01,0  C197.75,130.51,204.74,130.49,204.74,130.49z M120.55,106v-0.01V106c0.01,0,7,0.01,7-7L127.54,99h0.01c0-7-6.99-6.99-6.99-6.99  l-0.01,0.01v-0.01c0,0-6.99-0.01-6.99,6.99h0.01l-0.01,0.01C113.56,106.01,120.55,106,120.55,106z M187.25,106v-0.01V106  c0.01,0,7,0.01,7-7L194.23,99h0.01c0-7-6.99-6.99-6.99-6.99l-0.01,0.01v-0.01c0,0-6.99-0.01-6.99,6.99h0.01l-0.01,0.01  C180.26,106.01,187.25,106,187.25,106z M103.05,130.49L103.05,130.49L103.05,130.49c0.01,0,7,0.02,7-6.99l-0.01,0l0.01-0.01  c0-7-6.99-6.99-6.99-6.99l0,0.01l0-0.01c0,0-6.99-0.01-6.99,6.99l0.01,0.01l-0.01,0C96.07,130.51,103.05,130.49,103.05,130.49z   M206.38,161.98c7,0,6.99-6.99,6.99-6.99l-0.04-0.01h0.04v-13.98l0,0c0-7.01-6.99-7-6.99-7l-0.01,0.03v-0.05h-3.51v0.01  c-0.02,0-6.98-0.01-6.98,6.98l-0.01,1.77v9.63l-7-10.5v-4.42l0.01,0.03c7.01,0,7-6.99,7-6.99l-0.04-0.02h0.03V116.5l0,0  c0-7.01-6.99-7-6.99-7l-0.01,0.04v-0.05h-3.5v0.01c-0.01,0-6.98,0-6.98,6.99l-0.01,1.77v7.87l-1.77-2.64l0,0  c0-1.93-1.57-3.5-3.5-3.5l0,0H169l-2.82-16.52l0,0c-1.75-3.84-5.24-2.89-6.19-2.55c-2.05-1.7-4.76-1.69-4.76-1.69l-0.01,0.03v-0.05  h-3.5v0.01c-0.02,0-2.69,0.01-4.73,1.68c-1.02-0.36-4.42-1.22-6.14,2.56h0.01l-2.83,16.52h-3.38l0,0c-1.93,0-3.49,1.57-3.49,3.5l0,0  l-1.74,2.59v-7.82l-0.01-1.77c0-6.99-6.96-6.99-6.99-6.99v-0.01h-3.49v0.05l-0.01-0.04c0,0-6.99-0.01-6.99,7l0,0v13.98h0.04  l-0.04,0.02c0,0-0.01,6.99,6.99,6.99l0.01-0.03v3.97c-0.04-0.11-0.05,0.03-0.05,0.47l-6.95,10.41v-9.57l-0.01-1.77  c0-6.99-6.96-6.98-6.98-6.98v-0.01h-3.51v0.05l-0.01-0.03c0,0-6.99-0.01-6.99,7l0,0v13.98h0.04l-0.04,0.01c0,0-0.01,6.99,6.99,6.99  l0.01-0.03v6.12l-5.27,7.9h0.01c0,1.93,1.57,3.5,3.5,3.5v0h34.3l-0.26,1.52c-0.51,1.48,0.13,3.14,1.59,3.8  c1.54,0.7,3.35,0.03,4.06-1.5l0.03,0.02l0.64-3.84h2.4v0.05h0.07l-0.05,0.02c0,0,0.07,5.43,4.4,7.74v11.93h-0.01v13.75  c0.32,3.38,3.07,6.05,6.54,6.05c3.64,0,6.58-2.95,6.63-6.58h0.07v-10.87l0,0v-14.27c4.35-2.3,4.41-7.75,4.41-7.75l-0.05-0.02h0.04  v-0.05H167l0.64,3.84l0.03-0.02c0.7,1.53,2.52,2.2,4.06,1.5c1.46-0.66,2.1-2.32,1.59-3.8l-0.26-1.52h35.04v0  c1.94,0,3.5-1.57,3.5-3.5h0l-5.23-7.85v-6.16L206.38,161.98z M162.21,108.25l1.97,11.73h-1.97V108.25z M144.72,108.87v11.12h-1.88  L144.72,108.87z M142.42,175.96h-1.81l1.81-10.74V175.96z M164.47,175.96v-11.51l1.94,11.51H164.47z M172.48,175.96l-3.01-17.54l0,0  c-2.2-4.84-6.6-3.65-7.8-3.21c-2.58-2.14-6.01-2.13-6.01-2.13l-0.01,0.03v-0.05h-4.41v0.02c-0.02,0-3.39,0-5.96,2.11  c-1.28-0.46-5.57-1.54-7.74,3.23h0.01l-3,17.54h-31.4l15.81-26.87l15.68-26.65h38.48l31.49,53.52H172.48z M153.6,131.05l-0.01,0.01  v-0.01c0,0-8.81-0.02-8.81,8.8l0.01,0l-0.01,0.01c0,8.83,8.81,8.81,8.81,8.81v-0.01l0.01,0.01c0,0,8.8,0.01,8.8-8.81v-0.01v0  C162.4,131.03,153.6,131.05,153.6,131.05z" class="st0"/></svg>