<?xml version="1.0" encoding="UTF-8"?>
<svg xmlns="http://www.w3.org/2000/svg" onmouseup="{ if(window.parent.document.onmouseup) window.parent.document.onmouseup(arguments[0]);}" xml:space="preserve" style="enable-background:new 0 0 300 300;" viewBox="0 0 300 300" y="0px" x="0px" id="Layer_1" version="1.1" xmlns:xlink="http://www.w3.org/1999/xlink"><style type="text/css">
	.st0{fill:#39B54A;}
</style><g><path data-cppathid="10000" d="M166.65,111.83c0-8.11-6.55-14.63-14.64-14.63c-8.09,0-14.64,6.52-14.64,14.63c0,8.12,6.55,14.64,14.64,14.64   C160.1,126.47,166.65,119.95,166.65,111.83z M191.88,102.33c1.67-2.67,0.85-6.18-1.82-7.84c-2.67-1.66-6.17-0.85-7.84,1.82   l-22.21,35.62c-2.13-0.84-4.83-1.34-8-1.34c-3.17,0-5.87,0.5-8,1.34L121.8,96.31c-1.66-2.67-5.18-3.48-7.84-1.82   c-2.67,1.67-3.48,5.18-1.82,7.84l26.58,42.63v16.16l-10.71,40.1c-1.21,4.53,1.48,9.17,6,10.38c4.52,1.21,9.17-1.48,10.37-6.01   l7.62-28.58l7.62,28.58c1.21,4.52,5.85,7.21,10.37,6.01c4.52-1.21,7.21-5.85,6-10.38l-10.71-40.04v-16.22L191.88,102.33z    M194.46,87.1l-96.77,0L66.03,75.47l31.66-11.63l96.77,0l0,0c0,0,15.02,0,17.02,0c2.47,0,3.25,0.21,3.65,2.34   c0.57,2.97,0.87,6.07,0.87,9.29c0,3.21-0.31,6.32-0.87,9.28c-0.4,2.13-1.19,2.35-3.65,2.35C209.48,87.1,194.46,87.1,194.46,87.1   C194.46,87.1,194.46,87.1,194.46,87.1z M75.91,75.47c6.97,0,15.94,0,21.16,0v0c0-3.03-0.37-6.01-0.92-8.93   c-2.64,0.96-13.03,4.79-20.27,7.45C75.89,74.48,75.91,74.97,75.91,75.47z M178.44,79.43c2.48,0,4.48-2.01,4.48-4.48l0,0   c0-2.47-2.01-4.48-4.48-4.48h-7.49c-2.48,0-4.48,2.01-4.48,4.48l0,0c0,2.48,2.01,4.48,4.48,4.48H178.44z M204.11,65.84l-5.34,0   V85.1c1.97,0,3.77,0,5.34,0V65.84z" class="st0"/></g></svg>