<?xml version="1.0" encoding="UTF-8"?>
<svg xmlns="http://www.w3.org/2000/svg" onmouseup="{ if(window.parent.document.onmouseup) window.parent.document.onmouseup(arguments[0]);}" xml:space="preserve" style="enable-background:new 0 0 110 153;" viewBox="0 0 110 153" y="0px" x="0px" id="Layer_1" version="1.1" xmlns:xlink="http://www.w3.org/1999/xlink"><style type="text/css">
	.st0{fill:#39B54A;}
</style><path data-cppathid="10000" d="M54.98,137.64c-6.72,0-11.15-5.85-11.47-13.18H22.73c-6.64,0-12.03-5.39-12.03-12.03v-2.97h12.04l-0.01,2.97  h21.46c0.81-8.1,2.04-15.86,2.04-26.53c0-12-15.09-12.52-15.21-29.26c-0.12-16.33,15.21-20.97,15.21-20.97v20.97l8.87,5.47  l8.87-5.47V35.67c0,0,15.76,3.08,15.7,20.97c-0.05,17.07-15.7,16.82-15.7,29.26c0,10.82,1.23,18.49,2.04,26.53h21.96V26.78H22.99  l-0.01,86.36H10.71V26.78c0-6.64,5.38-12.02,12.03-12.02h65.24c6.64,0,12.03,5.39,12.03,12.02v85.65c0,6.64-5.38,12.03-12.03,12.03  H66.69C66.25,131.37,61.04,137.64,54.98,137.64L54.98,137.64z" class="st0"/></svg>