<?xml version="1.0" encoding="UTF-8"?>
<svg xmlns="http://www.w3.org/2000/svg" onmouseup="{ if(window.parent.document.onmouseup) window.parent.document.onmouseup(arguments[0]);}" xml:space="preserve" style="enable-background:new 0 0 300 300;" viewBox="0 0 300 300" y="0px" x="0px" id="Layer_1" version="1.1" xmlns:xlink="http://www.w3.org/1999/xlink"><style type="text/css">
	.st0{fill:#39B54A;}
</style><g><path data-cppathid="10000" d="M262.06,69.89l0.01-0.03l0.01,0.03c0,0,20.43,0.04,20.43-20.43l-0.03-0.01l0.03-0.01   c0-20.47-20.43-20.43-20.43-20.43l-0.01,0.03L262.06,29c0,0-20.43-0.04-20.43,20.43l0.03,0.01l-0.03,0.01   C241.63,69.93,262.06,69.89,262.06,69.89z" class="st0"/><path data-cppathid="10001" d="M287.69,138.06h0.1V97.17h0.01c0-20.47-20.43-20.43-20.43-20.43l-0.03,0.09V76.7h-10.23v0.04   c-0.05,0-20.39-0.01-20.42,20.41h-0.03v14.21h-25.61V56.24h-0.01c0-5.64-4.58-10.21-10.22-10.21v-0.01H21.23v0.01   c-5.64,0-10.21,4.57-10.21,10.21H11v122.72h0.01c0,5.64,4.57,10.22,10.21,10.22v0.01h179.6v-0.01c5.64,0,10.22-4.58,10.22-10.22   h0.01v-47.14h25.61l9.12,32.9v27.44h-0.01v66.7c0.73,7.83,7.11,14.04,15.16,14.04c8.45,0,15.28-6.83,15.37-15.26h0.14v-49.78h0.01   V166.9l0.03,0.09c13.91,0.45,11.33-28.89,11.33-28.89L287.69,138.06z M190.6,111.37h-0.89c-5.22,0.5-9.35,4.76-9.35,10.11   c0,5.63,4.54,10.18,10.15,10.26v0.08h0.09v47.14H31.45V56.24H190.6V111.37z" class="st0"/></g><g><g><path data-cppathid="10002" d="M170.94,131.54l-2.34-1.35l1.42-2.46c0.11-0.19,0.16-0.4,0.16-0.61c0-0.42-0.21-0.82-0.61-1.04    c-0.2-0.11-0.39-0.17-0.6-0.17c-0.42,0-0.83,0.22-1.05,0.61l-1.42,2.46l-1.46-0.84l2.79-4.83c0.11-0.19,0.16-0.4,0.16-0.6    c0-0.42-0.22-0.83-0.61-1.05c-0.19-0.11-0.4-0.16-0.6-0.16c-0.42,0-0.83,0.22-1.05,0.6l-2.79,4.83l-5.01-2.89l0.64-1.11    c0.11-0.19,0.16-0.39,0.16-0.59c0-0.41-0.21-0.81-0.58-1.02c-0.18-0.11-0.39-0.16-0.59-0.16c-0.4,0-0.8,0.21-1.02,0.59l-0.64,1.11    l-6.16-3.56l-0.23-0.87l0.15-0.15c0.23-0.23,0.35-0.55,0.35-0.86c0-0.31-0.12-0.62-0.35-0.86c-0.15-0.15-0.33-0.25-0.52-0.3    c0.14-0.06,0.26-0.14,0.37-0.25c0.24-0.24,0.36-0.55,0.36-0.86c0-0.27-0.09-0.55-0.28-0.77v-0.01l-0.2-0.2l0.23-0.83l6.27-3.63    l0.67,1.16c0.21,0.38,0.61,0.58,1.02,0.58c0.19,0,0.4-0.05,0.58-0.16c0.38-0.21,0.59-0.61,0.59-1.02c0-0.2-0.05-0.4-0.16-0.58    l-0.67-1.16l5.01-2.89l2.85,4.94c0.23,0.39,0.63,0.61,1.05,0.61c0.21,0,0.41-0.05,0.6-0.16c0.39-0.23,0.6-0.64,0.6-1.05    c0-0.21-0.05-0.42-0.16-0.61l-2.85-4.94l1.46-0.84l1.52,2.64c0.23,0.39,0.63,0.61,1.05,0.61c0.21,0,0.41-0.06,0.61-0.17    c0.39-0.23,0.61-0.64,0.61-1.05c0-0.21-0.06-0.41-0.16-0.6l-1.52-2.64l2.34-1.35c0.34-0.2,1.31-0.89,2.17-1.62    c0.43-0.36,0.84-0.74,1.11-1.07c0.21-0.26,0.38-0.49,0.39-0.75c0-0.07-0.02-0.13-0.05-0.2c-0.14-0.22-0.39-0.27-0.65-0.27    c-0.11,0-0.23,0.01-0.36,0.02c-1.33,0.15-3.58,0.98-4.11,1.28l-2.34,1.35l-1.42-2.46c-0.22-0.39-0.63-0.61-1.05-0.61    c-0.2,0-0.42,0.05-0.61,0.16c-0.39,0.23-0.6,0.63-0.6,1.05c0,0.2,0.06,0.41,0.16,0.6l1.42,2.46l-1.45,0.84l-2.79-4.83    c-0.23-0.39-0.63-0.61-1.05-0.61c-0.2,0-0.41,0.06-0.6,0.16c-0.39,0.23-0.6,0.63-0.6,1.05c0,0.21,0.05,0.42,0.16,0.61l2.78,4.82    l-5,2.89l-0.64-1.11c-0.22-0.38-0.61-0.59-1.02-0.59c-0.2,0-0.4,0.05-0.59,0.16c-0.37,0.22-0.59,0.61-0.59,1.02    c0,0.19,0.05,0.4,0.16,0.59l0.64,1.11l-6.16,3.55l-0.87-0.23l-0.05-0.21c-0.09-0.32-0.3-0.58-0.57-0.73    c-0.18-0.1-0.39-0.16-0.61-0.16c-0.1,0-0.21,0.01-0.31,0.04c-0.21,0.05-0.38,0.16-0.52,0.3c0-0.05,0.01-0.09,0.01-0.14    c0-0.11-0.01-0.21-0.04-0.31c-0.08-0.32-0.3-0.59-0.56-0.74c-0.18-0.1-0.39-0.16-0.61-0.16c-0.07,0-0.14,0.01-0.21,0.02v0    l-0.27,0.07l-0.61-0.61v-7.25h1.33c0.65,0,1.17-0.53,1.17-1.17c0-0.65-0.52-1.17-1.17-1.17h-1.33v-5.78h5.7    c0.67,0,1.21-0.54,1.21-1.21c0-0.67-0.54-1.21-1.21-1.21h-5.7v-1.68h3.05c0.67,0,1.21-0.54,1.21-1.22c0-0.66-0.54-1.21-1.21-1.21    h-3.05v-2.7c0-0.39-0.11-1.57-0.31-2.68c-0.1-0.55-0.23-1.09-0.38-1.5c-0.15-0.39-0.3-0.73-0.66-0.76    c-0.36,0.03-0.52,0.36-0.71,0.75c-0.53,1.22-0.94,3.6-0.95,4.19v2.7h-2.84c-0.67,0-1.21,0.55-1.21,1.21    c0,0.67,0.54,1.22,1.21,1.22h2.84V90h-5.57c-0.67,0-1.21,0.54-1.21,1.21c0,0.67,0.54,1.21,1.21,1.21h5.57v5.78h-1.28    c-0.65,0-1.18,0.52-1.18,1.17c0,0.65,0.53,1.17,1.18,1.17h1.28v7.12l-0.64,0.63l-0.2-0.05c-0.11-0.03-0.21-0.04-0.32-0.04    c-0.21,0-0.42,0.06-0.6,0.16c-0.27,0.15-0.48,0.41-0.56,0.74c-0.03,0.11-0.04,0.21-0.04,0.31c0,0.09,0.01,0.19,0.03,0.28    c-0.12-0.09-0.25-0.16-0.41-0.2c-0.1-0.03-0.21-0.04-0.31-0.04c-0.21,0-0.43,0.05-0.6,0.17c-0.24,0.13-0.43,0.35-0.54,0.63h0    l-0.07,0.27l-0.83,0.22l-6.28-3.62l0.67-1.15c0.1-0.19,0.16-0.39,0.16-0.59c0-0.41-0.21-0.81-0.59-1.02    c-0.18-0.11-0.39-0.16-0.59-0.16c-0.4,0-0.8,0.21-1.01,0.58l-0.67,1.15l-5.01-2.89l2.85-4.94c0.11-0.19,0.17-0.4,0.17-0.61    c0-0.42-0.22-0.83-0.61-1.04c-0.19-0.12-0.4-0.17-0.6-0.17c-0.42,0-0.83,0.22-1.06,0.61l-2.85,4.94l-1.45-0.84l1.53-2.64    c0.11-0.19,0.16-0.4,0.16-0.6c0-0.42-0.22-0.83-0.61-1.05c-0.19-0.11-0.4-0.16-0.61-0.16c-0.42,0-0.83,0.22-1.05,0.61l-1.52,2.64    l-2.34-1.35c-0.33-0.2-1.41-0.69-2.48-1.08c-0.53-0.19-1.06-0.35-1.49-0.42c-0.16-0.02-0.31-0.04-0.44-0.04    c-0.22,0-0.42,0.05-0.54,0.23c-0.04,0.08-0.06,0.15-0.06,0.22c0.01,0.25,0.17,0.49,0.36,0.77c0.78,1.07,2.64,2.62,3.15,2.92    l2.34,1.35l-1.42,2.46c-0.11,0.19-0.17,0.4-0.17,0.61c0,0.42,0.22,0.82,0.61,1.05c0.19,0.12,0.4,0.16,0.61,0.16    c0.41,0,0.82-0.22,1.05-0.6l1.42-2.46l1.45,0.84l-2.78,4.83c-0.11,0.19-0.17,0.4-0.17,0.61c0,0.42,0.22,0.83,0.61,1.05    c0.19,0.11,0.4,0.16,0.61,0.16c0.42,0,0.82-0.22,1.05-0.61l2.78-4.83l5.01,2.89l-0.64,1.12c-0.1,0.19-0.15,0.39-0.15,0.58    c0,0.41,0.21,0.8,0.59,1.02c0.19,0.11,0.39,0.16,0.59,0.16c0.41,0,0.81-0.21,1.02-0.59l0.65-1.11l6.16,3.56l0.23,0.87l-0.15,0.15    c-0.24,0.23-0.35,0.55-0.35,0.85c0,0.31,0.12,0.62,0.35,0.86c0.15,0.15,0.33,0.25,0.52,0.3c-0.14,0.06-0.27,0.14-0.38,0.25    c-0.24,0.24-0.35,0.54-0.35,0.86c0,0.27,0.09,0.55,0.28,0.77l0,0.01l0.2,0.2l-0.22,0.83l-6.28,3.63l-0.67-1.15    c-0.22-0.38-0.61-0.59-1.02-0.59c-0.2,0-0.4,0.05-0.59,0.16c-0.37,0.22-0.59,0.61-0.59,1.02c0,0.19,0.06,0.4,0.17,0.58l0.66,1.16    l-5.01,2.89l-2.85-4.94c-0.23-0.39-0.63-0.61-1.05-0.61c-0.2,0-0.41,0.06-0.6,0.17c-0.39,0.22-0.61,0.63-0.61,1.05    c0,0.21,0.05,0.42,0.16,0.61l2.85,4.93l-1.45,0.84l-1.52-2.64c-0.22-0.39-0.63-0.61-1.05-0.61c-0.2,0-0.41,0.06-0.6,0.16    c-0.39,0.23-0.6,0.64-0.6,1.05c0,0.21,0.05,0.41,0.16,0.6l1.52,2.63l-2.34,1.35c-0.33,0.19-1.3,0.88-2.17,1.62    c-0.43,0.36-0.83,0.73-1.1,1.07c-0.21,0.26-0.38,0.49-0.38,0.75c0,0.06,0.01,0.13,0.05,0.21c0.14,0.21,0.38,0.25,0.65,0.25    c0.11,0,0.23-0.01,0.35-0.01c1.33-0.15,3.59-0.98,4.11-1.28l2.34-1.35l1.42,2.46c0.22,0.4,0.63,0.61,1.05,0.61    c0.2,0,0.41-0.05,0.6-0.16c0.39-0.23,0.61-0.63,0.61-1.05c0-0.2-0.05-0.41-0.16-0.6l-1.42-2.46l1.45-0.84l2.79,4.83    c0.23,0.39,0.63,0.61,1.05,0.6c0,0,0,0,0,0c0.21,0,0.41-0.05,0.6-0.16c0.39-0.23,0.61-0.63,0.61-1.05c0-0.21-0.05-0.42-0.16-0.61    l-2.79-4.83l5.01-2.89l0.64,1.11c0.22,0.38,0.61,0.59,1.02,0.59c0.2,0,0.4-0.05,0.58-0.16c0.38-0.22,0.59-0.62,0.59-1.02    c0-0.2-0.05-0.4-0.16-0.59l-0.64-1.11l6.16-3.56l0.88,0.24l0.05,0.21c0.08,0.32,0.3,0.58,0.56,0.73c0.19,0.1,0.39,0.16,0.6,0.16    c0.1,0,0.21-0.01,0.32-0.04c0.2-0.05,0.38-0.16,0.52-0.29c-0.01,0.04-0.01,0.09-0.01,0.13c0,0.11,0.01,0.21,0.05,0.31    c0.08,0.32,0.29,0.59,0.56,0.74c0.18,0.1,0.39,0.16,0.61,0.16c0.07,0,0.13,0,0.2-0.02v0.01l0.08-0.02c0.01,0,0.01,0,0.02,0    l0.11-0.03l0,0l0.06-0.01l0.61,0.61v7.25h-1.32c0,0-0.01,0-0.01,0c0,0-0.01,0-0.01,0c0,0,0,0,0,0c-0.64,0.01-1.15,0.53-1.16,1.16    c0,0,0,0.01,0,0.01c0,0.65,0.52,1.18,1.17,1.18h1.34v5.78h-5.7c-0.67,0-1.22,0.54-1.22,1.21c0,0.67,0.54,1.21,1.22,1.21h5.7v1.68    h-3.04c-0.67,0-1.21,0.54-1.21,1.21c0,0.67,0.54,1.21,1.21,1.21h3.04v2.7c0,0.39,0.11,1.57,0.31,2.68c0.1,0.56,0.23,1.09,0.37,1.5    c0.15,0.39,0.31,0.73,0.66,0.76c0.36-0.03,0.53-0.36,0.71-0.75c0.53-1.22,0.94-3.6,0.94-4.2v-2.7h2.84c0.59,0,1.07-0.42,1.19-0.97    l0.02,0.02v-0.26l0,0c0,0,0-0.01,0-0.01c0-0.67-0.54-1.21-1.21-1.21h-2.84v-1.68h5.58c0.66,0,1.21-0.54,1.21-1.21    c0-0.67-0.54-1.21-1.21-1.21h-5.58v-5.78h1.39v-0.01c0.6-0.06,1.06-0.56,1.06-1.17c0-0.65-0.52-1.17-1.17-1.17h-1.29v-7.12    l0.64-0.63l0.21,0.06c0.1,0.03,0.21,0.04,0.31,0.04c0.22,0,0.42-0.06,0.61-0.16c0.27-0.15,0.48-0.41,0.57-0.74    c0.03-0.11,0.04-0.21,0.04-0.32c0-0.09-0.01-0.19-0.04-0.28c0.12,0.09,0.25,0.16,0.4,0.2c0.11,0.03,0.21,0.04,0.32,0.04    c0.21,0,0.42-0.06,0.6-0.16c0.24-0.14,0.44-0.35,0.53-0.63h0l0.03-0.09c0-0.01,0-0.01,0-0.01l0.01-0.04l0.03-0.12l0.84-0.22    l6.27,3.62l-0.67,1.15c-0.11,0.18-0.16,0.39-0.16,0.59c0,0.41,0.21,0.81,0.59,1.02c0.18,0.1,0.39,0.16,0.58,0.16    c0.41,0,0.8-0.21,1.02-0.59l0.67-1.15l5,2.89l-2.85,4.94c-0.11,0.19-0.16,0.4-0.16,0.6c0,0.42,0.22,0.83,0.61,1.05    c0.19,0.11,0.4,0.16,0.61,0.16c0.42,0,0.82-0.22,1.05-0.61l2.85-4.94l1.45,0.84l-1.52,2.64c-0.11,0.19-0.16,0.4-0.16,0.6    c0,0.42,0.21,0.83,0.6,1.05c0.2,0.11,0.4,0.16,0.6,0.16c0.42,0,0.83-0.22,1.05-0.61l1.52-2.64l2.34,1.35    c0.34,0.2,1.42,0.69,2.48,1.07c0.54,0.19,1.06,0.35,1.49,0.42c0.16,0.02,0.31,0.04,0.44,0.04c0.22,0,0.43-0.05,0.55-0.23    c0.04-0.08,0.06-0.15,0.06-0.23c0-0.25-0.16-0.48-0.35-0.76C173.31,133.4,171.45,131.85,170.94,131.54z M137.59,133.11    L137.59,133.11c0,0,0.01-0.01,0.03-0.01C137.61,133.11,137.59,133.11,137.59,133.11z M137.63,133.11L137.63,133.11L137.63,133.11    L137.63,133.11z M144.12,120.41l-1.09,0.29v-1.8l1.65,0.95L144.12,120.41z M139.26,120.6l-0.79-0.8l1.56-0.9v1.9L139.26,120.6z     M138.92,112.19l1.09-0.3v1.8l-1.65-0.94L138.92,112.19z M143.78,112l0.8,0.8l-1.56,0.9v-1.9L143.78,112z M136.66,116.49    l0.29-1.09l1.56,0.9l-1.65,0.95L136.66,116.49z M146.38,116.11l-0.3,1.09l-1.56-0.9l1.65-0.95L146.38,116.11z" class="st0"/><path data-cppathid="10003" d="M141.37,155.52l-0.1-0.01c-1.09-0.09-1.48-1.07-1.65-1.49c-0.18-0.49-0.32-1.09-0.44-1.72    c-0.2-1.1-0.33-2.38-0.33-2.9v-1.53h-1.88c-1.31-0.01-2.37-1.07-2.37-2.38c0-0.68,0.29-1.29,0.75-1.73h-1.03    c-1.31,0-2.38-1.07-2.38-2.38c0-1.31,1.07-2.38,2.38-2.38h4.54v-3.45h-0.17c-1.29,0-2.34-1.05-2.34-2.34    c0.01-1.28,1.05-2.32,2.3-2.34h0.21v-5.45c-0.39-0.01-0.77-0.12-1.1-0.31c-0.3-0.17-0.57-0.42-0.77-0.71    c-0.43,0.04-0.89-0.09-1.27-0.31c-0.37-0.21-0.67-0.51-0.88-0.87l-4.61,2.66l0.06,0.1c0.21,0.36,0.31,0.76,0.31,1.17    c0,0.83-0.45,1.61-1.17,2.03c-1.1,0.63-2.58,0.22-3.2-0.86l-0.06-0.1l-2.99,1.73l2.21,3.82c0.21,0.36,0.32,0.78,0.32,1.19    c0,0.85-0.46,1.64-1.2,2.06c-1.11,0.63-2.61,0.21-3.23-0.87l-0.55-0.96c-0.15,0.63-0.56,1.18-1.13,1.51    c-1.04,0.63-2.6,0.24-3.25-0.87l-0.84-1.45l-1.33,0.77c-0.69,0.39-3.09,1.26-4.56,1.43l-0.48,0.02c-0.73,0-1.28-0.26-1.62-0.77    l-0.2-0.3l-0.05-0.56c0.01-0.7,0.41-1.19,0.64-1.48c0.32-0.39,0.77-0.82,1.25-1.23c0.85-0.72,1.9-1.48,2.34-1.73l1.33-0.77    l-0.94-1.63c-0.21-0.35-0.32-0.76-0.32-1.19c0-0.85,0.45-1.63,1.18-2.06c0.6-0.34,1.28-0.4,1.87-0.23l-0.51-0.88    c-0.21-0.38-0.32-0.78-0.32-1.19c0-0.84,0.46-1.63,1.19-2.06c1.11-0.64,2.61-0.23,3.25,0.87l2.27,3.93l2.99-1.72l-0.08-0.15    c-0.21-0.35-0.32-0.76-0.32-1.16c0-0.84,0.45-1.61,1.17-2.03c1.07-0.61,2.57-0.22,3.19,0.85l0.09,0.15l4.62-2.67l-0.25-0.24    l0.16-0.25c-0.07-0.22-0.1-0.45-0.1-0.69c0-0.36,0.07-0.7,0.22-1.01c-0.24-0.38-0.36-0.81-0.36-1.27c0-0.41,0.11-0.82,0.31-1.18    l-4.61-2.66l-0.06,0.11c-0.6,1.06-2.09,1.48-3.19,0.86c-0.73-0.42-1.18-1.2-1.18-2.03c0-0.41,0.11-0.81,0.31-1.16l0.06-0.11    l-2.99-1.72l-2.2,3.82c-0.67,1.12-2.18,1.5-3.25,0.87c-0.74-0.43-1.19-1.21-1.19-2.06c0-0.41,0.11-0.82,0.32-1.19l0.56-0.96    c-0.63,0.19-1.35,0.1-1.9-0.24c-0.7-0.4-1.16-1.19-1.16-2.04c0-0.42,0.11-0.83,0.32-1.19l0.83-1.44l-1.33-0.76    c-0.7-0.41-2.64-2.06-3.52-3.24c-0.23-0.34-0.56-0.81-0.58-1.41c0-0.29,0.06-0.54,0.18-0.79c0.32-0.49,1.01-0.99,2.19-0.82    c0.53,0.09,1.13,0.27,1.72,0.49c1.11,0.4,2.25,0.92,2.68,1.16l1.32,0.77l0.93-1.63c0.64-1.1,2.18-1.51,3.26-0.87    c0.57,0.33,0.97,0.87,1.12,1.5l0.51-0.88c0.63-1.1,2.17-1.51,3.26-0.86c0.72,0.41,1.18,1.2,1.18,2.05c0,0.41-0.11,0.82-0.32,1.19    l-2.27,3.93l2.99,1.73l0.08-0.15c0.61-1.07,2.13-1.48,3.2-0.85c0.72,0.4,1.17,1.18,1.17,2.02c0,0.4-0.11,0.8-0.31,1.16l-0.08,0.15    l4.72,2.73c0.22-0.36,0.5-0.63,0.83-0.81c0.27-0.17,0.61-0.28,0.96-0.31c0.21-0.39,0.53-0.72,0.93-0.95    c0.35-0.2,0.76-0.31,1.17-0.31l-0.12-5.32c-1.29,0-2.34-1.05-2.34-2.34c0-1.29,1.05-2.34,2.34-2.34h0.12v-3.45h-4.41    c-1.31,0-2.38-1.06-2.38-2.38c0-1.31,1.07-2.38,2.38-2.38h1.1c-0.46-0.43-0.74-1.05-0.74-1.73c0-1.31,1.07-2.37,2.38-2.37h1.68    V83.2c0.01-0.77,0.46-3.33,1.04-4.66c0.24-0.5,0.65-1.36,1.69-1.44c1.29,0.09,1.67,1.08,1.84,1.5c0.18,0.49,0.32,1.09,0.43,1.71    c0.2,1.11,0.33,2.39,0.33,2.9v1.53h1.88c1.31,0,2.38,1.06,2.38,2.37c0,0.68-0.28,1.3-0.74,1.73h1.03c1.31,0,2.38,1.07,2.38,2.38    c0,1.31-1.07,2.38-2.38,2.38h-4.54v3.45h0.17c1.29,0,2.34,1.05,2.34,2.34c0,1.29-1.05,2.34-2.34,2.34h-0.17v5.45    c0.38,0.01,0.76,0.12,1.1,0.31c0.31,0.18,0.58,0.42,0.78,0.71c0.45-0.04,0.9,0.1,1.28,0.32c0.36,0.21,0.65,0.5,0.86,0.86    l4.61-2.66l-0.06-0.1c-0.21-0.36-0.31-0.76-0.31-1.16c0-0.83,0.44-1.61,1.16-2.03c1.11-0.64,2.59-0.22,3.21,0.85l0.05,0.1    l2.99-1.72l-2.2-3.82c-0.21-0.35-0.32-0.77-0.32-1.19c0-0.84,0.45-1.63,1.19-2.06c1.19-0.65,2.62-0.21,3.25,0.87l0.55,0.95    c0.15-0.62,0.55-1.17,1.12-1.5c1.06-0.63,2.62-0.23,3.26,0.87l0.83,1.45l1.33-0.77c0.71-0.39,3.1-1.26,4.56-1.43l0.49-0.03    c0.92,0,1.39,0.43,1.63,0.79l0.19,0.29l0.05,0.55c-0.02,0.67-0.35,1.11-0.65,1.49c-0.29,0.36-0.71,0.76-1.26,1.23    c-0.9,0.76-1.92,1.48-2.32,1.72l-1.34,0.78l0.94,1.63c0.21,0.36,0.32,0.77,0.32,1.19c0,0.84-0.45,1.63-1.18,2.05    c-0.58,0.34-1.27,0.41-1.88,0.23l0.51,0.88c0.21,0.37,0.32,0.77,0.32,1.19c0,0.84-0.45,1.63-1.18,2.06    c-1.17,0.66-2.63,0.22-3.25-0.88l-2.27-3.92l-2.99,1.72l0.08,0.15c0.2,0.35,0.31,0.75,0.31,1.16c0,0.84-0.45,1.62-1.18,2.03    c-1.07,0.61-2.58,0.21-3.19-0.87l-0.08-0.14l-4.62,2.68l0.08,0.08l-0.07,0.19c0.12,0.28,0.18,0.59,0.18,0.9    c0,0.36-0.08,0.7-0.23,1.01c0.24,0.38,0.36,0.81,0.36,1.26c0,0.41-0.11,0.82-0.31,1.18l4.61,2.66l0.06-0.1    c0.6-1.06,2.12-1.47,3.2-0.86c0.72,0.41,1.16,1.19,1.16,2.03c0,0.41-0.11,0.82-0.32,1.18l-0.05,0.09l2.99,1.72l2.21-3.82    c0.61-1.09,2.15-1.5,3.24-0.88c0.74,0.43,1.19,1.22,1.19,2.07c0,0.41-0.1,0.8-0.31,1.17l-0.56,0.97c0.61-0.18,1.31-0.11,1.88,0.23    c0.72,0.41,1.18,1.2,1.18,2.05c0,0.43-0.11,0.84-0.32,1.2l-0.83,1.45l1.33,0.76c0.69,0.41,2.64,2.06,3.52,3.24    c0.24,0.34,0.57,0.82,0.58,1.44c0,0.28-0.06,0.55-0.19,0.78c-0.38,0.58-0.92,0.86-1.56,0.86l0,0c-0.2,0-0.41-0.02-0.63-0.05    c-0.53-0.09-1.11-0.27-1.72-0.49c-1.08-0.39-2.23-0.9-2.67-1.16l-1.32-0.76l-0.94,1.63c-0.63,1.09-2.13,1.5-3.25,0.87    c-0.57-0.32-0.97-0.88-1.12-1.51l-0.51,0.89c-0.65,1.12-2.22,1.51-3.28,0.85c-0.7-0.39-1.16-1.18-1.16-2.04    c0-0.41,0.1-0.81,0.31-1.18l2.28-3.94l-2.99-1.73l-0.08,0.15c-0.63,1.08-2.11,1.48-3.2,0.85c-0.72-0.41-1.17-1.19-1.17-2.03    c0-0.41,0.11-0.82,0.31-1.17l0.08-0.14l-4.72-2.73c-0.23,0.37-0.51,0.63-0.84,0.82c-0.27,0.16-0.61,0.27-0.97,0.31    c-0.21,0.4-0.53,0.72-0.92,0.95c-0.34,0.2-0.76,0.31-1.17,0.31v5.33h0.12c1.29,0,2.34,1.05,2.34,2.34c0,1.21-0.91,2.22-2.12,2.33    l-0.34,0v3.46h4.42c1.3,0,2.37,1.06,2.37,2.37c0,1.32-1.07,2.38-2.37,2.38h-1.11c0.46,0.44,0.74,1.05,0.74,1.73v3.33l-1.15-1.29    c-0.36,0.22-0.77,0.34-1.21,0.34h-1.69v1.53c-0.01,0.78-0.46,3.33-1.04,4.66c-0.22,0.46-0.65,1.36-1.68,1.45L141.37,155.52z     M136.97,145.44l4.21,0.09v3.86c0,0.28,0.09,1.31,0.27,2.33c0.24-0.98,0.4-2.04,0.41-2.34v-3.85l4.01-0.04l-4.01-0.05v-4.01h6.75    l-6.75-0.1v-8.11h2.56l-2.56-0.02v-8.76l1.45-1.45l0.89,0.22l-0.38-1.52l-1.96,0.52v-5.32l4.72,2.71l-1.57,1.56l1.09,0.81    l0.23-0.8l1.97-0.57l7.7,4.45l-1.25,2.16l1.27-2.15l7.02,4.05l-3.43,5.95l3.51-5.9l3.47,2l-2.1,3.65l2.18-3.6l3.35,1.93    c0.25,0.15,1.18,0.58,2.15,0.94c-0.74-0.71-1.58-1.39-1.83-1.53l-3.33-1.93l2.01-3.47l-2.09,3.43l-3.48-2.01l3.38-5.84l-3.46,5.79    l-7.02-4.05l1.22-2.12l-1.24,2.1l-7.59-4.38l-0.53-1.99l0.64-0.65l-1.5-0.45l-0.54,1.99l-4.62-2.67l4.71-2.72l0.58,2.15l1.21-0.53    l-0.6-0.67l0.53-1.94l7.7-4.45l1.25,2.17l-1.23-2.18l7.02-4.05l3.43,5.94l-3.35-5.99l3.47-2.01l2.11,3.64l-2.03-3.69l3.35-1.93    c0.22-0.13,1.09-0.73,1.89-1.41c-0.98,0.29-1.99,0.68-2.24,0.82l-3.33,1.93l-2-3.47l1.92,3.52l-3.47,2l-3.37-5.84l3.29,5.88    l-7.02,4.06l-1.22-2.12l1.2,2.14l-7.58,4.38l-2-0.53l-0.25-0.89l-1.14,1.08l1.46,1.45l-4.63,2.67v-5.43l2.25,0.6l0.05-1.25    l-0.22-0.08l-0.65,0.17l-1.43-1.42v-8.9h2.5l-2.5-0.01v-8.11h6.87l-6.87-0.09v-4.01h4.21l-4.21-0.1V83.2    c0-0.28-0.09-1.31-0.26-2.33c-0.24,0.99-0.41,2.05-0.41,2.34v3.85h-4.01l4.01,0.1v4.01h-6.74l6.74,0.09v8.11h-2.44l2.44,0.01v8.77    l-1.47,1.45l-0.65-0.18l0,0l-0.24-0.04l0.34,1.53l2.02-0.55v5.33l-4.71-2.71l1.58-1.58l-1.07-0.78l-0.11,0.21l-0.18,0.64    l-1.95,0.52l-7.7-4.45l1.25-2.16l-1.26,2.15l-7.03-4.06l3.43-5.95l-3.52,5.9l-3.47-2l2.1-3.65l-2.19,3.6l-3.35-1.94    c-0.24-0.14-1.16-0.57-2.15-0.93c0.74,0.71,1.58,1.39,1.83,1.53l3.33,1.92l-2,3.47l2.08-3.42l3.47,2.01l-3.37,5.83l3.45-5.79    l7.03,4.05l-1.23,2.13l1.25-2.11l7.58,4.38l0.53,1.98l-0.63,0.65l1.51,0.44l0.52-1.96l4.62,2.68l-4.72,2.72l-0.56-2.16l-1.21,0.54    l0.6,0.66l-0.53,1.96l-7.7,4.45l-1.25-2.17l1.23,2.18l-7.03,4.05l-3.43-5.94l3.35,5.99l-3.47,2.01l-2.1-3.65l2.02,3.69l-3.35,1.94    c-0.24,0.14-1.08,0.74-1.88,1.4c0.97-0.28,1.98-0.67,2.23-0.82l3.34-1.93l2,3.47l-1.92-3.52l3.47-2l3.38,5.84l-3.29-5.88    l7.03-4.06l1.23,2.12l-1.21-2.13l7.58-4.38l2,0.54l0.26,0.89l1.14-1.06l-1.46-1.47l4.62-2.66v5.44l-2.1-0.56l-0.2,1.34l0.81-0.22    l1.5,1.43v8.9h-2.49l2.49,0.02v8.11h-6.86l6.86,0.1v4.01H136.97z" class="st0"/></g></g><g><path data-cppathid="10004" d="M73.68,152.43c15.38-8.61,27.34-41.4,18.07-54.66c1.2,6.82,1.28,14.64-3.62,21.55   c6.14-31.84-16.58-42.84-16.58-42.84c6.04,9.49,3.5,22.07-3.31,29.9c-2.23,2.57-4.93,1.73-3.91-1.38   c3.05-9.15,0.13-15.78,0.13-15.78c-2.99,12.22-12.63,17.9-15.94,28.38c-6.33,20.03,1.56,38.87,15.14,26.12   c7.71-7.24,18.41-29.4,18.41-29.4c0.66,9.89-9.97,27.74-13.68,33.42c-0.23,0.35,0.07,0.63,0.43,0.43   c8.32-4.63,18.45-19.46,18.45-19.46c-0.66,3.22-11.3,18.38-15.12,23.07C71.22,152.92,72.19,153.26,73.68,152.43z" class="st0"/></g></svg>