<?xml version="1.0" encoding="UTF-8"?>
<svg xmlns="http://www.w3.org/2000/svg" onmouseup="{ if(window.parent.document.onmouseup) window.parent.document.onmouseup(arguments[0]);}" xml:space="preserve" style="enable-background:new 0 0 300 300;" viewBox="0 0 300 300" y="0px" x="0px" id="Layer_1" version="1.1" xmlns:xlink="http://www.w3.org/1999/xlink"><style type="text/css">
	.st0{fill:#29ABE2;}
	.st1{fill:#FFFFFF;}
	.st2{fill:#FBB03B;}
</style><g><path data-cppathid="10000" d="M148,256.5c-27.09,0-47.54-7.67-60.76-22.79c-14.93-17.08-20.22-42.75-15.7-76.31   c1.5-11.11,7.96-42.43,35.64-93.06c7.98-14.6,16.35-28.04,23.56-37.82C141.79,11.52,146.67,9.5,150,9.5   c3.31,0,8.49,1.94,19.25,17.08c6.88,9.69,14.83,23.14,22.38,37.87c17.86,34.84,30.14,69.62,32.84,93.04   c4.14,35.86-0.86,61.15-15.27,77.32C196.37,249.2,175.78,256.5,148,256.5z" class="st0"/><path data-cppathid="10001" d="M150,14c13,0,64,92,70,144c5.95,51.57-5,94-72,94c-63,0-78.93-42.55-72-94C83,106,138,14,150,14 M150,5   c-7.47,0-14.55,7.54-22.89,18.85c-7.33,9.94-15.81,23.56-23.89,38.33c-28.03,51.29-34.62,83.25-36.15,94.62   c-2.18,16.16-2.1,30.84,0.23,43.62c2.65,14.53,8.21,26.72,16.54,36.25C97.97,252.81,119.55,261,148,261   c29.12,0,50.84-7.81,64.56-23.2c8.38-9.4,13.87-21.77,16.31-36.75c2.03-12.49,2.06-26.91,0.08-44.08   c-2.76-23.93-15.21-59.28-33.31-94.57c-7.65-14.91-15.71-28.56-22.72-38.42C163.34,10.5,156.7,5,150,5L150,5z" class="st1"/></g><g><g><g><path data-cppathid="10002" d="M143.62,188.68l-2.68-1.55l1.63-2.82c0.13-0.22,0.18-0.46,0.18-0.7c0-0.48-0.25-0.94-0.69-1.2     c-0.22-0.13-0.45-0.19-0.69-0.19c-0.48,0-0.95,0.25-1.21,0.7l-1.63,2.82l-1.67-0.97l3.2-5.53c0.12-0.22,0.18-0.46,0.18-0.69     c0-0.48-0.25-0.95-0.69-1.21c-0.22-0.12-0.46-0.18-0.69-0.18c-0.48,0-0.95,0.25-1.21,0.69l-3.2,5.53l-5.74-3.31l0.73-1.28     c0.12-0.21,0.18-0.45,0.18-0.67c0-0.47-0.24-0.93-0.67-1.17c-0.21-0.12-0.44-0.18-0.67-0.18c-0.46,0-0.92,0.24-1.16,0.68     l-0.74,1.27l-7.07-4.08l-0.27-1l0.18-0.17c0.27-0.27,0.4-0.63,0.4-0.98c0-0.36-0.13-0.71-0.4-0.98c-0.18-0.17-0.38-0.28-0.6-0.35     c0.16-0.06,0.3-0.16,0.43-0.29c0.27-0.27,0.41-0.63,0.41-0.98c0-0.31-0.11-0.63-0.32-0.88v-0.01l-0.22-0.23l0.26-0.95l7.2-4.16     l0.77,1.33c0.25,0.43,0.69,0.67,1.17,0.67c0.22,0,0.45-0.06,0.67-0.18c0.43-0.25,0.67-0.7,0.67-1.17c0-0.23-0.06-0.46-0.18-0.67     l-0.77-1.33l5.74-3.31l3.27,5.66c0.26,0.45,0.73,0.7,1.21,0.7c0.24,0,0.48-0.06,0.69-0.19c0.45-0.26,0.69-0.73,0.69-1.21     c0-0.24-0.06-0.48-0.18-0.69l-3.27-5.66l1.67-0.96l1.75,3.02c0.26,0.44,0.72,0.7,1.2,0.7c0.24,0,0.48-0.07,0.69-0.19     c0.44-0.26,0.7-0.73,0.7-1.21c0-0.24-0.06-0.48-0.19-0.69l-1.75-3.02l2.68-1.55c0.39-0.23,1.5-1.02,2.49-1.86     c0.5-0.42,0.96-0.84,1.27-1.23c0.24-0.3,0.43-0.56,0.44-0.86c0-0.08-0.02-0.15-0.06-0.23c-0.16-0.25-0.45-0.3-0.75-0.3     c-0.13,0-0.27,0.01-0.41,0.02c-1.52,0.17-4.11,1.13-4.71,1.46l-2.68,1.55l-1.63-2.82c-0.25-0.45-0.72-0.7-1.21-0.7     c-0.23,0-0.48,0.06-0.69,0.19c-0.44,0.26-0.69,0.72-0.69,1.21c0,0.23,0.06,0.47,0.19,0.69l1.63,2.82l-1.66,0.96l-3.2-5.54     c-0.26-0.45-0.72-0.69-1.21-0.69c-0.23,0-0.47,0.07-0.69,0.19c-0.44,0.26-0.69,0.72-0.69,1.2c0,0.24,0.06,0.48,0.19,0.7     l3.19,5.53l-5.74,3.31l-0.73-1.27c-0.25-0.44-0.7-0.67-1.16-0.67c-0.23,0-0.46,0.06-0.68,0.18c-0.43,0.25-0.67,0.7-0.67,1.17     c0,0.22,0.06,0.46,0.18,0.67l0.73,1.27l-7.06,4.08l-1-0.27l-0.06-0.24c-0.1-0.37-0.35-0.67-0.65-0.84     c-0.21-0.12-0.44-0.18-0.7-0.18c-0.12,0-0.24,0.02-0.36,0.05c-0.24,0.06-0.43,0.19-0.59,0.34c0-0.05,0.01-0.11,0.01-0.16     c0-0.12-0.02-0.24-0.05-0.36c-0.1-0.37-0.34-0.67-0.64-0.85c-0.21-0.12-0.45-0.19-0.7-0.19c-0.08,0-0.16,0.01-0.24,0.02v0     l-0.31,0.08l-0.7-0.7v-8.32h1.53c0.75,0,1.34-0.6,1.34-1.34c0-0.75-0.6-1.35-1.34-1.35h-1.53v-6.63h6.54     c0.77,0,1.39-0.62,1.39-1.39c0-0.77-0.62-1.39-1.39-1.39h-6.54v-1.93h3.49c0.76,0,1.39-0.62,1.39-1.39     c0-0.76-0.62-1.39-1.39-1.39h-3.49v-3.09c0-0.44-0.12-1.8-0.35-3.08c-0.12-0.64-0.26-1.25-0.43-1.72     c-0.17-0.44-0.35-0.84-0.76-0.87c-0.41,0.03-0.6,0.41-0.81,0.86c-0.61,1.4-1.08,4.13-1.09,4.81v3.09h-3.26     c-0.77,0-1.39,0.63-1.39,1.39c0,0.77,0.62,1.39,1.39,1.39h3.26v1.93h-6.39c-0.77,0-1.39,0.62-1.39,1.39     c0,0.77,0.62,1.39,1.39,1.39h6.39v6.63h-1.47c-0.75,0-1.35,0.6-1.35,1.35c0,0.74,0.6,1.34,1.35,1.34h1.47v8.16l-0.74,0.72     l-0.23-0.06c-0.13-0.03-0.24-0.05-0.37-0.05c-0.24,0-0.48,0.06-0.69,0.19c-0.31,0.17-0.55,0.47-0.65,0.84     c-0.03,0.12-0.05,0.24-0.05,0.36c0,0.11,0.02,0.22,0.04,0.32c-0.14-0.1-0.29-0.18-0.47-0.23c-0.12-0.03-0.24-0.05-0.36-0.05     c-0.25,0-0.49,0.06-0.69,0.19c-0.28,0.15-0.5,0.41-0.61,0.72h0l-0.08,0.31l-0.96,0.25l-7.2-4.15l0.77-1.32     c0.12-0.21,0.18-0.45,0.18-0.67c0-0.47-0.25-0.92-0.68-1.17c-0.21-0.12-0.44-0.18-0.67-0.18c-0.46,0-0.91,0.24-1.16,0.67     l-0.77,1.32l-5.75-3.31l3.27-5.66c0.13-0.22,0.19-0.46,0.19-0.7c0-0.48-0.26-0.95-0.7-1.2c-0.22-0.13-0.46-0.19-0.69-0.19     c-0.49,0-0.95,0.25-1.21,0.7l-3.27,5.66l-1.67-0.96l1.75-3.03c0.12-0.22,0.19-0.46,0.19-0.69c0-0.48-0.25-0.95-0.7-1.21     c-0.22-0.13-0.46-0.19-0.69-0.19c-0.48,0-0.95,0.25-1.21,0.69l-1.74,3.02l-2.69-1.55c-0.38-0.23-1.62-0.8-2.84-1.23     c-0.61-0.22-1.21-0.4-1.71-0.49c-0.18-0.03-0.35-0.05-0.51-0.05c-0.25,0-0.48,0.06-0.62,0.27c-0.04,0.09-0.07,0.17-0.07,0.25     c0.01,0.29,0.19,0.56,0.41,0.88c0.9,1.22,3.02,3,3.61,3.35l2.69,1.55l-1.63,2.82c-0.13,0.22-0.19,0.46-0.19,0.69     c0,0.49,0.25,0.95,0.69,1.2c0.22,0.13,0.46,0.19,0.7,0.19c0.48,0,0.94-0.25,1.21-0.69l1.63-2.82l1.66,0.96l-3.19,5.54     c-0.13,0.22-0.19,0.46-0.19,0.69c0,0.48,0.25,0.95,0.7,1.21c0.22,0.13,0.46,0.18,0.69,0.18c0.48,0,0.94-0.25,1.21-0.7l3.19-5.53     l5.74,3.31l-0.74,1.28c-0.12,0.21-0.18,0.44-0.18,0.67c0,0.47,0.24,0.92,0.67,1.17c0.22,0.12,0.45,0.18,0.67,0.18     c0.47,0,0.92-0.24,1.17-0.67l0.74-1.28l7.06,4.08l0.26,1l-0.17,0.17c-0.27,0.27-0.4,0.63-0.4,0.98c0,0.36,0.13,0.71,0.4,0.98     c0.17,0.17,0.37,0.28,0.6,0.35c-0.16,0.06-0.31,0.16-0.44,0.29c-0.27,0.27-0.4,0.62-0.4,0.98c0,0.31,0.11,0.63,0.32,0.88l0,0.01     l0.23,0.22l-0.26,0.96l-7.2,4.16l-0.76-1.32c-0.25-0.44-0.7-0.67-1.17-0.67c-0.23,0-0.46,0.06-0.68,0.18     c-0.43,0.25-0.67,0.7-0.67,1.17c0,0.22,0.06,0.46,0.19,0.67l0.76,1.33l-5.74,3.31l-3.27-5.66c-0.26-0.45-0.73-0.7-1.21-0.7     c-0.23,0-0.48,0.07-0.69,0.19c-0.45,0.26-0.7,0.73-0.7,1.2c0,0.24,0.06,0.48,0.18,0.7l3.27,5.66l-1.66,0.97l-1.75-3.02     c-0.26-0.44-0.72-0.7-1.21-0.7c-0.23,0-0.47,0.06-0.69,0.19c-0.45,0.26-0.69,0.73-0.69,1.21c0,0.24,0.06,0.48,0.18,0.69     l1.75,3.02l-2.69,1.55c-0.38,0.22-1.49,1.01-2.49,1.85c-0.49,0.41-0.95,0.84-1.27,1.23c-0.24,0.3-0.43,0.56-0.44,0.86     c0,0.07,0.01,0.15,0.06,0.24c0.16,0.24,0.44,0.29,0.75,0.29c0.12,0,0.26-0.01,0.4-0.02c1.52-0.17,4.12-1.13,4.71-1.46l2.69-1.55     l1.63,2.82c0.25,0.45,0.72,0.7,1.21,0.7c0.23,0,0.47-0.06,0.68-0.18c0.45-0.26,0.7-0.72,0.7-1.21c0-0.23-0.06-0.47-0.19-0.69     l-1.63-2.82l1.66-0.96l3.2,5.54c0.26,0.44,0.72,0.69,1.2,0.69c0,0,0,0,0,0c0.24,0,0.48-0.06,0.69-0.18     c0.45-0.26,0.7-0.73,0.7-1.21c0-0.24-0.06-0.48-0.18-0.69l-3.2-5.54l5.75-3.32l0.74,1.28c0.25,0.43,0.7,0.67,1.17,0.67     c0.23,0,0.46-0.06,0.67-0.18c0.44-0.25,0.68-0.71,0.68-1.17c0-0.23-0.06-0.46-0.18-0.67l-0.74-1.27l7.06-4.08l1.01,0.27     l0.06,0.24c0.1,0.37,0.34,0.66,0.65,0.84c0.21,0.12,0.45,0.19,0.69,0.19c0.12,0,0.24-0.02,0.37-0.05     c0.23-0.06,0.43-0.19,0.59-0.33c-0.01,0.05-0.01,0.1-0.01,0.15c0,0.12,0.01,0.24,0.05,0.36c0.1,0.37,0.34,0.67,0.64,0.85     c0.21,0.12,0.45,0.18,0.7,0.18c0.08,0,0.15,0,0.23-0.02v0.01l0.1-0.03c0.01,0,0.01,0,0.02,0l0.13-0.04l0,0l0.07-0.02l0.7,0.7     v8.31h-1.52c0,0-0.01,0-0.01,0c0,0-0.01,0-0.01,0c-0.01,0-0.01,0-0.01,0c-0.73,0.01-1.32,0.61-1.33,1.33c0,0,0,0.01,0,0.01     c0,0.75,0.6,1.35,1.34,1.35h1.53v6.63h-6.54c-0.77,0-1.39,0.62-1.39,1.39c0,0.77,0.62,1.39,1.39,1.39h6.54v1.93h-3.49     c-0.77,0-1.39,0.62-1.39,1.39c0,0.76,0.62,1.38,1.39,1.39h3.49v3.09c0,0.45,0.13,1.8,0.36,3.08c0.12,0.64,0.26,1.25,0.43,1.72     c0.18,0.45,0.35,0.84,0.76,0.87c0.41-0.03,0.6-0.41,0.82-0.86c0.61-1.4,1.08-4.13,1.08-4.81v-3.09h3.26     c0.67,0,1.23-0.48,1.36-1.11l0.02,0.02v-0.29l0,0c0-0.01,0-0.01,0-0.01c0-0.77-0.62-1.39-1.38-1.39h-3.26v-1.93h6.4     c0.76,0,1.38-0.62,1.39-1.39c0-0.77-0.62-1.39-1.39-1.39h-6.4v-6.63h1.6v-0.01c0.68-0.07,1.22-0.64,1.22-1.34     c0-0.74-0.6-1.34-1.34-1.34h-1.48v-8.16l0.73-0.73l0.24,0.06c0.12,0.03,0.24,0.04,0.36,0.04c0.25,0,0.49-0.07,0.69-0.18     c0.31-0.18,0.55-0.47,0.65-0.85c0.03-0.12,0.05-0.24,0.05-0.36c0-0.11-0.02-0.22-0.04-0.32c0.13,0.11,0.29,0.18,0.46,0.23     c0.13,0.03,0.24,0.05,0.36,0.05c0.24,0,0.49-0.07,0.69-0.19c0.28-0.16,0.5-0.41,0.61-0.72h0.01l0.03-0.11c0-0.01,0-0.01,0-0.02     l0.02-0.05l0.04-0.14l0.96-0.25l7.19,4.15l-0.76,1.32c-0.12,0.21-0.18,0.45-0.18,0.67c0,0.47,0.24,0.92,0.67,1.17     c0.21,0.12,0.45,0.18,0.67,0.18c0.48,0,0.92-0.24,1.17-0.67l0.76-1.32l5.74,3.31l-3.27,5.67c-0.13,0.22-0.18,0.46-0.18,0.69     c0,0.48,0.25,0.95,0.69,1.2c0.22,0.13,0.46,0.19,0.69,0.19c0.48,0,0.94-0.25,1.21-0.69l3.27-5.66l1.66,0.96l-1.75,3.02     c-0.12,0.22-0.18,0.46-0.18,0.69c0,0.48,0.24,0.95,0.69,1.21c0.22,0.13,0.46,0.19,0.69,0.19c0.49,0,0.95-0.25,1.21-0.69     l1.74-3.02l2.68,1.55c0.39,0.23,1.63,0.8,2.85,1.23c0.61,0.22,1.21,0.4,1.71,0.49c0.18,0.03,0.35,0.05,0.5,0.05     c0.25,0,0.49-0.06,0.63-0.27c0.05-0.09,0.06-0.17,0.06-0.26c0-0.28-0.18-0.55-0.4-0.87     C146.34,190.81,144.21,189.04,143.62,188.68z M105.38,190.48L105.38,190.48c0,0,0.01-0.01,0.04-0.01     C105.4,190.48,105.38,190.48,105.38,190.48z M105.43,190.48L105.43,190.48L105.43,190.48L105.43,190.48z M112.86,175.92     l-1.25,0.33v-2.06l1.89,1.09L112.86,175.92z M107.29,176.14l-0.91-0.92l1.78-1.03v2.18L107.29,176.14z M106.91,166.49l1.25-0.34     v2.06l-1.89-1.08L106.91,166.49z M112.48,166.27l0.92,0.91l-1.79,1.03v-2.18L112.48,166.27z M104.32,171.42l0.34-1.25l1.79,1.04     l-1.89,1.09L104.32,171.42z M115.46,170.99l-0.34,1.25l-1.79-1.04l1.89-1.09L115.46,170.99z" class="st1"/><path data-cppathid="10003" d="M109.78,215.67c-1.08-0.07-1.42-0.94-1.61-1.4c-0.18-0.51-0.33-1.13-0.47-1.88     c-0.24-1.34-0.37-2.74-0.37-3.23v-2.25h-2.65c-1.23-0.01-2.23-1.01-2.23-2.23c0-1.23,1-2.23,2.23-2.23h2.65v-0.25h-5.69     c-1.23,0-2.24-1-2.24-2.23s1-2.23,2.24-2.23h5.69v-4.94h-0.69c-1.21,0-2.19-0.98-2.19-2.19c0.01-1.19,0.98-2.17,2.16-2.18h0.72     v-7.12l-0.11-0.11l-0.81,0.23l-0.03-0.3c-0.2-0.05-0.4-0.13-0.58-0.23c-0.36-0.21-0.66-0.52-0.86-0.9     c-0.52,0.09-1.03-0.01-1.47-0.26c-0.45-0.26-0.79-0.66-0.97-1.12l-0.21-0.06l-6.03,3.48l0.31,0.54c0.19,0.33,0.3,0.71,0.3,1.09     c0,0.78-0.42,1.51-1.09,1.9c-1.05,0.59-2.42,0.2-2.99-0.8l-0.31-0.54l-4.29,2.47l2.78,4.81c0.2,0.34,0.3,0.73,0.3,1.12     c0,0.8-0.43,1.54-1.12,1.94c-0.34,0.2-0.75,0.26-1.13,0.29c-0.78,0-1.51-0.42-1.91-1.11l-2.78-4.81l-0.2,0.12l1.21,2.09     c0.19,0.34,0.3,0.72,0.3,1.11c0,0.81-0.42,1.53-1.12,1.94c-1.02,0.6-2.47,0.21-3.05-0.83l-1.2-2.08l-1.96,1.13     c-0.74,0.42-3.43,1.39-5.04,1.57c-0.28,0.02-0.4,0.02-0.5,0.02c-0.67,0-1.16-0.23-1.45-0.67c-0.15-0.27-0.2-0.49-0.2-0.7     c0.01-0.62,0.38-1.08,0.63-1.39c0.31-0.38,0.75-0.81,1.38-1.34c1.06-0.89,2.19-1.7,2.61-1.94l1.96-1.13l-1.32-2.29     c-0.19-0.34-0.3-0.71-0.3-1.11c0-0.8,0.41-1.53,1.1-1.93c1.12-0.63,2.47-0.2,3.06,0.81l1.32,2.29l0.21-0.12l-2.85-4.93     c-0.2-0.36-0.3-0.73-0.3-1.12c0-0.8,0.43-1.54,1.12-1.94c1.02-0.59,2.45-0.2,3.04,0.82l2.85,4.93l4.29-2.47l-0.34-0.6     c-0.19-0.33-0.3-0.71-0.3-1.09c0-0.78,0.42-1.51,1.09-1.9c1.04-0.59,2.4-0.22,3,0.8l0.34,0.6l6.17-3.56l0.04-0.15l-0.31-0.31     l0.07-0.14c-0.13-0.29-0.2-0.6-0.2-0.92c0-0.43,0.12-0.84,0.34-1.19c-0.32-0.4-0.5-0.89-0.5-1.41c0-0.51,0.17-1,0.48-1.39     l-0.06-0.21l-6.03-3.48l-0.32,0.55c-0.55,0.99-1.93,1.4-2.98,0.8c-0.68-0.39-1.1-1.12-1.1-1.9c0-0.38,0.1-0.75,0.29-1.08     l0.32-0.56l-4.28-2.47l-2.77,4.8c-0.62,1.05-2.04,1.41-3.05,0.83c-0.69-0.4-1.12-1.14-1.12-1.94c0-0.39,0.11-0.78,0.31-1.12     l2.77-4.8l-0.21-0.12l-1.2,2.09c-0.63,1.06-2.1,1.4-3.07,0.8c-0.68-0.39-1.1-1.11-1.1-1.92c0-0.39,0.11-0.78,0.31-1.12l1.2-2.08     l-1.96-1.13c-0.64-0.38-2.87-2.22-3.87-3.58c-0.26-0.36-0.56-0.8-0.58-1.35c0-0.23,0.05-0.44,0.15-0.65     c0.25-0.4,0.66-0.72,1.39-0.75c0.19,0,0.39,0.02,0.62,0.06c0.55,0.1,1.19,0.28,1.88,0.53c1.22,0.44,2.53,1.03,2.99,1.3l1.94,1.12     l1.32-2.29c0.6-1.03,2.04-1.41,3.06-0.82c0.69,0.4,1.11,1.14,1.11,1.94c0,0.38-0.1,0.76-0.3,1.11l-1.33,2.3l0.21,0.12l2.85-4.93     c0.61-1.04,2.07-1.42,3.07-0.8c0.67,0.37,1.1,1.11,1.1,1.92c0,0.39-0.1,0.77-0.3,1.12l-2.85,4.93l4.29,2.47l0.34-0.59     c0.58-1.01,2.01-1.37,2.99-0.79c0.67,0.38,1.09,1.11,1.09,1.89c0,0.37-0.1,0.75-0.29,1.09l-0.35,0.6l6.17,3.56l0.15-0.04     l0.12-0.46h0.16c0.19-0.25,0.42-0.46,0.7-0.62c0.3-0.19,0.74-0.31,1.18-0.29c0.17-0.48,0.53-0.9,0.99-1.15     c0.41-0.24,0.94-0.34,1.43-0.27l0.15-0.15v-6.97h-0.63c-1.21,0-2.19-0.98-2.19-2.19c0-1.21,0.98-2.19,2.19-2.19h0.63v-4.95h-5.55     c-1.23,0-2.23-1-2.23-2.23c0-1.23,1-2.23,2.23-2.23h5.55v-0.24h-2.42c-1.23,0-2.23-1-2.23-2.24c0-1.23,1-2.23,2.23-2.23h2.42     v-2.25c0.01-0.74,0.48-3.59,1.16-5.15c0.25-0.53,0.62-1.29,1.52-1.36c1.09,0.08,1.43,0.94,1.61,1.41     c0.18,0.49,0.33,1.09,0.48,1.87c0.24,1.34,0.37,2.74,0.37,3.23v2.25h2.65c1.23,0,2.24,1,2.24,2.23c0,1.23-1,2.24-2.24,2.24h-2.65     v0.24h5.7c1.23,0,2.23,1,2.23,2.23c0,1.23-1,2.23-2.23,2.23h-5.7v4.95h0.69c1.21,0,2.19,0.98,2.19,2.19     c0,1.21-0.98,2.19-2.19,2.19h-0.69v7.12l0.11,0.11l0.9-0.25v0.33c0.17,0.05,0.34,0.12,0.5,0.21c0.37,0.22,0.67,0.53,0.87,0.9     c0.5-0.08,1.04,0.01,1.48,0.27c0.43,0.25,0.77,0.65,0.96,1.12l0.21,0.06l6.03-3.48l-0.31-0.54c-0.19-0.33-0.3-0.71-0.3-1.09     c0-0.78,0.42-1.51,1.09-1.9c1.03-0.59,2.42-0.21,3,0.8l0.31,0.54l4.28-2.47l-2.77-4.8c-0.2-0.34-0.3-0.73-0.3-1.12     c0-0.79,0.43-1.53,1.11-1.93c1.18-0.64,2.47-0.2,3.05,0.81l2.78,4.81l0.2-0.12l-1.21-2.09c-0.2-0.36-0.3-0.74-0.3-1.11     c0-0.79,0.43-1.53,1.11-1.93c1-0.59,2.47-0.21,3.06,0.82l1.2,2.08l1.95-1.13c0.65-0.37,3.36-1.38,5.04-1.57l0.17-0.01     c0.85-0.06,1.44,0.14,1.79,0.67c0.14,0.27,0.2,0.48,0.2,0.69c-0.02,0.59-0.34,1.03-0.63,1.39c-0.31,0.39-0.77,0.83-1.38,1.34     c-0.97,0.82-2.13,1.65-2.59,1.93l-1.96,1.13l1.32,2.29c0.2,0.35,0.3,0.73,0.3,1.11c0,0.79-0.43,1.53-1.11,1.93     c-1.11,0.63-2.46,0.21-3.05-0.81l-1.33-2.3l-0.21,0.12l2.85,4.93c0.2,0.35,0.3,0.72,0.3,1.12c0,0.79-0.42,1.53-1.11,1.93     c-1.08,0.62-2.46,0.21-3.06-0.81l-2.85-4.94l-4.28,2.47l0.35,0.6c0.19,0.34,0.29,0.71,0.29,1.09c0,0.79-0.42,1.52-1.1,1.9     c-1.04,0.59-2.42,0.19-2.98-0.81l-0.34-0.59l-6.17,3.56l-0.04,0.15l0.13,0.22c0.21,0.34,0.32,0.74,0.32,1.15     c0,0.43-0.12,0.84-0.34,1.19c0.33,0.41,0.51,0.9,0.51,1.42c0,0.51-0.18,1-0.49,1.39l0.05,0.2l6.03,3.48l0.31-0.54     c0.55-1,1.97-1.4,2.99-0.8c0.67,0.38,1.09,1.11,1.09,1.9c0,0.38-0.1,0.76-0.29,1.09l-0.31,0.54l4.28,2.47l2.78-4.81     c0.58-1.02,2.03-1.4,3.04-0.82c0.69,0.4,1.12,1.15,1.12,1.94c0,0.39-0.1,0.77-0.29,1.1l-2.79,4.82l0.21,0.12l1.21-2.09     c0.58-1.03,2.01-1.42,3.06-0.81c0.68,0.39,1.11,1.13,1.11,1.92c0,0.41-0.11,0.8-0.31,1.14l-1.2,2.07l1.96,1.13     c0.63,0.38,2.86,2.22,3.87,3.58c0.26,0.37,0.56,0.81,0.57,1.37c0,0.24-0.05,0.46-0.16,0.66c-0.2,0.31-0.6,0.75-1.38,0.71     c0,0,0,0,0,0c-0.18,0-0.39-0.03-0.61-0.06c-0.55-0.1-1.18-0.28-1.87-0.53c-1.28-0.46-2.56-1.05-2.98-1.3l-1.95-1.12l-1.32,2.3     c-0.58,1.02-1.99,1.42-3.05,0.82c-0.69-0.4-1.12-1.15-1.12-1.94c0-0.38,0.1-0.76,0.29-1.1l1.33-2.31l-0.2-0.12l-2.85,4.93     c-0.61,1.04-2.08,1.4-3.07,0.81c-0.67-0.38-1.1-1.12-1.1-1.92c0-0.39,0.1-0.76,0.29-1.11l2.85-4.94l-4.28-2.47l-0.34,0.6     c-0.58,1.01-1.95,1.39-2.99,0.8c-0.68-0.39-1.1-1.12-1.1-1.9c0-0.38,0.1-0.76,0.29-1.09l0.34-0.59l-6.16-3.56l-0.16,0.04     l-0.1,0.36l-0.11,0.02c-0.19,0.28-0.45,0.52-0.75,0.7c-0.34,0.2-0.77,0.32-1.19,0.3c-0.19,0.49-0.53,0.89-0.98,1.15     c-0.45,0.25-0.96,0.34-1.45,0.27l-0.15,0.15v6.97h0.63c1.21,0,2.19,0.98,2.19,2.19c0,0.86-0.49,1.61-1.22,1.97v0.22l-1.6,0.01     v4.94h5.56c1.23,0,2.23,1,2.23,2.23c0,1.23-1,2.23-2.23,2.23h-5.56v0.25h2.42c1.23,0,2.22,1,2.22,2.23v2.45l-0.73-0.79     c-0.4,0.36-0.92,0.57-1.48,0.58h-2.42v2.25c-0.01,0.74-0.47,3.59-1.15,5.15C111.05,214.84,110.68,215.6,109.78,215.67z      M108.16,205.22h0.84v3.94c0,0.37,0.12,1.66,0.35,2.93c0.12,0.66,0.25,1.19,0.39,1.58c0.01-0.02,0.02-0.04,0.03-0.06     c0.54-1.24,0.99-3.83,1-4.46v-3.93h4.1c0.26,0,0.48-0.19,0.53-0.44l0-0.1c0-0.31-0.24-0.55-0.54-0.55h-4.1v-3.61h7.24     c0.3,0,0.54-0.25,0.54-0.55c0-0.3-0.24-0.55-0.54-0.55h-7.24v-8.31l2.36,0c0.26-0.02,0.46-0.24,0.46-0.51     c0-0.28-0.22-0.5-0.5-0.5h-2.32v-9.36l1.33-1.31l0.71,0.19c0.23,0.01,0.33-0.01,0.42-0.06c0.08-0.05,0.2-0.15,0.25-0.33     l-0.53-2.33l1.87,1.2c0.04,0.03,0.1,0.06,0.16,0.08c0.23,0.02,0.32-0.01,0.4-0.05c0.13-0.07,0.21-0.16,0.24-0.27l0.21-0.57     l0.46-0.28l1.29-0.34l8.22,4.75l-1.18,2.05c-0.04,0.08-0.07,0.17-0.07,0.25c0,0.18,0.1,0.35,0.25,0.44     c0.25,0.14,0.56,0.05,0.69-0.18l1.19-2.05l7.2,4.15l-3.69,6.4c-0.05,0.08-0.07,0.17-0.07,0.27c0,0.15,0.07,0.36,0.27,0.47     c0.28,0.17,0.6,0.06,0.76-0.2l3.69-6.39l3.12,1.81l-2.17,3.75c-0.05,0.08-0.07,0.18-0.07,0.27c0,0.2,0.1,0.38,0.27,0.48     c0.25,0.14,0.61,0.05,0.75-0.2l2.16-3.75l3.41,1.97c0.32,0.19,1.5,0.74,2.71,1.17c0.59,0.21,1.14,0.37,1.55,0.45     c-0.01-0.01-0.02-0.03-0.03-0.04c-0.8-1.08-2.81-2.78-3.36-3.11l-3.4-1.96l2.05-3.55c0.05-0.08,0.07-0.17,0.07-0.28     c0-0.2-0.1-0.37-0.27-0.47c-0.25-0.15-0.56-0.13-0.75,0.19l-2.05,3.56l-3.13-1.81l3.63-6.26c0.04-0.07,0.07-0.17,0.07-0.27     c0-0.19-0.11-0.38-0.28-0.48c-0.3-0.17-0.58-0.08-0.74,0.2l-3.62,6.27l-7.2-4.15l1.15-2c0.06-0.1,0.07-0.19,0.07-0.25     c0-0.18-0.1-0.35-0.25-0.44c-0.22-0.13-0.52-0.12-0.68,0.17l-1.16,2.01l-8.1-4.67l-0.48-1.82l0.53-0.51     c0.09-0.09,0.15-0.23,0.15-0.38c0-0.1-0.03-0.26-0.16-0.39c-0.06-0.06-0.14-0.1-0.24-0.13l-2.16-0.64l-0.59,2.17l-3.99-2.31     l4.1-2.37l0.59,2.15l-0.06,0.23l2.04-0.83c0.05-0.02,0.1-0.06,0.15-0.1c0.14-0.14,0.17-0.29,0.17-0.39     c0-0.13-0.04-0.25-0.12-0.35l-0.51-0.53l0.48-1.75l8.22-4.75l1.19,2.06c0.13,0.23,0.35,0.25,0.44,0.25     c0.09,0,0.17-0.02,0.26-0.07c0.15-0.09,0.25-0.25,0.25-0.44c0-0.08-0.02-0.17-0.07-0.25l-1.19-2.06l7.2-4.15l3.69,6.39     c0.15,0.25,0.49,0.35,0.76,0.2c0.16-0.1,0.27-0.28,0.27-0.48c0-0.1-0.02-0.19-0.07-0.28l-3.69-6.39l3.13-1.81l2.17,3.75     c0.15,0.25,0.45,0.36,0.75,0.2c0.16-0.1,0.27-0.28,0.27-0.47c0-0.09-0.03-0.19-0.08-0.27l-2.16-3.75l3.41-1.97     c0.32-0.19,1.4-0.95,2.36-1.77c0.53-0.45,0.92-0.82,1.16-1.12c-1.48,0.18-3.88,1.06-4.42,1.36l-3.4,1.97l-2.05-3.55     c-0.15-0.26-0.51-0.34-0.74-0.21c-0.18,0.1-0.28,0.28-0.28,0.48c0,0.09,0.03,0.19,0.08,0.29l2.04,3.54l-3.12,1.8l-3.62-6.27     c-0.14-0.24-0.44-0.37-0.77-0.19c-0.15,0.09-0.25,0.27-0.25,0.46c0,0.1,0.03,0.2,0.07,0.28l3.61,6.26l-7.2,4.16l-1.16-2     c-0.14-0.24-0.45-0.32-0.69-0.18c-0.15,0.09-0.25,0.26-0.25,0.44c0,0.08,0.03,0.17,0.07,0.25l1.15,2l-8.09,4.67l-1.82-0.48     l-0.18-0.72c-0.03-0.12-0.13-0.24-0.25-0.31c-0.08-0.05-0.17-0.07-0.28-0.07c-0.22,0.04-0.3,0.08-0.37,0.16l-1.52,1.44l0.09-2.09     l0.51-0.31l-0.07-0.08l-0.45,0.12c-0.04-0.14-0.13-0.26-0.25-0.33c-0.08-0.04-0.18-0.07-0.27-0.07l-0.79,0.2l-0.07-0.07     l-0.1,0.01l-0.02-0.13l-1.11-1.1v-9.51h2.37c0.28,0,0.5-0.23,0.5-0.5c0-0.28-0.22-0.5-0.5-0.5h-2.37v-8.32h7.38     c0.31,0,0.55-0.24,0.55-0.55c0-0.3-0.25-0.55-0.55-0.55h-7.38v-3.61h4.33c0.3,0,0.55-0.25,0.55-0.55c0-0.3-0.25-0.54-0.55-0.54     h-4.33v-3.94c0-0.37-0.11-1.66-0.34-2.93c-0.13-0.66-0.26-1.19-0.39-1.57c-0.01,0.02-0.02,0.04-0.02,0.05     c-0.54,1.24-1,3.83-1.01,4.45v3.93h-4.1c-0.3,0-0.55,0.24-0.55,0.54c0,0.3,0.25,0.55,0.55,0.55h4.1v3.61h-7.23     c-0.3,0-0.55,0.25-0.55,0.55c0,0.3,0.25,0.55,0.55,0.55h7.23v8.32h-2.31c-0.28,0-0.51,0.22-0.51,0.5c0,0.28,0.23,0.5,0.51,0.5     h2.31v9.36l-1.33,1.31l-0.7-0.19c-0.11-0.03-0.28-0.02-0.41,0.05c-0.09,0.05-0.21,0.14-0.26,0.32l0.51,2.24l-1.84-1.08     c-0.06-0.04-0.12-0.07-0.19-0.09c-0.23-0.01-0.31,0.01-0.37,0.04c-0.15,0.08-0.23,0.18-0.27,0.3l-0.19,0.71l-1.76,0.47     l-8.23-4.75l1.19-2.05c0.04-0.08,0.07-0.17,0.07-0.25c0-0.18-0.1-0.35-0.25-0.44c-0.33-0.2-0.54-0.09-0.69,0.18l-1.19,2.05     l-7.21-4.16l3.69-6.39c0.05-0.09,0.08-0.18,0.08-0.27c0-0.19-0.11-0.37-0.27-0.46c-0.32-0.2-0.61-0.06-0.76,0.2l-3.69,6.38     l-3.13-1.8l2.17-3.76c0.05-0.08,0.07-0.18,0.07-0.27c0-0.2-0.1-0.38-0.28-0.48c-0.4-0.23-0.62-0.02-0.75,0.2l-2.16,3.75     l-3.42-1.97c-0.31-0.18-1.45-0.72-2.71-1.17c-0.59-0.21-1.12-0.37-1.55-0.45c0.01,0.01,0.02,0.03,0.03,0.04     c0.8,1.1,2.82,2.79,3.35,3.11l3.41,1.96l-2.05,3.55c-0.05,0.09-0.08,0.18-0.08,0.27c0,0.2,0.1,0.37,0.27,0.47     c0.27,0.16,0.6,0.06,0.76-0.2l2.04-3.54l3.12,1.81l-3.61,6.26c-0.05,0.09-0.08,0.18-0.08,0.27c0,0.2,0.11,0.38,0.28,0.48     c0.39,0.22,0.61,0.03,0.75-0.22l3.61-6.26l7.2,4.15l-1.16,2.01c-0.05,0.09-0.06,0.19-0.06,0.25c0,0.18,0.1,0.35,0.25,0.44     c0.24,0.14,0.55,0.05,0.68-0.17l1.17-2.02l8.09,4.67l0.48,1.8l-0.5,0.51c-0.11,0.11-0.17,0.25-0.17,0.39     c0,0.11,0.03,0.26,0.16,0.39c0.06,0.06,0.14,0.11,0.23,0.13l2.17,0.63l0.58-2.16l3.99,2.32l-4.11,2.37l-0.57-2.16l0.07-0.25     l-2.05,0.85c-0.06,0.02-0.12,0.06-0.16,0.11c-0.13,0.13-0.16,0.28-0.16,0.39c0,0.12,0.05,0.25,0.12,0.34l0.52,0.52l-0.47,1.77     l-8.23,4.76l-1.19-2.06c-0.14-0.24-0.45-0.32-0.7-0.18c-0.15,0.09-0.25,0.25-0.25,0.44c0,0.07,0.03,0.16,0.07,0.24l1.18,2.07     l-7.2,4.15l-3.69-6.39c-0.14-0.25-0.48-0.36-0.74-0.2c-0.21,0.12-0.28,0.32-0.28,0.48c0,0.1,0.03,0.19,0.08,0.29l3.68,6.37     l-3.12,1.81l-2.17-3.75c-0.14-0.25-0.46-0.36-0.76-0.2c-0.16,0.09-0.26,0.27-0.26,0.47c0,0.1,0.02,0.19,0.07,0.27l2.17,3.75     l-3.42,1.97c-0.31,0.18-1.36,0.92-2.37,1.77c-0.54,0.46-0.92,0.82-1.15,1.12c1.46-0.17,3.88-1.06,4.41-1.36l3.41-1.97l2.05,3.55     c0.14,0.25,0.38,0.28,0.48,0.28c0.06,0,0.16-0.01,0.26-0.07c0.18-0.11,0.28-0.28,0.28-0.48c0-0.1-0.02-0.19-0.07-0.27l-2.05-3.55     l3.12-1.81l3.62,6.27c0.1,0.16,0.25,0.22,0.46,0.27c0.11,0,0.2-0.02,0.28-0.07c0.17-0.1,0.27-0.28,0.27-0.48     c0-0.1-0.03-0.19-0.07-0.28l-3.62-6.26l7.21-4.16l1.16,2c0.13,0.23,0.44,0.32,0.69,0.18c0.15-0.09,0.25-0.26,0.25-0.44     c0-0.09-0.02-0.17-0.07-0.25l-1.16-2.01l8.09-4.68l1.82,0.49l0.18,0.72c0.03,0.13,0.13,0.25,0.25,0.32     c0.08,0.04,0.17,0.07,0.27,0.07c0.23-0.04,0.31-0.09,0.38-0.15l1.64-1.55l-1.59-1.59l3.99-2.31v4.74l-2.15-0.57l-0.18-0.18     l-0.3,2.2l0.03,0.18c0.04,0.14,0.13,0.26,0.24,0.33c0.09,0.05,0.18,0.08,0.29,0.08l0.8-0.19l0.05,0.05l0.13-0.02l0.02,0.17     l1.09,1.09v9.51h-2.36c-0.29,0-0.51,0.23-0.52,0.5c0,0.28,0.22,0.51,0.5,0.51h2.38v8.31h-7.38c-0.3,0-0.55,0.25-0.55,0.55     c0,0.31,0.24,0.55,0.55,0.55h7.38v3.61h-4.33c-0.3,0-0.54,0.25-0.54,0.55c0,0.3,0.25,0.54,0.55,0.55H108.16z M105.41,190.61v0.71     V190.61z M105.41,190.61v0.71V190.61z M110.77,177.35v-4.61l4.11,2.36l-1.58,1.57L110.77,177.35z M110.77,169.67v-4.73l2.15,0.57     l1.86,1.85L110.77,169.67z M109.01,169.66l-4.11-2.35l1.58-1.58l2.53-0.68V169.66z" class="st1"/></g><g><path data-cppathid="10004" d="M109.71,216.18l-0.11-0.01c-1.25-0.11-1.7-1.23-1.89-1.71c-0.21-0.56-0.37-1.25-0.5-1.97     c-0.23-1.26-0.38-2.73-0.38-3.32v-1.76h-2.16c-1.5-0.01-2.72-1.23-2.72-2.73c0-0.78,0.33-1.48,0.86-1.98h-1.18     c-1.51,0-2.73-1.22-2.73-2.73c0-1.51,1.22-2.73,2.73-2.73h5.2v-3.96h-0.2c-1.47,0-2.68-1.2-2.68-2.69     c0.01-1.47,1.2-2.66,2.64-2.68h0.24v-6.25c-0.45-0.01-0.88-0.14-1.27-0.35c-0.35-0.2-0.65-0.48-0.88-0.81     c-0.5,0.04-1.02-0.11-1.46-0.36c-0.43-0.24-0.77-0.58-1-1l-5.28,3.06l0.07,0.12c0.24,0.41,0.36,0.87,0.36,1.34     c0,0.95-0.51,1.85-1.34,2.33c-1.26,0.72-2.96,0.25-3.67-0.98l-0.06-0.12l-3.43,1.98l2.53,4.38c0.24,0.42,0.36,0.89,0.36,1.37     c0,0.98-0.53,1.89-1.37,2.37c-1.27,0.72-2.99,0.24-3.71-1l-0.64-1.1c-0.17,0.72-0.64,1.35-1.29,1.73c-1.2,0.72-2.99,0.28-3.72-1     l-0.96-1.66l-1.53,0.89c-0.8,0.45-3.54,1.44-5.23,1.64l-0.55,0.02c-0.84,0-1.47-0.3-1.86-0.89l-0.23-0.34l-0.06-0.64     c0.01-0.8,0.47-1.36,0.74-1.7c0.37-0.45,0.89-0.94,1.44-1.41c0.98-0.82,2.18-1.69,2.69-1.99l1.53-0.89l-1.08-1.87     c-0.24-0.4-0.36-0.87-0.36-1.36c0-0.97,0.52-1.87,1.35-2.36c0.69-0.39,1.46-0.46,2.14-0.26l-0.59-1.01     c-0.24-0.43-0.37-0.9-0.37-1.36c0-0.96,0.52-1.87,1.37-2.36c1.28-0.74,2.99-0.26,3.72,1l2.6,4.51l3.43-1.98l-0.1-0.17     c-0.24-0.41-0.37-0.88-0.37-1.33c0-0.96,0.51-1.85,1.35-2.33c1.23-0.7,2.94-0.25,3.66,0.98l0.1,0.17l5.3-3.06l-0.28-0.28     l0.19-0.28c-0.08-0.25-0.12-0.52-0.12-0.79c0-0.41,0.09-0.8,0.26-1.16c-0.27-0.43-0.42-0.93-0.42-1.45     c0-0.47,0.13-0.94,0.36-1.35l-5.28-3.06l-0.07,0.12c-0.69,1.21-2.4,1.7-3.65,0.99c-0.84-0.49-1.35-1.38-1.35-2.33     c0-0.47,0.12-0.93,0.35-1.33l0.07-0.13l-3.43-1.98l-2.52,4.38c-0.77,1.28-2.49,1.72-3.73,1c-0.84-0.49-1.37-1.39-1.37-2.36     c0-0.47,0.13-0.94,0.37-1.36l0.64-1.1c-0.73,0.22-1.55,0.12-2.18-0.27c-0.81-0.46-1.33-1.36-1.33-2.34     c0-0.48,0.13-0.95,0.37-1.37l0.95-1.66l-1.52-0.88c-0.8-0.48-3.03-2.37-4.03-3.72c-0.27-0.38-0.64-0.93-0.67-1.62     c0-0.34,0.07-0.62,0.21-0.9c0.36-0.57,1.16-1.14,2.51-0.95c0.61,0.11,1.29,0.31,1.98,0.56c1.27,0.46,2.58,1.05,3.07,1.33     l1.52,0.88l1.07-1.87c0.73-1.27,2.5-1.73,3.74-0.99c0.65,0.37,1.11,1,1.28,1.72l0.59-1.01c0.73-1.26,2.48-1.73,3.74-0.99     c0.82,0.47,1.35,1.37,1.35,2.35c0,0.47-0.13,0.94-0.36,1.36l-2.61,4.51l3.43,1.98l0.1-0.17c0.7-1.23,2.45-1.7,3.67-0.97     c0.82,0.46,1.34,1.36,1.34,2.32c0,0.46-0.12,0.92-0.36,1.33l-0.1,0.17l5.42,3.13c0.26-0.41,0.58-0.72,0.96-0.93     c0.31-0.19,0.69-0.32,1.11-0.36c0.24-0.44,0.6-0.83,1.07-1.09c0.4-0.23,0.87-0.36,1.34-0.36l-0.13-6.11     c-1.48,0-2.69-1.2-2.69-2.68c0-1.48,1.2-2.68,2.69-2.68h0.13v-3.96h-5.06c-1.5,0-2.73-1.22-2.73-2.72c0-1.5,1.22-2.73,2.73-2.73     h1.26c-0.53-0.5-0.85-1.2-0.85-1.98c0-1.5,1.23-2.72,2.73-2.72h1.92v-1.76c0.01-0.89,0.53-3.81,1.2-5.35     c0.27-0.57,0.74-1.56,1.93-1.66c1.48,0.11,1.92,1.24,2.11,1.72c0.2,0.56,0.36,1.25,0.5,1.96c0.23,1.27,0.38,2.74,0.38,3.33V135     h2.16c1.5,0,2.72,1.22,2.72,2.72c0,0.78-0.33,1.49-0.85,1.98h1.18c1.5,0,2.73,1.22,2.73,2.73c0,1.5-1.22,2.72-2.73,2.72h-5.2     v3.96h0.19c1.47,0,2.68,1.2,2.68,2.68c0,1.48-1.21,2.68-2.68,2.68h-0.19v6.25c0.43,0.01,0.87,0.14,1.26,0.35     c0.36,0.21,0.66,0.48,0.89,0.81c0.52-0.04,1.04,0.11,1.47,0.37c0.41,0.24,0.75,0.58,0.98,0.98l5.28-3.05l-0.06-0.12     c-0.24-0.41-0.36-0.87-0.36-1.33c0-0.95,0.51-1.84,1.33-2.32c1.28-0.73,2.97-0.26,3.68,0.98l0.06,0.11l3.43-1.97l-2.52-4.38     c-0.24-0.4-0.37-0.88-0.37-1.37c0-0.97,0.52-1.87,1.36-2.36c1.36-0.75,3.01-0.24,3.73,0.99l0.63,1.09     c0.18-0.71,0.64-1.34,1.28-1.72c1.21-0.72,3.01-0.27,3.73,1l0.95,1.66l1.53-0.89c0.81-0.45,3.56-1.45,5.23-1.64l0.56-0.03     c1.05,0,1.6,0.49,1.87,0.91l0.22,0.33l0.06,0.63c-0.03,0.76-0.4,1.28-0.74,1.7c-0.34,0.41-0.81,0.87-1.45,1.41     c-1.03,0.87-2.2,1.7-2.66,1.98l-1.54,0.89l1.07,1.86c0.24,0.41,0.37,0.89,0.37,1.36c0,0.96-0.52,1.86-1.35,2.36     c-0.67,0.39-1.45,0.47-2.15,0.26l0.59,1.01c0.24,0.43,0.37,0.88,0.37,1.36c0,0.97-0.52,1.87-1.35,2.36     c-1.35,0.76-3.01,0.25-3.73-1l-2.6-4.5l-3.43,1.98l0.1,0.17c0.23,0.4,0.36,0.86,0.36,1.33c0,0.96-0.52,1.86-1.35,2.33     c-1.23,0.7-2.96,0.24-3.66-1l-0.09-0.16l-5.3,3.07l0.09,0.09l-0.08,0.22c0.13,0.33,0.21,0.68,0.21,1.03     c0,0.41-0.09,0.8-0.26,1.16c0.28,0.44,0.42,0.93,0.42,1.44c0,0.47-0.13,0.94-0.36,1.35l5.28,3.05l0.07-0.12     c0.68-1.22,2.43-1.69,3.67-0.98c0.82,0.47,1.33,1.36,1.33,2.33c0,0.48-0.12,0.94-0.36,1.35l-0.06,0.11l3.43,1.98l2.53-4.38     c0.7-1.25,2.47-1.72,3.72-1.01c0.85,0.49,1.37,1.4,1.37,2.37c0,0.47-0.12,0.92-0.35,1.34l-0.64,1.11c0.7-0.21,1.5-0.13,2.15,0.26     c0.83,0.47,1.35,1.37,1.35,2.35c0,0.49-0.13,0.96-0.37,1.37l-0.96,1.66l1.52,0.88c0.79,0.48,3.03,2.36,4.03,3.72     c0.27,0.39,0.65,0.94,0.66,1.66c0,0.33-0.07,0.63-0.22,0.9c-0.44,0.67-1.06,0.98-1.78,0.98l0,0c-0.23,0-0.47-0.02-0.72-0.06     c-0.6-0.11-1.28-0.31-1.97-0.56c-1.24-0.44-2.56-1.04-3.07-1.33l-1.52-0.87l-1.08,1.87c-0.72,1.25-2.45,1.72-3.73,1     c-0.65-0.37-1.11-1.01-1.29-1.73l-0.59,1.02c-0.75,1.29-2.55,1.73-3.76,0.98c-0.8-0.45-1.33-1.35-1.33-2.34     c0-0.48,0.12-0.93,0.36-1.35l2.61-4.52l-3.43-1.98l-0.09,0.17c-0.72,1.24-2.42,1.7-3.67,0.98c-0.82-0.47-1.34-1.36-1.34-2.33     c0-0.47,0.13-0.93,0.36-1.34l0.09-0.16l-5.41-3.13c-0.26,0.42-0.58,0.72-0.96,0.94c-0.31,0.19-0.7,0.31-1.11,0.35     c-0.24,0.46-0.6,0.83-1.06,1.09c-0.39,0.23-0.87,0.36-1.35,0.36v6.11h0.14c1.47,0,2.68,1.21,2.68,2.68     c0,1.39-1.04,2.54-2.43,2.68l-0.39,0v3.96h5.07c1.5,0,2.72,1.22,2.72,2.72c0,1.51-1.23,2.73-2.72,2.73h-1.28     c0.52,0.5,0.85,1.2,0.85,1.98v3.82l-1.32-1.48c-0.41,0.25-0.89,0.39-1.39,0.39h-1.94v1.76c-0.01,0.89-0.53,3.82-1.19,5.35     c-0.25,0.53-0.74,1.56-1.93,1.66L109.71,216.18z M104.67,204.62l4.83,0.11v4.43c0,0.33,0.1,1.5,0.31,2.67     c0.27-1.13,0.46-2.34,0.47-2.68v-4.42l4.6-0.04l-4.6-0.06v-4.6h7.74l-7.74-0.11v-9.3h2.94l-2.94-0.02v-10.05l1.67-1.66l1.02,0.25     l-0.43-1.75l-2.25,0.6v-6.11l5.41,3.11l-1.8,1.79l1.25,0.93l0.26-0.92l2.26-0.66l8.83,5.1l-1.44,2.48l1.45-2.46l8.05,4.64     l-3.93,6.83l4.03-6.77l3.98,2.3l-2.41,4.18l2.5-4.13l3.84,2.21c0.29,0.17,1.36,0.67,2.47,1.08c-0.85-0.82-1.81-1.59-2.1-1.76     l-3.82-2.21l2.3-3.98l-2.39,3.93l-3.99-2.3l3.88-6.69l-3.97,6.64l-8.05-4.64l1.4-2.43l-1.42,2.41l-8.7-5.02l-0.61-2.29l0.73-0.75     l-1.72-0.52l-0.62,2.28l-5.29-3.07l5.4-3.11l0.67,2.47l1.39-0.61l-0.68-0.77l0.61-2.22l8.83-5.11l1.43,2.48l-1.41-2.5l8.05-4.64     l3.94,6.82l-3.85-6.87l3.98-2.31l2.42,4.18l-2.32-4.23l3.84-2.21c0.25-0.15,1.25-0.84,2.17-1.61c-1.12,0.33-2.29,0.78-2.57,0.94     l-3.82,2.22l-2.3-3.98l2.2,4.03l-3.98,2.3l-3.86-6.7l3.77,6.75l-8.05,4.65l-1.4-2.44l1.38,2.45l-8.69,5.02l-2.29-0.61l-0.28-1.02     l-1.3,1.24l1.67,1.67l-5.31,3.06v-6.23l2.58,0.69l0.05-1.43l-0.26-0.09l-0.74,0.19l-1.64-1.63v-10.21h2.87l-2.87-0.01v-9.3h7.88     l-7.88-0.11v-4.6h4.83l-4.83-0.11v-4.43c0-0.32-0.1-1.5-0.3-2.67c-0.27,1.13-0.47,2.35-0.47,2.69v4.42h-4.59l4.59,0.11v4.6h-7.73     l7.73,0.11v9.3h-2.8l2.8,0.01v10.06l-1.68,1.66l-0.74-0.2l0,0l-0.27-0.05l0.39,1.76l2.32-0.63v6.11l-5.41-3.1l1.81-1.82     l-1.22-0.89l-0.12,0.24l-0.21,0.73l-2.23,0.6l-8.83-5.1l1.43-2.48l-1.45,2.47l-8.06-4.65l3.94-6.82l-4.03,6.77l-3.98-2.3     l2.41-4.18l-2.51,4.13l-3.84-2.22c-0.28-0.16-1.33-0.65-2.46-1.07c0.85,0.81,1.81,1.59,2.09,1.75l3.82,2.2l-2.29,3.98l2.39-3.93     l3.98,2.31l-3.86,6.69l3.95-6.64l8.06,4.64l-1.41,2.44l1.43-2.43l8.7,5.02l0.6,2.27l-0.72,0.74l1.73,0.51l0.6-2.25l5.3,3.07     l-5.42,3.12l-0.64-2.47l-1.39,0.61l0.68,0.75l-0.61,2.24l-8.83,5.1l-1.43-2.48l1.41,2.5l-8.06,4.64l-3.93-6.81l3.84,6.86     l-3.98,2.31l-2.41-4.18l2.32,4.23l-3.84,2.22c-0.28,0.16-1.24,0.84-2.16,1.6c1.11-0.32,2.27-0.77,2.56-0.94l3.83-2.21l2.3,3.98     l-2.2-4.03l3.97-2.3l3.87,6.7l-3.78-6.75l8.06-4.65l1.41,2.43l-1.39-2.44l8.7-5.03l2.29,0.61l0.3,1.02l1.31-1.22l-1.68-1.69     l5.29-3.06v6.23l-2.41-0.64l-0.23,1.54l0.93-0.25l1.72,1.64v10.2h-2.85l2.85,0.02v9.3h-7.87l7.87,0.11v4.6H104.67z" class="st1"/><path data-cppathid="10005" d="M109.64,217.02l-0.11-0.01c-1.77-0.15-2.39-1.73-2.6-2.24c-0.21-0.57-0.39-1.26-0.55-2.12     c-0.22-1.21-0.39-2.76-0.39-3.48v-0.91h-1.31c-1.97-0.01-3.56-1.62-3.56-3.57c0-0.4,0.06-0.79,0.19-1.16     c-1.82-0.17-3.24-1.7-3.24-3.55c0-1.97,1.6-3.57,3.57-3.57h4.36v-2.33c-1.64-0.3-2.88-1.74-2.88-3.47     c0.02-1.71,1.26-3.15,2.88-3.46v-4.75c-0.29-0.08-0.58-0.19-0.84-0.34c-0.32-0.19-0.62-0.42-0.87-0.7c-0.49-0.04-1-0.2-1.46-0.46     c-0.3-0.17-0.57-0.38-0.81-0.63l-3.98,2.3c0.13,0.37,0.18,0.74,0.18,1.11c0,1.26-0.68,2.43-1.76,3.06     c-1.45,0.83-3.32,0.49-4.4-0.71l-2.03,1.17l2.11,3.65c0.31,0.55,0.48,1.16,0.48,1.79c0,1.28-0.69,2.47-1.8,3.1     c-1.6,0.91-3.71,0.4-4.73-1.11c-0.26,0.29-0.56,0.54-0.9,0.74c-0.76,0.45-1.73,0.57-2.66,0.34c-0.95-0.25-1.75-0.84-2.21-1.64     l-0.54-0.93l-0.8,0.46c-0.87,0.49-3.74,1.54-5.55,1.74l-0.62,0.03c0,0,0,0,0,0c-1.46,0-2.21-0.69-2.59-1.26l-0.34-0.51     l-0.08-0.85c0.02-1.2,0.63-1.95,0.93-2.31c0.36-0.44,0.87-0.94,1.54-1.51c1.05-0.88,2.27-1.77,2.81-2.08l0.8-0.47l-0.65-1.14     c-0.31-0.52-0.48-1.14-0.48-1.78c0-1.26,0.68-2.45,1.77-3.09c0.35-0.2,0.73-0.34,1.11-0.41c-0.22-0.48-0.33-0.99-0.33-1.49     c0-1.27,0.69-2.45,1.79-3.09c1.67-0.96,3.9-0.37,4.87,1.3l2.18,3.78l2.02-1.16c-0.13-0.37-0.2-0.77-0.2-1.17     c0-1.26,0.68-2.43,1.77-3.06c1.46-0.84,3.36-0.47,4.44,0.76l3.7-2.14l0.35-0.53c-0.04-0.21-0.06-0.41-0.06-0.63     c0-0.38,0.06-0.75,0.17-1.1c-0.22-0.47-0.33-0.98-0.33-1.51c0-0.33,0.05-0.67,0.14-0.99l-3.99-2.31     c-0.46,0.51-1.04,0.86-1.7,1.04c-0.91,0.25-1.89,0.14-2.68-0.31c-1.1-0.64-1.78-1.81-1.78-3.06c0-0.38,0.06-0.75,0.18-1.11     l-2.03-1.17l-2.1,3.64c-1,1.67-3.23,2.27-4.88,1.31c-1.1-0.64-1.79-1.82-1.79-3.09c0-0.54,0.13-1.08,0.37-1.57     c-0.4-0.08-0.79-0.23-1.14-0.44c-1.06-0.6-1.73-1.78-1.73-3.06c0-0.63,0.17-1.25,0.48-1.79l0.53-0.92l-0.79-0.46     c-0.86-0.51-3.2-2.48-4.29-3.95c-0.31-0.44-0.8-1.15-0.83-2.09c0-0.49,0.1-0.91,0.3-1.32c0.71-1.11,1.96-1.6,3.38-1.4     c0.66,0.11,1.37,0.31,2.15,0.6c1.32,0.47,2.66,1.08,3.21,1.4l0.78,0.45l0.65-1.13c0.46-0.8,1.27-1.4,2.21-1.65     c0.93-0.24,1.91-0.11,2.69,0.35c0.33,0.19,0.63,0.44,0.89,0.73c0.48-0.66,1.2-1.15,2.02-1.37c0.93-0.24,1.91-0.11,2.7,0.35     c1.08,0.62,1.76,1.8,1.76,3.07c0,0.61-0.16,1.23-0.47,1.77l-2.19,3.79l2.03,1.17c0.45-0.51,1.07-0.9,1.77-1.08     c0.93-0.25,1.9-0.12,2.68,0.34c1.08,0.61,1.75,1.78,1.75,3.05c0,0.39-0.07,0.79-0.2,1.16l4.11,2.38     c0.22-0.23,0.47-0.42,0.75-0.57c0.29-0.18,0.63-0.32,1.01-0.39c0.3-0.43,0.7-0.79,1.16-1.05c0.28-0.16,0.58-0.28,0.9-0.36     l-0.1-4.62c-1.55-0.37-2.7-1.77-2.7-3.43c0-1.7,1.21-3.13,2.82-3.45V146h-4.22c-1.97,0-3.57-1.6-3.57-3.57     c0-1.89,1.47-3.44,3.33-3.56c-0.13-0.37-0.19-0.76-0.19-1.15c0-1.97,1.6-3.57,3.57-3.57h1.08v-0.92     c0.01-0.97,0.55-4.03,1.27-5.68c0.29-0.62,0.96-2.02,2.64-2.16c2.12,0.14,2.75,1.72,2.96,2.24c0.21,0.58,0.38,1.26,0.55,2.13     c0.24,1.35,0.39,2.86,0.39,3.48v0.92h1.31c1.97,0,3.57,1.6,3.57,3.57c0,0.4-0.07,0.79-0.19,1.16c1.82,0.17,3.24,1.7,3.24,3.56     c0,1.97-1.6,3.57-3.57,3.57h-4.36v2.33c1.63,0.3,2.88,1.74,2.88,3.47c0,1.72-1.24,3.16-2.88,3.46v4.74     c0.28,0.08,0.56,0.19,0.82,0.33c0.34,0.2,0.64,0.44,0.89,0.71c0.51,0.04,1.02,0.2,1.5,0.49c0.28,0.16,0.54,0.37,0.77,0.61     l3.99-2.3c-0.13-0.37-0.19-0.74-0.19-1.1c0-1.25,0.67-2.42,1.75-3.05c1.46-0.83,3.33-0.49,4.41,0.7l2.03-1.17l-2.1-3.65     c-0.31-0.52-0.48-1.14-0.48-1.79c0-1.27,0.68-2.45,1.78-3.09c1.66-0.91,3.73-0.41,4.75,1.1c0.25-0.29,0.55-0.54,0.89-0.73     c0.77-0.45,1.75-0.58,2.69-0.33c0.94,0.25,1.74,0.85,2.2,1.64l0.53,0.93l0.79-0.46c0.89-0.5,3.77-1.54,5.56-1.74l0.61-0.03     c0,0,0,0,0,0c1.55,0,2.3,0.81,2.61,1.29l0.33,0.51l0.08,0.83c-0.03,1.08-0.46,1.74-0.93,2.31c-0.37,0.45-0.88,0.95-1.56,1.52     c-1.06,0.91-2.28,1.76-2.77,2.05l-0.83,0.48l0.65,1.13c0.31,0.55,0.48,1.16,0.48,1.78c0,1.26-0.68,2.44-1.77,3.08     c-0.35,0.2-0.72,0.35-1.11,0.42c0.22,0.48,0.33,0.98,0.33,1.49c0,1.26-0.68,2.45-1.77,3.09c-1.73,0.97-3.92,0.38-4.89-1.31     l-2.18-3.77l-2.02,1.16c0.13,0.37,0.2,0.77,0.2,1.17c0,1.27-0.68,2.44-1.78,3.07c-0.77,0.44-1.75,0.56-2.67,0.31     c-0.69-0.19-1.3-0.57-1.75-1.08l-4.11,2.38c0.08,0.3,0.12,0.61,0.12,0.91c0,0.38-0.06,0.75-0.18,1.11     c0.22,0.47,0.33,0.97,0.33,1.5c0,0.34-0.05,0.67-0.14,0.99l3.99,2.31c0.46-0.5,1.04-0.85,1.69-1.03c0.93-0.26,1.92-0.14,2.7,0.31     c1.08,0.62,1.75,1.79,1.75,3.06c0,0.38-0.06,0.75-0.18,1.11l2.03,1.17l2.11-3.65c0.44-0.77,1.22-1.37,2.14-1.62     c0.94-0.26,1.93-0.15,2.72,0.3c1.11,0.64,1.79,1.83,1.79,3.1c0,0.55-0.12,1.07-0.36,1.57c0.39,0.08,0.76,0.22,1.1,0.42     c1.08,0.62,1.76,1.8,1.76,3.07c0,0.64-0.17,1.26-0.48,1.8l-0.53,0.92l0.79,0.45c0.87,0.52,3.21,2.49,4.29,3.95     c0.31,0.45,0.82,1.16,0.83,2.14c0,0.48-0.11,0.92-0.32,1.31c-0.77,1.18-1.97,1.55-3.36,1.35c-0.66-0.12-1.37-0.32-2.14-0.6     c-1.29-0.46-2.65-1.07-3.2-1.4l-0.78-0.45l-0.66,1.14c-0.96,1.66-3.19,2.26-4.87,1.31c-0.34-0.2-0.65-0.45-0.91-0.75     c-0.49,0.67-1.22,1.16-2.07,1.38c-0.94,0.23-1.92,0.09-2.68-0.38c-1.05-0.59-1.73-1.77-1.73-3.05c0-0.63,0.16-1.22,0.46-1.77     l2.19-3.79l-2.02-1.17c-1.09,1.24-2.98,1.6-4.44,0.76c-1.08-0.62-1.76-1.79-1.76-3.06c0-0.4,0.07-0.79,0.2-1.16l-4.11-2.37     c-0.23,0.23-0.48,0.42-0.76,0.58c-0.29,0.18-0.63,0.31-1.01,0.39c-0.3,0.43-0.7,0.79-1.16,1.04c-0.28,0.17-0.59,0.29-0.92,0.37     v4.61c1.65,0.36,2.82,1.76,2.82,3.43c0,1.7-1.19,3.13-2.82,3.46v2.34h4.22c1.96,0,3.56,1.6,3.56,3.56c0,1.9-1.48,3.45-3.33,3.57     c0.12,0.37,0.19,0.75,0.19,1.15v6.04l-2.37-2.68c-0.37,0.13-0.77,0.2-1.17,0.21h-1.1v0.91c-0.01,0.97-0.55,4.04-1.26,5.68     c-0.3,0.62-0.96,2.02-2.63,2.16L109.64,217.02z M111.12,205.56v3.59c0,0.47-0.23,1.81-0.49,2.88l-0.79,3.29     c0.6-0.09,0.89-0.61,1.16-1.17c0.63-1.44,1.11-4.25,1.11-4.99v-2.59h2.78c0.33,0,0.67-0.1,0.96-0.27l0.6-0.36l0.31,0.35v-1.59     c0-0.52-0.21-1.01-0.59-1.37l-1.52-1.45h3.38c1.03,0,1.88-0.85,1.88-1.89c0-1.03-0.85-1.88-1.88-1.88h-5.91v-5.65l1.23,0     c0.87-0.09,1.59-0.88,1.59-1.83c0-1.01-0.82-1.84-1.84-1.84h-0.84l-0.14-0.84v-6.95l0.84,0c0.33,0,0.66-0.09,0.92-0.24     c0.32-0.18,0.57-0.43,0.74-0.76l0.21-0.4l0.45-0.04c0.28-0.02,0.54-0.11,0.74-0.23c0.3-0.17,0.51-0.37,0.68-0.66l0.43-0.7     l6.86,3.97l-0.52,0.89c-0.16,0.27-0.24,0.59-0.24,0.92c0,0.66,0.35,1.28,0.91,1.59c0.86,0.49,2.03,0.18,2.53-0.67l0.5-0.9     l4.9,2.83l-3.03,5.25c-0.16,0.28-0.24,0.6-0.24,0.93c0,0.67,0.35,1.3,0.9,1.6c0.42,0.26,0.92,0.32,1.42,0.2     c0.52-0.13,0.95-0.44,1.2-0.86l1.64-2.84l0.49,2.05c0.12,0.51,0.44,0.94,0.89,1.19c0.87,0.5,2.08,0.18,2.58-0.69l1.5-2.59     l2.25,1.29c0.42,0.25,1.67,0.82,2.93,1.27c0.69,0.25,1.31,0.43,1.84,0.52c0.51,0.07,1.12,0.06,1.48-0.34l-3.15-1.17     c-1.06-0.39-2.22-0.92-2.61-1.15l-3.12-1.8l-2.08,3.42l-1.45-0.86l1.99-3.45l-2.53-1.46l-3.6,6.05l-1.45-0.85l3.51-6.1l-6.6-3.81     l-1.03,1.75l-1.45-0.85l1.01-1.75l-7.79-4.5l-1.46,0.43l-0.47,1.65l-2.2-1.64l0.7,2.82l-1.91-0.48l-1.08,1.08v8.86l2.1,0.01     l-0.01,1.68h-2.09v7.63l6.91,0.1l-0.01,1.68h-6.9v2.93l3.77,0.05l0,1.68L111.12,205.56z M106.83,206.56h0.84v2.6     c0,0.54,0.15,1.98,0.37,3.17c0.14,0.77,0.29,1.37,0.46,1.83c0.24,0.61,0.52,1.06,1.06,1.15l-0.58-3.34     c-0.21-1.18-0.32-2.42-0.32-2.82v-3.61l-4-0.09l0.02-1.68h3.98v-2.93l-7.04-0.1l0.01-1.68h7.03v-7.62l-2.02-0.01l0.01-1.68h2.01     v-9l-1.11-1.06l-1.71,0.46l0.41-2.71l-2.09,1.95l-0.55-1.88l-1.5-0.4l-7.67,4.44l0.97,1.71l-1.46,0.84l-0.98-1.7l-6.61,3.82     l3.37,6.02l-1.46,0.83l-3.45-5.97l-2.53,1.46l1.81,3.31l-1.47,0.82l-1.88-3.25l-3.1,1.79c-0.41,0.24-1.66,0.7-2.74,1.02     l-3.25,0.95c0.16,0.21,0.45,0.44,1.11,0.44l0.52-0.02c1.5-0.17,4.13-1.12,4.85-1.53l2.25-1.3l1.38,2.39     c0.24,0.41,0.67,0.72,1.18,0.86c0.5,0.13,1,0.07,1.38-0.16c0.46-0.26,0.78-0.7,0.91-1.21l0.5-2.05l1.69,2.93     c0.5,0.85,1.69,1.17,2.56,0.68c0.58-0.33,0.95-0.96,0.95-1.64c0-0.33-0.09-0.66-0.25-0.95l-2.95-5.1l4.91-2.83l0.41,0.76     c0.53,0.93,1.74,1.26,2.57,0.77c0.57-0.33,0.92-0.94,0.92-1.6c0-0.32-0.08-0.64-0.24-0.91l-0.43-0.73l0.66-0.54l6.01-3.48     l0.42,0.73c0.16,0.29,0.4,0.52,0.69,0.68c0.32,0.18,0.67,0.27,0.97,0.25l0.49-0.04l0.28,0.4c0.16,0.23,0.37,0.42,0.61,0.56     c0.26,0.15,0.56,0.23,0.87,0.24l0.81,0.03v7.91h-1.08c-0.98,0.01-1.79,0.84-1.8,1.84c0,1.01,0.82,1.83,1.84,1.83h1.04v5.64h-6.04     c-1.04,0-1.89,0.85-1.89,1.88c0,1.04,0.85,1.88,1.89,1.88h3.29l-1.53,1.45c-0.38,0.36-0.59,0.85-0.59,1.37     c0,1.03,0.85,1.88,1.89,1.88H106.83z M140.27,187.32l3.09,1.79c0.41,0.24,1.47,1.11,2.26,1.88l2.44,2.35     c0.04-0.09,0.08-0.25,0.08-0.43c-0.01-0.45-0.29-0.85-0.51-1.17c-0.91-1.23-3.05-3.05-3.77-3.48l-2.24-1.29l1.38-2.39     c0.17-0.28,0.25-0.61,0.25-0.95c0-0.67-0.35-1.29-0.93-1.62c-0.45-0.26-1-0.33-1.5-0.19l-2.03,0.59l1.71-2.93     c0.15-0.28,0.24-0.59,0.24-0.92c0-0.67-0.36-1.3-0.95-1.64c-0.4-0.23-0.92-0.28-1.43-0.14c-0.49,0.13-0.9,0.44-1.12,0.83     l-2.96,5.11l-4.88-2.81l0.41-0.73c0.23-0.4,0.32-0.72,0.32-1.04c0-0.66-0.35-1.28-0.91-1.6c-0.4-0.23-0.92-0.29-1.42-0.15     c-0.48,0.13-0.88,0.43-1.1,0.81l-0.42,0.75l-0.81-0.31l-6.01-3.47l0.41-0.73c0.16-0.29,0.25-0.61,0.25-0.94     c0-0.36-0.1-0.69-0.29-1l-0.25-0.39l0.2-0.42c0.12-0.25,0.18-0.52,0.18-0.8c0-0.24-0.05-0.48-0.14-0.71l-0.12-0.3l0-0.01     l-0.42-0.4l0.88-0.65l6.03-3.49l0.52,0.88c0.23,0.4,0.64,0.71,1.12,0.84c0.49,0.13,0.99,0.08,1.39-0.14     c0.58-0.33,0.93-0.94,0.93-1.6c0-0.32-0.08-0.63-0.25-0.91l-0.51-0.91l4.88-2.81l3.02,5.23c0.51,0.9,1.68,1.21,2.59,0.69     c0.56-0.33,0.92-0.96,0.92-1.63c0-0.33-0.08-0.64-0.26-0.95l-1.65-2.85l2.04,0.62c0.49,0.15,1.03,0.08,1.48-0.18     c0.58-0.34,0.94-0.96,0.94-1.63c0-0.33-0.09-0.65-0.25-0.94l-1.5-2.59l2.27-1.31c0.37-0.22,1.5-1.01,2.54-1.89     c0.6-0.51,1.04-0.93,1.34-1.3c0.29-0.36,0.54-0.7,0.56-1.2l-0.05-0.33l-2.6,2.18c-0.92,0.77-1.95,1.49-2.27,1.69l-3.14,1.81     l1.93,3.51l-1.47,0.83l-2-3.45l-2.54,1.47l3.44,6.14l-1.46,0.83l-3.52-6.09l-6.6,3.81l1,1.77l-1.46,0.84l-1.01-1.75l-7.8,4.51     l-0.4,1.45l1.14,1.3l-2.35,1.03l2.71,0.82l-1.37,1.4l0.39,1.48l7.67,4.43l0.99-1.69l1.46,0.85l-0.98,1.7l6.6,3.81l3.54-5.93     l1.45,0.86l-3.46,5.96l2.55,1.47l1.96-3.22l1.45,0.86L140.27,187.32z M71.49,192.98L71.49,192.98l2.63-2.18     c0.94-0.78,1.94-1.49,2.27-1.68l3.13-1.81l-1.92-3.51l1.47-0.83l1.99,3.45l2.53-1.47l-3.43-6.14l1.47-0.83l3.51,6.08l6.6-3.8     l-1-1.77l1.46-0.84l1.01,1.75l7.8-4.51l0.4-1.46l-1.16-1.28l2.42-1.07l-2.76-0.81l1.36-1.4l-0.39-1.47l-7.67-4.43l-1,1.7     l-1.46-0.85l0.99-1.71l-6.61-3.81l-3.53,5.92l-1.45-0.85l3.44-5.96l-2.53-1.47l-1.96,3.22l-1.45-0.86l1.87-3.25l-3.09-1.78     c-0.37-0.22-1.39-1.04-2.26-1.88l-2.44-2.35c0,0-0.01,0.01-0.01,0.01c-0.04,0.09-0.08,0.25-0.08,0.45     c0.02,0.42,0.28,0.8,0.52,1.14c0.92,1.24,3.06,3.05,3.77,3.47l2.24,1.29l-1.38,2.39c-0.17,0.29-0.26,0.62-0.26,0.95     c0,0.67,0.35,1.3,0.9,1.61c0.45,0.28,1.03,0.35,1.52,0.2l2.04-0.62l-1.71,2.94c-0.17,0.29-0.26,0.61-0.26,0.94     c0,0.67,0.36,1.3,0.95,1.63c0.86,0.5,2.06,0.17,2.58-0.71l2.94-5.09l4.87,2.81l-0.4,0.72c-0.24,0.41-0.32,0.73-0.32,1.05     c0,0.66,0.36,1.27,0.93,1.6c0.4,0.22,0.91,0.28,1.4,0.15c0.48-0.13,0.88-0.43,1.1-0.82l0.42-0.74l0.81,0.3l6.01,3.47l-0.41,0.73     c-0.16,0.29-0.25,0.61-0.25,0.94c0,0.36,0.1,0.7,0.29,1l0.25,0.39l-0.2,0.42c-0.11,0.24-0.17,0.51-0.17,0.79     c0,0.18,0.03,0.37,0.08,0.54l0.12,0.38l-0.02,0.04l0.58,0.57l-6.98,4.03l-0.52-0.9c-0.48-0.83-1.68-1.15-2.51-0.67     c-0.57,0.33-0.92,0.94-0.92,1.6c0,0.31,0.09,0.63,0.25,0.91l0.52,0.91l-4.89,2.82l-3.02-5.24c-0.5-0.86-1.71-1.19-2.57-0.69     c-0.58,0.34-0.95,0.96-0.95,1.63c0,0.33,0.09,0.65,0.26,0.95l1.64,2.82l-2.02-0.59c-0.5-0.15-1.03-0.08-1.5,0.19     c-0.56,0.33-0.92,0.96-0.92,1.63c0,0.33,0.09,0.66,0.24,0.93l1.5,2.6l-2.26,1.31c-0.47,0.27-1.63,1.12-2.56,1.9     c-0.58,0.5-1.03,0.94-1.33,1.3c-0.27,0.33-0.54,0.69-0.55,1.18L71.49,192.98z M109.14,178.88l0.82,0.78l0.99-0.99l-0.61,0.16     v0.36l-0.68-0.18l-0.23,0.06v-0.12L109.14,178.88z M107.03,176.58l1.63,0.43v-3.68l-3.08,1.78L107.03,176.58z M111.12,173.34     v3.55l2-0.53l1.2-1.19L111.12,173.34z M102.6,175.5l1.34,0.36l-0.44-0.45l-0.34,0.2l-0.19-0.73l-0.13-0.13l0.08-0.05l-0.05-0.2     L102.6,175.5z M116.38,175.48l-0.21,0.21l1.08-0.32l-0.36-1.36l-0.17,0.61l0.33,0.19l-0.52,0.51l-0.06,0.22L116.38,175.48z      M103.81,171.42l0.42,1.62l3.19-1.84l-3.08-1.79L103.81,171.42z M112.35,171.2l3.09,1.79l0.54-2l-0.44-1.63L112.35,171.2z      M111.12,165.39v3.68l3.09-1.78l-1.57-1.49L111.12,165.39z M105.47,167.23l3.19,1.83v-3.56l-2.01,0.54L105.47,167.23z      M102.52,167.04l0.36,1.34l0.16-0.6l-0.31-0.18l0.49-0.49l0.07-0.26l0.12,0.07l0.16-0.16L102.52,167.04z M116.83,167.72     l0.06,0.23l0.29-1.05l-1.33-0.35l0.43,0.43l0.3-0.18l0.18,0.65l0.19,0.19L116.83,167.72z M94.44,160.87l7.8,4.5l1.43-0.38     l0.26-0.66l0.45-0.88l1.89,1.38l-0.57-2.6l1.3,0.23l0.04-0.01l0.52,0.14l1.09-1.07v-8.87l-1.96-0.01l0-1.68h1.96v-7.63l-6.9-0.09     l0.01-1.68h6.89v-2.94l-3.77-0.09l0.02-1.68h3.75v-3.58c0.01-0.43,0.21-1.72,0.49-2.88l0.8-3.29c-0.02,0-0.03,0-0.05,0     c-0.53,0.05-0.82,0.56-1.11,1.18c-0.63,1.44-1.11,4.25-1.12,4.99v2.59h-2.77c-1.04,0-1.88,0.84-1.88,1.88     c0,0.53,0.21,1.01,0.59,1.37l1.54,1.46h-3.38c-1.04,0-1.88,0.85-1.88,1.89c0,1.04,0.85,1.88,1.88,1.88h5.9v5.64h-0.84     c-1.15,0-1.98,0.83-1.98,1.84c0,1.01,0.83,1.84,1.85,1.84h0.82l0.17,7.79h-0.86c-0.32,0-0.65,0.09-0.92,0.24     c-0.32,0.18-0.58,0.44-0.75,0.76l-0.22,0.4l-0.45,0.04c-0.27,0.02-0.53,0.11-0.74,0.23c-0.29,0.17-0.51,0.38-0.69,0.66     l-0.43,0.69l-6.84-3.95l0.5-0.9c0.17-0.29,0.25-0.61,0.25-0.92c0-0.66-0.35-1.27-0.91-1.59c-0.4-0.24-0.91-0.3-1.4-0.17     c-0.49,0.13-0.9,0.43-1.12,0.82l-0.52,0.91l-4.89-2.82l3.03-5.24c0.16-0.29,0.25-0.61,0.25-0.94c0-0.66-0.36-1.3-0.92-1.62     c-0.41-0.25-0.93-0.31-1.43-0.18c-0.5,0.13-0.93,0.44-1.17,0.85l-1.64,2.84l-0.5-2.05c-0.12-0.5-0.44-0.93-0.88-1.19     c-0.41-0.24-0.92-0.3-1.41-0.17c-0.51,0.13-0.93,0.44-1.17,0.86l-1.49,2.6l-2.25-1.3c-0.41-0.24-1.65-0.81-2.93-1.27     c-0.69-0.25-1.31-0.43-1.84-0.52c-0.77-0.11-1.23,0.13-1.47,0.35l3.14,1.16c1.14,0.42,2.26,0.94,2.6,1.13l3.13,1.81l2.08-3.43     l1.45,0.86l-1.99,3.45l2.53,1.46l3.61-6.05l1.45,0.85l-3.52,6.09l6.61,3.81l1.02-1.74l1.46,0.85L94.44,160.87z M116.18,164.89     l1.49,0.39l7.67-4.43l-0.97-1.72l1.46-0.83l0.98,1.7l6.61-3.82l-3.36-6.02l1.47-0.83l3.44,5.97l2.54-1.46l-1.81-3.31l1.47-0.83     l1.88,3.25l3.09-1.79c0.39-0.22,1.65-0.7,2.76-1.02l3.24-0.94c-0.23-0.3-0.6-0.45-1.11-0.45l-0.52,0.03     c-1.49,0.17-4.13,1.12-4.86,1.53l-2.25,1.31l-1.38-2.4c-0.23-0.4-0.66-0.71-1.17-0.85c-0.5-0.13-1.02-0.08-1.41,0.15     c-0.45,0.26-0.77,0.7-0.89,1.2l-0.5,2.04l-1.68-2.91c-0.51-0.88-1.67-1.18-2.59-0.68c-0.56,0.33-0.92,0.95-0.92,1.62     c0,0.34,0.09,0.67,0.25,0.94l2.95,5.12l-4.9,2.82l-0.42-0.74c-0.55-0.95-1.73-1.26-2.59-0.77c-0.56,0.33-0.91,0.94-0.91,1.59     c0,0.31,0.09,0.63,0.25,0.92l0.41,0.73l-0.66,0.54l-6.01,3.47l-0.42-0.73c-0.16-0.28-0.39-0.51-0.68-0.67     c-0.33-0.19-0.67-0.28-0.98-0.26l-0.49,0.04l-0.28-0.4c-0.15-0.22-0.37-0.42-0.62-0.56c-0.26-0.15-0.57-0.23-0.85-0.24     l-0.82-0.02v-7.91h1.04c1.01,0,1.84-0.82,1.84-1.84c0-1.02-0.82-1.84-1.84-1.84h-1.04v-5.64h6.05c1.04,0,1.88-0.84,1.88-1.88     c0-1.04-0.84-1.89-1.88-1.89h-3.3l1.55-1.46c0.38-0.36,0.59-0.84,0.59-1.37c0-1.04-0.84-1.88-1.88-1.88h-3v-2.6     c0-0.54-0.15-1.98-0.36-3.18c-0.15-0.77-0.3-1.37-0.46-1.82c-0.19-0.47-0.43-0.94-1.04-1.11l0.56,3.29     c0.2,1.19,0.32,2.42,0.32,2.82v3.61l4,0.09l-0.02,1.68h-3.99v2.93l7.05,0.09l-0.01,1.68h-7.03v7.62l2.03,0.01l0,1.68h-2.02v9.02     l1.05,1.05l0.52-0.14l1.09,0.38l-0.07,1.88l1.94-1.85L116.18,164.89z M109.81,162.74l-0.99,0.98l0.61-0.17v-0.35l0.66,0.18     l0.25-0.07v0.13l0.23,0.06L109.81,162.74z" class="st1"/></g></g></g><g><path data-cppathid="10006" d="M183.45,223.85c24.92-13.96,44.31-67.1,29.28-88.59c1.95,11.05,2.07,23.73-5.86,34.93   c9.95-51.6-26.86-69.42-26.86-69.42c9.79,15.37,5.67,35.77-5.36,48.45c-3.61,4.17-8,2.8-6.33-2.24   c4.94-14.83,0.22-25.58,0.22-25.58c-4.85,19.81-20.47,29.01-25.83,46c-10.25,32.46,2.53,62.99,24.53,42.33   c12.49-11.74,29.83-47.65,29.83-47.65c1.07,16.03-16.16,44.96-22.17,54.15c-0.37,0.57,0.11,1.03,0.7,0.7   c13.48-7.5,29.9-31.53,29.9-31.53c-1.08,5.22-18.31,29.79-24.5,37.38C179.46,224.66,181.03,225.2,183.45,223.85z" class="st2"/></g></svg>