<?xml version="1.0" encoding="UTF-8"?>
<svg xmlns="http://www.w3.org/2000/svg" onmouseup="{ if(window.parent.document.onmouseup) window.parent.document.onmouseup(arguments[0]);}" xml:space="preserve" style="enable-background:new 0 0 300 300;" viewBox="0 0 300 300" y="0px" x="0px" id="Layer_1_copy" version="1.1" xmlns:xlink="http://www.w3.org/1999/xlink"><style type="text/css">
	.st0{fill:#29ABE2;}
	.st1{fill:#FFFFFF;}
	.st2{fill:#FBB03B;}
</style><g><path data-cppathid="10000" d="M89.5,281.5c-5.24,0-9.5-4.26-9.5-9.5c0-5.85-2.54-8.35-7.16-12.9C67.42,253.78,60,246.48,60,232.66   c0-13.81,7.42-21.11,12.84-26.44c4.62-4.54,7.16-7.04,7.16-12.9c0-5.85-2.54-8.35-7.16-12.89C67.42,175.1,60,167.81,60,153.99   c0-13.81,7.42-21.11,12.84-26.44c4.62-4.54,7.16-7.04,7.16-12.89c0-5.85-2.54-8.35-7.16-12.89C67.42,96.44,60,89.15,60,75.33   s7.42-21.11,12.84-26.44C77.46,44.35,80,41.85,80,36c0-5.24,4.26-9.5,9.5-9.5S99,30.76,99,36c0,13.81-7.42,21.11-12.84,26.44   C81.54,66.98,79,69.48,79,75.33s2.54,8.35,7.16,12.89C91.58,93.55,99,100.85,99,114.66c0,13.82-7.42,21.11-12.84,26.44   c-4.62,4.54-7.16,7.04-7.16,12.89c0,5.85,2.54,8.35,7.16,12.89C91.58,172.22,99,179.51,99,193.33c0,13.82-7.42,21.11-12.84,26.44   c-4.62,4.54-7.16,7.04-7.16,12.9s2.54,8.35,7.16,12.89C91.58,250.89,99,258.19,99,272C99,277.24,94.74,281.5,89.5,281.5z" class="st0"/><path data-cppathid="10001" d="M89.5,31.5c2.49,0,4.5,2.01,4.5,4.5c0,11.72-6.03,17.65-11.34,22.87C77.82,63.63,74,67.38,74,75.33   c0,7.95,3.82,11.7,8.66,16.46C87.97,97.02,94,102.94,94,114.66c0,11.72-6.03,17.65-11.35,22.87c-4.84,4.75-8.65,8.51-8.65,16.46   c0,7.95,3.82,11.7,8.66,16.46C87.97,175.68,94,181.61,94,193.33c0,11.72-6.03,17.65-11.34,22.88c-4.84,4.76-8.66,8.51-8.66,16.46   c0,7.95,3.82,11.7,8.66,16.46C87.97,254.35,94,260.28,94,272c0,2.49-2.01,4.5-4.5,4.5S85,274.49,85,272   c0-7.95-3.82-11.71-8.66-16.46C71.03,250.31,65,244.38,65,232.66c0-11.72,6.03-17.65,11.34-22.88c4.84-4.75,8.66-8.51,8.66-16.46   c0-7.95-3.82-11.7-8.66-16.46C71.03,171.64,65,165.71,65,153.99c0-11.72,6.03-17.65,11.34-22.87c4.84-4.75,8.66-8.51,8.66-16.46   c0-7.95-3.82-11.7-8.66-16.46C71.03,92.98,65,87.05,65,75.33c0-11.72,6.03-17.65,11.35-22.87C81.18,47.7,85,43.95,85,36   C85,33.51,87.01,31.5,89.5,31.5 M89.5,21.5C81.5,21.5,75,28,75,36c0,3.48-0.86,4.6-5.67,9.33C63.63,50.94,55,59.42,55,75.33   c0,15.91,8.63,24.39,14.33,30c4.81,4.73,5.67,5.85,5.67,9.33c0,3.48-0.86,4.6-5.67,9.33C63.62,129.6,55,138.08,55,153.99   c0,15.91,8.62,24.39,14.33,30c4.81,4.73,5.67,5.85,5.67,9.33c0,3.48-0.86,4.6-5.67,9.33C63.62,208.27,55,216.75,55,232.66   c0,15.91,8.63,24.39,14.33,30.01C74.14,267.4,75,268.52,75,272c0,8,6.5,14.5,14.5,14.5S104,280,104,272   c0-15.91-8.62-24.39-14.33-30c-4.81-4.73-5.67-5.85-5.67-9.33c0-3.48,0.86-4.6,5.67-9.33c5.71-5.61,14.33-14.09,14.33-30.01   c0-15.91-8.62-24.39-14.33-30c-4.81-4.73-5.67-5.85-5.67-9.33c0-3.48,0.86-4.6,5.67-9.33c5.71-5.61,14.33-14.09,14.33-30.01   c0-15.91-8.63-24.39-14.33-30C84.86,79.93,84,78.81,84,75.33c0-3.48,0.86-4.6,5.67-9.33C95.37,60.39,104,51.91,104,36   C104,28,97.5,21.5,89.5,21.5L89.5,21.5z" class="st1"/></g><g><path data-cppathid="10002" d="M115.93,281.5c-5.24,0-9.5-4.26-9.5-9.5c0-5.85-2.54-8.35-7.16-12.9c-5.42-5.33-12.84-12.62-12.84-26.44   c0-13.81,7.42-21.11,12.84-26.44c4.62-4.54,7.16-7.04,7.16-12.9c0-5.85-2.54-8.35-7.16-12.89c-5.42-5.33-12.84-12.63-12.84-26.44   c0-13.81,7.42-21.11,12.84-26.44c4.62-4.54,7.16-7.04,7.16-12.89c0-5.85-2.54-8.35-7.16-12.89c-5.42-5.33-12.84-12.62-12.84-26.44   s7.42-21.11,12.84-26.44c4.62-4.54,7.16-7.04,7.16-12.89c0-5.24,4.26-9.5,9.5-9.5s9.5,4.26,9.5,9.5c0,13.81-7.42,21.11-12.84,26.44   c-4.62,4.54-7.16,7.04-7.16,12.89s2.54,8.35,7.16,12.89c5.42,5.33,12.84,12.62,12.84,26.44c0,13.82-7.42,21.11-12.84,26.44   c-4.62,4.54-7.16,7.04-7.16,12.89c0,5.85,2.54,8.35,7.16,12.89c5.42,5.33,12.84,12.63,12.84,26.44c0,13.82-7.42,21.11-12.84,26.44   c-4.62,4.54-7.16,7.04-7.16,12.9s2.54,8.35,7.16,12.89c5.42,5.33,12.84,12.63,12.84,26.44C125.43,277.24,121.17,281.5,115.93,281.5   z" class="st0"/><path data-cppathid="10003" d="M115.93,31.5c2.49,0,4.5,2.01,4.5,4.5c0,11.72-6.03,17.65-11.34,22.87c-4.84,4.75-8.66,8.51-8.66,16.46   c0,7.95,3.82,11.7,8.66,16.46c5.32,5.23,11.34,11.15,11.34,22.87c0,11.72-6.03,17.65-11.35,22.87c-4.84,4.75-8.65,8.51-8.65,16.46   c0,7.95,3.82,11.7,8.66,16.46c5.32,5.23,11.34,11.16,11.34,22.88c0,11.72-6.03,17.65-11.34,22.88c-4.84,4.76-8.66,8.51-8.66,16.46   c0,7.95,3.82,11.7,8.66,16.46c5.32,5.23,11.34,11.16,11.34,22.88c0,2.49-2.01,4.5-4.5,4.5s-4.5-2.01-4.5-4.5   c0-7.95-3.82-11.71-8.66-16.46c-5.32-5.23-11.34-11.16-11.34-22.88c0-11.72,6.03-17.65,11.34-22.88c4.84-4.75,8.66-8.51,8.66-16.46   c0-7.95-3.82-11.7-8.66-16.46c-5.32-5.23-11.34-11.16-11.34-22.88c0-11.72,6.03-17.65,11.34-22.87c4.84-4.75,8.66-8.51,8.66-16.46   c0-7.95-3.82-11.7-8.66-16.46c-5.32-5.23-11.34-11.16-11.34-22.87c0-11.72,6.03-17.65,11.35-22.87c4.84-4.75,8.65-8.51,8.65-16.46   C111.43,33.51,113.45,31.5,115.93,31.5 M115.93,21.5c-8,0-14.5,6.5-14.5,14.5c0,3.48-0.86,4.6-5.67,9.33   c-5.71,5.61-14.33,14.09-14.33,30.01c0,15.91,8.63,24.39,14.33,30c4.81,4.73,5.67,5.85,5.67,9.33c0,3.48-0.86,4.6-5.67,9.33   c-5.71,5.61-14.33,14.1-14.33,30.01c0,15.91,8.62,24.39,14.33,30c4.81,4.73,5.67,5.85,5.67,9.33c0,3.48-0.86,4.6-5.67,9.33   c-5.71,5.62-14.33,14.1-14.33,30.01c0,15.91,8.63,24.39,14.33,30.01c4.81,4.73,5.67,5.85,5.67,9.33c0,8,6.5,14.5,14.5,14.5   s14.5-6.5,14.5-14.5c0-15.91-8.62-24.39-14.33-30c-4.81-4.73-5.67-5.85-5.67-9.33c0-3.48,0.86-4.6,5.67-9.33   c5.71-5.61,14.33-14.09,14.33-30.01c0-15.91-8.62-24.39-14.33-30c-4.81-4.73-5.67-5.85-5.67-9.33c0-3.48,0.86-4.6,5.67-9.33   c5.71-5.61,14.33-14.09,14.33-30.01c0-15.91-8.63-24.39-14.33-30c-4.81-4.73-5.67-5.85-5.67-9.33c0-3.48,0.86-4.6,5.67-9.33   c5.71-5.61,14.33-14.09,14.33-30C130.43,28,123.93,21.5,115.93,21.5L115.93,21.5z" class="st1"/></g><g><path data-cppathid="10004" d="M142.37,281.5c-5.24,0-9.5-4.26-9.5-9.5c0-5.85-2.54-8.35-7.16-12.9c-5.42-5.33-12.84-12.62-12.84-26.44   c0-13.81,7.42-21.11,12.84-26.44c4.62-4.54,7.16-7.04,7.16-12.9c0-5.85-2.54-8.35-7.16-12.89c-5.42-5.33-12.84-12.63-12.84-26.44   c0-13.81,7.42-21.11,12.84-26.44c4.62-4.54,7.16-7.04,7.16-12.89c0-5.85-2.54-8.35-7.16-12.89c-5.42-5.33-12.84-12.62-12.84-26.44   s7.42-21.11,12.84-26.44c4.62-4.54,7.16-7.04,7.16-12.89c0-5.24,4.26-9.5,9.5-9.5s9.5,4.26,9.5,9.5c0,13.81-7.42,21.11-12.84,26.44   c-4.62,4.54-7.16,7.04-7.16,12.89s2.54,8.35,7.16,12.89c5.42,5.33,12.84,12.62,12.84,26.44c0,13.82-7.42,21.11-12.84,26.44   c-4.62,4.54-7.16,7.04-7.16,12.89c0,5.85,2.54,8.35,7.16,12.89c5.42,5.33,12.84,12.63,12.84,26.44c0,13.82-7.42,21.11-12.84,26.44   c-4.62,4.54-7.16,7.04-7.16,12.9s2.54,8.35,7.16,12.89c5.42,5.33,12.84,12.63,12.84,26.44C151.87,277.24,147.6,281.5,142.37,281.5z   " class="st0"/><path data-cppathid="10005" d="M142.37,31.5c2.49,0,4.5,2.01,4.5,4.5c0,11.72-6.03,17.65-11.34,22.87c-4.84,4.75-8.66,8.51-8.66,16.46   c0,7.95,3.82,11.7,8.66,16.46c5.32,5.23,11.34,11.15,11.34,22.87c0,11.72-6.03,17.65-11.35,22.87c-4.84,4.75-8.65,8.51-8.65,16.46   c0,7.95,3.82,11.7,8.66,16.46c5.32,5.23,11.34,11.16,11.34,22.88c0,11.72-6.03,17.65-11.34,22.88c-4.84,4.76-8.66,8.51-8.66,16.46   c0,7.95,3.82,11.7,8.66,16.46c5.32,5.23,11.34,11.16,11.34,22.88c0,2.49-2.01,4.5-4.5,4.5s-4.5-2.01-4.5-4.5   c0-7.95-3.82-11.71-8.66-16.46c-5.32-5.23-11.34-11.16-11.34-22.88c0-11.72,6.03-17.65,11.34-22.88c4.84-4.75,8.66-8.51,8.66-16.46   c0-7.95-3.82-11.7-8.66-16.46c-5.32-5.23-11.34-11.16-11.34-22.88c0-11.72,6.03-17.65,11.34-22.87c4.84-4.75,8.66-8.51,8.66-16.46   c0-7.95-3.82-11.7-8.66-16.46c-5.32-5.23-11.34-11.16-11.34-22.87c0-11.72,6.03-17.65,11.35-22.87c4.84-4.75,8.65-8.51,8.65-16.46   C137.87,33.51,139.88,31.5,142.37,31.5 M142.37,21.5c-8,0-14.5,6.5-14.5,14.5c0,3.48-0.86,4.6-5.67,9.33   c-5.71,5.61-14.33,14.09-14.33,30.01c0,15.91,8.63,24.39,14.33,30c4.81,4.73,5.67,5.85,5.67,9.33c0,3.48-0.86,4.6-5.67,9.33   c-5.71,5.61-14.33,14.1-14.33,30.01c0,15.91,8.62,24.39,14.33,30c4.81,4.73,5.67,5.85,5.67,9.33c0,3.48-0.86,4.6-5.67,9.33   c-5.71,5.62-14.33,14.1-14.33,30.01c0,15.91,8.63,24.39,14.33,30.01c4.81,4.73,5.67,5.85,5.67,9.33c0,8,6.5,14.5,14.5,14.5   s14.5-6.5,14.5-14.5c0-15.91-8.62-24.39-14.33-30c-4.81-4.73-5.67-5.85-5.67-9.33c0-3.48,0.86-4.6,5.67-9.33   c5.71-5.61,14.33-14.09,14.33-30.01c0-15.91-8.62-24.39-14.33-30c-4.81-4.73-5.67-5.85-5.67-9.33c0-3.48,0.86-4.6,5.67-9.33   c5.71-5.61,14.33-14.09,14.33-30.01c0-15.91-8.63-24.39-14.33-30c-4.81-4.73-5.67-5.85-5.67-9.33c0-3.48,0.86-4.6,5.67-9.33   c5.71-5.61,14.33-14.09,14.33-30C156.87,28,150.36,21.5,142.37,21.5L142.37,21.5z" class="st1"/></g><g><path data-cppathid="10006" d="M168.8,282.47c-5.51,0-10-4.49-10-10c0-5.64-2.49-8.09-7.01-12.54c-5.48-5.39-12.99-12.77-12.99-26.8   c0-14.03,7.51-21.41,12.99-26.8c4.52-4.45,7.01-6.9,7.01-12.54c0-5.64-2.49-8.09-7.01-12.53c-5.48-5.39-12.99-12.77-12.99-26.8   c0-14.02,7.51-21.41,12.99-26.79c4.52-4.45,7.01-6.9,7.01-12.54c0-5.64-2.49-8.09-7.01-12.53c-5.48-5.39-12.99-12.77-12.99-26.8   s7.51-21.4,12.99-26.79c4.52-4.45,7.01-6.9,7.01-12.54c0-5.51,4.49-10,10-10s10,4.49,10,10c0,14.02-7.51,21.41-12.99,26.8   c-4.52,4.45-7.01,6.89-7.01,12.54c0,5.64,2.49,8.09,7.01,12.53c5.48,5.39,12.99,12.77,12.99,26.8c0,14.02-7.51,21.41-12.99,26.8   c-4.52,4.45-7.01,6.9-7.01,12.54c0,5.64,2.49,8.09,7.01,12.53c5.48,5.39,12.99,12.77,12.99,26.8c0,14.03-7.51,21.41-12.99,26.8   c-4.52,4.45-7.01,6.89-7.01,12.54c0,5.64,2.49,8.09,7.01,12.54c5.48,5.39,12.99,12.77,12.99,26.8   C178.8,277.99,174.31,282.47,168.8,282.47z" class="st2"/><path data-cppathid="10007" d="M168.8,31.47c2.76,0,5,2.24,5,5c0,11.93-6.37,18.19-11.49,23.23c-4.75,4.67-8.51,8.36-8.51,16.1   c0,7.74,3.75,11.43,8.51,16.1c5.12,5.04,11.49,11.3,11.49,23.23c0,11.93-6.37,18.2-11.49,23.23c-4.75,4.67-8.51,8.36-8.51,16.1   c0,7.74,3.75,11.43,8.51,16.1c5.12,5.04,11.49,11.3,11.49,23.23c0,11.93-6.37,18.2-11.49,23.23c-4.75,4.67-8.51,8.36-8.51,16.1   c0,7.74,3.75,11.43,8.51,16.1c5.12,5.04,11.49,11.3,11.49,23.23c0,2.76-2.24,5-5,5s-5-2.24-5-5c0-7.74-3.75-11.43-8.51-16.1   c-5.12-5.04-11.49-11.3-11.49-23.23c0-11.93,6.37-18.2,11.49-23.23c4.75-4.67,8.51-8.37,8.51-16.1c0-7.74-3.75-11.43-8.51-16.1   c-5.12-5.04-11.49-11.3-11.49-23.23c0-11.93,6.37-18.2,11.49-23.23c4.75-4.67,8.51-8.36,8.51-16.1c0-7.74-3.75-11.43-8.51-16.1   C150.17,94,143.8,87.73,143.8,75.8s6.37-18.2,11.49-23.23c4.75-4.67,8.51-8.36,8.51-16.1C163.8,33.71,166.04,31.47,168.8,31.47    M168.8,21.47c-8.27,0-15,6.73-15,15c0,3.28-0.83,4.36-5.52,8.97c-5.42,5.33-14.48,14.24-14.48,30.36   c0,16.12,9.06,25.03,14.48,30.36c4.69,4.61,5.52,5.69,5.52,8.97c0,3.28-0.83,4.37-5.52,8.97c-5.42,5.33-14.48,14.24-14.48,30.36   c0,16.12,9.06,25.03,14.48,30.36c4.69,4.61,5.52,5.69,5.52,8.97c0,3.29-0.83,4.37-5.52,8.97c-5.42,5.33-14.48,14.24-14.48,30.36   c0,16.12,9.07,25.04,14.48,30.36c4.68,4.61,5.52,5.69,5.52,8.97c0,8.27,6.73,15,15,15s15-6.73,15-15   c0-16.12-9.07-25.04-14.48-30.36c-4.68-4.61-5.52-5.69-5.52-8.97c0-3.28,0.83-4.37,5.52-8.97c5.42-5.33,14.48-14.24,14.48-30.36   c0-16.12-9.07-25.04-14.48-30.36c-4.68-4.61-5.52-5.69-5.52-8.97c0-3.28,0.83-4.37,5.52-8.97c5.42-5.33,14.48-14.24,14.48-30.36   c0-16.12-9.07-25.03-14.48-30.36c-4.68-4.61-5.52-5.69-5.52-8.97c0-3.28,0.83-4.36,5.52-8.97c5.42-5.33,14.48-14.24,14.48-30.36   C183.8,28.2,177.07,21.47,168.8,21.47L168.8,21.47z" class="st1"/></g><g><path data-cppathid="10008" d="M195.23,282.47c-5.51,0-10-4.49-10-10c0-5.64-2.49-8.09-7.01-12.54c-5.48-5.39-12.99-12.77-12.99-26.8   c0-14.03,7.51-21.41,12.99-26.8c4.52-4.45,7.01-6.9,7.01-12.54c0-5.64-2.49-8.09-7.01-12.53c-5.48-5.39-12.99-12.77-12.99-26.8   c0-14.02,7.51-21.41,12.99-26.8c4.52-4.45,7.01-6.9,7.01-12.54c0-5.64-2.49-8.09-7.01-12.53c-5.48-5.39-12.99-12.77-12.99-26.8   s7.51-21.41,12.99-26.8c4.52-4.45,7.01-6.89,7.01-12.53c0-5.51,4.49-10,10-10s10,4.49,10,10c0,14.02-7.51,21.41-12.99,26.8   c-4.52,4.45-7.01,6.89-7.01,12.54c0,5.64,2.49,8.09,7.01,12.53c5.48,5.39,12.99,12.77,12.99,26.8c0,14.02-7.51,21.41-12.99,26.8   c-4.52,4.45-7.01,6.9-7.01,12.54c0,5.64,2.49,8.09,7.01,12.53c5.48,5.39,12.99,12.77,12.99,26.8c0,14.03-7.51,21.41-12.99,26.8   c-4.52,4.45-7.01,6.89-7.01,12.54c0,5.64,2.49,8.09,7.01,12.54c5.48,5.39,12.99,12.77,12.99,26.8   C205.23,277.99,200.75,282.47,195.23,282.47z" class="st2"/><path data-cppathid="10009" d="M195.23,31.47c2.76,0,5,2.24,5,5c0,11.93-6.37,18.19-11.49,23.23c-4.75,4.67-8.51,8.36-8.51,16.1   c0,7.74,3.75,11.43,8.51,16.1c5.12,5.04,11.49,11.3,11.49,23.23c0,11.93-6.37,18.2-11.49,23.23c-4.75,4.67-8.51,8.36-8.51,16.1   c0,7.74,3.75,11.43,8.51,16.1c5.12,5.04,11.49,11.3,11.49,23.23c0,11.93-6.37,18.2-11.49,23.23c-4.75,4.67-8.51,8.36-8.51,16.1   c0,7.74,3.75,11.43,8.51,16.1c5.12,5.04,11.49,11.3,11.49,23.23c0,2.76-2.24,5-5,5s-5-2.24-5-5c0-7.74-3.75-11.43-8.51-16.1   c-5.12-5.04-11.49-11.3-11.49-23.23c0-11.93,6.37-18.2,11.49-23.23c4.75-4.67,8.51-8.37,8.51-16.1c0-7.74-3.75-11.43-8.51-16.1   c-5.12-5.04-11.49-11.3-11.49-23.23c0-11.93,6.37-18.2,11.49-23.23c4.75-4.67,8.51-8.36,8.51-16.1c0-7.74-3.75-11.43-8.51-16.1   c-5.12-5.04-11.49-11.3-11.49-23.23s6.37-18.2,11.49-23.23c4.75-4.67,8.51-8.36,8.51-16.1C190.23,33.71,192.47,31.47,195.23,31.47    M195.23,21.47c-8.27,0-15,6.73-15,15c0,3.28-0.83,4.36-5.52,8.97c-5.42,5.33-14.48,14.24-14.48,30.36   c0,16.12,9.07,25.03,14.48,30.36c4.68,4.61,5.52,5.69,5.52,8.97c0,3.28-0.83,4.37-5.52,8.97c-5.42,5.33-14.48,14.24-14.48,30.36   c0,16.12,9.07,25.03,14.48,30.36c4.68,4.61,5.52,5.69,5.52,8.97c0,3.29-0.83,4.37-5.52,8.97c-5.42,5.33-14.48,14.24-14.48,30.36   c0,16.12,9.07,25.04,14.48,30.36c4.68,4.61,5.52,5.69,5.52,8.97c0,8.27,6.73,15,15,15s15-6.73,15-15   c0-16.12-9.07-25.04-14.48-30.36c-4.68-4.61-5.52-5.69-5.52-8.97c0-3.28,0.83-4.37,5.52-8.97c5.42-5.33,14.48-14.24,14.48-30.36   c0-16.12-9.07-25.04-14.48-30.36c-4.68-4.61-5.52-5.69-5.52-8.97c0-3.28,0.83-4.37,5.52-8.97c5.42-5.33,14.48-14.24,14.48-30.36   c0-16.12-9.07-25.03-14.48-30.36c-4.68-4.61-5.52-5.69-5.52-8.97c0-3.28,0.83-4.36,5.52-8.97c5.42-5.33,14.48-14.24,14.48-30.36   C210.23,28.2,203.5,21.47,195.23,21.47L195.23,21.47z" class="st1"/></g><g><path data-cppathid="10010" d="M221.67,282.47c-5.51,0-10-4.49-10-10c0-5.64-2.49-8.09-7.01-12.54c-5.48-5.39-12.99-12.77-12.99-26.8   c0-14.03,7.51-21.41,12.99-26.8c4.52-4.45,7.01-6.9,7.01-12.54c0-5.64-2.49-8.09-7.01-12.53c-5.48-5.39-12.99-12.77-12.99-26.8   c0-14.02,7.51-21.41,12.99-26.8c4.52-4.45,7.01-6.9,7.01-12.54c0-5.64-2.49-8.09-7.01-12.53c-5.48-5.39-12.99-12.77-12.99-26.8   s7.51-21.41,12.99-26.8c4.52-4.45,7.01-6.89,7.01-12.53c0-5.51,4.49-10,10-10s10,4.49,10,10c0,14.02-7.51,21.41-12.99,26.8   c-4.52,4.45-7.01,6.89-7.01,12.54c0,5.64,2.49,8.09,7.01,12.53c5.48,5.39,12.99,12.77,12.99,26.8c0,14.02-7.51,21.41-12.99,26.8   c-4.52,4.45-7.01,6.9-7.01,12.54c0,5.64,2.49,8.09,7.01,12.53c5.48,5.39,12.99,12.77,12.99,26.8c0,14.03-7.51,21.41-12.99,26.8   c-4.52,4.45-7.01,6.89-7.01,12.54c0,5.64,2.49,8.09,7.01,12.54c5.48,5.39,12.99,12.77,12.99,26.8   C231.67,277.99,227.18,282.47,221.67,282.47z" class="st2"/><path data-cppathid="10011" d="M221.67,31.47c2.76,0,5,2.24,5,5c0,11.93-6.37,18.19-11.49,23.23c-4.75,4.67-8.51,8.36-8.51,16.1   c0,7.74,3.75,11.43,8.51,16.1c5.12,5.04,11.49,11.3,11.49,23.23c0,11.93-6.37,18.2-11.49,23.23c-4.75,4.67-8.51,8.36-8.51,16.1   c0,7.74,3.75,11.43,8.51,16.1c5.12,5.04,11.49,11.3,11.49,23.23c0,11.93-6.37,18.2-11.49,23.23c-4.75,4.67-8.51,8.36-8.51,16.1   c0,7.74,3.75,11.43,8.51,16.1c5.12,5.04,11.49,11.3,11.49,23.23c0,2.76-2.24,5-5,5s-5-2.24-5-5c0-7.74-3.75-11.43-8.51-16.1   c-5.12-5.04-11.49-11.3-11.49-23.23c0-11.93,6.37-18.2,11.49-23.23c4.75-4.67,8.51-8.37,8.51-16.1c0-7.74-3.75-11.43-8.51-16.1   c-5.12-5.04-11.49-11.3-11.49-23.23c0-11.93,6.37-18.2,11.49-23.23c4.75-4.67,8.51-8.36,8.51-16.1c0-7.74-3.75-11.43-8.51-16.1   c-5.12-5.04-11.49-11.3-11.49-23.23s6.37-18.2,11.49-23.23c4.75-4.67,8.51-8.36,8.51-16.1C216.67,33.71,218.91,31.47,221.67,31.47    M221.67,21.47c-8.27,0-15,6.73-15,15c0,3.28-0.83,4.36-5.52,8.97c-5.42,5.33-14.48,14.24-14.48,30.36   c0,16.12,9.07,25.03,14.48,30.36c4.68,4.61,5.52,5.69,5.52,8.97c0,3.28-0.83,4.37-5.52,8.97c-5.42,5.33-14.48,14.24-14.48,30.36   c0,16.12,9.07,25.03,14.48,30.36c4.68,4.61,5.52,5.69,5.52,8.97c0,3.29-0.83,4.37-5.52,8.97c-5.42,5.33-14.48,14.24-14.48,30.36   c0,16.12,9.07,25.04,14.48,30.36c4.68,4.61,5.52,5.69,5.52,8.97c0,8.27,6.73,15,15,15s15-6.73,15-15   c0-16.12-9.07-25.04-14.48-30.36c-4.68-4.61-5.52-5.69-5.52-8.97c0-3.28,0.83-4.37,5.52-8.97c5.42-5.33,14.48-14.24,14.48-30.36   c0-16.12-9.07-25.04-14.48-30.36c-4.68-4.61-5.52-5.69-5.52-8.97c0-3.28,0.83-4.37,5.52-8.97c5.42-5.33,14.48-14.24,14.48-30.36   c0-16.12-9.07-25.03-14.48-30.36c-4.68-4.61-5.52-5.69-5.52-8.97c0-3.28,0.83-4.36,5.52-8.97c5.42-5.33,14.48-14.24,14.48-30.36   C236.67,28.2,229.94,21.47,221.67,21.47L221.67,21.47z" class="st1"/></g></svg>