<?xml version="1.0" encoding="UTF-8"?>
<svg xmlns="http://www.w3.org/2000/svg" onmouseup="{ if(window.parent.document.onmouseup) window.parent.document.onmouseup(arguments[0]);}" xml:space="preserve" style="enable-background:new 0 0 300 300;" viewBox="0 0 300 300" y="0px" x="0px" id="Layer_1_copy" version="1.1" xmlns:xlink="http://www.w3.org/1999/xlink"><style type="text/css">
	.st0{fill:url(#SVGID_1_);}
	.st1{fill:#FFFFFF;}
</style><g><linearGradient y2="149.7793" x2="273.0547" y1="149.7793" x1="10" gradientUnits="userSpaceOnUse" id="SVGID_1_"><stop style="stop-color:#29ABE2" offset="0"/><stop style="stop-color:#FBB03B" offset="1"/></linearGradient><path data-cppathid="10000" d="M139.41,233.56c-39.38-0.01-59.55-0.02-59.94-0.03c-7.85-0.17-14.7-3.27-19.83-8.95   c-10.78-11.94-10.15-31.89-9.86-36.24V92.3c0-0.3-0.01-0.57-0.02-0.81l-0.04,0.01l-1.13-0.12H22.62C15.66,91.37,10,85.71,10,78.76   s5.66-12.62,12.62-12.62h25.44c0.88-0.09,1.8-0.14,2.73-0.14c4.14,0,10.19,0.93,15.51,5.34c3.98,3.3,8.72,9.62,8.72,20.96v96.98   l-0.04,0.5c-0.4,5.32,0.58,14.77,3.41,17.89c0.33,0.36,0.58,0.59,1.56,0.62c2.56,0.01,40.67,0.02,61.59,0.03   c20.92-0.01,59.03-0.02,61.58-0.03c0.98-0.03,1.24-0.26,1.57-0.63c2.75-3.05,3.83-12.47,3.4-17.88l-0.04-0.91V92.3   c0-11.34,4.74-17.66,8.72-20.96c5.32-4.41,11.37-5.34,15.51-5.34c0.93,0,1.85,0.05,2.73,0.14h25.44c6.96,0,12.62,5.66,12.62,12.62   s-5.66,12.62-12.62,12.62h-27.13c-0.02,0.27-0.03,0.58-0.03,0.92v96.04c0.28,4.35,0.92,24.3-9.86,36.24   c-5.13,5.68-11.98,8.77-19.82,8.95c-0.5,0.01-32.88,0.02-59.95,0.03l0,0L139.41,233.56z" class="st0"/><path data-cppathid="10001" d="M50.78,71c3.2,0,8.1,0.69,12.31,4.19c3.15,2.62,6.91,7.71,6.91,17.11v96.79l-0.02,0.3   c-0.3,3.93-0.08,16.38,4.69,21.64c1.36,1.5,2.96,2.2,5.19,2.26c1.82,0.01,39.84,0.02,61.67,0.03c21.83-0.01,59.85-0.02,61.67-0.03   c2.23-0.06,3.83-0.76,5.2-2.28c4.45-4.93,5.07-16.7,4.67-21.63l-0.02-0.61V92.3c0-9.4,3.76-14.49,6.91-17.11   c4.22-3.5,9.12-4.19,12.31-4.19c1.01,0,1.86,0.07,2.45,0.14h25.71c4.21,0,7.62,3.41,7.62,7.62c0,4.21-3.41,7.62-7.62,7.62h-27.1   l-0.49-0.12c-0.16-0.02-0.37-0.03-0.61-0.03c-0.82,0-1.95,0.16-2.59,0.71c-0.86,0.75-1.38,2.75-1.38,5.36v96.2   c0.23,3.38,1.04,22.07-8.58,32.73c-4.18,4.63-9.79,7.16-16.22,7.3c-0.32,0.01-20.45,0.02-59.84,0.03v0l-4.23,0   c-39.39-0.01-59.52-0.02-59.84-0.03c-6.43-0.14-12.04-2.67-16.22-7.3c-9.62-10.65-8.81-29.35-8.58-32.73V92.3   c0-2.61-0.52-4.62-1.38-5.36c-0.64-0.55-1.77-0.71-2.59-0.71c-0.24,0-0.45,0.01-0.61,0.03l-0.78,0.18l-0.57-0.06H22.62   c-4.21,0-7.62-3.41-7.62-7.62c0-4.21,3.41-7.62,7.62-7.62h25.71C48.93,71.07,49.77,71,50.78,71 M50.78,61   c-1.01,0-2.01,0.05-2.98,0.14H22.62C12.9,61.14,5,69.04,5,78.76s7.9,17.62,17.62,17.62h22.16v91.8   c-0.41,6.48-0.6,26.74,11.15,39.76c5.98,6.63,14.3,10.39,23.42,10.6c0.21,0,0.65,0.01,60.06,0.03l4.23,0l10,0v-0.01   c49.45-0.02,49.86-0.02,50.04-0.03c9.14-0.2,17.45-3.97,23.44-10.6c5.4-5.98,8.92-14.16,10.45-24.3   c1.05-6.93,0.86-12.89,0.71-15.46v-91.8h22.16c9.71,0,17.62-7.9,17.62-17.62s-7.9-17.62-17.62-17.62h-25.19   c-0.97-0.09-1.97-0.14-2.98-0.14c-4.96,0-12.24,1.13-18.7,6.49c-4.8,3.98-10.53,11.52-10.53,24.81v96.48v0.2l0.01,0.2l0.02,0.61   l0.01,0.2l0.02,0.2c0.34,4.27-0.45,10.36-1.58,13.11c-8.61,0.01-47.34,0.02-59.99,0.03c-12.65,0-51.42-0.02-60-0.03   c-1.11-2.7-1.89-8.8-1.56-13.15l0.02-0.26l0.03-0.4v-0.4V92.3c0-13.28-5.72-20.82-10.53-24.81C63.02,62.13,55.75,61,50.78,61   L50.78,61z" class="st1"/></g></svg>