<?xml version="1.0" encoding="UTF-8"?>
<svg xmlns="http://www.w3.org/2000/svg" onmouseup="{ if(window.parent.document.onmouseup) window.parent.document.onmouseup(arguments[0]);}" xml:space="preserve" style="enable-background:new 0 0 300 300;" viewBox="0 0 300 300" y="0px" x="0px" id="Layer_1" version="1.1" xmlns:xlink="http://www.w3.org/1999/xlink"><style type="text/css">
	.st0{fill:#FFFFFF;stroke:#FFFFFF;stroke-width:3.0219;stroke-miterlimit:10;}
	.st1{opacity:0.73;fill:#FFFFFF;}
	.st2{fill:#FFFFFF;}
	.st3{opacity:0.61;}
	.st4{fill:none;stroke:#FFFFFF;stroke-width:18.1312;stroke-miterlimit:10;}
</style><g><g><g><g><rect data-cppathid="10000" height="18.73" width="4.99" class="st0" y="98.17" x="76.88"/><rect data-cppathid="10001" height="18.72" width="5" class="st0" y="135.63" x="76.26"/><polygon data-cppathid="10002" points="223.08,122.99 222.15,127.9 48.02,94.57 48.97,89.67     " class="st0"/><polygon data-cppathid="10003" points="20.08,158.71 81.43,158.73 81.43,153.74 20.08,153.73     " class="st0"/><rect data-cppathid="10004" height="18.73" width="5" class="st0" y="153.63" x="20.17"/><rect data-cppathid="10005" height="12.68" width="4.99" class="st0" y="195.76" x="20.42"/><rect data-cppathid="10006" height="27.94" width="1.29" class="st1" y="167.97" x="22.25"/><rect data-cppathid="10007" height="27.95" width="1.28" class="st1" y="113.13" x="78.48"/><rect data-cppathid="10008" height="33.44" width="3.83" class="st1" y="123.83" x="206.8"/><rect data-cppathid="10009" height="4.99" width="28.85" class="st0" y="156.27" x="207.03"/><rect data-cppathid="10010" height="52.5" width="4.15" class="st0" y="156.35" x="231.72"/><rect data-cppathid="10011" height="4.64" width="216.01" class="st0" y="204.66" x="20.12"/></g></g><rect data-cppathid="10012" height="5.62" width="11.9" class="st2" y="178.4" x="11"/></g><g class="st3"><g><path data-cppathid="10013" d="M50.75,115.91c0,0,35.95-8.04,96.12,12.66c0,0,43.77,18.91,105.3,10.85" class="st4"/><g><polygon data-cppathid="10014" points="240.8,161.63 245.48,140.25 233.35,122.04 284,133     " class="st2"/></g></g></g></g></svg>