<?xml version="1.0" encoding="UTF-8"?>
<svg xmlns="http://www.w3.org/2000/svg" onmouseup="{ if(window.parent.document.onmouseup) window.parent.document.onmouseup(arguments[0]);}" xml:space="preserve" style="enable-background:new 0 0 300 300;" viewBox="0 0 300 300" y="0px" x="0px" id="Layer_1" version="1.1" xmlns:xlink="http://www.w3.org/1999/xlink"><style type="text/css">
	.st0{fill:#FFFFFF;}
</style><g><path data-cppathid="10000" d="M264.21,265.07v9.84H36v-9.84h7.48V79.9h13.12V68.77H90.7V46.83h14.06v-8.46h31.6V31h7.52v7.38h12.47V31h7.49   v7.38h31.65v8.46h14.04v21.94h34.1V79.9h13.11v185.17H264.21z M107.07,63.43v23.49h19.51V63.43H107.07z M140.37,63.43v23.49h19.48   V63.43H140.37z M173.65,63.43v23.49h19.49V63.43H173.65z M107.07,97.03v23.51h19.51V97.03H107.07z M140.37,97.03v23.51h19.48V97.03   H140.37z M173.65,97.03v23.51h19.49V97.03H173.65z M107.07,130.65v23.51h19.51v-23.51H107.07z M140.37,130.65v23.51h19.48v-23.51   H140.37z M173.65,130.65v23.51h19.49v-23.51H173.65z M107.07,164.27v23.49h19.51v-23.49H107.07z M140.37,164.27v23.49h19.48v-23.49   H140.37z M173.65,164.27v23.49h19.49v-23.49H173.65z M107.07,197.88v23.51h19.51v-23.51H107.07z M140.37,197.88v23.51h19.48v-23.51   H140.37z M173.65,197.88v23.51h19.49v-23.51H173.65z M107.07,231.5v23.51h19.51V231.5H107.07z M140.37,231.5v23.51h19.48V231.5   H140.37z M173.65,231.5v23.51h19.49V231.5H173.65z M61.55,97.03v23.51h19.5V97.03H61.55z M219.2,97.03v23.51h19.5V97.03H219.2z    M61.55,130.65v23.51h19.5v-23.51H61.55z M219.2,130.65v23.51h19.5v-23.51H219.2z M61.55,164.27v23.49h19.5v-23.49H61.55z    M219.2,164.27v23.49h19.5v-23.49H219.2z M61.55,197.88v23.51h19.5v-23.51H61.55z M219.2,197.88v23.51h19.5v-23.51H219.2z    M61.55,231.5v23.51h19.5V231.5H61.55z M219.2,231.5v23.51h19.5V231.5H219.2z" class="st0"/></g></svg>