<?xml version="1.0" encoding="UTF-8"?>
<svg xmlns="http://www.w3.org/2000/svg" onmouseup="{ if(window.parent.document.onmouseup) window.parent.document.onmouseup(arguments[0]);}" xml:space="preserve" style="enable-background:new 0 0 300 300;" viewBox="0 0 300 300" y="0px" x="0px" id="Layer_1" version="1.1" xmlns:xlink="http://www.w3.org/1999/xlink"><style type="text/css">
	.st0{clip-path:url(#SVGID_2_);fill:#FFFFFF;}
	.st1{fill:#FFFFFF;}
</style><g><g><defs><rect data-cppathid="10000" height="264" width="118.42" y="25" x="151.48" id="SVGID_1_"/></defs><clipPath id="SVGID_2_"><use style="overflow:visible;" xlink:href="#SVGID_1_"/></clipPath><path data-cppathid="10001" d="M69.12,107.57l4.74,2.97l-3.04,5.6c-1.06,1.94-0.45,4.44,1.37,5.57c1.79,1.14,4.12,0.48,5.18-1.47l3.04-5.59    l10.21,6.4l-3.05,5.6l-2.73-1.72c-1.8-1.13-4.12-0.47-5.19,1.48c-1.06,1.94-0.44,4.43,1.37,5.57l2.73,1.7l-0.18,0.34    c-1.76,3.26-1.61,6.89,0.36,8.12c1.96,1.24,5-0.4,6.76-3.65l0.18-0.34l2.73,1.72c1.81,1.13,4.12,0.47,5.18-1.46    c1.05-1.95,0.44-4.45-1.35-5.58l-2.74-1.71l3.04-5.6l9.85,6.19l-3.04,5.59c-1.06,1.95-0.45,4.44,1.35,5.57    c1.82,1.14,4.13,0.49,5.18-1.46l3.05-5.61l20.69,12.98c-0.06,0.64-0.18,1.27-0.18,1.93c0,1.42,0.18,2.8,0.47,4.15l-20.9,16.75    l-4.36-6.26c-1.24-1.81-3.62-2.18-5.29-0.84c-1.68,1.35-2.03,3.9-0.77,5.7l4.35,6.27L99,183.81l-3.49-5.02l2.84-2.27    c1.67-1.35,2.02-3.91,0.77-5.71c-1.25-1.8-3.63-2.16-5.3-0.82l-2.83,2.27l-1.44-2.07c-2.09-3.02-5.27-4.28-7.09-2.82    c-1.82,1.46-1.6,5.1,0.49,8.11l1.43,2.07l-2.24,1.79c-1.67,1.34-2.02,3.89-0.77,5.69c1.25,1.81,3.63,2.18,5.3,0.83l2.24-1.79    l3.49,5.03l-9.48,7.6l-4.36-6.27c-1.25-1.8-3.62-2.18-5.29-0.83c-1.68,1.35-2.03,3.9-0.77,5.71l4.35,6.27l-4.4,3.53    c-2.47,1.98-2.98,5.73-1.14,8.39c1.85,2.65,5.33,3.19,7.8,1.22l4.4-3.53l3.61,5.2c1.25,1.81,3.63,2.18,5.3,0.83    c1.67-1.34,2.03-3.9,0.77-5.69l-3.61-5.21l9.48-7.6l3.61,5.2l-2.54,2.04c-1.68,1.34-2.02,3.89-0.76,5.69    c1.24,1.81,3.62,2.18,5.3,0.82l2.54-2.02l0.22,0.31c2.08,3.01,5.26,4.28,7.09,2.81c1.83-1.46,1.6-5.09-0.48-8.1l-0.22-0.31    l2.54-2.03c1.67-1.35,2.02-3.9,0.77-5.71c-1.25-1.8-3.63-2.16-5.3-0.82l-2.53,2.02l-3.62-5.2l9.14-7.33l3.62,5.2    c1.24,1.81,3.62,2.17,5.29,0.83c1.68-1.34,2.03-3.9,0.77-5.7l-3.6-5.2l20.2-16.2c1.78,1.54,3.84,2.7,6.08,3.38l0.01,20.4h-7.29    c-2.09,0-3.79,1.82-3.79,4.07c0,2.25,1.7,4.07,3.79,4.07h7.29v12.25h-5.83v-3.79c0-2.24-1.7-4.08-3.79-4.08    c-2.09,0-3.78,1.83-3.78,4.07v3.8h-2.4c-3.51,0-6.34,1.98-6.34,4.43c0,2.45,2.83,4.43,6.34,4.43h2.4v3.01    c0,2.25,1.69,4.07,3.78,4.07c2.09,0,3.79-1.82,3.79-4.07v-3.01h5.83v12.72h-7.29c-2.09,0-3.79,1.82-3.79,4.07    c0,2.24,1.7,4.07,3.79,4.07h7.29v5.9c0,3.32,2.49,6.01,5.58,6.01c3.08,0,5.57-2.69,5.57-6.01v-5.9h6.04    c2.09,0,3.79-1.83,3.79-4.07c0-2.26-1.7-4.07-3.79-4.07h-6.04v-12.72h6.04v3.4c0,2.25,1.7,4.07,3.79,4.07    c2.09,0,3.79-1.82,3.79-4.07v-3.4h0.36c3.5,0,6.34-1.98,6.34-4.43c0-2.43-2.84-4.42-6.34-4.43h-0.36v-3.4    c0-2.24-1.7-4.07-3.79-4.07c-2.09,0-3.79,1.83-3.79,4.07v3.4h-6.04v-12.25h6.04c2.09,0,3.79-1.83,3.79-4.07    c0-2.25-1.7-4.07-3.79-4.07h-6.04v-21.01c1.05-0.46,2.05-1.04,2.99-1.69l21.92,13.76l-3.67,6.76c-1.06,1.95-0.45,4.44,1.36,5.57    c1.81,1.13,4.13,0.47,5.19-1.47l3.67-6.76l9.84,6.18l-2.93,5.41l-3.06-1.92c-1.8-1.13-4.12-0.48-5.18,1.47    c-1.05,1.94-0.44,4.43,1.37,5.56l3.05,1.92l-1.21,2.23c-1.77,3.25-1.6,6.88,0.36,8.12c1.96,1.23,4.99-0.41,6.75-3.65l1.21-2.24    l2.41,1.52c1.81,1.13,4.13,0.48,5.18-1.46c1.06-1.94,0.44-4.44-1.36-5.57l-2.41-1.51l2.94-5.41l10.21,6.4l-3.67,6.76    c-1.05,1.95-0.45,4.44,1.36,5.57c1.81,1.14,4.13,0.48,5.18-1.46l3.67-6.76l4.74,2.98c2.66,1.67,6.07,0.71,7.63-2.15    c1.55-2.86,0.65-6.53-2-8.19l-4.74-2.98l3.04-5.6c1.05-1.95,0.44-4.44-1.36-5.57c-1.8-1.13-4.12-0.48-5.18,1.47l-3.04,5.61    l-10.21-6.42l3.05-5.61l2.73,1.72c1.81,1.14,4.13,0.49,5.18-1.46c1.06-1.94,0.45-4.44-1.36-5.57l-2.73-1.72l0.18-0.33    c1.76-3.25,1.6-6.88-0.37-8.12c-1.96-1.23-4.99,0.39-6.75,3.65l-0.18,0.34l-2.73-1.73c-1.81-1.13-4.13-0.47-5.18,1.47    c-1.05,1.94-0.45,4.43,1.36,5.56l2.73,1.71l-3.05,5.6l-9.85-6.16l3.05-5.61c1.05-1.95,0.44-4.45-1.36-5.57    c-1.8-1.14-4.13-0.48-5.18,1.47l-3.04,5.6l-20.77-13.04c0.56-1.83,0.94-3.74,0.94-5.76c0-0.84-0.13-1.61-0.23-2.43l16.7-14.46    l4.57,6.1c1.31,1.75,3.7,2.02,5.33,0.62c1.63-1.43,1.88-3.98,0.58-5.73l-4.58-6.1l8.88-7.69l3.66,4.88l-2.76,2.37    c-1.63,1.42-1.88,3.98-0.57,5.73c1.32,1.75,3.7,2.03,5.33,0.62l2.75-2.38l1.5,2.01c2.2,2.93,5.42,4.06,7.19,2.53    c1.77-1.53,1.43-5.15-0.77-8.08l-1.51-2.02l2.17-1.89c1.63-1.4,1.88-3.97,0.57-5.72c-1.31-1.74-3.7-2.02-5.33-0.62l-2.17,1.88    l-3.66-4.87l9.2-7.97l4.57,6.1c1.31,1.75,3.7,2.03,5.33,0.61c1.63-1.41,1.88-3.98,0.58-5.73l-4.57-6.09l4.28-3.7    c2.4-2.08,2.78-5.85,0.84-8.42c-1.93-2.57-5.44-3-7.84-0.9l-4.27,3.7L211,88.01c-1.31-1.75-3.7-2.03-5.32-0.62    c-1.63,1.42-1.89,3.97-0.57,5.72l3.78,5.06l-9.21,7.97l-3.78-5.05l2.46-2.13c1.63-1.42,1.9-3.99,0.58-5.73    c-1.31-1.75-3.69-2.02-5.33-0.62l-2.46,2.13l-0.23-0.31c-2.19-2.92-5.41-4.05-7.18-2.52c-1.77,1.52-1.43,5.15,0.77,8.08l0.23,0.31    l-2.47,2.12c-1.63,1.42-1.88,3.98-0.57,5.73c1.31,1.75,3.69,2.03,5.32,0.61l2.46-2.13l3.79,5.06l-8.88,7.68l-3.79-5.05    c-1.31-1.75-3.7-2.03-5.33-0.62c-1.62,1.42-1.88,3.99-0.57,5.73l3.78,5.06l-14.84,12.85c-1.77-1.8-3.9-3.17-6.25-4.04v-24.19h7.28    c2.09,0,3.79-1.82,3.79-4.07c0-2.24-1.7-4.07-3.79-4.07h-7.28V88.73h5.83v3.8c0,2.25,1.69,4.07,3.78,4.07    c2.1,0,3.79-1.82,3.79-4.07v-3.8h2.41c3.49,0,6.33-1.98,6.33-4.43c0-2.45-2.84-4.43-6.33-4.43h-2.41v-3    c0-2.24-1.69-4.07-3.78-4.07c-2.09,0-3.78,1.83-3.78,4.08v3h-5.83V67.16h7.29c2.09,0,3.78-1.82,3.78-4.06    c0-2.25-1.7-4.07-3.79-4.07h-7.28v-5.91c0-3.31-2.49-6-5.58-6c-3.08,0-5.58,2.69-5.57,6v5.9h-6.04c-2.09,0-3.8,1.84-3.8,4.07    c0,2.26,1.7,4.07,3.8,4.07h6.04l-0.01,12.72h-6.04v-3.41c0-2.24-1.7-4.07-3.8-4.07c-2.09,0-3.78,1.83-3.78,4.07v3.41h-0.36    c-3.49,0-6.33,1.98-6.33,4.43c0,2.45,2.84,4.43,6.33,4.43h0.36v3.41c0,2.24,1.7,4.07,3.79,4.07c2.09,0,3.79-1.83,3.79-4.07v-3.41    h6.04V101h-6.04c-2.09,0-3.8,1.82-3.8,4.07c0.01,2.24,1.7,4.06,3.8,4.08h6.04l-0.01,24.17c-2.57,0.95-4.88,2.48-6.73,4.54    l-19.76-12.4l3.68-6.77c1.06-1.94,0.44-4.42-1.36-5.56c-1.8-1.13-4.13-0.48-5.18,1.46l-3.67,6.75l-9.84-6.16l2.94-5.42l3.05,1.91    c1.81,1.13,4.13,0.48,5.19-1.46c1.05-1.94,0.44-4.44-1.37-5.57l-3.05-1.92l1.21-2.23c1.77-3.25,1.6-6.89-0.37-8.11    c-1.96-1.24-4.98,0.39-6.75,3.65L103,98.27l-2.41-1.51c-1.8-1.14-4.13-0.48-5.18,1.47c-1.06,1.95-0.45,4.44,1.35,5.57l2.42,1.51    l-2.94,5.4l-10.21-6.41l3.68-6.75c1.05-1.94,0.45-4.44-1.36-5.57c-1.8-1.13-4.13-0.47-5.17,1.47l-3.67,6.76l-4.75-2.98    c-2.66-1.67-6.08-0.7-7.63,2.15C65.56,102.22,66.47,105.9,69.12,107.57z" class="st0"/></g><polygon data-cppathid="10002" points="93.85,137.78 36.31,150.97 93.85,164.16 51.22,201.93 108.25,187 91.95,239.23 133.2,200.19    147.6,252.89 147.65,252.72 147.65,49.22 147.6,49.06 133.2,101.75 91.95,62.71 108.25,114.94 51.22,100.01  " class="st1"/></g></svg>