<?xml version="1.0" encoding="UTF-8"?>
<svg xmlns="http://www.w3.org/2000/svg" onmouseup="{ if(window.parent.document.onmouseup) window.parent.document.onmouseup(arguments[0]);}" xml:space="preserve" style="enable-background:new 0 0 215 153;" viewBox="0 0 215 153" y="0px" x="0px" id="Layer_1" version="1.1" xmlns:xlink="http://www.w3.org/1999/xlink"><style type="text/css">
	.st0{fill:#FFFFFF;}
</style><path data-cppathid="10000" d="M197,5.81H11c-4.4,0-8,3.6-8,8v119.25c0,4.4,3.6,8,8,8h186c4.4,0,8-3.6,8-8V13.81C205,9.41,201.4,5.81,197,5.81  z M180.2,116.92c0,1.14-0.93,2.06-2.06,2.06H106.8v1.73c0,2.65-2.14,4.79-4.79,4.79H70.39c-2.09,0-3.79-1.7-3.79-3.79v-2.73H29.86  c-1.14,0-2.06-0.93-2.06-2.06v-11.48c0-1.14,0.93-2.06,2.06-2.06H66.6v-2.73c0-2.09,1.7-3.79,3.79-3.79h33.63  c1.54,0,2.79,1.25,2.79,2.79v3.73h71.33c1.14,0,2.06,0.93,2.06,2.06L180.2,116.92L180.2,116.92z M180.2,83.31  c0,1.14-0.93,2.06-2.06,2.06h-26.36v1.73c0,2.65-2.14,4.79-4.79,4.79h-30.63c-2.65,0-4.79-2.14-4.79-4.79v-1.73H29.86  c-1.14,0-2.06-0.93-2.06-2.06V71.83c0-1.14,0.93-2.06,2.06-2.06h81.71v-3.73c0-1.54,1.25-2.79,2.79-2.79h34.63  c1.54,0,2.79,1.25,2.79,2.79v3.73h26.36c1.14,0,2.06,0.93,2.06,2.06V83.31z M180.2,49.7c0,1.14-0.93,2.06-2.06,2.06H87.52v2.1  c0,2.65-2.14,4.79-4.79,4.79H52.11c-2.65,0-4.79-2.14-4.79-4.79v-2.1H29.86c-1.14,0-2.06-0.93-2.06-2.06V38.22  c0-1.14,0.93-2.06,2.06-2.06h17.45V32.8c0-1.54,1.25-2.79,2.79-2.79h34.63c1.54,0,2.79,1.25,2.79,2.79v3.36h90.62  c1.14,0,2.06,0.93,2.06,2.06L180.2,49.7L180.2,49.7z" class="st0"/><path data-cppathid="10001" d="M49.62,53.79V32.7c0-0.39,0.31-0.7,0.7-0.7H84.3c0.39,0,0.7,0.31,0.7,0.7v21.09c0,1.49-1.21,2.7-2.7,2.7H52.32  C50.83,56.49,49.62,55.28,49.62,53.79z" class="st0"/><path data-cppathid="10002" d="M114.03,86.82V65.73c0-0.39,0.31-0.7,0.7-0.7h33.98c0.39,0,0.7,0.31,0.7,0.7v21.09c0,1.49-1.21,2.7-2.7,2.7  h-29.98C115.24,89.52,114.03,88.31,114.03,86.82z" class="st0"/><path data-cppathid="10003" d="M69.03,120.82V99.73c0-0.39,0.31-0.7,0.7-0.7h33.98c0.39,0,0.7,0.31,0.7,0.7v21.09c0,1.49-1.21,2.7-2.7,2.7  H71.73C70.24,123.52,69.03,122.31,69.03,120.82z" class="st0"/></svg>