<?xml version="1.0" encoding="UTF-8"?>
<svg xmlns="http://www.w3.org/2000/svg" onmouseup="{ if(window.parent.document.onmouseup) window.parent.document.onmouseup(arguments[0]);}" xml:space="preserve" style="enable-background:new 0 0 300 300;" viewBox="0 0 300 300" y="0px" x="0px" id="Layer_1" version="1.1" xmlns:xlink="http://www.w3.org/1999/xlink"><style type="text/css">
	.st0{fill:#FFFFFF;}
</style><path data-cppathid="10000" d="M248.56,192.81c-1.23,0-2.43-0.15-3.54-0.28c-0.68-0.08-1.41-0.17-2.19-0.23  c-14.87-1.2-134.93-0.93-174.38-0.83c-5.88,0.01-9.99,0.02-11.76,0.02c-1.25,0-2.53,0.16-3.89,0.33c-3.61,0.45-8.1,1.02-11.78-2.23  c-3.97-3.5-4.48-9.65-4.48-14.61c0-61.41,49.95-111.37,111.35-111.37c61.41,0,111.37,49.96,111.37,111.37  c0,7.33-0.69,12.49-4.14,15.54C253.07,192.35,250.76,192.81,248.56,192.81z M135.05,180.12c46.87,0,98.95,0.17,108.67,0.96  c0.93,0.07,1.82,0.18,2.65,0.28c0.38,0.05,0.82,0.1,1.22,0.14c0.2-1.02,0.42-2.96,0.42-6.52c0-55.21-44.91-100.12-100.12-100.12  c-55.2,0-100.1,44.91-100.1,100.12c0,3.64,0.4,5.29,0.64,5.95c0.73-0.01,2.04-0.16,2.96-0.27c1.57-0.2,3.34-0.42,5.3-0.42  c1.76,0,5.87-0.01,11.73-0.02C82.87,180.18,108.1,180.12,135.05,180.12z" class="st0"/><path data-cppathid="10001" d="M154.54,167.85c-1.4-0.21-2.79-0.29-4.16-0.26l-52.93-60.19l-2.32,2.1l37.37,67.32  c-1.62,2.29-2.77,4.91-3.28,7.77c-1.98,11.09,6.12,21.57,18.12,23.4c12,1.85,23.32-5.66,25.33-16.73  C174.64,180.19,166.54,169.69,154.54,167.85z" class="st0"/></svg>