<?xml version="1.0" encoding="UTF-8"?>
<svg xmlns="http://www.w3.org/2000/svg" onmouseup="{ if(window.parent.document.onmouseup) window.parent.document.onmouseup(arguments[0]);}" xml:space="preserve" style="enable-background:new 0 0 181 147;" viewBox="0 0 181 147" y="0px" x="0px" id="Layer_1" version="1.1" xmlns:xlink="http://www.w3.org/1999/xlink"><style type="text/css">
	.st0{fill:#39B54A;}
</style><path data-cppathid="10000" d="M123.9,77.4l27.5,16.1l-55.9,31.8l-7.1-12.5l10.3-10.3c1.3,2,4,2.6,6.1,1.4l14.7-8.4c2.2-1.3,2.2-3.3,0-4.6  l-5.8-3.4L123.9,77.4z M149.8,45.6c-1.2,1.2-10.3,10.3-10.3,10.3s0,0,0,0l-58.7,58.7l-26.3,12.2l12.2-26.3l9.5-9.5L40.4,28.5  l62,36.3l22.9-22.9c0,0,9.1-9.1,10.3-10.3c1.5-1.5,2.1-1.8,3.6-0.8c2.1,1.5,4.2,3.2,6.2,5.1c1.9,1.9,3.6,4,5.1,6.2  C151.6,43.5,151.3,44.1,149.8,45.6z M86.3,80.9l5.9-5.9l-9.8-5.8c-2.2-1.3-3-0.5-1.7,1.7L86.3,80.9z M73.3,108  c-1.8-1.8-3.9-3.4-6-4.9c-1,2.2-5,10.8-7.8,16.8c0.3,0.3,0.6,0.6,0.9,0.9C64.7,116.6,70.1,111.2,73.3,108L73.3,108z M125.1,55.6  c-1.5-1.5-3.9-1.5-5.4,0l-4.5,4.5c-1.5,1.5-1.5,3.9,0,5.4c1.5,1.5,3.9,1.5,5.4,0l4.5-4.5C126.6,59.5,126.6,57.1,125.1,55.6z   M144.1,48.9l-11.7-11.7l-3.2,3.2l11.7,11.7C142.1,50.9,143.1,49.8,144.1,48.9z" class="st0"/></svg>