<?xml version="1.0" encoding="UTF-8"?>
<svg xmlns="http://www.w3.org/2000/svg" onmouseup="{ if(window.parent.document.onmouseup) window.parent.document.onmouseup(arguments[0]);}" xml:space="preserve" style="enable-background:new 0 0 300 300;" viewBox="0 0 300 300" y="0px" x="0px" id="Layer_1" version="1.1" xmlns:xlink="http://www.w3.org/1999/xlink"><style type="text/css">
	.st0{fill:#39B54A;}
</style><path data-cppathid="10000" d="M166.93,166.51L212,183.82l-38.57-29.02c0.48-1.52,0.88-3.09,1.15-4.7l32.93-6.89l-33.14-5.65  c-0.33-1.63-0.77-3.21-1.32-4.74l37.52-30.36l-44.44,18.89c-1.13-1.23-2.32-2.39-3.61-3.45l10.62-31.86l-21.64,25.81  c-1.48-0.49-3.02-0.9-4.58-1.18L139.39,63l-5.86,47.9c-1.64,0.36-3.24,0.87-4.8,1.45l-22.26-25.14l11.48,31.72  c-1.16,1.02-2.23,2.15-3.23,3.33l-45.07-17.33l38.57,29.03c-0.49,1.53-0.88,3.11-1.14,4.72l-32.94,6.88l33.17,5.8  c0.33,1.57,0.77,3.09,1.29,4.59l-37.52,30.36l44.43-18.89c1.06,1.15,2.18,2.23,3.38,3.24l-10.38,32.07l21.42-25.89  c1.56,0.52,3.15,0.96,4.8,1.26l7.53,47.67l5.85-47.9c1.55-0.34,3.03-0.8,4.48-1.33l22.59,25.02l-11.75-31.43  C164.68,168.99,165.84,167.79,166.93,166.51z" class="st0"/></svg>