<?xml version="1.0" encoding="UTF-8"?>
<svg xmlns="http://www.w3.org/2000/svg" onmouseup="{ if(window.parent.document.onmouseup) window.parent.document.onmouseup(arguments[0]);}" xml:space="preserve" style="enable-background:new 0 0 300 300;" viewBox="0 0 300 300" y="0px" x="0px" id="Layer_1" version="1.1" xmlns:xlink="http://www.w3.org/1999/xlink"><style type="text/css">
	.st0{fill:#39B54A;}
</style><path data-cppathid="10000" d="M69.24,92.91c-14.97,0-27.09-12.07-27.09-27.1c0-15.03,12.12-27.09,27.09-27.09c14.98,0,27.1,12.05,27.1,27.09  C96.34,80.85,84.22,92.91,69.24,92.91z M277.62,108.62c-1.09-2.81-4.25-4.2-7.06-3.1l-140.51,54.83c-2.81,1.09-4.2,4.26-3.1,7.07  c0.84,2.16,2.9,3.47,5.08,3.47c0.66,0,1.33-0.12,1.98-0.38l53.58-20.91c2.04,2.02,4.62,3.48,7.52,4.15v87.98  c-9.53,2.08-16.49,8.57-16.49,16.27h46.07c0-8.27-8.04-15.16-18.67-16.66v-88.99c4.78-2.54,8.09-7.47,8.35-13.2l60.15-23.47  C277.33,114.58,278.72,111.42,277.62,108.62z M159.81,239.57l-24.49-63.09H98.96l-4.11-34.28l22.77,16.53l33.28-13  c5.57-2.18,8.32-8.45,6.14-14.02c-1.72-4.39-5.98-6.98-10.44-6.83l-6.71-17.2c-0.49-1.26-1.91-1.88-3.17-1.39  c-1.26,0.49-1.89,1.91-1.39,3.17l6.47,16.59l-21.04,8.22c0,0-27.77-20.14-29.64-21.51C85.2,108.42,78.89,103,67.27,103  c-15.85,0-25.1,10.41-23.81,20.32c1.12,8.59,8.43,60.95,10.35,74.73h-3.82c-1.35,0-2.17-0.79-2.45-2.97  c-0.28-2.18-8.24-59.04-8.24-59.04c-0.56-4.02-4.27-6.83-8.29-6.26c-4.02,0.56-6.83,4.28-6.26,8.3l8.11,58.13  c1.43,9.44,7.87,16.53,17.13,16.53l17.47,0v22.72c-5,0.59-9.69,2.08-13.86,4.3c-1.45-0.85-3.12-1.37-4.92-1.37  c-5.41,0-9.8,4.39-9.8,9.8c0,5.41,4.39,9.8,9.8,9.8c5.39,0,9.75-4.35,9.79-9.73c4.02-2.08,8.76-3.33,13.89-3.33  c5.13,0,9.87,1.24,13.89,3.33c0.04,5.38,4.4,9.73,9.79,9.73c5.41,0,9.8-4.39,9.8-9.8c0-5.41-4.39-9.8-9.8-9.8  c-1.8,0-3.47,0.52-4.92,1.37c-4.17-2.22-8.86-3.71-13.86-4.3v-22.72l23.63,0c4.06,0,7.35-3.3,7.35-7.35c0-0.65-0.11-1.26-0.27-1.86  h8.82l17.79,45.82c2.08,5.36,7.19,8.64,12.61,8.64c1.63,0,3.28-0.3,4.89-0.92C159.06,254.37,162.51,246.54,159.81,239.57z" class="st0"/></svg>