<?xml version="1.0" encoding="UTF-8"?>
<svg xmlns="http://www.w3.org/2000/svg" onmouseup="{ if(window.parent.document.onmouseup) window.parent.document.onmouseup(arguments[0]);}" xml:space="preserve" style="enable-background:new 0 0 300 300;" viewBox="0 0 300 300" y="0px" x="0px" id="presenting" version="1.1" xmlns:xlink="http://www.w3.org/1999/xlink"><style type="text/css">
	.st0{fill:#39B54A;}
</style><title/><g><ellipse data-cppathid="10000" ry="18.8" rx="9.21" cy="145.47" cx="226.08" class="st0"/><path data-cppathid="10001" d="M242.5,145.47c-0.09,8.77-1.13,17.71-4.42,25.91c-1.94,4.86-5.79,12.61-12,12.61s-10.06-7.75-12-12.61   c-3.26-8.16-4.41-17.17-4.41-25.91s1.15-17.74,4.41-25.91c2-4.86,5.8-12.61,12-12.61s10.06,7.75,12,12.61   C241.37,127.76,242.41,136.7,242.5,145.47c0,3.22,5,3.22,5,0c-0.13-13.21-2.16-32.85-14.25-41.13   c-10.54-7.22-19.66,3.54-23.49,12.65c-6.62,15.77-6.84,35.48-1.89,51.74c2.78,9.12,10.14,23.68,22.1,19.58   c6-2.06,9.8-8.27,12.18-13.77c3.94-9.12,5.25-19.2,5.35-29.07C247.53,142.25,242.53,142.25,242.5,145.47z" class="st0"/><path data-cppathid="10002" d="M40.09,162.76l28.57-33.91H41.12v-11h42.59v11l-28,33.91h29v11.46H40.09V162.76z" class="st0"/><path data-cppathid="10003" d="M93.65,117.87h38.29v11.46h-25.87v10.5h24.44v11.47h-24.44v11.46h27.3v11.46H93.65V117.87z" class="st0"/><path data-cppathid="10004" d="M143.32,117.87h21.81c2.74-0.02,5.48,0.26,8.16,0.83c2.41,0.49,4.7,1.44,6.76,2.79   c1.96,1.33,3.55,3.13,4.62,5.25c1.22,2.57,1.81,5.4,1.71,8.24c0.1,3.63-0.98,7.2-3.1,10.15c-2.22,2.88-5.48,4.77-9.08,5.29   l14.33,23.8h-14.89l-11.78-22.53h-6.12v22.53h-12.42V117.87z M155.74,141.19h7.32c1.11,0,2.29-0.04,3.54-0.12   c1.16-0.06,2.3-0.3,3.38-0.72c0.99-0.38,1.86-1.03,2.51-1.87c0.72-1.05,1.08-2.31,1-3.58c0.06-1.2-0.24-2.39-0.87-3.42   c-0.56-0.83-1.33-1.5-2.23-1.95c-0.98-0.47-2.02-0.78-3.1-0.92c-1.14-0.16-2.28-0.24-3.43-0.24h-8.11L155.74,141.19z" class="st0"/><rect data-cppathid="10005" height="7.81" width="69.51" class="st0" y="141.97" x="144.91"/><polygon data-cppathid="10006" points="195.32,161.14 195.32,128 224.02,144.57  " class="st0"/></g></svg>