<?xml version="1.0" encoding="UTF-8"?>
<svg xmlns="http://www.w3.org/2000/svg" onmouseup="{ if(window.parent.document.onmouseup) window.parent.document.onmouseup(arguments[0]);}" xml:space="preserve" style="enable-background:new 0 0 300 300;" viewBox="0 0 300 300" y="0px" x="0px" id="Layer_1" version="1.1" xmlns:xlink="http://www.w3.org/1999/xlink"><style type="text/css">
	.st0{fill:#39B54A;}
</style><g><path data-cppathid="10000" d="M243.88,186.01c-11.39-9.38-30.47-16.39-54.02-20.38c-1.18-0.2-1.78,0.43-2.1,1.43   c-1.69,5.41-3.86,10.65-6.57,15.68c-0.33,0.61-0.23,1.17,0.36,1.29c4.55,0.92,8.76,1.98,12.46,3.19   c6.29,2.03,11.21,4.45,14.19,6.75c3.06,2.37,3.72,4.14,3.68,5.01c0.04,0.87-0.61,2.64-3.68,5.01c-9.05,7.21-34.94,13.64-64.69,13.5   c-19.89,0.01-37.9-2.65-50.5-6.74c-6.29-2.03-11.21-4.45-14.19-6.76c-3.06-2.37-3.72-4.14-3.67-5.01   c-0.05-0.88,0.61-2.65,3.67-5.01c3.89-3.1,10.92-6.05,20.01-8.4c0.73-0.19,0.63-0.53,0.45-1.05c-1.95-5.54-2.82-11.58-2.49-17.88   c0.02-0.43-0.29-0.9-0.61-0.84c-10.64,1.87-20.33,4.35-28.79,7.35c-9.93,3.54-18.15,7.76-24.25,12.87   c-6.03,5.04-10.25,11.43-10.27,18.88c0.02,7.44,4.24,13.82,10.27,18.86c18.19,14.99,55.99,23.97,100.37,24.14   c29.54-0.01,56.29-4.23,76.12-11.26c9.93-3.54,18.14-7.77,24.25-12.87c6.03-5.04,10.25-11.42,10.27-18.86   C254.13,197.43,249.91,191.05,243.88,186.01z M236.57,215.07c-13.67,11.81-50.48,21.63-93.07,21.47   c-28.43,0.01-54.17-4.13-72.33-10.61c-9.06-3.21-16.21-7.03-20.74-10.86c-4.6-3.89-6.25-7.33-6.23-10.18   c-0.02-2.87,1.62-6.3,6.23-10.19c5.71-4.94,15.5-9.51,28.03-13.17c-2.29,1.19-4.41,2.44-6.25,3.85c-4.4,3.35-7.87,7.88-7.92,13.61   c0.05,5.73,3.52,10.25,7.92,13.61c13.35,9.96,39.92,15.58,71.28,15.73c20.86-0.01,39.74-2.71,53.85-7.27   c7.06-2.3,12.95-5.03,17.44-8.46c4.41-3.36,7.88-7.88,7.91-13.61c-0.04-5.73-3.51-10.26-7.91-13.61c-1.89-1.41-4.07-2.72-6.45-3.95   c2.62,0.76,5.12,1.56,7.5,2.41c9.07,3.21,16.21,7.04,20.74,10.86c4.6,3.89,6.24,7.33,6.22,10.19   C242.82,207.74,241.17,211.18,236.57,215.07z" class="st0"/><g><g><path data-cppathid="10001" d="M102.46,165.28C107.01,112.91,166.41,89.2,159.9,43c20.92,28.8,41.71,100.4,12.37,143.74     C147.3,223.63,99,204.98,102.46,165.28z M125.5,158.82c9.99-33.06,25.9-44.56,29.92-67.62c-4.55,7.45-10.16,14.45-15.69,21.35     c-10.72,13.37-21.77,27.13-25.56,44.26C111.68,167.96,122.22,169.62,125.5,158.82z" class="st0"/></g></g></g></svg>