<?xml version="1.0" encoding="UTF-8"?>
<svg xmlns="http://www.w3.org/2000/svg" onmouseup="{ if(window.parent.document.onmouseup) window.parent.document.onmouseup(arguments[0]);}" xml:space="preserve" style="enable-background:new 0 0 300 300;" viewBox="0 0 300 300" y="0px" x="0px" id="Layer_1" version="1.1" xmlns:xlink="http://www.w3.org/1999/xlink"><style type="text/css">
	.st0{fill:#39B54A;}
	.st1{clip-path:url(#SVGID_2_);fill:#39B54A;}
</style><g><path data-cppathid="10000" d="M143.96,79.01c-43.89,0-79.47,35.58-79.47,79.47s35.58,79.47,79.47,79.47c43.89,0,79.47-35.58,79.47-79.47   S187.85,79.01,143.96,79.01L143.96,79.01z M143.96,214.51c-30.89,0-56.03-25.13-56.03-56.03s25.13-56.03,56.03-56.03   c30.89,0,56.03,25.13,56.03,56.03S174.85,214.51,143.96,214.51L143.96,214.51z M143.96,214.51" class="st0"/><path data-cppathid="10001" d="M143.96,111.79c-25.75,0-46.69,20.94-46.69,46.69s20.94,46.69,46.69,46.69c25.74,0,46.69-20.94,46.69-46.69   S169.7,111.79,143.96,111.79L143.96,111.79z M143.96,111.79" class="st0"/><g><defs><rect data-cppathid="10002" height="158.94" width="268.64" y="79.01" x="10" id="SVGID_1_"/></defs><clipPath id="SVGID_2_"><use style="overflow:visible;" xlink:href="#SVGID_1_"/></clipPath><path data-cppathid="10003" d="M272.92,85.05h-0.16c-2.75,0-4.99,2.23-4.99,4.99v42.14c-0.14,2.38-2.11,4.26-4.52,4.26h-0.15    c-2.41,0-4.38-1.88-4.52-4.26V90.04c0-2.76-2.23-4.99-4.99-4.99h-0.17c-2.75,0-4.99,2.23-4.99,4.99v42.14    c-0.14,2.38-2.11,4.26-4.52,4.26h-0.15c-2.41,0-4.38-1.88-4.52-4.26V90.04c0-2.76-2.23-4.99-4.99-4.99h-0.16    c-2.76,0-4.99,2.23-4.99,4.99v48.19c0,7.71,6.25,13.96,13.96,13.96h6.14c-1.69,21.51-4.2,43.03-5.71,64.54    c-0.43,9.46,2.7,14.89,10.01,15.19c7.31-0.3,10.44-5.73,10.01-15.19c-1.51-21.51-4.03-43.03-5.71-64.54h6.14    c7.71,0,13.96-6.25,13.96-13.96V90.04C277.91,87.28,275.68,85.05,272.92,85.05L272.92,85.05z M272.92,85.05" class="st1"/><path data-cppathid="10004" d="M37.11,84.35c-14.09,0-23.29,21.74-26.13,32.56c-4.26,16.27,5.91,30.31,22.11,32.31    c-1.67,22.73-4.39,45.46-5.99,68.19c-0.43,9.46,2.7,14.89,10.01,15.19c7.31-0.3,10.44-5.73,10.01-15.19    c-1.6-22.73-4.32-45.46-5.99-68.19c16.2-2,26.37-16.04,22.11-32.31C60.4,106.09,51.19,84.35,37.11,84.35L37.11,84.35z     M37.11,84.35" class="st1"/></g></g></svg>