<?xml version="1.0" encoding="UTF-8"?>
<svg xmlns="http://www.w3.org/2000/svg" onmouseup="{ if(window.parent.document.onmouseup) window.parent.document.onmouseup(arguments[0]);}" xml:space="preserve" style="enable-background:new 0 0 300 300;" viewBox="0 0 300 300" y="0px" x="0px" id="Layer_1" version="1.1" xmlns:xlink="http://www.w3.org/1999/xlink"><style type="text/css">
	.st0{fill:#39B54A;}
	.st1{fill:none;stroke:#39B54A;stroke-width:3.9649;stroke-miterlimit:10;}
</style><path data-cppathid="10000" d="M135.64,115.89L135.64,115.89h0.01c0,0,10.44,0.02,10.44-10.44l-0.01-0.01l0.01,0  c0-10.46-10.44-10.44-10.44-10.44l-0.01,0.01V95c0,0-10.44-0.02-10.44,10.44l0.01,0l-0.01,0.01  C125.2,115.91,135.64,115.89,135.64,115.89z M159.04,154.2l-4.57-26.74h0.01c-2.61-5.74-7.84-4.32-9.26-3.81  c-3.06-2.53-7.11-2.52-7.11-2.52l-0.02,0.04v-0.06h-5.23v0.02c-0.02,0-4.02,0.01-7.06,2.5c-1.52-0.53-6.59-1.82-9.17,3.83l0,0  l-4.57,26.74c-0.6,1.76,0.16,3.72,1.89,4.51c1.83,0.83,3.97,0.03,4.82-1.78l0.03,0.02l3.61-21.44v16.94h0.08l-0.06,0.02  c0,0,0.08,6.43,5.21,9.17v14.14l0,0v16.3c0.38,4,3.63,7.18,7.75,7.18c4.32,0,7.81-3.49,7.86-7.8h0.07V178.6l0,0v-16.92  c5.16-2.74,5.24-9.19,5.24-9.19l-0.06-0.02h0.05v-17.86l3.77,22.35l0.04-0.02c0.84,1.81,2.99,2.6,4.81,1.78  C158.88,157.93,159.65,155.96,159.04,154.2z" class="st0"/><path data-cppathid="10001" d="M123.95,47h40.72c3.82,0,6.95,2.95,6.95,6.56v17.05c0,3.61-3.13,6.56-6.95,6.56h-19.83l-7.98,13.22l-8.19-13.22  h-4.71c-3.82,0-6.95-2.95-6.95-6.56V53.56C117,49.95,120.13,47,123.95,47z" class="st1"/><path data-cppathid="10002" d="M189.48,115.51L189.48,115.51h0.01c0,0,10.44,0.02,10.44-10.44l-0.01-0.01l0.01,0  c0-10.46-10.44-10.44-10.44-10.44l-0.01,0.01v-0.01c0,0-10.44-0.02-10.44,10.44l0.01,0l-0.01,0.01  C179.04,115.53,189.48,115.51,189.48,115.51z M212.88,153.82l-4.57-26.74h0.01c-2.61-5.74-7.84-4.32-9.26-3.81  c-3.06-2.53-7.11-2.52-7.11-2.52l-0.02,0.04v-0.06h-5.23v0.02c-0.02,0-4.02,0.01-7.06,2.5c-1.52-0.53-6.59-1.82-9.17,3.83l0,0  l-4.57,26.74c-0.6,1.76,0.16,3.72,1.89,4.51c1.83,0.83,3.97,0.03,4.82-1.78l0.03,0.02l3.61-21.44v16.94h0.08l-0.06,0.02  c0,0,0.08,6.43,5.21,9.17v14.14l0,0v16.3c0.38,4,3.63,7.18,7.75,7.18c4.32,0,7.81-3.49,7.86-7.8h0.07v-12.88l0,0v-16.92  c5.16-2.74,5.24-9.19,5.24-9.19l-0.06-0.02h0.05v-17.86l3.77,22.35l0.04-0.02c0.84,1.81,2.99,2.6,4.81,1.78  C212.73,157.54,213.49,155.58,212.88,153.82z" class="st0"/><g><path data-cppathid="10003" d="M147.52,72.48c-2.94-0.82-5.06-1.59-7.95-2.75c-0.4-0.16-0.9-0.19-1.43-0.24c-4.03-0.4-8.42-3.1-8.42-9.03   c0-5.51,3.84-9.46,9.83-9.46c5.99,0,9.56,3.95,9.56,9.09c0,3.68-2.04,6.54-4.29,7.63v0.11c1.22,0.34,2.62,0.58,4.03,0.82   L147.52,72.48z M143.79,60.26c0-3.07-1.7-5.4-4.37-5.4s-4.37,2.33-4.37,5.4s1.7,5.35,4.37,5.35   C142.17,65.62,143.79,63.34,143.79,60.26z" class="st0"/></g><g><path data-cppathid="10004" d="M182.93,59.92h-0.05c-0.29,1.03-0.56,2.33-0.85,3.36l-0.85,3.13h3.71l-0.95-3.15   C183.62,62.25,183.25,60.96,182.93,59.92z" class="st0"/><path data-cppathid="10005" d="M204.05,51.27h-40.72c-3.82,0-6.95,2.95-6.95,6.56v17.05c0,3.61,3.13,6.56,6.95,6.56h19.83l7.98,13.22   l8.19-13.22h4.71c3.82,0,6.95-2.95,6.95-6.56V57.83C211,54.22,207.87,51.27,204.05,51.27z M186.99,74.41l-1.32-4.34h-5.19   l-1.14,4.34h-5.27l5.64-17.85h6.83l6.01,17.85H186.99z" class="st0"/></g></svg>