<?xml version="1.0" encoding="UTF-8"?>
<svg xmlns="http://www.w3.org/2000/svg" onmouseup="{ if(window.parent.document.onmouseup) window.parent.document.onmouseup(arguments[0]);}" xml:space="preserve" style="enable-background:new 0 0 300 300;" viewBox="0 0 300 300" y="0px" x="0px" id="Layer_1" version="1.1" xmlns:xlink="http://www.w3.org/1999/xlink"><style type="text/css">
	.st0{fill:#39B54A;}
</style><g><g><path data-cppathid="10000" d="M204.7,34.46H73.3c-15.54,0-28.19,12.64-28.19,28.19v174.7c0,7.53,2.93,14.61,8.26,19.93    c5.32,5.32,12.4,8.26,19.93,8.26h131.4c7.53,0,14.61-2.93,19.93-8.26c5.32-5.32,8.26-12.4,8.26-19.93V62.65    C232.89,47.1,220.25,34.46,204.7,34.46z M111.72,118.12l-40.63,36.4l-12.92-11.93c-1.6-1.48-1.7-3.98-0.22-5.59    c1.48-1.6,3.98-1.71,5.59-0.22l7.64,7.05l35.28-31.6c1.63-1.46,4.13-1.32,5.58,0.31C113.48,114.17,113.35,116.67,111.72,118.12z     M113.05,80.48l-40.63,36.4L59.5,104.95c-1.6-1.48-1.7-3.98-0.22-5.59c1.48-1.6,3.98-1.7,5.59-0.22l7.64,7.05l35.28-31.6    c1.63-1.46,4.13-1.32,5.58,0.31C114.81,76.53,114.67,79.03,113.05,80.48z M204.8,214.5h-83.41c-2.71,0-4.9-2.19-4.9-4.9    s2.19-4.9,4.9-4.9h83.41c2.71,0,4.9,2.2,4.9,4.9C209.71,212.31,207.51,214.5,204.8,214.5z M204.8,180.09h-83.41    c-2.71,0-4.9-2.19-4.9-4.9s2.19-4.9,4.9-4.9h83.41c2.71,0,4.9,2.19,4.9,4.9S207.51,180.09,204.8,180.09z M204.8,111.26h-83.41    c-2.71,0-4.9-2.19-4.9-4.9s2.19-4.9,4.9-4.9h83.41c2.71,0,4.9,2.19,4.9,4.9C209.71,109.07,207.51,111.26,204.8,111.26z     M204.37,146.3h-83.41c-2.71,0-4.9-2.19-4.9-4.9s2.19-4.9,4.9-4.9h83.41c2.71,0,4.9,2.19,4.9,4.9    C209.27,144.11,207.08,146.3,204.37,146.3z" class="st0"/></g></g></svg>