<?xml version="1.0" encoding="UTF-8"?>
<svg xmlns="http://www.w3.org/2000/svg" onmouseup="{ if(window.parent.document.onmouseup) window.parent.document.onmouseup(arguments[0]);}" xml:space="preserve" style="enable-background:new 0 0 300 300;" viewBox="0 0 300 300" y="0px" x="0px" id="Layer_1" version="1.1" xmlns:xlink="http://www.w3.org/1999/xlink"><style type="text/css">
	.st0{fill:none;}
	.st1{fill:#39B54A;}
</style><g><path data-cppathid="10000" d="M223.17,158.66c0.22-2.56,0.36-5.14,0.36-7.76c0-49.64-40.24-89.88-89.88-89.88s-89.88,40.24-89.88,89.88   c0,2.62,0.14,5.2,0.36,7.76H223.17z" class="st0"/><path data-cppathid="10001" d="M205.2,96.49C167.69,49.73,108.4,52,70.62,86.82C41.14,114,43.77,158.66,43.77,158.66h88.35   c-0.6-1.62-0.79-3.39-0.46-5.19c0.27-1.5,0.87-2.87,1.71-4.07l-19.6-35.32l1.23-1.1l27.76,31.56c0.72-0.02,1.45,0.02,2.19,0.14   c6.29,0.97,10.54,6.47,9.5,12.28c-0.11,0.59-0.27,1.15-0.48,1.7h69.21C223.18,165.85,229.84,126.79,205.2,96.49z M220.29,157.6   h-9.34c0.55-6.86-0.11-13.93-2.17-20.93c-9.21-31.36-42.08-49.72-74.74-45.14c-37.61,5.28-52.19,38.65-49.96,66.07H60.46   c-2.2-35.79,21.1-69.55,57.81-79.86c42.5-11.94,86.84,12.07,99.05,53.62C219.9,140.13,220.82,148.99,220.29,157.6z" class="st1"/></g></svg>