<?xml version="1.0" encoding="UTF-8"?>
<svg xmlns="http://www.w3.org/2000/svg" onmouseup="{ if(window.parent.document.onmouseup) window.parent.document.onmouseup(arguments[0]);}" xml:space="preserve" style="enable-background:new 0 0 300 300;" viewBox="0 0 300 300" y="0px" x="0px" id="Layer_1" version="1.1" xmlns:xlink="http://www.w3.org/1999/xlink"><style type="text/css">
	.st0{clip-path:url(#SVGID_2_);fill:#39B54A;}
</style><g><g><defs><rect data-cppathid="10000" height="174" width="122.71" y="49" x="75.38" id="SVGID_1_"/></defs><clipPath id="SVGID_2_"><use style="overflow:visible;" xlink:href="#SVGID_1_"/></clipPath><path data-cppathid="10001" d="M191.38,65.35h6.79V49H75.38v16.35h6.79v4.25c0,26.64,9.12,51.08,24.14,65.58    c-15.02,14.49-24.14,38.93-24.14,65.57v5.35h-6.79v16.36h122.78v-16.36h-6.79v-5.35c0-26.64-9.12-51.08-24.14-65.57    c15.02-14.5,24.14-38.93,24.14-65.58V65.35z M155.8,130.92l-5.63,4.26l5.63,4.27c14.05,10.66,23.48,32.23,24.73,55.95H93.01    c1.24-23.71,10.68-45.3,24.73-55.95l5.63-4.27l-5.63-4.26c-14.05-10.67-23.48-32.24-24.73-55.97h87.52    C179.29,98.68,169.86,120.25,155.8,130.92L155.8,130.92z M104.29,83.47h64.96c-0.94,18.01-8.1,34.39-18.78,42.49    c0,0-1.83,0.8-4.27,3.24c-5.06,7.21-5.32,33.59-5.33,34.75c3.63,0.39,7.54,1.91,11.43,5.46c13.7,12.53,17.67,14,18.15,23.09    h-64.25c0.48-9.09,8.27-15.59,18.15-23.09c0,0,4.71-4.12,11.29-5.27c-0.12-0.2-0.19-0.35-0.19-0.35c0-24.83-8.12-35.49-8.12-35.49    l-5.76-3.23C110.9,116.96,105.23,101.47,104.29,83.47L104.29,83.47z M104.29,83.47" class="st0"/></g></g></svg>