<?xml version="1.0" encoding="UTF-8"?>
<svg xmlns="http://www.w3.org/2000/svg" onmouseup="{ if(window.parent.document.onmouseup) window.parent.document.onmouseup(arguments[0]);}" xml:space="preserve" style="enable-background:new 0 0 300 300;" viewBox="0 0 300 300" y="0px" x="0px" id="Layer_1" version="1.1" xmlns:xlink="http://www.w3.org/1999/xlink"><style type="text/css">
	.st0{fill:#39B54A;}
</style><g><path data-cppathid="10000" d="M179.26,125.75L179.26,125.75L179.26,125.75c0.01,0,5.33,0.01,5.33-5.32l-0.01,0l0.01,0   c0-5.33-5.32-5.32-5.32-5.32l0,0.01l0-0.01c0,0-5.32-0.01-5.32,5.32l0.01,0l-0.01,0C173.94,125.76,179.26,125.75,179.26,125.75z" class="st0"/><path data-cppathid="10001" d="M185.94,143.51h0.03v-10.65h0c0-5.33-5.32-5.32-5.32-5.32l-0.01,0.02v-0.04h-2.66v0.01   c-0.01,0-5.31,0-5.32,5.32h-0.01v3.7h-6.67v-14.36h0c0-1.47-1.19-2.66-2.66-2.66v0h-46.79v0c-1.47,0-2.66,1.19-2.66,2.66h0v31.97h0   c0,1.47,1.19,2.66,2.66,2.66v0h46.79v0c1.47,0,2.66-1.19,2.66-2.66h0v-12.28h6.67l2.38,8.57v7.15h0v17.38   c0.19,2.04,1.85,3.66,3.95,3.66c2.2,0,3.98-1.78,4-3.98h0.04v-12.97h0v-10.67l0.01,0.02c3.62,0.12,2.95-7.53,2.95-7.53   L185.94,143.51z M160.64,136.55h-0.23c-1.36,0.13-2.44,1.24-2.44,2.63c0,1.47,1.18,2.65,2.65,2.67v0.02h0.02v12.28h-41.46v-31.97   h41.46V136.55z" class="st0"/><g><path data-cppathid="10002" d="M153.19,149.53v1.1h-25.43v-1.1h0.83v-20.63h1.46v-1.24h3.8v-2.44h1.57v-0.94h3.52v-0.82h0.84v0.82h1.39    v-0.82h0.83v0.82h3.53v0.94h1.56v2.44h3.8v1.24h1.46v20.63H153.19z M135.68,127.06v2.62h2.17v-2.62H135.68z M139.39,127.06v2.62    h2.17v-2.62H139.39z M143.1,127.06v2.62h2.17v-2.62H143.1z M135.68,130.8v2.62h2.17v-2.62H135.68z M139.39,130.8v2.62h2.17v-2.62    H139.39z M143.1,130.8v2.62h2.17v-2.62H143.1z M135.68,134.55v2.62h2.17v-2.62H135.68z M139.39,134.55v2.62h2.17v-2.62H139.39z     M143.1,134.55v2.62h2.17v-2.62H143.1z M135.68,138.3v2.62h2.17v-2.62H135.68z M139.39,138.3v2.62h2.17v-2.62H139.39z     M143.1,138.3v2.62h2.17v-2.62H143.1z M135.68,142.04v2.62h2.17v-2.62H135.68z M139.39,142.04v2.62h2.17v-2.62H139.39z     M143.1,142.04v2.62h2.17v-2.62H143.1z M135.68,145.79v2.62h2.17v-2.62H135.68z M139.39,145.79v2.62h2.17v-2.62H139.39z     M143.1,145.79v2.62h2.17v-2.62H143.1z M130.61,130.8v2.62h2.17v-2.62H130.61z M148.18,130.8v2.62h2.17v-2.62H148.18z     M130.61,134.55v2.62h2.17v-2.62H130.61z M148.18,134.55v2.62h2.17v-2.62H148.18z M130.61,138.3v2.62h2.17v-2.62H130.61z     M148.18,138.3v2.62h2.17v-2.62H148.18z M130.61,142.04v2.62h2.17v-2.62H130.61z M148.18,142.04v2.62h2.17v-2.62H148.18z     M130.61,145.79v2.62h2.17v-2.62H130.61z M148.18,145.79v2.62h2.17v-2.62H148.18z" class="st0"/></g></g></svg>