<?xml version="1.0" encoding="UTF-8"?>
<svg xmlns="http://www.w3.org/2000/svg" onmouseup="{ if(window.parent.document.onmouseup) window.parent.document.onmouseup(arguments[0]);}" xml:space="preserve" style="enable-background:new 0 0 316 335;" viewBox="0 0 316 335" y="0px" x="0px" id="Layer_1" version="1.1" xmlns:xlink="http://www.w3.org/1999/xlink"><style type="text/css">
	.st0{fill:#6ABC45;}
	.st1{fill:none;stroke:#FFFFFF;stroke-width:2;stroke-linejoin:round;stroke-miterlimit:10;}
	.st2{fill:#B9DAB0;}
	.st3{fill:#FFFFFF;}
</style><path data-cppathid="10000" d="M38.46,222.69C1.22,158.66,23.13,76.67,87.4,39.57c20.49-11.83,43.75-18.06,67.44-18.06l0,134L38.46,222.69z" class="st0"/><path data-cppathid="10001" d="M38.46,222.69C1.22,158.66,23.13,76.67,87.4,39.57c20.49-11.83,43.75-18.06,67.44-18.06l0,134L38.46,222.69z" class="st1"/><path data-cppathid="10002" d="M33.43,225.89C-5.44,158.56,17.63,72.47,84.95,33.6c17.69-10.22,37.4-16.46,57.74-18.29l0-10.2l12.66,17.31  l-12.66,18.52l0-10.2C73.79,37.72,23.59,99.24,30.57,168.15c1.79,17.64,7.3,34.71,16.16,50.06L33.43,225.89z" class="st2"/><path data-cppathid="10003" d="M165.84,21.51c74.28,0,134.5,59.99,134.5,134c0,23.6-6.25,46.77-18.13,67.19l-116.37-67.19V21.51z" class="st0"/><path data-cppathid="10004" d="M165.84,21.51c74.28,0,134.5,59.99,134.5,134c0,23.6-6.25,46.77-18.13,67.19l-116.37-67.19V21.51z" class="st1"/><g><path data-cppathid="10005" d="M189.03,124.59c1.23-0.24,2.79-0.39,4.29-0.39c2.16,0,4.08,0.3,5.4,1.5c1.23,1.11,1.59,2.46,1.59,4.2   c0,2.16-1.05,4.11-3.12,5.07v0.06c1.38,0.54,2.07,1.83,2.46,3.99c0.39,2.25,0.93,4.74,1.29,5.49h-4.11   c-0.24-0.57-0.69-2.61-0.99-4.83c-0.36-2.52-0.99-3.24-2.31-3.24h-0.57v8.07h-3.93V124.59z M192.96,133.41h0.69   c1.71,0,2.7-1.38,2.7-3.15c0-1.71-0.69-2.94-2.46-3c-0.33,0-0.72,0.03-0.93,0.12V133.41z" class="st3"/><path data-cppathid="10006" d="M205.53,138.57c0.06,2.28,1.38,3.12,3.12,3.12c1.11,0,2.1-0.24,2.79-0.48l0.54,2.82   c-1.02,0.39-2.55,0.66-4.05,0.66c-3.99,0-6.18-2.64-6.18-7.23c0-4.92,2.55-7.86,5.88-7.86c3.15,0,4.98,2.49,4.98,6.93   c0,1.05-0.03,1.62-0.12,2.04H205.53z M209.04,135.81c0-1.89-0.48-3.36-1.65-3.36c-1.29,0-1.8,1.89-1.83,3.36H209.04z" class="st3"/><path data-cppathid="10007" d="M217.26,129.84l1.11,6.54c0.21,1.32,0.42,2.64,0.63,4.11h0.06c0.18-1.5,0.36-2.73,0.57-4.11l1.14-6.54h3.87   l-3.93,14.67h-3.63l-3.99-14.67H217.26z" class="st3"/><path data-cppathid="10008" d="M230.1,125.94c0.03,1.26-0.87,2.13-2.07,2.13c-1.08,0-1.98-0.87-1.95-2.13c-0.03-1.32,0.93-2.13,2.01-2.13   C229.23,123.81,230.1,124.62,230.1,125.94z M226.17,144.51v-14.67h3.93v14.67H226.17z" class="st3"/><path data-cppathid="10009" d="M236.13,138.57c0.06,2.28,1.38,3.12,3.12,3.12c1.11,0,2.1-0.24,2.79-0.48l0.54,2.82   c-1.02,0.39-2.55,0.66-4.05,0.66c-3.99,0-6.18-2.64-6.18-7.23c0-4.92,2.55-7.86,5.88-7.86c3.15,0,4.98,2.49,4.98,6.93   c0,1.05-0.03,1.62-0.12,2.04H236.13z M239.64,135.81c0-1.89-0.48-3.36-1.65-3.36c-1.29,0-1.8,1.89-1.83,3.36H239.64z" class="st3"/><path data-cppathid="10010" d="M247.92,129.84l0.78,6.33c0.21,1.59,0.39,3.06,0.51,4.44h0.09c0.24-1.38,0.54-3,0.81-4.38l1.29-6.39h3.03   l1.26,6.24c0.3,1.65,0.57,3.09,0.75,4.53h0.09c0.09-1.38,0.27-2.91,0.51-4.5l0.9-6.27h3.87l-3.78,14.67h-3.33l-1.11-5.13   c-0.3-1.35-0.57-2.91-0.75-4.59h-0.06c-0.18,1.71-0.51,3.24-0.84,4.62l-1.26,5.1h-3.36l-3.6-14.67H247.92z" class="st3"/></g><path data-cppathid="10011" d="M277.32,232.26c-37.14,64.33-119.4,86.37-183.73,49.23c-20.45-11.8-37.43-28.78-49.23-49.23l116.48-67.25  L277.32,232.26z" class="st0"/><path data-cppathid="10012" d="M277.32,232.26c-37.14,64.33-119.4,86.37-183.73,49.23c-20.45-11.8-37.43-28.78-49.23-49.23l116.48-67.25  L277.32,232.26z" class="st1"/><g><path data-cppathid="10013" d="M42.47,144.57l-4.53-20.22h4.35l1.44,8.73c0.36,2.16,0.78,4.65,1.05,7.02h0.06c0.27-2.4,0.6-4.83,0.96-7.11   l1.38-8.64h4.32l-4.62,20.22H42.47z" class="st3"/><path data-cppathid="10014" d="M58.4,144.57l-0.21-1.44h-0.06c-0.81,1.14-1.95,1.68-3.24,1.68c-2.22,0-3.87-1.86-3.87-4.47   c0-3.84,3.39-5.43,6.72-5.46v-0.33c0-1.14-0.69-1.98-2.07-1.98c-1.17,0-2.13,0.3-3,0.84l-0.72-2.64c0.81-0.48,2.52-1.11,4.56-1.11   c4.47,0,5.19,3.12,5.19,6.09v5.46c0,1.17,0.06,2.37,0.24,3.36H58.4z M57.86,137.43c-1.32,0.03-3.12,0.45-3.12,2.49   c0,1.47,0.81,2.01,1.41,2.01c0.63,0,1.35-0.39,1.62-1.26c0.06-0.21,0.09-0.45,0.09-0.69V137.43z" class="st3"/><path data-cppathid="10015" d="M64.49,123.81h3.93v20.76h-3.93V123.81z" class="st3"/><path data-cppathid="10016" d="M75.17,126c0.03,1.26-0.87,2.13-2.07,2.13c-1.08,0-1.98-0.87-1.95-2.13c-0.03-1.32,0.93-2.13,2.01-2.13   C74.3,123.87,75.17,124.68,75.17,126z M71.24,144.57V129.9h3.93v14.67H71.24z" class="st3"/><path data-cppathid="10017" d="M88.58,123.81v16.41c0,1.41,0.06,3,0.12,4.35h-3.39l-0.21-1.65h-0.06c-0.54,1.02-1.71,1.89-3.06,1.89   c-3.12,0-4.56-3.45-4.56-7.56c0-5.1,2.22-7.59,4.71-7.59c1.29,0,2.1,0.63,2.46,1.47h0.06v-7.32H88.58z M84.65,135.54   c0-0.27,0-0.57-0.03-0.87c-0.15-0.9-0.63-1.71-1.41-1.71c-1.38,0-1.89,2.01-1.89,4.38c0,2.79,0.75,4.26,1.86,4.26   c0.48,0,1.05-0.27,1.35-1.29c0.09-0.21,0.12-0.54,0.12-0.9V135.54z" class="st3"/><path data-cppathid="10018" d="M97.91,144.57l-0.21-1.44h-0.06c-0.81,1.14-1.95,1.68-3.24,1.68c-2.22,0-3.87-1.86-3.87-4.47   c0-3.84,3.39-5.43,6.72-5.46v-0.33c0-1.14-0.69-1.98-2.07-1.98c-1.17,0-2.13,0.3-3,0.84l-0.72-2.64c0.81-0.48,2.52-1.11,4.56-1.11   c4.47,0,5.19,3.12,5.19,6.09v5.46c0,1.17,0.06,2.37,0.24,3.36H97.91z M97.37,137.43c-1.32,0.03-3.12,0.45-3.12,2.49   c0,1.47,0.81,2.01,1.41,2.01c0.63,0,1.35-0.39,1.62-1.26c0.06-0.21,0.09-0.45,0.09-0.69V137.43z" class="st3"/><path data-cppathid="10019" d="M108.62,125.94v3.96h2.88v2.79h-2.88v6.69c0,1.71,0.72,2.13,1.5,2.13c0.39,0,0.69-0.03,1.02-0.09l0.03,3.06   c-0.54,0.15-1.35,0.27-2.4,0.27c-1.14,0-2.13-0.27-2.82-0.93c-0.81-0.78-1.26-1.89-1.26-4.2v-6.93h-1.74v-2.79h1.74v-3.03   L108.62,125.94z" class="st3"/><path data-cppathid="10020" d="M117.26,126c0.03,1.26-0.87,2.13-2.07,2.13c-1.08,0-1.98-0.87-1.95-2.13c-0.03-1.32,0.93-2.13,2.01-2.13   C116.39,123.87,117.26,124.68,117.26,126z M113.33,144.57V129.9h3.93v14.67H113.33z" class="st3"/><path data-cppathid="10021" d="M130.73,137.19c0,6.12-3.39,7.62-5.61,7.62c-3.51,0-5.61-2.76-5.61-7.53c0-5.28,2.76-7.62,5.67-7.62   C128.63,129.66,130.73,132.57,130.73,137.19z M123.41,137.19c0,2.52,0.39,4.62,1.8,4.62c1.26,0,1.59-2.46,1.59-4.62   c0-2.01-0.33-4.56-1.65-4.56C123.71,132.63,123.41,135.18,123.41,137.19z" class="st3"/><path data-cppathid="10022" d="M132.95,134.31c0-1.62-0.09-3.03-0.12-4.41h3.39l0.18,1.68h0.06c0.78-1.17,2.04-1.92,3.57-1.92   c2.79,0,3.9,2.22,3.9,5.49v9.42H140v-9.18c0-1.26-0.3-2.43-1.44-2.43c-0.66,0-1.2,0.45-1.47,1.32c-0.12,0.3-0.21,0.78-0.21,1.35   v8.94h-3.93V134.31z" class="st3"/></g><g><path data-cppathid="10023" d="M127.17,226.92h-3.57v-3.63h11.1v3.63h-3.6v16.59h-3.93V226.92z" class="st3"/><path data-cppathid="10024" d="M137.73,237.57c0.06,2.28,1.38,3.12,3.12,3.12c1.11,0,2.1-0.24,2.79-0.48l0.54,2.82   c-1.02,0.39-2.55,0.66-4.05,0.66c-3.99,0-6.18-2.64-6.18-7.23c0-4.92,2.55-7.86,5.88-7.86c3.15,0,4.98,2.49,4.98,6.93   c0,1.05-0.03,1.62-0.12,2.04H137.73z M141.24,234.81c0-1.89-0.48-3.36-1.65-3.36c-1.29,0-1.8,1.89-1.83,3.36H141.24z" class="st3"/><path data-cppathid="10025" d="M146.91,239.97c0.57,0.36,1.65,0.78,2.64,0.78c1.02,0,1.59-0.45,1.59-1.32c0-0.75-0.42-1.23-1.71-1.98   c-2.4-1.35-2.97-2.88-2.97-4.23c0-2.64,1.89-4.62,4.83-4.62c1.23,0,2.19,0.3,2.97,0.66l-0.69,2.88c-0.57-0.33-1.26-0.6-2.04-0.6   c-0.99,0-1.47,0.6-1.47,1.26c0,0.66,0.33,1.02,1.71,1.83c2.16,1.23,2.97,2.76,2.97,4.44c0,3-2.16,4.62-5.19,4.62   c-1.23,0-2.67-0.33-3.36-0.84L146.91,239.97z" class="st3"/><path data-cppathid="10026" d="M161.37,224.88v3.96h2.88v2.79h-2.88v6.69c0,1.71,0.72,2.13,1.5,2.13c0.39,0,0.69-0.03,1.02-0.09l0.03,3.06   c-0.54,0.15-1.35,0.27-2.4,0.27c-1.14,0-2.13-0.27-2.82-0.93c-0.81-0.78-1.26-1.89-1.26-4.2v-6.93h-1.74v-2.79h1.74v-3.03   L161.37,224.88z" class="st3"/><path data-cppathid="10027" d="M170.01,224.94c0.03,1.26-0.87,2.13-2.07,2.13c-1.08,0-1.98-0.87-1.95-2.13c-0.03-1.32,0.93-2.13,2.01-2.13   C169.14,222.81,170.01,223.62,170.01,224.94z M166.08,243.51v-14.67h3.93v14.67H166.08z" class="st3"/><path data-cppathid="10028" d="M172.77,233.25c0-1.62-0.09-3.03-0.12-4.41h3.39l0.18,1.68h0.06c0.78-1.17,2.04-1.92,3.57-1.92   c2.79,0,3.9,2.22,3.9,5.49v9.42h-3.93v-9.18c0-1.26-0.3-2.43-1.44-2.43c-0.66,0-1.2,0.45-1.47,1.32c-0.12,0.3-0.21,0.78-0.21,1.35   v8.94h-3.93V233.25z" class="st3"/><path data-cppathid="10029" d="M197.34,228.84c-0.06,1.32-0.15,2.88-0.15,4.65v8.37c0,3.15-0.57,4.89-1.77,6.03   c-1.08,1.02-2.61,1.62-4.77,1.62c-1.35,0-2.61-0.24-3.66-0.69l0.72-3.03c0.75,0.33,1.68,0.63,2.82,0.63c1.98,0,2.76-1.32,2.76-3.57   v-0.9h-0.06c-0.51,0.93-1.53,1.47-2.64,1.47c-3.3,0-4.59-3.6-4.59-7.11c0-4.89,2.22-7.71,4.95-7.71c1.17,0,2.13,0.6,2.7,1.71h0.06   l0.21-1.47H197.34z M193.29,234.18c0-0.39-0.06-0.78-0.15-1.08c-0.18-0.63-0.6-1.2-1.26-1.2c-1.41,0-1.98,1.92-1.98,4.32   c0,2.73,0.78,4.11,1.89,4.11c0.51,0,1.02-0.27,1.32-1.05c0.12-0.33,0.18-0.78,0.18-1.17V234.18z" class="st3"/></g><path data-cppathid="10030" d="M166.31,14.74c77.74-0.01,140.77,63,140.79,140.74c0,20.43-4.44,40.62-13.02,59.16l8.84,5.1l-21.32,2.31  l-9.71-20.22l8.83,5.1c28.4-63.17,0.21-137.4-62.96-165.8c-16.17-7.27-33.71-11.03-51.44-11.03L166.31,14.74z" class="st2"/><path data-cppathid="10031" d="M282.34,235.47c-38.78,67.62-124.83,90.89-192.22,51.97c-17.82-10.29-33.18-24.38-44.99-41.26l-8.84,5.1  l8.69-19.66l22.34,1.74l-8.83,5.1c40.41,56.47,118.77,69.37,175.02,28.79c14.51-10.47,26.63-23.92,35.54-39.47L282.34,235.47z" class="st2"/></svg>