<?xml version="1.0" encoding="UTF-8"?>
<svg xmlns="http://www.w3.org/2000/svg" onmouseup="{ if(window.parent.document.onmouseup) window.parent.document.onmouseup(arguments[0]);}" xml:space="preserve" style="enable-background:new 0 0 300 300;" viewBox="0 0 300 300" y="0px" x="0px" id="Layer_1" version="1.1" xmlns:xlink="http://www.w3.org/1999/xlink"><style type="text/css">
	.st0{fill:#39B54A;}
	.st1{enable-background:new    ;}
	.st2{fill:#262626;}
</style><g><polygon data-cppathid="10000" points="24.05,148.5 55.01,139.65 26.39,124.99 58.5,122.27 33.34,102.39 65.38,105.9 44.62,81.55    75.35,91.17 59.8,63.3 88.04,78.64 78.3,48.32 102.96,68.8 99.4,37.18 119.54,62.02 122.3,30.32 137.15,58.57 146.12,28    155.09,58.57 169.93,30.32 172.69,62.02 192.82,37.18 189.27,68.8 213.93,48.32 204.19,78.64 232.43,63.3 216.89,91.17    247.61,81.55 226.86,105.9 258.89,102.39 233.72,122.27 265.83,124.99 237.22,139.65 268.18,148.5 237.22,157.36 265.83,172.02    233.72,174.74 258.89,194.62 226.86,191.11 247.61,215.45 216.89,205.84 232.43,233.71 204.19,218.37 213.93,248.69 189.27,228.21    192.82,259.83 172.69,234.98 169.93,266.69 155.09,238.44 146.12,269 137.15,238.44 122.3,266.69 119.54,234.98 99.4,259.83    102.96,228.21 78.3,248.69 88.04,218.37 59.8,233.71 75.35,205.84 44.62,215.45 65.38,191.11 33.34,194.62 58.5,174.74    26.39,172.02 55.01,157.36  " class="st0"/></g><g><polygon data-cppathid="10001" points="24.05,148.5 55.01,139.65 26.39,124.99 58.5,122.27 33.34,102.39 65.38,105.9 44.62,81.55    75.35,91.17 59.8,63.3 88.04,78.64 78.3,48.32 102.96,68.8 99.4,37.18 119.54,62.02 122.3,30.32 137.15,58.57 146.12,28    155.09,58.57 169.93,30.32 172.69,62.02 192.82,37.18 189.27,68.8 213.93,48.32 204.19,78.64 232.43,63.3 216.89,91.17    247.61,81.55 226.86,105.9 258.89,102.39 233.72,122.27 265.83,124.99 237.22,139.65 268.18,148.5 237.22,157.36 265.83,172.02    233.72,174.74 258.89,194.62 226.86,191.11 247.61,215.45 216.89,205.84 232.43,233.71 204.19,218.37 213.93,248.69 189.27,228.21    192.82,259.83 172.69,234.98 169.93,266.69 155.09,238.44 146.12,269 137.15,238.44 122.3,266.69 119.54,234.98 99.4,259.83    102.96,228.21 78.3,248.69 88.04,218.37 59.8,233.71 75.35,205.84 44.62,215.45 65.38,191.11 33.34,194.62 58.5,174.74    26.39,172.02 55.01,157.36  " class="st0"/></g><g><g><path data-cppathid="10002" d="M102.12,135.88l-2.44,8.05h-5.35l9.1-28.41h6.62l9.23,28.41h-5.56l-2.57-8.05H102.12z M110.26,131.97l-2.23-7    c-0.55-1.73-1.01-3.67-1.43-5.31h-0.08c-0.42,1.64-0.84,3.62-1.35,5.31l-2.19,7H110.26z"/><path data-cppathid="10003" d="M139.12,131.33h-10.7v8.34h11.97v4.26h-17.15v-28.41h16.52v4.26h-11.34v7.33h10.7V131.33z"/><path data-cppathid="10004" d="M144.93,115.91c2.28-0.38,5.18-0.59,8.26-0.59c5.31,0,8.98,1.1,11.59,3.29c2.74,2.23,4.43,5.61,4.43,10.45    c0,5.06-1.73,8.85-4.43,11.29c-2.82,2.57-7.33,3.88-12.85,3.88c-3.04,0-5.31-0.17-7-0.38V115.91z M150.12,139.97    c0.72,0.13,1.81,0.13,2.87,0.13c6.74,0.04,10.75-3.67,10.75-10.87c0.04-6.28-3.58-9.86-10.07-9.86c-1.64,0-2.82,0.13-3.54,0.29    V139.97z"/><path data-cppathid="10005" d="M196.47,142.63c-1.81,0.67-5.35,1.6-9.14,1.6c-4.8,0-8.43-1.22-11.13-3.79c-2.53-2.4-4-6.15-3.96-10.45    c0-8.98,6.41-14.75,15.8-14.75c3.5,0,6.24,0.72,7.54,1.35l-1.14,4.17c-1.56-0.67-3.46-1.22-6.45-1.22    c-6.07,0-10.33,3.58-10.33,10.2c0,6.45,3.96,10.28,9.86,10.28c1.85,0,3.25-0.25,3.92-0.59v-7.08h-5.02v-4.09h10.03V142.63z"/></g><g class="st1"><path data-cppathid="10006" d="M82.81,160.64c1.33-0.29,3.12-0.47,4.92-0.47c2.8,0,4.99,0.4,6.57,1.87c1.44,1.26,2.08,3.27,2.08,5.31    c0,2.62-0.79,4.45-2.05,5.81c-1.51,1.58-3.95,2.3-5.89,2.3c-0.32,0-0.65,0-0.93,0v9.01h-4.7V160.64z M87.51,171.62    c0.22,0.07,0.47,0.07,0.75,0.07c2.37,0,3.45-1.69,3.45-3.95c0-2.12-0.86-3.77-3.05-3.77c-0.43,0-0.86,0.07-1.15,0.18V171.62z" class="st2"/><path data-cppathid="10007" d="M110.73,166.92c-0.07,1.58-0.18,3.45-0.18,5.56v10.01c0,3.77-0.68,5.85-2.12,7.21    c-1.29,1.22-3.12,1.94-5.71,1.94c-1.61,0-3.12-0.29-4.38-0.83l0.86-3.62c0.9,0.39,2.01,0.75,3.37,0.75c2.37,0,3.3-1.58,3.3-4.27    v-1.08h-0.07c-0.61,1.11-1.83,1.76-3.16,1.76c-3.95,0-5.49-4.31-5.49-8.51c0-5.85,2.66-9.22,5.92-9.22c1.4,0,2.55,0.72,3.23,2.05    h0.07l0.25-1.76H110.73z M105.89,173.31c0-0.47-0.07-0.93-0.18-1.29c-0.22-0.75-0.72-1.44-1.51-1.44c-1.69,0-2.37,2.3-2.37,5.17    c0,3.27,0.93,4.92,2.26,4.92c0.61,0,1.22-0.32,1.58-1.26c0.14-0.39,0.22-0.93,0.22-1.4V173.31z" class="st2"/><path data-cppathid="10008" d="M113.39,181.64c0-1.79,1.33-3.12,2.76-3.12c1.51,0,2.73,1.18,2.73,3.12c0,1.9-1.11,3.12-2.76,3.12    C114.65,184.76,113.39,183.54,113.39,181.64z" class="st2"/><path data-cppathid="10009" d="M139.84,161.14v3.09l-7.32,20.24h-4.59l7.18-19.13v-0.07h-7.97v-4.13H139.84z" class="st2"/><path data-cppathid="10010" d="M142.58,180.02c0.93,0.54,2.23,0.9,3.48,0.9c2.26,0,3.52-1.4,3.52-3.37c0-2.58-1.97-3.7-4.38-3.7h-0.65v-3.45    h0.47c1.72-0.04,3.95-0.75,3.95-3.01c0-1.69-1.08-2.69-2.73-2.69c-1.04,0-2.08,0.39-2.94,0.93l-0.61-3.55    c0.97-0.61,2.87-1.22,4.81-1.22c4.09,0,6.14,2.66,6.14,5.63c0,2.33-1.29,4.27-3.34,5.24v0.07c2.26,0.75,3.98,2.76,3.98,5.92    c0,3.55-2.73,7.03-7.79,7.03c-1.9,0-3.55-0.47-4.59-1.04L142.58,180.02z" class="st2"/><path data-cppathid="10011" d="M164.54,172.88v3.37h-7.14v-3.37H164.54z" class="st2"/><path data-cppathid="10012" d="M172.04,165.56h-0.07l-3.95,2.04l-0.79-3.7l5.35-2.76h4.13v23.33h-4.67V165.56z" class="st2"/><path data-cppathid="10013" d="M182.45,180.02c0.93,0.54,2.23,0.9,3.48,0.9c2.26,0,3.52-1.4,3.52-3.37c0-2.58-1.97-3.7-4.38-3.7h-0.65v-3.45    h0.47c1.72-0.04,3.95-0.75,3.95-3.01c0-1.69-1.08-2.69-2.73-2.69c-1.04,0-2.08,0.39-2.94,0.93l-0.61-3.55    c0.97-0.61,2.87-1.22,4.81-1.22c4.09,0,6.14,2.66,6.14,5.63c0,2.33-1.29,4.27-3.34,5.24v0.07c2.26,0.75,3.98,2.76,3.98,5.92    c0,3.55-2.73,7.03-7.79,7.03c-1.9,0-3.55-0.47-4.59-1.04L182.45,180.02z" class="st2"/><path data-cppathid="10014" d="M210.31,161.14v3.09l-7.32,20.24h-4.59l7.18-19.13v-0.07h-7.97v-4.13H210.31z" class="st2"/></g></g></svg>