<?xml version="1.0" encoding="UTF-8"?>
<svg xmlns="http://www.w3.org/2000/svg" onmouseup="{ if(window.parent.document.onmouseup) window.parent.document.onmouseup(arguments[0]);}" xml:space="preserve" style="enable-background:new 0 0 300 300;" viewBox="0 0 300 300" y="0px" x="0px" id="Layer_1" version="1.1" xmlns:xlink="http://www.w3.org/1999/xlink"><style type="text/css">
	.st0{fill:#39B54A;}
</style><path data-cppathid="10000" d="M182.23,141.37l44.74,26.17l-90.81,51.73l-11.56-20.28l16.69-16.69c2.18,3.17,6.47,4.24,9.87,2.3l23.87-13.6  c3.59-2.04,3.61-5.42,0.04-7.5l-9.45-5.53L182.23,141.37z M224.28,89.81c-1.97,1.97-16.78,16.78-16.78,16.78s0,0,0,0l-95.42,95.42  l-42.69,19.75l19.75-42.69l15.36-15.36L46.56,62l100.73,58.93l37.28-37.28c0,0,14.81-14.81,16.78-16.78  c2.43-2.43,3.41-2.99,5.91-1.29c3.48,2.37,6.85,5.13,10.02,8.3c3.17,3.17,5.93,6.53,8.3,10.02  C227.27,86.39,226.71,87.38,224.28,89.81z M121.15,147.06l9.54-9.54l-15.98-9.35c-3.56-2.08-4.8-0.85-2.76,2.73L121.15,147.06z   M100,191.15c-2.99-2.99-6.29-5.57-9.72-7.9c-1.65,3.55-8.13,17.57-12.65,27.33c0.5,0.47,1.01,0.94,1.5,1.43  C86,205.15,94.85,196.3,100,191.15L100,191.15z M184.14,105.98c-2.44-2.44-6.4-2.44-8.84,0l-7.38,7.38c-2.44,2.44-2.44,6.4,0,8.84  c2.44,2.44,6.4,2.44,8.84,0l7.38-7.38C186.59,112.38,186.59,108.42,184.14,105.98z M215.04,95.1l-18.99-18.99l-5.26,5.26  l18.99,18.99C211.72,98.42,213.49,96.65,215.04,95.1z" class="st0"/></svg>