<?xml version="1.0" encoding="UTF-8"?>
<svg xmlns="http://www.w3.org/2000/svg" onmouseup="{ if(window.parent.document.onmouseup) window.parent.document.onmouseup(arguments[0]);}" xml:space="preserve" style="enable-background:new 0 0 300 300;" viewBox="0 0 300 300" y="0px" x="0px" id="Layer_1" version="1.1" xmlns:xlink="http://www.w3.org/1999/xlink"><style type="text/css">
	.st0{fill:#39B54A;}
</style><g><path data-cppathid="10000" d="M175.68,72.4c-9.29-9.28-21.62-14.4-34.71-14.4c-13.1,0-25.42,5.11-34.71,14.4   c-9.28,9.28-14.4,21.61-14.4,34.7c0,8.49,2.22,16.88,6.44,24.24c3.18,5.57,12.16,24.95,15.16,31.44   c0.36,0.79,2.92,15.72,2.92,17.38c0,1.66-0.52,2.2-0.71,2.6c-0.52,1.04-0.73,2.25-0.5,3.48c0.17,0.98,1.23,2.62,1.23,4.27   c0,1.65-1.5,4.98-1.23,6.46c0.18,0.99,1.23,3.02,1.23,4.29c0,1.27-1.5,5.13-1.23,6.6c0.34,1.88,1.58,3.37,3.21,4.09   c0.73,0.33,4.65,2.65,6.01,3.49c1.15,0.71,2.39,1.31,3.71,1.77c1.09,0.38,1.44,0.83,2.1,2.25c1.68,3.59,5.81,6.14,10.65,6.14   c4.82,0,8.92-2.51,10.62-6.07c0.45-0.93,1.55-2.11,2.26-2.36c1.17-0.42,2.28-0.96,3.32-1.58c0.37-0.22,1.17-0.7,2.22-0.97   c1.05-0.26,2.92-0.68,2.92-0.68c1.32-0.24,2.59-1.07,3.44-2.3c0.85-1.23,1.17-2.73,0.9-4.2c-0.21-1.14-1.29-3.12-1.29-4.89   c0-1.77,1.36-3.8,1.38-4.9c0-0.37-0.03-0.74-0.09-1.11c-0.18-0.99-1.23-3.04-1.23-4.44c0-1.4,0.97-3.36,1.13-3.98   c0.21-0.8,0.25-1.64,0.1-2.48c-0.18-0.99-1.23-3.48-1.23-5.51c0-2.56,2.71-16.46,3.04-17.18c2.93-6.34,12.03-25.95,15.27-31.58   c4.22-7.36,6.45-15.76,6.45-24.28C190.07,94.01,184.96,81.69,175.68,72.4z M147.74,219.38c-1.44,1.74-3.91,2.89-6.76,2.89   c-2.82,0-5.27-1.14-6.72-2.85c-0.3-0.36,0.07-1.09,0.49-1.09h12.45C147.64,218.33,148.03,219.04,147.74,219.38z M161.59,210.7   l-18.48,4.31c-1.24,0.23-2.42-0.6-2.65-1.84c-0.23-1.25,0.59-2.44,1.83-2.66l18.48-4.31c1.24-0.23,2.42,0.6,2.65,1.84   S162.83,210.48,161.59,210.7z M161.59,199.81l-40.37,9.29c-1.24,0.23-2.42-0.59-2.65-1.84c-0.22-1.24,0.59-2.44,1.84-2.66   l40.36-9.29c1.24-0.22,2.43,0.6,2.65,1.84C163.65,198.39,162.83,199.58,161.59,199.81z M161.59,188.91l-40.37,9.29   c-1.24,0.22-2.42-0.6-2.65-1.84c-0.22-1.25,0.59-2.44,1.84-2.66l40.36-9.29c1.24-0.23,2.43,0.59,2.65,1.84   C163.65,187.49,162.83,188.68,161.59,188.91z M118.57,185.63c-0.22-1.24,0.59-2.44,1.84-2.66l17.6-4.22   c1.24-0.23,2.42,0.59,2.65,1.84c0.23,1.24-0.6,2.44-1.83,2.66l-17.6,4.21C119.99,187.7,118.8,186.87,118.57,185.63z M179.96,129.36   c-3.02,5.26-10.99,22.31-14.75,30.45c-0.84,1.8-1.89,2.86-4.26,3.15c-6.34,0.76-13.04,1.18-19.98,1.18   c-7.14,0-14.03-0.44-20.53-1.24c-2.19-0.27-3.08-1.62-3.88-3.36c-4.45-9.62-11.73-25.19-14.61-30.22   c-3.85-6.73-5.88-14.38-5.88-22.15c0-11.97,4.68-23.24,13.17-31.72c8.5-8.49,19.76-13.17,31.73-13.17   c11.97,0,23.24,4.68,31.73,13.17c8.49,8.49,13.16,19.75,13.16,31.72C185.86,114.95,183.82,122.62,179.96,129.36z" class="st0"/></g></svg>