<?xml version="1.0" encoding="UTF-8"?>
<svg xmlns="http://www.w3.org/2000/svg" onmouseup="{ if(window.parent.document.onmouseup) window.parent.document.onmouseup(arguments[0]);}" xml:space="preserve" style="enable-background:new 0 0 300 300;" viewBox="0 0 300 300" y="0px" x="0px" id="Layer_1" version="1.1" xmlns:xlink="http://www.w3.org/1999/xlink"><style type="text/css">
	.st0{fill:#39B54A;}
	.st1{font-family:'MyriadPro-Semibold';}
	.st2{font-size:49.4384px;}
	.st3{fill:#262626;}
	.st4{font-family:'MyriadPro-BoldCond';}
	.st5{font-size:42.1142px;}
</style><g><polygon data-cppathid="10000" points="8.57,151.38 44.9,140.99 11.33,123.8 49,120.6 19.48,97.28 57.06,101.39 32.71,72.83 68.76,84.12    50.52,51.41 83.65,69.42 72.23,33.83 101.16,57.87 96.98,20.77 120.61,49.92 123.85,12.72 141.27,45.86 151.79,10 162.32,45.86    179.73,12.72 182.97,49.92 206.59,20.77 202.43,57.87 231.36,33.83 219.93,69.42 253.06,51.41 234.82,84.12 270.86,72.83    246.52,101.39 284.1,97.28 254.57,120.6 292.25,123.8 258.68,140.99 295,151.38 258.68,161.77 292.25,178.97 254.57,182.16    284.1,205.48 246.52,201.37 270.86,229.92 234.82,218.64 253.06,251.35 219.93,233.35 231.36,268.93 202.43,244.89 206.59,282    182.97,252.84 179.73,290.04 162.32,256.9 151.79,292.75 141.27,256.9 123.85,290.04 120.61,252.84 96.98,282 101.16,244.89    72.23,268.93 83.65,233.35 50.52,251.35 68.76,218.64 32.71,229.92 57.06,201.37 19.48,205.48 49,182.16 11.33,178.97 44.9,161.77     " class="st0"/></g><g><polygon data-cppathid="10001" points="8.57,151.38 44.9,140.99 11.33,123.8 49,120.6 19.48,97.28 57.06,101.39 32.71,72.83 68.76,84.12    50.52,51.41 83.65,69.42 72.23,33.83 101.16,57.87 96.98,20.77 120.61,49.92 123.85,12.72 141.27,45.86 151.79,10 162.32,45.86    179.73,12.72 182.97,49.92 206.59,20.77 202.43,57.87 231.36,33.83 219.93,69.42 253.06,51.41 234.82,84.12 270.86,72.83    246.52,101.39 284.1,97.28 254.57,120.6 292.25,123.8 258.68,140.99 295,151.38 258.68,161.77 292.25,178.97 254.57,182.16    284.1,205.48 246.52,201.37 270.86,229.92 234.82,218.64 253.06,251.35 219.93,233.35 231.36,268.93 202.43,244.89 206.59,282    182.97,252.84 179.73,290.04 162.32,256.9 151.79,292.75 141.27,256.9 123.85,290.04 120.61,252.84 96.98,282 101.16,244.89    72.23,268.93 83.65,233.35 50.52,251.35 68.76,218.64 32.71,229.92 57.06,201.37 19.48,205.48 49,182.16 11.33,178.97 44.9,161.77     " class="st0"/></g><g><text data-cppathid="10002" class="st1 st2" transform="matrix(1 0 0 1 89.9888 146.0186)">AEDG</text><text data-cppathid="10003" class="st3 st4 st5" transform="matrix(1 0 0 1 97.5874 193.5791)">Pg. 134</text></g></svg>