<?xml version="1.0" encoding="UTF-8"?>
<svg xmlns="http://www.w3.org/2000/svg" onmouseup="{ if(window.parent.document.onmouseup) window.parent.document.onmouseup(arguments[0]);}" xml:space="preserve" style="enable-background:new 0 0 300 300;" viewBox="0 0 300 300" y="0px" x="0px" id="Layer_1" version="1.1" xmlns:xlink="http://www.w3.org/1999/xlink"><style type="text/css">
	.st0{fill:#39B54A;}
	.st1{enable-background:new    ;}
	.st2{fill:#262626;}
</style><g><polygon data-cppathid="10000" points="8.6,151.4 44.9,141 11.3,123.8 49,120.6 19.5,97.3 57.1,101.4 32.7,72.8 68.8,84.1 50.5,51.4    83.7,69.4 72.2,33.8 101.2,57.9 97,20.8 120.6,49.9 123.8,12.7 141.3,45.9 151.8,10 162.3,45.9 179.7,12.7 183,49.9 206.6,20.8    202.4,57.9 231.4,33.8 219.9,69.4 253.1,51.4 234.8,84.1 270.9,72.8 246.5,101.4 284.1,97.3 254.6,120.6 292.2,123.8 258.7,141    295,151.4 258.7,161.8 292.2,179 254.6,182.2 284.1,205.5 246.5,201.4 270.9,229.9 234.8,218.6 253.1,251.4 219.9,233.4    231.4,268.9 202.4,244.9 206.6,282 183,252.8 179.7,290 162.3,256.9 151.8,292.8 141.3,256.9 123.8,290 120.6,252.8 97,282    101.2,244.9 72.2,268.9 83.7,233.4 50.5,251.4 68.8,218.6 32.7,229.9 57.1,201.4 19.5,205.5 49,182.2 11.3,179 44.9,161.8  " class="st0"/></g><g><polygon data-cppathid="10001" points="8.6,151.4 44.9,141 11.3,123.8 49,120.6 19.5,97.3 57.1,101.4 32.7,72.8 68.8,84.1 50.5,51.4    83.7,69.4 72.2,33.8 101.2,57.9 97,20.8 120.6,49.9 123.8,12.7 141.3,45.9 151.8,10 162.3,45.9 179.7,12.7 183,49.9 206.6,20.8    202.4,57.9 231.4,33.8 219.9,69.4 253.1,51.4 234.8,84.1 270.9,72.8 246.5,101.4 284.1,97.3 254.6,120.6 292.2,123.8 258.7,141    295,151.4 258.7,161.8 292.2,179 254.6,182.2 284.1,205.5 246.5,201.4 270.9,229.9 234.8,218.6 253.1,251.4 219.9,233.4    231.4,268.9 202.4,244.9 206.6,282 183,252.8 179.7,290 162.3,256.9 151.8,292.8 141.3,256.9 123.8,290 120.6,252.8 97,282    101.2,244.9 72.2,268.9 83.7,233.4 50.5,251.4 68.8,218.6 32.7,229.9 57.1,201.4 19.5,205.5 49,182.2 11.3,179 44.9,161.8  " class="st0"/></g><g><g class="st1"><path data-cppathid="10002" d="M100.2,136.6l-2.9,9.4H91l10.7-33.3h7.8l10.8,33.3h-6.5l-3-9.4H100.2z M109.7,132l-2.6-8.2c-0.6-2-1.2-4.3-1.7-6.2h-0.1    c-0.5,1.9-1,4.3-1.6,6.2l-2.6,8.2H109.7z"/><path data-cppathid="10003" d="M143.6,131.2H131v9.8h14v5h-20.1v-33.3h19.4v5H131v8.6h12.6V131.2z"/><path data-cppathid="10004" d="M150.4,113.1c2.7-0.4,6.1-0.7,9.7-0.7c6.2,0,10.5,1.3,13.6,3.9c3.2,2.6,5.2,6.6,5.2,12.3c0,5.9-2,10.4-5.2,13.2    c-3.3,3-8.6,4.5-15.1,4.5c-3.6,0-6.2-0.2-8.2-0.4V113.1z M156.5,141.4c0.8,0.1,2.1,0.1,3.4,0.1c7.9,0,12.6-4.3,12.6-12.8    c0-7.4-4.2-11.6-11.8-11.6c-1.9,0-3.3,0.1-4.2,0.3V141.4z"/><path data-cppathid="10005" d="M210.9,144.5c-2.1,0.8-6.3,1.9-10.7,1.9c-5.6,0-9.9-1.4-13.1-4.4c-3-2.8-4.7-7.2-4.6-12.3c0-10.5,7.5-17.3,18.5-17.3    c4.1,0,7.3,0.8,8.8,1.6l-1.3,4.9c-1.8-0.8-4.1-1.4-7.6-1.4c-7.1,0-12.1,4.2-12.1,12c0,7.6,4.6,12.1,11.6,12.1    c2.2,0,3.8-0.3,4.6-0.7v-8.3h-5.9v-4.8h11.8V144.5z"/></g><g class="st1"><path data-cppathid="10006" d="M100,165.6c1.6-0.3,3.7-0.5,5.8-0.5c3.3,0,5.9,0.5,7.7,2.2c1.7,1.5,2.4,3.8,2.4,6.2c0,3.1-0.9,5.2-2.4,6.8    c-1.8,1.9-4.6,2.7-6.9,2.7c-0.4,0-0.8,0-1.1,0v10.6H100V165.6z M105.5,178.5c0.3,0.1,0.5,0.1,0.9,0.1c2.8,0,4-2,4-4.6    c0-2.5-1-4.4-3.6-4.4c-0.5,0-1,0.1-1.3,0.2V178.5z" class="st2"/><path data-cppathid="10007" d="M132.8,173c-0.1,1.9-0.2,4-0.2,6.5v11.8c0,4.4-0.8,6.9-2.5,8.5c-1.5,1.4-3.7,2.3-6.7,2.3    c-1.9,0-3.7-0.3-5.1-1l1-4.3c1.1,0.5,2.4,0.9,4,0.9c2.8,0,3.9-1.9,3.9-5v-1.3H127c-0.7,1.3-2.1,2.1-3.7,2.1c-4.6,0-6.4-5.1-6.4-10    c0-6.9,3.1-10.8,6.9-10.8c1.6,0,3,0.8,3.8,2.4h0.1l0.3-2.1H132.8z M127.1,180.5c0-0.5-0.1-1.1-0.2-1.5c-0.3-0.9-0.8-1.7-1.8-1.7    c-2,0-2.8,2.7-2.8,6.1c0,3.8,1.1,5.8,2.7,5.8c0.7,0,1.4-0.4,1.9-1.5c0.2-0.5,0.3-1.1,0.3-1.6V180.5z" class="st2"/><path data-cppathid="10008" d="M135.9,190.3c0-2.1,1.6-3.7,3.2-3.7c1.8,0,3.2,1.4,3.2,3.7c0,2.2-1.3,3.7-3.2,3.7    C137.4,193.9,135.9,192.5,135.9,190.3z" class="st2"/><path data-cppathid="10009" d="M157.9,171.4L157.9,171.4l-4.7,2.4l-0.9-4.3l6.3-3.2h4.8v27.4h-5.5V171.4z" class="st2"/><path data-cppathid="10010" d="M170.1,188.4c1.1,0.6,2.6,1.1,4.1,1.1c2.7,0,4.1-1.6,4.1-4c0-3-2.3-4.3-5.1-4.3h-0.8v-4h0.5    c2,0,4.6-0.9,4.6-3.5c0-2-1.3-3.2-3.2-3.2c-1.2,0-2.4,0.5-3.5,1.1l-0.7-4.2c1.1-0.7,3.4-1.4,5.6-1.4c4.8,0,7.2,3.1,7.2,6.6    c0,2.7-1.5,5-3.9,6.1v0.1c2.7,0.9,4.7,3.2,4.7,6.9c0,4.2-3.2,8.3-9.1,8.3c-2.2,0-4.2-0.5-5.4-1.2L170.1,188.4z" class="st2"/><path data-cppathid="10011" d="M196.1,193.6v-6.5h-9.4v-3.8l9-17.1h5.3v16.4h2.7v4.4H201v6.5H196.1z M196.1,182.6V177c0-1.5,0.2-3.1,0.3-4.5    h-0.2c-0.6,1.5-1.2,2.7-1.9,4.3l-2.9,5.8v0.1H196.1z" class="st2"/></g></g></svg>