<?xml version="1.0" encoding="UTF-8"?>
<svg xmlns="http://www.w3.org/2000/svg" onmouseup="{ if(window.parent.document.onmouseup) window.parent.document.onmouseup(arguments[0]);}" xml:space="preserve" style="enable-background:new 0 0 169.4 169.4;" viewBox="0 0 169.4 169.4" y="0px" x="0px" version="1.1" xmlns:xlink="http://www.w3.org/1999/xlink"><style type="text/css">
	.st0{fill:#39B54A;}
	.st1{enable-background:new    ;}
	.st2{fill:#262626;}
	.st3{display:none;}
	.st4{display:inline;}
	.st5{font-family:'ChaparralPro-Semibold';}
	.st6{font-size:27px;}
	.st7{fill:none;}
	.st8{font-family:'MyriadPro-BoldCond';}
	.st9{font-size:23px;}
</style><g id="Layer_1"><g><polygon data-cppathid="10000" points="6.5,84.7 26.3,79 8,69.6 28.6,67.9 12.4,55.2 33,57.4 19.7,41.8 39.4,48 29.4,30.1 47.5,39.9     41.2,20.5 57,33.6 54.8,13.4 67.7,29.3 69.4,9 79,27.1 84.7,7.5 90.4,27.1 100,9 101.7,29.3 114.6,13.4 112.4,33.6 128.2,20.5     121.9,39.9 140,30.1 130,48 149.7,41.8 136.4,57.4 157,55.2 140.8,67.9 161.4,69.6 143.1,79 162.9,84.7 143.1,90.4 161.4,99.8     140.8,101.5 157,114.2 136.4,112 149.7,127.6 130,121.4 140,139.3 121.9,129.5 128.2,148.9 112.4,135.8 114.6,156 101.7,140.1     100,160.4 90.4,142.3 84.7,161.9 79,142.3 69.4,160.4 67.7,140.1 54.8,156 57,135.8 41.2,148.9 47.5,129.5 29.4,139.3 39.4,121.4     19.7,127.6 33,112 12.4,114.2 28.6,101.5 8,99.8 26.3,90.4   " class="st0"/></g></g><g id="Layer_1_copy_2"><g><polygon data-cppathid="10001" points="6.5,84.7 26.3,79 8,69.6 28.6,67.9 12.4,55.2 33,57.4 19.7,41.8 39.4,48 29.4,30.1 47.5,39.9     41.2,20.5 57,33.6 54.8,13.4 67.7,29.3 69.4,9 79,27.1 84.7,7.5 90.4,27.1 100,9 101.7,29.3 114.6,13.4 112.4,33.6 128.2,20.5     121.9,39.9 140,30.1 130,48 149.7,41.8 136.4,57.4 157,55.2 140.8,67.9 161.4,69.6 143.1,79 162.9,84.7 143.1,90.4 161.4,99.8     140.8,101.5 157,114.2 136.4,112 149.7,127.6 130,121.4 140,139.3 121.9,129.5 128.2,148.9 112.4,135.8 114.6,156 101.7,140.1     100,160.4 90.4,142.3 84.7,161.9 79,142.3 69.4,160.4 67.7,140.1 54.8,156 57,135.8 41.2,148.9 47.5,129.5 29.4,139.3 39.4,121.4     19.7,127.6 33,112 12.4,114.2 28.6,101.5 8,99.8 26.3,90.4   " class="st0"/></g><g><g><path data-cppathid="10002" d="M56.5,76.6l-1.6,5.2h-3.4l5.8-18.2h4.2l5.9,18.2h-3.6l-1.6-5.2H56.5z M61.7,74.1l-1.4-4.5c-0.4-1.1-0.6-2.3-0.9-3.4h-0.1     c-0.3,1.1-0.5,2.3-0.9,3.4L57,74.1H61.7z"/><path data-cppathid="10003" d="M80.2,73.7h-6.9V79H81v2.7H70V63.6h10.6v2.7h-7.3V71h6.9V73.7z"/><path data-cppathid="10004" d="M83.9,63.8c1.5-0.2,3.3-0.4,5.3-0.4c3.4,0,5.7,0.7,7.4,2.1c1.8,1.4,2.8,3.6,2.8,6.7c0,3.2-1.1,5.7-2.8,7.2     C94.8,81.1,92,82,88.4,82c-1.9,0-3.4-0.1-4.5-0.2V63.8z M87.3,79.2c0.5,0.1,1.2,0.1,1.8,0.1c4.3,0,6.9-2.3,6.9-7     c0-4-2.3-6.3-6.5-6.3c-1.1,0-1.8,0.1-2.3,0.2V79.2z"/><path data-cppathid="10005" d="M117,80.9c-1.2,0.4-3.4,1-5.9,1c-3.1,0-5.4-0.8-7.1-2.4c-1.6-1.5-2.6-3.9-2.5-6.7c0-5.8,4.1-9.4,10.1-9.4     c2.2,0,4,0.5,4.8,0.9l-0.7,2.7c-1-0.4-2.2-0.8-4.1-0.8c-3.9,0-6.6,2.3-6.6,6.5c0,4.1,2.5,6.6,6.3,6.6c1.2,0,2.1-0.2,2.5-0.4v-4.5     h-3.2v-2.6h6.4V80.9z"/></g><g class="st1"><path data-cppathid="10006" d="M61.8,92.5c0.9-0.2,2-0.3,3.2-0.3c1.8,0,3.2,0.3,4.2,1.2c0.9,0.8,1.3,2.1,1.3,3.4c0,1.7-0.5,2.9-1.3,3.7     c-1,1-2.5,1.5-3.8,1.5c-0.2,0-0.4,0-0.6,0v5.8h-3V92.5z M64.8,99.5c0.1,0,0.3,0,0.5,0c1.5,0,2.2-1.1,2.2-2.5c0-1.4-0.6-2.4-2-2.4     c-0.3,0-0.6,0-0.7,0.1V99.5z" class="st2"/><path data-cppathid="10007" d="M79.7,96.5c0,1-0.1,2.2-0.1,3.6v6.4c0,2.4-0.4,3.7-1.4,4.6c-0.8,0.8-2,1.2-3.7,1.2c-1,0-2-0.2-2.8-0.5     l0.6-2.3c0.6,0.3,1.3,0.5,2.2,0.5c1.5,0,2.1-1,2.1-2.7v-0.7h0c-0.4,0.7-1.2,1.1-2,1.1c-2.5,0-3.5-2.8-3.5-5.4     c0-3.7,1.7-5.9,3.8-5.9c0.9,0,1.6,0.5,2.1,1.3h0l0.2-1.1H79.7z M76.6,100.6c0-0.3,0-0.6-0.1-0.8c-0.1-0.5-0.5-0.9-1-0.9     c-1.1,0-1.5,1.5-1.5,3.3c0,2.1,0.6,3.2,1.4,3.2c0.4,0,0.8-0.2,1-0.8c0.1-0.3,0.1-0.6,0.1-0.9V100.6z" class="st2"/><path data-cppathid="10008" d="M81.4,105.9c0-1.2,0.9-2,1.8-2c1,0,1.7,0.8,1.7,2c0,1.2-0.7,2-1.8,2C82.2,107.9,81.4,107.1,81.4,105.9z" class="st2"/><path data-cppathid="10009" d="M97.5,95.1c-0.4,0-0.8,0.1-1.2,0.2c-2,0.4-3,2.1-3.3,4H93c0.5-0.7,1.3-1.2,2.3-1.2c2,0,3.4,1.8,3.4,4.6     c0,2.6-1.3,5.3-4.3,5.3c-2.8,0-4.6-2.5-4.6-6.2c0-3.3,1.1-5.5,2.5-7c1-1.1,2.4-1.8,3.7-2c0.7-0.1,1.2-0.1,1.5-0.2V95.1z      M95.7,102.6c0-1.3-0.4-2.5-1.4-2.5c-0.5,0-0.9,0.3-1.2,1c-0.1,0.2-0.2,0.6-0.2,1.3c0,2,0.6,3.3,1.4,3.3     C95.4,105.7,95.7,104.4,95.7,102.6z" class="st2"/><path data-cppathid="10010" d="M99.6,103.9c0-1.9,1-3.2,2.3-4v0c-1.3-0.8-1.8-2.1-1.8-3.3c0-2.4,1.9-3.9,4.2-3.9c2.1,0,3.9,1.4,3.9,3.7     c0,1-0.4,2.3-2,3.3v0c1.4,0.8,2.3,2.1,2.3,3.9c0,2.8-2,4.4-4.5,4.4C101.4,107.9,99.6,106.3,99.6,103.9z M105.5,103.7     c0-1.4-0.9-2.3-1.7-2.8c-0.8,0.5-1.3,1.4-1.3,2.6c0,1.3,0.5,2.4,1.6,2.4C105,105.9,105.5,104.9,105.5,103.7z M102.8,96.5     c0,1.1,0.6,1.8,1.5,2.3c0.6-0.3,1-1.3,1-2.1c0-1-0.3-1.9-1.2-1.9C103.2,94.6,102.8,95.5,102.8,96.5z" class="st2"/></g></g></g><g class="st3" id="Layer_1_copy"><g class="st4"><polygon data-cppathid="10011" points="6.5,84.7 26.3,79 8,69.6 28.6,67.9 12.4,55.2 33,57.4 19.7,41.8 39.4,48 29.4,30.1 47.5,39.9     41.2,20.5 57,33.6 54.8,13.4 67.7,29.3 69.4,9 79,27.1 84.7,7.5 90.4,27.1 100,9 101.7,29.3 114.6,13.4 112.4,33.6 128.2,20.5     121.9,39.9 140,30.1 130,48 149.7,41.8 136.4,57.4 157,55.2 140.8,67.9 161.4,69.6 143.1,79 162.9,84.7 143.1,90.4 161.4,99.8     140.8,101.5 157,114.2 136.4,112 149.7,127.6 130,121.4 140,139.3 121.9,129.5 128.2,148.9 112.4,135.8 114.6,156 101.7,140.1     100,160.4 90.4,142.3 84.7,161.9 79,142.3 69.4,160.4 67.7,140.1 54.8,156 57,135.8 41.2,148.9 47.5,129.5 29.4,139.3 39.4,121.4     19.7,127.6 33,112 12.4,114.2 28.6,101.5 8,99.8 26.3,90.4   " class="st0"/></g><g class="st4"><text data-cppathid="10012" class="st5 st6" transform="matrix(1 0 0 1 50.0423 65.7722)">AEDG</text><rect data-cppathid="10013" height="50.3" width="74.9" class="st7" y="75.6" x="47.2"/><text data-cppathid="10014" class="st2 st8 st9" transform="matrix(1 0 0 1 52.7351 91.7468)">Pg. 1-7, </text><text data-cppathid="10015" class="st2 st8 st9" transform="matrix(1 0 0 1 76.2039 119.6403)">34</text></g></g></svg>