<?xml version="1.0" encoding="UTF-8"?>
<svg xmlns="http://www.w3.org/2000/svg" onmouseup="{ if(window.parent.document.onmouseup) window.parent.document.onmouseup(arguments[0]);}" xml:space="preserve" style="enable-background:new 0 0 300 300;" viewBox="0 0 300 300" y="0px" x="0px" id="Layer_1" version="1.1" xmlns:xlink="http://www.w3.org/1999/xlink"><style type="text/css">
	.st0{fill:#39B54A;}
</style><g><g><path data-cppathid="10000" d="M185.43,132.91c0,21.85-9.27,38.55-29.29,38.55c-21.28,0-29.17-18.88-29.17-38.32    c0-20.13,8.35-38.55,29.4-38.55C177.99,94.59,185.43,113.92,185.43,132.91z M147.56,133.03c-0.11,16.13,3.32,22.99,8.81,22.99    c5.26,0,8.46-6.98,8.46-22.99c0-15.67-3.09-22.88-8.46-22.88C151,110.15,147.56,116.9,147.56,133.03z" class="st0"/></g><path data-cppathid="10001" d="M104.75,165.64l-45.22,45.21c-7.12,7.12-7.12,18.68,0,25.8c3.57,3.58,8.24,5.35,12.9,5.35   c4.67,0,9.34-1.78,12.91-5.34l45.22-45.21L104.75,165.64z" class="st0"/><path data-cppathid="10002" d="M215.15,137.52h-4.96h4.53l-4.53-0.06v0.06h4.53l-4.53-0.06v0.07c0,14.87-6.01,28.29-15.76,38.04   c-9.75,9.74-23.17,15.75-38.04,15.75c-14.87,0-28.29-6.01-38.05-15.76c-9.74-9.75-15.76-23.17-15.76-38.05   c0-14.87,6.01-28.29,15.76-38.04c9.75-9.75,23.17-15.76,38.05-15.76c14.87,0,28.29,6.01,38.04,15.75   c9.74,9.75,15.76,23.17,15.76,38.04h4.41l-4.41-0.02v0.02h4.41l-4.41-0.02l0.01,0.36L215.15,137.52h-4.96H215.15l4.95-0.32   l-4.84,0.32l4.85-0.03l-0.01-0.29l-4.84,0.32l4.85-0.03l-4.67,0.03l4.67,0.02v-0.05l-4.67,0.03l4.67,0.02v-0.03   c0-35.2-28.54-63.72-63.73-63.72c-35.2,0-63.73,28.53-63.74,63.73c0,35.2,28.54,63.73,63.74,63.73c35.19,0,63.73-28.52,63.73-63.72   h-4.52l4.52,0.06v-0.06h-4.52l4.52,0.06v-0.07l-0.01-0.32L215.15,137.52L215.15,137.52z" class="st0"/></g></svg>