<?xml version="1.0" encoding="UTF-8"?>
<svg xmlns="http://www.w3.org/2000/svg" onmouseup="{ if(window.parent.document.onmouseup) window.parent.document.onmouseup(arguments[0]);}" xml:space="preserve" style="enable-background:new 0 0 300 300;" viewBox="0 0 300 300" y="0px" x="0px" id="Layer_1" version="1.1" xmlns:xlink="http://www.w3.org/1999/xlink"><style type="text/css">
	.st0{fill:#39B54A;}
</style><path data-cppathid="10000" d="M233.98,216.39v7.03H84.16v-7.03h4.91V83.96h8.61v-7.95h22.38v-15.7h9.22v-6.03h20.77V49h4.92v5.28h8.2V49h4.92  v5.28h20.77v6.03h9.22v15.7h22.37v7.95h8.62v132.43L233.98,216.39L233.98,216.39z M130.81,72.18v16.81h12.81V72.18H130.81z   M152.67,72.18v16.81h12.8V72.18H152.67z M174.52,72.18v16.81h12.8V72.18H174.52z M130.81,96.22v16.81h12.81V96.22H130.81z   M152.67,96.22v16.81h12.8V96.22H152.67z M174.52,96.22v16.81h12.8V96.22H174.52z M130.81,120.26v16.82h12.81v-16.82H130.81z   M152.67,120.26v16.82h12.8v-16.82H152.67z M174.52,120.26v16.82h12.8v-16.82H174.52z M130.81,144.3v16.81h12.81V144.3H130.81z   M152.67,144.3v16.81h12.8V144.3H152.67z M174.52,144.3v16.81h12.8V144.3H174.52z M130.81,168.34v16.81h12.81v-16.81H130.81z   M152.67,168.34v16.81h12.8v-16.81H152.67z M174.52,168.34v16.81h12.8v-16.81H174.52z M130.81,192.39v16.81h12.81v-16.81H130.81z   M152.67,192.39v16.81h12.8v-16.81H152.67z M174.52,192.39v16.81h12.8v-16.81H174.52z M100.92,96.22v16.81h12.8V96.22H100.92z   M204.42,96.22v16.81h12.8V96.22H204.42z M100.92,120.26v16.82h12.8v-16.82H100.92z M204.42,120.26v16.82h12.8v-16.82H204.42z   M100.92,144.3v16.81h12.8V144.3H100.92z M204.42,144.3v16.81h12.8V144.3H204.42z M100.92,168.34v16.81h12.8v-16.81H100.92z   M204.42,168.34v16.81h12.8v-16.81H204.42z M100.92,192.39v16.81h12.8v-16.81H100.92z M204.42,192.39v16.81h12.8v-16.81H204.42z" class="st0"/></svg>