<?xml version="1.0" encoding="UTF-8"?>
<svg xmlns="http://www.w3.org/2000/svg" onmouseup="{ if(window.parent.document.onmouseup) window.parent.document.onmouseup(arguments[0]);}" xml:space="preserve" style="enable-background:new 0 0 300 300;" viewBox="0 0 300 300" y="0px" x="0px" id="Layer_1" version="1.1" xmlns:xlink="http://www.w3.org/1999/xlink"><style type="text/css">
	.st0{fill:#39B54A;}
</style><path data-cppathid="10000" d="M219.2,136.36v49.12h-17.7v-49.12C201.5,124.56,219.2,124.56,219.2,136.36L219.2,136.36z M207.46,110.26  l-32.2,32.2l-14.08-14.08l-28.04,28.05l-14.36-14.36l-22.81,22.67l-0.09,26.8H219.2v17.7H95.88c-9.57,0-17.33-7.76-17.33-17.33V86  h17.68l-0.18,53.76l22.72-22.73l14.36,14.36l28.04-28.04l14.08,14.08l19.68-19.68L183.2,86h35.99v36L207.46,110.26L207.46,110.26z   M121.01,170.95v14.54h-17.7v-14.54C103.31,159.15,121.01,159.15,121.01,170.95L121.01,170.95z M145.56,178.9v6.59h-17.7v-6.59  C127.85,167.09,145.56,167.09,145.56,178.9L145.56,178.9z M170.1,151.78v33.7h-17.7v-33.7C152.41,139.98,170.1,139.98,170.1,151.78  L170.1,151.78z M194.65,159.73v25.75h-17.7v-25.75C176.95,147.93,194.65,147.93,194.65,159.73L194.65,159.73z" class="st0"/></svg>