<?xml version="1.0" encoding="UTF-8"?>
<svg xmlns="http://www.w3.org/2000/svg" onmouseup="{ if(window.parent.document.onmouseup) window.parent.document.onmouseup(arguments[0]);}" xml:space="preserve" style="enable-background:new 0 0 214 150;" viewBox="0 0 214 150" y="0px" x="0px" id="Layer_1" version="1.1" xmlns:xlink="http://www.w3.org/1999/xlink"><style type="text/css">
	.st0{fill:#1D75BC;}
	.st1{fill:#FFFFFF;stroke:#FFFFFF;stroke-width:1.9301;stroke-miterlimit:10;}
	.st2{fill:#28AAE2;}
	.st3{fill:none;}
</style><g><path data-cppathid="10000" d="M191.2,121.6l-175.1,0c0,0-2.6-43.6,26.2-70.1c36.9-34,94.8-36.2,131.4,9.4   C197.7,90.5,191.2,128.6,191.2,121.6z" class="st0"/><path data-cppathid="10001" d="M161.8,113.4h-103c0-26.4,23.1-47.9,51.5-47.9C138.8,65.6,161.8,87,161.8,113.4z" class="st1"/><path data-cppathid="10002" d="M179.3,120.6c0.5-6.7-0.1-13.6-2.1-20.4c-9-30.6-41.1-48.5-73-44.1c-36.7,5.2-50.9,37.7-48.8,64.5H32.3   c-2.1-34.9,20.6-67.9,56.4-78C130.3,31,173.6,54.4,185.5,95c2.5,8.6,3.4,17.2,2.9,25.6H179.3z" class="st2"/><path data-cppathid="10003" d="M191.2,121.6c0.2-2.5,0.3-5,0.3-7.6c0-48.5-39.3-87.7-87.7-87.7c-48.5,0-87.7,39.3-87.7,87.7   c0,2.6,0.1,5.1,0.3,7.6H191.2z" class="st3"/><g><g><polygon data-cppathid="10004" points="108.5,121.6 84.4,78.1 85.6,77 120.4,116.6    " class="st0"/><path data-cppathid="10005" d="M124.1,119.9c-1,5.7-6.8,9.5-13,8.6c-6.1-0.9-10.3-6.3-9.3-12c1-5.7,6.8-9.5,13-8.6     C121,108.9,125.1,114.3,124.1,119.9z" class="st0"/></g></g></g></svg>